<svg xmlns="http://www.w3.org/2000/svg" fill="none" viewBox="0 0 20 20"><path fill="url(#a)" d="M4 4a2 2 0 0 1 2-2h6a4 4 0 0 1 4 4v10a2 2 0 0 1-2 2H8a4 4 0 0 1-4-4V4z"/><path fill="url(#b)" d="M5 4a1 1 0 0 1 1-1h6a3 3 0 0 1 3 3v10a1 1 0 0 1-1 1H8a3 3 0 0 1-3-3V4z"/><path fill="url(#c)" d="M5 4a1 1 0 0 1 1-1h6a3 3 0 0 1 3 3v10a1 1 0 0 1-1 1H8a3 3 0 0 1-3-3V4z"/><path fill="url(#d)" d="M11.94 8h.442c.341 0 .618.277.618.618v3.557a.823.823 0 0 1-.823.824H7.823A.823.823 0 0 1 7 12.175v-.412l3.705-.823L11.941 8z"/><path fill="url(#e)" d="M12 7.618v-.004A.618.618 0 0 0 11.386 7h-.68v2.91a.24.24 0 0 1-.224.23 6.589 6.589 0 0 0-1.706.385c-.48.184-.97.455-1.364.855 0 0-.412.383-.412.795 0 .268.128.506.326.656.097-.07.222-.162.385-.26.463-.269 1.079-.453 1.704-.575.749-.147 1.54-.142 1.978-.162a.634.634 0 0 0 .607-.629V7.618z"/><path fill="url(#f)" d="M11 9.91c0 .343-.273.61-.597.64a5.502 5.502 0 0 0-1.48.36c-.561.215-1.43.799-1.865 1.569A.822.822 0 0 1 7 12.175V9.911c0-1.269.592-2.164 1.307-2.776a5.714 5.714 0 0 1 1.943-1.107c.393-.125.75.183.75.567V9.91z"/><defs><linearGradient id="a" x1="7.875" x2="10.709" y1="2" y2="17.941" gradientUnits="userSpaceOnUse"><stop stop-color="#BBB"/><stop offset="1" stop-color="#888"/></linearGradient><linearGradient id="b" x1="7.778" x2="10.221" y1="3" y2="16.961" gradientUnits="userSpaceOnUse"><stop stop-color="#fff"/><stop offset="1" stop-color="#EBEBEB"/></linearGradient><radialGradient id="c" cx="0" cy="0" r="1" gradientTransform="matrix(5.27778 11.0833 -7.91667 4.15625 8.194 6.646)" gradientUnits="userSpaceOnUse"><stop offset=".177" stop-color="#fff"/><stop offset="1" stop-color="#EFEFEF"/></radialGradient><linearGradient id="d" x1="11.248" x2="18.997" y1="10.734" y2="28.242" gradientUnits="userSpaceOnUse"><stop offset=".035" stop-color="#4022A0"/><stop offset=".169" stop-color="#C570FB"/></linearGradient><radialGradient id="e" cx="0" cy="0" r="1" gradientTransform="matrix(-5.5148 -5.24159 8.9258 -9.95717 12.515 12.476)" gradientUnits="userSpaceOnUse"><stop offset=".225" stop-color="#E331D8"/><stop offset=".688" stop-color="#AC3445"/></radialGradient><radialGradient id="f" cx="0" cy="0" r="1" gradientTransform="matrix(3.40914 6.55845 -5.04793 4.95617 7.572 4.644)" gradientUnits="userSpaceOnUse"><stop stop-color="#8C48FF"/><stop offset=".384" stop-color="#F2598A"/><stop offset=".853" stop-color="#FFB152"/></radialGradient></defs></svg>