<svg xmlns="http://www.w3.org/2000/svg" fill="none" viewBox="0 0 20 20"><path fill="url(#a)" d="M4 4a2 2 0 0 1 2-2h6a4 4 0 0 1 4 4v10a2 2 0 0 1-2 2H6a2 2 0 0 1-2-2V4z"/><path fill="url(#b)" fill-rule="evenodd" d="M6 3h6a3 3 0 0 1 3 3v7a1 1 0 0 1-1 1H6a1.99 1.99 0 0 0-1 .268V4a1 1 0 0 1 1-1zM5 16a1 1 0 0 0 1 1h8a1 1 0 0 0 1-1v-1.268A1.99 1.99 0 0 1 14 15H6a1 1 0 0 0-1 1z" clip-rule="evenodd"/><path fill="url(#c)" fill-rule="evenodd" d="M6 3h6a3 3 0 0 1 3 3v7a1 1 0 0 1-1 1H6a1.99 1.99 0 0 0-1 .268V4a1 1 0 0 1 1-1zM5 16a1 1 0 0 0 1 1h8a1 1 0 0 0 1-1v-1.268A1.99 1.99 0 0 1 14 15H6a1 1 0 0 0-1 1z" clip-rule="evenodd"/><path fill="url(#d)" d="M9.452 7.33 7.188 9.735A.75.75 0 0 0 7.734 11h4.528a.75.75 0 0 0 .546-1.264L10.544 7.33a.75.75 0 0 0-1.092 0z"/><path fill="url(#e)" d="M13 5a1 1 0 1 1-2 0 1 1 0 0 1 2 0z"/><defs><linearGradient id="a" x1="7.875" x2="10.709" y1="2" y2="17.941" gradientUnits="userSpaceOnUse"><stop stop-color="#BBB"/><stop offset="1" stop-color="#888"/></linearGradient><linearGradient id="b" x1="7.778" x2="10.221" y1="3" y2="16.961" gradientUnits="userSpaceOnUse"><stop stop-color="#fff"/><stop offset="1" stop-color="#EBEBEB"/></linearGradient><radialGradient id="c" cx="0" cy="0" r="1" gradientTransform="matrix(5.27778 11.0833 -7.91667 4.15625 8.194 6.646)" gradientUnits="userSpaceOnUse"><stop offset=".177" stop-color="#fff"/><stop offset="1" stop-color="#EFEFEF"/></radialGradient><linearGradient id="d" x1="7.999" x2="11.499" y1="5.249" y2="12.249" gradientUnits="userSpaceOnUse"><stop offset="0" stop-color="#597493"/><stop offset="1" stop-color="#0F2F56"/></linearGradient><linearGradient id="e" x1="11" x2="13.173" y1="2.75" y2="6.91" gradientUnits="userSpaceOnUse"><stop offset="0" stop-color="#597493"/><stop offset="1" stop-color="#0F2F56"/></linearGradient></defs></svg>