<svg xmlns="http://www.w3.org/2000/svg" fill="none" viewBox="0 0 20 20"><path fill="url(#a)" d="M3 5a2 2 0 0 1 2-2h8a4 4 0 0 1 4 4v8a2 2 0 0 1-2 2H7a4 4 0 0 1-4-4V5z"/><path fill="url(#b)" d="M4 5a1 1 0 0 1 1-1h8a3 3 0 0 1 3 3v8a1 1 0 0 1-1 1H7a3 3 0 0 1-3-3V5z"/><path fill="url(#c)" d="M4 5a1 1 0 0 1 1-1h8a3 3 0 0 1 3 3v8a1 1 0 0 1-1 1H7a3 3 0 0 1-3-3V5z"/><path fill="#7611F0" d="M6.086 8.525c.086.424.5.703.924.624L13.208 8a.84.84 0 0 0 .673-.996l-.057-.281a.874.874 0 0 0-1.013-.684L6.687 7.174a.84.84 0 0 0-.673.996l.072.355z"/><path fill="url(#d)" fill-opacity=".9" d="M6.086 8.525c.086.424.5.703.924.624L13.208 8a.84.84 0 0 0 .673-.996l-.057-.281a.874.874 0 0 0-1.013-.684L6.687 7.174a.84.84 0 0 0-.673.996l.072.355z"/><path fill="url(#e)" fill-opacity=".6" d="M6.086 8.525c.086.424.5.703.924.624L13.208 8a.84.84 0 0 0 .673-.996l-.057-.281a.874.874 0 0 0-1.013-.684L6.687 7.174a.84.84 0 0 0-.673.996l.072.355z"/><path fill="url(#f)" fill-opacity=".4" d="M6.086 8.525c.086.424.5.703.924.624L13.208 8a.84.84 0 0 0 .673-.996l-.057-.281a.874.874 0 0 0-1.013-.684L6.687 7.174a.84.84 0 0 0-.673.996l.072.355z"/><path fill="#7611F0" d="M5.998 12.859c0 .63.512 1.143 1.143 1.143h5.91a.952.952 0 0 0 .951-.953v-.021a.952.952 0 0 0-.952-.953H7.408a1.41 1.41 0 0 1-1.41-1.41v2.194z"/><path fill="#A966FF" fill-opacity=".2" d="M5.998 12.859c0 .63.512 1.143 1.143 1.143h5.91a.952.952 0 0 0 .951-.953v-.021a.952.952 0 0 0-.952-.953H7.408a1.41 1.41 0 0 1-1.41-1.41v2.194z"/><path fill="url(#g)" fill-opacity=".4" d="M5.998 12.859c0 .63.512 1.143 1.143 1.143h5.91a.952.952 0 0 0 .951-.953v-.021a.952.952 0 0 0-.952-.953H7.408a1.41 1.41 0 0 1-1.41-1.41v2.194z"/><path fill="url(#h)" fill-opacity=".15" d="M5.998 12.859c0 .63.512 1.143 1.143 1.143h5.91a.952.952 0 0 0 .951-.953v-.021a.952.952 0 0 0-.952-.953H7.408a1.41 1.41 0 0 1-1.41-1.41v2.194z"/><path fill="url(#i)" fill-opacity=".3" d="M5.998 12.859c0 .63.512 1.143 1.143 1.143h5.91a.952.952 0 0 0 .951-.953v-.021a.952.952 0 0 0-.952-.953H7.408a1.41 1.41 0 0 1-1.41-1.41v2.194z"/><path fill="url(#j)" fill-opacity=".2" d="M5.998 12.859c0 .63.512 1.143 1.143 1.143h5.91a.952.952 0 0 0 .951-.953v-.021a.952.952 0 0 0-.952-.953H7.408a1.41 1.41 0 0 1-1.41-1.41v2.194z"/><path fill="#BC7FFF" d="M5.998 9.89c0 .482.392.874.875.874h6.082c.579 0 1.047.47 1.047 1.048v.404-2.403a.952.952 0 0 0-.952-.952h-6.1a.952.952 0 0 1-.952-.952v-.384V9.89z"/><path fill="url(#k)" d="M5.998 9.89c0 .482.392.874.875.874h6.082c.579 0 1.047.47 1.047 1.048v.404-2.403a.952.952 0 0 0-.952-.952h-6.1a.952.952 0 0 1-.952-.952v-.384V9.89z"/><path fill="url(#l)" fill-opacity=".8" d="M5.998 9.89c0 .482.392.874.875.874h6.082c.579 0 1.047.47 1.047 1.048v.404-2.403a.952.952 0 0 0-.952-.952h-6.1a.952.952 0 0 1-.952-.952v-.384V9.89z"/><path fill="url(#m)" d="M5.998 9.89c0 .482.392.874.875.874h6.082c.579 0 1.047.47 1.047 1.048v.404-2.403a.952.952 0 0 0-.952-.952h-6.1a.952.952 0 0 1-.952-.952v-.384V9.89z"/><path fill="#974CFF" d="M5.998 11.224c0 .578.47 1.047 1.048 1.047h6.004c.526 0 .952.427.952.953v.12-1.831a.952.952 0 0 0-.952-.952H7.046a1.048 1.048 0 0 1-1.048-1.047v-.558 2.268z"/><path fill="#A966FF" fill-opacity=".35" d="M5.998 11.224c0 .578.47 1.047 1.048 1.047h6.004c.526 0 .952.427.952.953v.12-1.831a.952.952 0 0 0-.952-.952H7.046a1.048 1.048 0 0 1-1.048-1.047v-.558 2.268z"/><path fill="url(#n)" fill-opacity=".4" d="M5.998 11.224c0 .578.47 1.047 1.048 1.047h6.004c.526 0 .952.427.952.953v.12-1.831a.952.952 0 0 0-.952-.952H7.046a1.048 1.048 0 0 1-1.048-1.047v-.558 2.268z"/><path fill="url(#o)" fill-opacity=".4" d="M5.998 11.224c0 .578.47 1.047 1.048 1.047h6.004c.526 0 .952.427.952.953v.12-1.831a.952.952 0 0 0-.952-.952H7.046a1.048 1.048 0 0 1-1.048-1.047v-.558 2.268z"/><path fill="url(#p)" fill-opacity=".6" d="M5.998 11.224c0 .578.47 1.047 1.048 1.047h6.004c.526 0 .952.427.952.953v.12-1.831a.952.952 0 0 0-.952-.952H7.046a1.048 1.048 0 0 1-1.048-1.047v-.558 2.268z"/><defs><linearGradient id="a" x1="7.521" x2="9.406" y1="3" y2="17.138" gradientUnits="userSpaceOnUse"><stop stop-color="#BBB"/><stop offset="1" stop-color="#888"/></linearGradient><linearGradient id="b" x1="7.333" x2="8.851" y1="4" y2="16.144" gradientUnits="userSpaceOnUse"><stop stop-color="#fff"/><stop offset="1" stop-color="#EBEBEB"/></linearGradient><radialGradient id="c" cx="0" cy="0" r="1" gradientTransform="matrix(6.33333 9.5 -9.5 3.5625 7.833 7.125)" gradientUnits="userSpaceOnUse"><stop offset=".177" stop-color="#fff"/><stop offset="1" stop-color="#EFEFEF"/></radialGradient><radialGradient id="d" cx="0" cy="0" r="1" gradientTransform="matrix(-6.52863 3.4824 4.35695 7.5725 10.046 2.405)" gradientUnits="userSpaceOnUse"><stop offset=".625" stop-color="#974CFF"/><stop offset="1" stop-color="#5000B0"/></radialGradient><radialGradient id="e" cx="0" cy="0" r="1" gradientTransform="matrix(-5.95089 2.67684 6.46523 13.1202 14.114 5.393)" gradientUnits="userSpaceOnUse"><stop offset=".147" stop-color="#DE91FF"/><stop offset=".678" stop-color="#D373FC" stop-opacity="0"/></radialGradient><radialGradient id="f" cx="0" cy="0" r="1" gradientTransform="matrix(-2.45383 3.34832 9.96375 4.2049 10.735 4.192)" gradientUnits="userSpaceOnUse"><stop stop-color="#FFC7A3"/><stop offset=".831" stop-color="#DE67FD" stop-opacity="0"/></radialGradient><linearGradient id="g" x1="11.134" x2="10.864" y1="12.62" y2="14.095" gradientUnits="userSpaceOnUse"><stop stop-color="#330072"/><stop offset="1" stop-color="#7611F0" stop-opacity="0"/></linearGradient><linearGradient id="h" x1="7.794" x2="7.794" y1="12.623" y2="14.814" gradientUnits="userSpaceOnUse"><stop stop-color="#9136F2" stop-opacity="0"/><stop offset=".836" stop-color="#B76AFF"/></linearGradient><linearGradient id="i" x1="8.181" x2="5.998" y1="12.48" y2="12.498" gradientUnits="userSpaceOnUse"><stop stop-color="#9136F2" stop-opacity="0"/><stop offset=".836" stop-color="#B76AFF"/></linearGradient><linearGradient id="j" x1="11.592" x2="15.077" y1="12.5" y2="15.158" gradientUnits="userSpaceOnUse"><stop stop-color="#9136F2" stop-opacity="0"/><stop offset=".836" stop-color="#B76AFF"/></linearGradient><linearGradient id="k" x1="8.181" x2="5.998" y1="9.727" y2="9.727" gradientUnits="userSpaceOnUse"><stop stop-color="#BC80FF" stop-opacity="0"/><stop offset=".836" stop-color="#ECB4FF"/></linearGradient><linearGradient id="l" x1="11.351" x2="14.002" y1="9.727" y2="9.727" gradientUnits="userSpaceOnUse"><stop stop-color="#BC7FFF" stop-opacity="0"/><stop offset=".836" stop-color="#ECB4FF"/></linearGradient><radialGradient id="m" cx="0" cy="0" r="1" gradientTransform="matrix(-2.61209 4.38971 5.27375 10.368 12.612 4.12)" gradientUnits="userSpaceOnUse"><stop stop-color="#FFC7A3"/><stop offset=".831" stop-color="#DE67FD" stop-opacity="0"/></radialGradient><linearGradient id="n" x1="10.757" x2="10.637" y1="8.956" y2="11.627" gradientUnits="userSpaceOnUse"><stop stop-color="#6200D5"/><stop offset="1" stop-color="#3E008D" stop-opacity="0"/></linearGradient><linearGradient id="o" x1="11.82" x2="14.003" y1="11.101" y2="11.101" gradientUnits="userSpaceOnUse"><stop stop-color="#9B54FD" stop-opacity="0"/><stop offset=".836" stop-color="#ECB4FF"/></linearGradient><linearGradient id="p" x1="8.181" x2="5.998" y1="11.101" y2="11.101" gradientUnits="userSpaceOnUse"><stop stop-color="#944EF6" stop-opacity="0"/><stop offset=".836" stop-color="#ECB4FF"/></linearGradient></defs></svg>