<svg xmlns="http://www.w3.org/2000/svg" fill="none" viewBox="0 0 20 20"><path fill="url(#a)" d="M4 4a2 2 0 012-2h6a4 4 0 014 4v10a2 2 0 01-2 2H6a2 2 0 01-2-2z"/><path fill="url(#b)" fill-rule="evenodd" d="M6 3h6a3 3 0 013 3v7a1 1 0 01-1 1H6a2 2 0 00-1 .268V4a1 1 0 011-1M5 16a1 1 0 001 1h8a1 1 0 001-1v-1.268A2 2 0 0114 15H6a1 1 0 00-1 1" clip-rule="evenodd"/><path fill="url(#c)" fill-rule="evenodd" d="M6 3h6a3 3 0 013 3v7a1 1 0 01-1 1H6a2 2 0 00-1 .268V4a1 1 0 011-1M5 16a1 1 0 001 1h8a1 1 0 001-1v-1.268A2 2 0 0114 15H6a1 1 0 00-1 1" clip-rule="evenodd"/><g clip-path="url(#d)"><g clip-path="url(#e)"><path fill="url(#f)" d="M8.052 10.523a.35.35 0 00.217.044l1.829-.222s-.928-.968-1.6-1.87a.413.413 0 01.243-.647l.09-.023c-.005-.319-1.176-.981-1.453-.823l-.893.51a.35.35 0 00-.177.305v1.321c0 .253.136.485.355.61z"/><path fill="url(#g)" d="M8.052 10.523a.35.35 0 00.217.044l1.829-.222s-.928-.968-1.6-1.87a.413.413 0 01.243-.647l.09-.023c-.005-.319-1.176-.981-1.453-.823l-.893.51a.35.35 0 00-.177.305v1.321c0 .253.136.485.355.61z"/><path fill="url(#h)" d="M12.596 9.408a.35.35 0 00-.085-.228l-1.13-1.31s-.355 1.073-.787 2.114a.426.426 0 01-.71.12l-.037-.04c-.275.169-.238 1.535.04 1.698l.868.505a.35.35 0 00.352.001l1.145-.66a.7.7 0 00.351-.612z"/><path fill="url(#i)" d="M12.596 9.408a.35.35 0 00-.085-.228l-1.13-1.31s-.355 1.073-.787 2.114a.426.426 0 01-.71.12l-.037-.04c-.275.169-.238 1.535.04 1.698l.868.505a.35.35 0 00.352.001l1.145-.66a.7.7 0 00.351-.612z"/><path fill="url(#j)" d="M9.358 6.018a.35.35 0 00-.154.186l-.58 1.637s1.298-.267 2.267-.393a.41.41 0 01.44.532l-.054.185c.28.155 1.473-.639 1.475-.958l.004-1.024a.35.35 0 00-.176-.306l-1.144-.66a.7.7 0 00-.705 0z"/><path fill="url(#k)" d="M9.358 6.018a.35.35 0 00-.154.186l-.58 1.637s1.298-.267 2.267-.393a.41.41 0 01.44.532l-.054.185c.28.155 1.473-.639 1.475-.958l.004-1.024a.35.35 0 00-.176-.306l-1.144-.66a.7.7 0 00-.705 0z"/><path fill="url(#l)" d="M9.297 4.997c.386-.044.702.274.702.663v1.33a.724.724 0 01-.592.706c-.73.14-1.971.411-2.756.769a.61.61 0 00-.343.57V9.7 6.538c0-.616 1.405-1.36 2.99-1.54"/><path fill="url(#m)" d="M9.297 4.997c.386-.044.702.274.702.663v1.33a.724.724 0 01-.592.706c-.73.14-1.971.411-2.756.769a.61.61 0 00-.343.57V9.7 6.538c0-.616 1.405-1.36 2.99-1.54"/><path fill="url(#n)" d="M7.189 11.08c-.231-.313-.114-.745.222-.94l1.154-.665a.724.724 0 01.907.159c.486.562 1.342 1.502 2.044 2.003.196.14.455.133.664.012l.577-.333-2.74 1.581c-.533.308-1.88-.536-2.828-1.818"/><path fill="url(#o)" d="M7.189 11.08c-.231-.313-.114-.745.222-.94l1.154-.665a.724.724 0 01.907.159c.486.562 1.342 1.502 2.044 2.003.196.14.455.133.664.012l.577-.333-2.74 1.581c-.533.308-1.88-.536-2.828-1.818"/><path fill="url(#p)" d="M13.51 9.864c-.155.356-.588.47-.924.277l-1.153-.666a.72.72 0 01-.316-.865c.244-.702.63-1.913.713-2.772a.61.61 0 00-.322-.581l-.577-.333 2.74 1.581c.533.308.476 1.898-.16 3.36"/><path fill="url(#q)" d="M13.51 9.864c-.155.356-.588.47-.924.277l-1.153-.666a.72.72 0 01-.316-.865c.244-.702.63-1.913.713-2.772a.61.61 0 00-.322-.581l-.577-.333 2.74 1.581c.533.308.476 1.898-.16 3.36"/></g></g><defs><linearGradient id="a" x1="7.875" x2="10.709" y1="2" y2="17.941" gradientUnits="userSpaceOnUse"><stop stop-color="#BBB"/><stop offset="1" stop-color="#888"/></linearGradient><linearGradient id="b" x1="7.778" x2="10.221" y1="3" y2="16.961" gradientUnits="userSpaceOnUse"><stop stop-color="#fff"/><stop offset="1" stop-color="#EBEBEB"/></linearGradient><linearGradient id="f" x1="6.476" x2="8.111" y1="8.51" y2="10.533" gradientUnits="userSpaceOnUse"><stop stop-color="#C02B3C"/><stop offset=".945" stop-color="#F68500"/></linearGradient><linearGradient id="h" x1="11.693" x2="11.572" y1="9.232" y2="11.819" gradientUnits="userSpaceOnUse"><stop stop-color="#0D91E1"/><stop offset="1" stop-color="#0B6528"/></linearGradient><linearGradient id="j" x1="9.619" x2="11.903" y1="7.06" y2="6.602" gradientUnits="userSpaceOnUse"><stop stop-color="#C515F1"/><stop offset="1" stop-color="#0D91E1"/></linearGradient><linearGradient id="l" x1="9.886" x2="6.308" y1="6.864" y2="6.989" gradientUnits="userSpaceOnUse"><stop stop-color="#CC23D1"/><stop offset=".5" stop-color="#F2598A"/><stop offset=".975" stop-color="#FFB657"/></linearGradient><linearGradient id="m" x1="10.441" x2="9.089" y1="6.21" y2="6.247" gradientUnits="userSpaceOnUse"><stop offset=".058" stop-color="#F7ADFA"/><stop offset="1" stop-color="#F2598A" stop-opacity="0"/></linearGradient><linearGradient id="n" x1="10.856" x2="8.322" y1="13.109" y2="9.524" gradientUnits="userSpaceOnUse"><stop stop-color="#0D91E1"/><stop offset=".487" stop-color="#52B471"/><stop offset=".715" stop-color="#98BD42"/><stop offset=".937" stop-color="#FFC800"/></linearGradient><linearGradient id="o" x1="8.161" x2="8.371" y1="9.689" y2="10.041" gradientUnits="userSpaceOnUse"><stop stop-color="#FFEEAF"/><stop offset="1" stop-color="#FFC800" stop-opacity="0"/></linearGradient><linearGradient id="p" x1="13.059" x2="11.444" y1="5.951" y2="9.453" gradientUnits="userSpaceOnUse"><stop stop-color="#8C48FF"/><stop offset=".721" stop-color="#00AEFF"/><stop offset=".995" stop-color="#3DCBFF"/></linearGradient><linearGradient id="q" x1="12.02" x2="11.75" y1="9.197" y2="9.682" gradientUnits="userSpaceOnUse"><stop stop-color="#00AEFF" stop-opacity="0"/><stop offset="1" stop-color="#8BDFFD"/></linearGradient><radialGradient id="c" cx="0" cy="0" r="1" gradientTransform="matrix(5.27778 11.0833 -7.91667 4.15625 8.194 6.646)" gradientUnits="userSpaceOnUse"><stop offset=".177" stop-color="#fff"/><stop offset="1" stop-color="#EFEFEF"/></radialGradient><radialGradient id="g" cx="0" cy="0" r="1" gradientTransform="rotate(-120.069 6.69 2.84)scale(1.92902 3.31608)" gradientUnits="userSpaceOnUse"><stop offset=".549" stop-color="#C02B3C" stop-opacity="0"/><stop offset="1" stop-color="#9C212F"/></radialGradient><radialGradient id="i" cx="0" cy="0" r="1" gradientTransform="matrix(-.9665 1.71336 -3.29649 -1.85952 12.371 10.053)" gradientUnits="userSpaceOnUse"><stop offset=".579" stop-color="#137D34" stop-opacity="0"/><stop offset="1" stop-color="#0A5622"/></radialGradient><radialGradient id="k" cx="0" cy="0" r="1" gradientTransform="matrix(1.93302 0 0 3.65853 9.999 5.88)" gradientUnits="userSpaceOnUse"><stop offset=".588" stop-color="#2253CE" stop-opacity="0"/><stop offset="1" stop-color="#032DAA"/></radialGradient><clipPath id="d"><path fill="#fff" d="M5 4h10v10H5z"/></clipPath><clipPath id="e"><path fill="#fff" d="M5.781 4.781h8.435v8.435H5.781z"/></clipPath></defs></svg>