<svg xmlns="http://www.w3.org/2000/svg" fill="none" viewBox="0 0 20 20"><path fill="url(#a)" fill-rule="evenodd" d="M5 4a2 2 0 0 1 2-2h6a4 4 0 0 1 4 4v8a2 2 0 0 1-2 2 2 2 0 0 1-2 2H9a6 6 0 0 1-6-6V6a2 2 0 0 1 2-2z" clip-rule="evenodd"/><path fill="url(#b)" fill-rule="evenodd" d="M7 3h6a3 3 0 0 1 3 3v8a1 1 0 0 1-1 1H9a3 3 0 0 1-3-3V4a1 1 0 0 1 1-1zM5 5a1 1 0 0 0-1 1v6a5 5 0 0 0 5 5h4a1 1 0 0 0 1-1H9a4 4 0 0 1-4-4V5z" clip-rule="evenodd"/><path fill="url(#c)" fill-rule="evenodd" d="M7 3h6a3 3 0 0 1 3 3v8a1 1 0 0 1-1 1H9a3 3 0 0 1-3-3V4a1 1 0 0 1 1-1zM5 5a1 1 0 0 0-1 1v6a5 5 0 0 0 5 5h4a1 1 0 0 0 1-1H9a4 4 0 0 1-4-4V5z" clip-rule="evenodd"/><path fill="url(#d)" fill-rule="evenodd" d="M11.004 5c.435.004.9.097 1.273.309.38.215.723.592.723 1.14 0 .21-.034.393-.106.557a1.2 1.2 0 0 1-.246.354l-.072.075c-.076.077-.077.08-.088.124v.123c.005.092.017.213.035.358.038.29.102.655.178 1.041.06.306.13.622.198.92H13a1 1 0 0 1 1 1v1a1 1 0 0 1-1 1H9a1 1 0 0 1-1-1v-1a1 1 0 0 1 1-1h.14c.064-.257.13-.53.186-.805.08-.388.145-.762.179-1.068.017-.153.026-.281.026-.382a.84.84 0 0 0-.009-.15.105.105 0 0 0-.007-.02c-.009-.015-.032-.024-.178-.184a1.224 1.224 0 0 1-.24-.377A1.513 1.513 0 0 1 9 6.449c0-.554.336-.936.725-1.154.377-.211.844-.298 1.279-.295zm-.008 1c-.315-.002-.598.064-.783.167-.174.097-.213.192-.213.282 0 .114.016.17.026.196a.234.234 0 0 0 .051.074l.02.02c.073.07.292.277.38.564.045.144.055.306.054.445 0 .15-.013.317-.032.491a13.1 13.1 0 0 1-.194 1.16c-.042.2-.087.403-.134.601h1.703a31.2 31.2 0 0 1-.154-.725 17.648 17.648 0 0 1-.189-1.106 5.489 5.489 0 0 1-.042-.441 1.496 1.496 0 0 1 .024-.391c.08-.346.287-.546.385-.64a1.16 1.16 0 0 0 .03-.03.23.23 0 0 0 .051-.065.388.388 0 0 0 .021-.153c0-.072-.033-.166-.215-.27-.188-.106-.474-.176-.789-.179z" clip-rule="evenodd"/><defs><linearGradient id="a" x1="7.521" x2="9.97" y1="2" y2="18.071" gradientUnits="userSpaceOnUse"><stop stop-color="#BBB"/><stop offset="1" stop-color="#888"/></linearGradient><linearGradient id="b" x1="7.333" x2="9.388" y1="3" y2="17.089" gradientUnits="userSpaceOnUse"><stop stop-color="#fff"/><stop offset="1" stop-color="#EBEBEB"/></linearGradient><radialGradient id="c" cx="0" cy="0" r="1" gradientTransform="matrix(6.33333 11.0833 -9.5 4.15625 7.833 6.646)" gradientUnits="userSpaceOnUse"><stop offset=".177" stop-color="#fff"/><stop offset="1" stop-color="#EFEFEF"/></radialGradient><linearGradient id="d" x1="9.365" x2="14.178" y1="4.077" y2="12.982" gradientUnits="userSpaceOnUse"><stop offset="0" stop-color="#597493"/><stop offset="1" stop-color="#0F2F56"/></linearGradient></defs></svg>