<svg xmlns="http://www.w3.org/2000/svg" fill="none" viewBox="0 0 20 20"><path fill="url(#a)" d="M8.456 3.698A2 2 0 0 0 6.937 3H4a2 2 0 0 0-2 2v9a2 2 0 0 0 2 2h12a2 2 0 0 0 2-2V7a2 2 0 0 0-2-2H9.966a.857.857 0 0 1-.651-.3l-.86-1.002z"/><path fill="url(#b)" fill-opacity=".2" d="M8.456 3.698A2 2 0 0 0 6.937 3H4a2 2 0 0 0-2 2v9a2 2 0 0 0 2 2h12a2 2 0 0 0 2-2V7a2 2 0 0 0-2-2H9.966a.857.857 0 0 1-.651-.3l-.86-1.002z"/><path fill="url(#c)" d="M3 8.5A1.5 1.5 0 0 1 4.5 7h2.293C7.246 7 7.68 6.82 8 6.5c.32-.32.754-.5 1.207-.5H16a1 1 0 0 1 1 1v7a1 1 0 0 1-1 1H4a1 1 0 0 1-1-1V8.5z"/><path fill="#944600" d="M12.523 8.03a.533.533 0 0 1 .956 0l.741 1.502 1.658.241a.533.533 0 0 1 .295.91l-1.2 1.169.284 1.65a.533.533 0 0 1-.774.563l-1.482-.78-1.482.78a.533.533 0 0 1-.774-.563l.283-1.65-1.2-1.169a.533.533 0 0 1 .296-.91l1.657-.24.742-1.502z"/><defs><linearGradient id="a" x1="6" x2="6" y1="16" y2="3" gradientUnits="userSpaceOnUse"><stop stop-color="#BA7300"/><stop offset=".221" stop-color="#C77B00"/><stop offset=".716" stop-color="#D48300"/><stop offset="1" stop-color="#D48300"/></linearGradient><radialGradient id="b" cx="0" cy="0" r="1" gradientTransform="matrix(0 1.72617 -5.71429 0 7.714 6.84)" gradientUnits="userSpaceOnUse"><stop/><stop offset="1" stop-opacity="0"/></radialGradient><linearGradient id="c" x1="9.058" x2="7.038" y1="15.662" y2="5.986" gradientUnits="userSpaceOnUse"><stop stop-color="#F7AB40"/><stop offset="1" stop-color="#FFDD57"/></linearGradient></defs></svg>