<svg xmlns="http://www.w3.org/2000/svg" fill="none" viewBox="0 0 20 20"><path fill="url(#a)" d="M4 4a2 2 0 0 1 2-2h6a4 4 0 0 1 4 4v10a2 2 0 0 1-2 2H8a4 4 0 0 1-4-4V4z"/><path fill="url(#b)" d="M5 4a1 1 0 0 1 1-1h6a3 3 0 0 1 3 3v10a1 1 0 0 1-1 1H8a3 3 0 0 1-3-3V4z"/><path fill="url(#c)" d="M5 4a1 1 0 0 1 1-1h6a3 3 0 0 1 3 3v10a1 1 0 0 1-1 1H8a3 3 0 0 1-3-3V4z"/><path fill="url(#d)" d="M13 13.333a.667.667 0 0 1-.667.667H11v-2.5a2.5 2.5 0 0 0-2.231-2.485C8.845 9.005 8.922 9 9 9h4v4.333z"/><path fill="url(#e)" fill-opacity=".8" d="M13 13.333a.667.667 0 0 1-.667.667H11v-2.5a2.5 2.5 0 0 0-2.231-2.485C8.845 9.005 8.922 9 9 9h4v4.333z"/><path fill="url(#f)" d="M12.273 6c.401 0 .727.326.727.728v2.544a.728.728 0 0 1-.727.728h-1.777A2.493 2.493 0 0 0 8.5 9H7V7.34C7 6.6 7.6 6 8.34 6h3.933z"/><path fill="url(#g)" d="M12.273 6c.401 0 .727.326.727.728v2.544a.728.728 0 0 1-.727.728h-1.777A2.493 2.493 0 0 0 8.5 9H7V7.34C7 6.6 7.6 6 8.34 6h3.933z"/><path fill="url(#h)" d="M11 9a1 1 0 1 0 0-2 1 1 0 0 0 0 2z"/><path fill="url(#i)" d="M11 9a1 1 0 1 0 0-2 1 1 0 0 0 0 2z"/><path fill="url(#j)" d="M11.817 11c.1 0 .182.081.182.182v1.636c0 .1-.081.182-.182.182H11v-1.5a2.51 2.51 0 0 0-.05-.5h.868z"/><rect width="9" height="9" x="1" y="10" fill="url(#k)" rx="2"/><rect width="9" height="9" x="1" y="10" fill="url(#l)" fill-opacity=".6" rx="2"/><path fill="#fff" d="M6.942 12.934h-1.76v1.203h1.617v.928H5.181V17H4.058v-5h2.884v.934z"/><defs><linearGradient id="a" x1="7.875" x2="10.709" y1="2" y2="17.941" gradientUnits="userSpaceOnUse"><stop stop-color="#BBB"/><stop offset="1" stop-color="#888"/></linearGradient><linearGradient id="b" x1="7.778" x2="10.221" y1="3" y2="16.961" gradientUnits="userSpaceOnUse"><stop stop-color="#fff"/><stop offset="1" stop-color="#EBEBEB"/></linearGradient><radialGradient id="c" cx="0" cy="0" r="1" gradientTransform="matrix(5.27778 11.0833 -7.91667 4.15625 8.194 6.646)" gradientUnits="userSpaceOnUse"><stop offset=".177" stop-color="#fff"/><stop offset="1" stop-color="#EFEFEF"/></radialGradient><radialGradient id="d" cx="0" cy="0" r="1" gradientTransform="matrix(-8.89246 -15.6288 13.4995 -7.95243 9.826 22.572)" gradientUnits="userSpaceOnUse"><stop offset=".008" stop-color="#1A7F7C"/><stop offset=".45" stop-color="#14717C"/><stop offset=".803" stop-color="#08567B"/></radialGradient><radialGradient id="e" cx="0" cy="0" r="1" gradientTransform="matrix(-5.81041 -5.91222 4.49897 -4.57592 2.954 11.056)" gradientUnits="userSpaceOnUse"><stop stop-color="#06517B"/><stop offset=".992" stop-color="#06517B" stop-opacity="0"/></radialGradient><linearGradient id="f" x1="7.135" x2="13.713" y1="10.334" y2="7.778" gradientUnits="userSpaceOnUse"><stop offset=".227" stop-color="#15B4D5"/><stop offset="1" stop-color="#43E5CA"/></linearGradient><linearGradient id="g" x1="8.653" x2="7" y1="8.493" y2="8.493" gradientUnits="userSpaceOnUse"><stop offset=".184" stop-color="#29CBDC" stop-opacity="0"/><stop offset="1" stop-color="#36DFF1"/></linearGradient><linearGradient id="h" x1="10.286" x2="11.571" y1="7.143" y2="9" gradientUnits="userSpaceOnUse"><stop stop-color="#119FC5"/><stop offset="1" stop-color="#22918B"/></linearGradient><linearGradient id="i" x1="10.286" x2="11.571" y1="7.143" y2="9" gradientUnits="userSpaceOnUse"><stop stop-color="#06517B"/><stop offset="1" stop-color="#1A7F7C"/></linearGradient><linearGradient id="j" x1="11.32" x2="11.642" y1="11.536" y2="12" gradientUnits="userSpaceOnUse"><stop stop-color="#119FC5"/><stop offset="1" stop-color="#20AC9D"/></linearGradient><radialGradient id="k" cx="0" cy="0" r="1" gradientTransform="rotate(45 -11.571 6.207) scale(12.7279)" gradientUnits="userSpaceOnUse"><stop offset=".063" stop-color="#009BBC"/><stop offset=".591" stop-color="#01657D"/><stop offset=".941" stop-color="#014354"/></radialGradient><radialGradient id="l" cx="0" cy="0" r="1" gradientTransform="matrix(0 6.3 -7.17187 0 5.5 15.4)" gradientUnits="userSpaceOnUse"><stop offset=".567" stop-color="#1E8581" stop-opacity="0"/><stop offset=".974" stop-color="#1ECBE6"/></radialGradient></defs></svg>