<svg xmlns="http://www.w3.org/2000/svg" fill="none" viewBox="0 0 20 20"><path fill="url(#a)" d="M3 5a2 2 0 012-2h8a4 4 0 014 4v8a2 2 0 01-2 2H7a4 4 0 01-4-4z"/><path fill="url(#b)" d="M4 5a1 1 0 011-1h8a3 3 0 013 3v8a1 1 0 01-1 1H7a3 3 0 01-3-3z"/><path fill="url(#c)" d="M4 5a1 1 0 011-1h8a3 3 0 013 3v8a1 1 0 01-1 1H7a3 3 0 01-3-3z"/><path fill="url(#d)" d="M6.015 9.288a1 1 0 01.812-1.158l4.334-.765a1 1 0 011.158.812l.685 3.883a1 1 0 01-.811 1.159l-4.334.764a1 1 0 01-1.159-.811z"/><rect width="7" height="6.5" x="7" y="6" fill="url(#e)" rx="1"/><rect width="7" height="6.5" x="7" y="6" fill="url(#f)" fill-opacity=".6" rx="1"/><path fill="#000" d="M9.366 7.03c.253-.056.472-.039.674-.008.4.066.747.202 1.076.358.502.25.965.533 1.39.921a7 7 0 01.2-.76.15.15 0 01.046-.07.1.1 0 01.079-.025.1.1 0 01.073.037q.03.033.035.076.014.084.025.168.1.741.045 1.472a.32.32 0 01-.288.288l-.017.001a7 7 0 01-1.658-.071.15.15 0 01-.077-.036.1.1 0 01-.036-.073.1.1 0 01.025-.078.14.14 0 01.07-.046 8 8 0 01.761-.199 5.4 5.4 0 00-1.098-.747 3.2 3.2 0 00-.81-.304 1 1 0 00-.323-.017c-.078.017-.085.023-.11.055-.173.134.132.642.53 1.069.36.464.948.832 1.028 1.75-.006.114-.009.23-.083.396a.54.54 0 01-.225.242.54.54 0 01-.308.06c-.316-.046-.448-.166-.613-.262-.156-.101-.297-.203-.436-.294-.13-.088-.299-.173-.34-.177l-.037-.001c-.036 0-.096.202-.085.377.006.18.04.382.102.534.02.044.023.095.007.142a.186.186 0 01-.233.116.2.2 0 01-.109-.09 2 2 0 01-.201-.667c-.013-.227-.076-.498.203-.791.1-.09.24-.131.352-.132.56.07.77.319 1.084.466.078.043.17.085.24.111v-.03c-.02-.33-.511-.786-.929-1.206-.215-.222-.442-.45-.638-.766-.197-.287-.343-.868-.078-1.29.138-.265.44-.45.687-.5"/><path fill="url(#g)" d="M9.366 7.03c.253-.056.472-.039.674-.008.4.066.747.202 1.076.358.502.25.965.533 1.39.921a7 7 0 01.2-.76.15.15 0 01.046-.07.1.1 0 01.079-.025.1.1 0 01.073.037q.03.033.035.076.014.084.025.168.1.741.045 1.472a.32.32 0 01-.288.288l-.017.001a7 7 0 01-1.658-.071.15.15 0 01-.077-.036.1.1 0 01-.036-.073.1.1 0 01.025-.078.14.14 0 01.07-.046 8 8 0 01.761-.199 5.4 5.4 0 00-1.098-.747 3.2 3.2 0 00-.81-.304 1 1 0 00-.323-.017c-.078.017-.085.023-.11.055-.173.134.132.642.53 1.069.36.464.948.832 1.028 1.75-.006.114-.009.23-.083.396a.54.54 0 01-.225.242.54.54 0 01-.308.06c-.316-.046-.448-.166-.613-.262-.156-.101-.297-.203-.436-.294-.13-.088-.299-.173-.34-.177l-.037-.001c-.036 0-.096.202-.085.377.006.18.04.382.102.534.02.044.023.095.007.142a.186.186 0 01-.233.116.2.2 0 01-.109-.09 2 2 0 01-.201-.667c-.013-.227-.076-.498.203-.791.1-.09.24-.131.352-.132.56.07.77.319 1.084.466.078.043.17.085.24.111v-.03c-.02-.33-.511-.786-.929-1.206-.215-.222-.442-.45-.638-.766-.197-.287-.343-.868-.078-1.29.138-.265.44-.45.687-.5"/><defs><linearGradient id="a" x1="7.521" x2="9.406" y1="3" y2="17.138" gradientUnits="userSpaceOnUse"><stop stop-color="#BBB"/><stop offset="1" stop-color="#888"/></linearGradient><linearGradient id="b" x1="7.333" x2="8.851" y1="4" y2="16.144" gradientUnits="userSpaceOnUse"><stop stop-color="#fff"/><stop offset="1" stop-color="#EBEBEB"/></linearGradient><linearGradient id="f" x1="10.617" x2="10.617" y1="6" y2="12.5" gradientUnits="userSpaceOnUse"><stop stop-color="#FFC7A3" stop-opacity=".8"/><stop offset=".186" stop-color="#FFC7A3" stop-opacity="0"/><stop offset=".807" stop-color="#F08AF4" stop-opacity="0"/><stop offset="1" stop-color="#F08AF4" stop-opacity=".9"/></linearGradient><linearGradient id="g" x1="2.443" x2="15.073" y1="-1.01" y2="4.947" gradientUnits="userSpaceOnUse"><stop offset=".024" stop-color="#FFC8D7"/><stop offset=".807" stop-color="#fff"/></linearGradient><radialGradient id="c" cx="0" cy="0" r="1" gradientTransform="matrix(6.33333 9.5 -9.5 3.5625 7.833 7.125)" gradientUnits="userSpaceOnUse"><stop offset=".177" stop-color="#fff"/><stop offset="1" stop-color="#EFEFEF"/></radialGradient><radialGradient id="d" cx="0" cy="0" r="1" gradientTransform="rotate(124.476 2.578 7.304)scale(4.98391)" gradientUnits="userSpaceOnUse"><stop offset=".434" stop-color="#5C1488"/><stop offset="1" stop-color="#844BFA"/></radialGradient><radialGradient id="e" cx="0" cy="0" r="1" gradientTransform="matrix(8.04995 7.36328 -8.45828 7.00781 5.95 6)" gradientUnits="userSpaceOnUse"><stop offset=".087" stop-color="#FFC470"/><stop offset=".302" stop-color="#FF835C"/><stop offset=".584" stop-color="#F24A9D"/><stop offset=".953" stop-color="#B339F0"/></radialGradient></defs></svg>