<svg xmlns="http://www.w3.org/2000/svg" fill="none" viewBox="0 0 20 20"><path fill="url(#a)" d="M2 6a2 2 0 0 1 2-2h10a4 4 0 0 1 4 4v6a2 2 0 0 1-2 2H6a4 4 0 0 1-4-4V6z"/><path fill="url(#b)" d="M3 6a1 1 0 0 1 1-1h10a3 3 0 0 1 3 3v6a1 1 0 0 1-1 1H6a3 3 0 0 1-3-3V6z"/><path fill="url(#c)" d="M3 6a1 1 0 0 1 1-1h10a3 3 0 0 1 3 3v6a1 1 0 0 1-1 1H6a3 3 0 0 1-3-3V6z"/><path fill="url(#d)" d="M10 6a4 4 0 0 1 0 8l-.102-.01a.495.495 0 0 1-.313-.21A.5.5 0 0 1 10 13c.038 0 .117-.016.233-.13.119-.118.249-.313.369-.592.194-.453.333-1.07.38-1.778H10a.5.5 0 0 1 0-1h.981c-.046-.707-.185-1.325-.38-1.778-.12-.28-.249-.474-.368-.591C10.117 7.016 10.038 7 10 7c-.062 0-.245.058-.469.454-.21.371-.386.929-.472 1.61a.5.5 0 0 1-.993-.127c.07-.548.195-1.059.368-1.495a3.006 3.006 0 0 0-1.31 1.7.5.5 0 0 1-.959-.285A4.003 4.003 0 0 1 10 6zm-1.526 4.502a.498.498 0 0 1 .523.522c0 .009.003.017.003.026v1.45a.5.5 0 0 1-1 0v-.293l-1.146 1.146a.5.5 0 1 1-.708-.707L7.293 11.5H7a.5.5 0 0 1 0-1h1.45l.024.002zm3.51-.002c-.045.772-.192 1.482-.419 2.055a2.997 2.997 0 0 0 1.393-2.055h-.975zm-.419-3.056c.227.573.374 1.284.418 2.056h.975a2.998 2.998 0 0 0-1.393-2.056z"/><defs><linearGradient id="a" x1="7.167" x2="8.388" y1="4" y2="16.211" gradientUnits="userSpaceOnUse"><stop stop-color="#BBB"/><stop offset="1" stop-color="#888"/></linearGradient><linearGradient id="b" x1="6.889" x2="7.799" y1="5" y2="15.197" gradientUnits="userSpaceOnUse"><stop stop-color="#fff"/><stop offset="1" stop-color="#EBEBEB"/></linearGradient><radialGradient id="c" cx="0" cy="0" r="1" gradientTransform="matrix(7.38889 7.91667 -11.0833 2.96875 7.472 7.604)" gradientUnits="userSpaceOnUse"><stop offset=".177" stop-color="#fff"/><stop offset="1" stop-color="#EFEFEF"/></radialGradient><linearGradient id="d" x1="7.5" x2="11.979" y1="6" y2="13.04" gradientUnits="userSpaceOnUse"><stop offset="0" stop-color="#597493"/><stop offset="1" stop-color="#0F2F56"/></linearGradient></defs></svg>