<svg xmlns="http://www.w3.org/2000/svg" fill="none" viewBox="0 0 20 20"><path fill="url(#a)" d="M2 6a2 2 0 0 1 2-2h10a4 4 0 0 1 4 4v6a2 2 0 0 1-2 2H6a4 4 0 0 1-4-4V6z"/><path fill="url(#b)" d="M3 6a1 1 0 0 1 1-1h10a3 3 0 0 1 3 3v6a1 1 0 0 1-1 1H6a3 3 0 0 1-3-3V6z"/><path fill="url(#c)" d="M3 6a1 1 0 0 1 1-1h10a3 3 0 0 1 3 3v6a1 1 0 0 1-1 1H6a3 3 0 0 1-3-3V6z"/><path fill="#FEE200" d="m1 13 2-2h5.682c.176 0 .318.142.318.318V13l-4 .917L1 13z"/><path fill="url(#d)" d="M3.476 14.94 1 15.965V13h2l.476 1.94z"/><path fill="url(#e)" d="M9 15.024V13H3v2.048l2.726.488L9 15.024z"/><path fill="url(#f)" d="M9 17v-2H2.56v2.012l3.964.369L9 17z"/><path fill="url(#g)" d="m3 17-2 .667V15h2v2z"/><path fill="url(#h)" d="m3 17-.31.952L3 19h4l2-2H3z"/><path fill="url(#i)" d="M3 19H1.376A.375.375 0 0 1 1 18.624V17h2v2z"/><path fill="url(#j)" d="M13.5 11a.5.5 0 0 1 0 1H10v-1h3.5zm-6-3a.5.5 0 0 1 0 1h-1a.5.5 0 0 1 0-1h1zm6 0a.5.5 0 0 1 0 1h-4a.5.5 0 0 1 0-1h4z"/><defs><linearGradient id="a" x1="7.167" x2="8.388" y1="4" y2="16.211" gradientUnits="userSpaceOnUse"><stop stop-color="#BBB"/><stop offset="1" stop-color="#888"/></linearGradient><linearGradient id="b" x1="6.889" x2="7.799" y1="5" y2="15.197" gradientUnits="userSpaceOnUse"><stop stop-color="#fff"/><stop offset="1" stop-color="#EBEBEB"/></linearGradient><radialGradient id="c" cx="0" cy="0" r="1" gradientTransform="matrix(7.38889 7.91667 -11.0833 2.96875 7.472 7.604)" gradientUnits="userSpaceOnUse"><stop offset=".177" stop-color="#fff"/><stop offset="1" stop-color="#EFEFEF"/></radialGradient><linearGradient id="d" x1="2.238" x2="2.238" y1="15.964" y2="13" gradientUnits="userSpaceOnUse"><stop stop-color="#E25A01"/><stop offset=".61" stop-color="#E15801"/><stop offset=".878" stop-color="#E05101"/><stop offset="1" stop-color="#DE4A01"/></linearGradient><linearGradient id="e" x1="6" x2="6" y1="15.536" y2="13" gradientUnits="userSpaceOnUse"><stop stop-color="#F18C0A"/><stop offset=".437" stop-color="#F0880A"/><stop offset=".868" stop-color="#EC7C0A"/><stop offset="1" stop-color="#EB770A"/></linearGradient><linearGradient id="f" x1="5.78" x2="5.78" y1="17.381" y2="15" gradientUnits="userSpaceOnUse"><stop stop-color="#D83B01"/><stop offset=".472" stop-color="#D63701"/><stop offset=".937" stop-color="#CE2B01"/><stop offset="1" stop-color="#CD2901"/></linearGradient><linearGradient id="g" x1="2" x2="2" y1="17.667" y2="15" gradientUnits="userSpaceOnUse"><stop offset="0" stop-color="#BF3207"/><stop offset=".472" stop-color="#BB3207"/><stop offset=".937" stop-color="#AF3007"/><stop offset="1" stop-color="#AD3007"/></linearGradient><linearGradient id="h" x1="5.845" x2="5.845" y1="19" y2="17" gradientUnits="userSpaceOnUse"><stop stop-color="#854A81"/><stop offset=".482" stop-color="#82497E"/><stop offset=".812" stop-color="#794475"/><stop offset="1" stop-color="#703F6C"/></linearGradient><linearGradient id="i" x1="2" x2="2" y1="19" y2="17" gradientUnits="userSpaceOnUse"><stop stop-color="#703D6E"/><stop offset=".631" stop-color="#6C3B6A"/><stop offset="1" stop-color="#663764"/></linearGradient><linearGradient id="j" x1="9.5" x2="11" y1="8" y2="12" gradientUnits="userSpaceOnUse"><stop stop-color="#A35B98"/><stop offset="1" stop-color="#87447D"/></linearGradient></defs></svg>