<svg xmlns="http://www.w3.org/2000/svg" fill="none" viewBox="0 0 20 20"><path fill="url(#a)" d="M4 4a2 2 0 0 1 2-2h6a4 4 0 0 1 4 4v10a2 2 0 0 1-2 2H8a4 4 0 0 1-4-4V4z"/><path fill="url(#b)" d="M4 4a2 2 0 0 1 2-2h6a4 4 0 0 1 4 4v10a2 2 0 0 1-2 2H8a4 4 0 0 1-4-4V4z"/><path stroke="url(#c)" stroke-dasharray="2.5 2.5" stroke-linecap="round" d="M4.5 4A1.5 1.5 0 0 1 6 2.5h6A3.5 3.5 0 0 1 15.5 6v10a1.5 1.5 0 0 1-1.5 1.5H8A3.5 3.5 0 0 1 4.5 14V4z"/><path fill="#86D562" d="M8.25 7H7v1.25h1.25V7z"/><path fill="#52A535" d="M9.25 7H8v1.25h1.25V7z"/><path fill="#6CC349" d="M10.25 7H9v1.25h1.25V7z"/><path fill="#86D562" d="M11.25 7H10v1.25h1.25V7z"/><path fill="#6CC349" d="M12.25 7H11v1.25h1.25V7z"/><path fill="#52A535" d="M13 7h-1v1.25h1V7zM8.25 8H7v1.25h1.25V8z"/><path fill="#86D562" d="M9.25 8H8v1.25h1.25V8z"/><path fill="#52A535" d="M10.25 8H9v1.25h1.25V8z"/><path fill="#52A535" d="M11.25 8H10v1.25h1.25V8z"/><path fill="#6CC349" d="M12.25 8H11v1.25h1.25V8z"/><path fill="#86D562" d="M13 8h-1v1.25h1V8z"/><path fill="#6CC349" d="M8.25 9H7v1.25h1.25V9z"/><path fill="#6CC349" d="M9.25 9H8v1.25h1.25V9z"/><path fill="#52A535" d="M10.25 9H9v1.25h1.25V9z"/><path fill="#6CC349" d="M11.25 9H10v1.25h1.25V9z"/><path fill="#52A535" d="M12.25 9H11v1.25h1.25V9z"/><path fill="#6CC349" d="M13 9h-1v1.25h1V9z"/><path fill="#66412C" d="M8.25 10H7v1.25h1.25V10z"/><path fill="#AD7A54" d="M9.25 10H8v1.25h1.25V10z"/><path fill="#66412C" d="M10.25 10H9v1.25h1.25V10z"/><path fill="#805539" d="M11.25 10H10v1.25h1.25V10z"/><path fill="#6CC349" d="M12.25 10H11v1.25h1.25V10z"/><path fill="#66412C" d="M13 10h-1v1.25h1V10z"/><path fill="#976746" d="M8.25 11H7v1.25h1.25V11z"/><path fill="#805539" d="M9.25 11H8v1.25h1.25V11z"/><path fill="#976746" d="M10.25 11H9v1.25h1.25V11z"/><path fill="#AD7A54" d="M11.25 11H10v1.25h1.25V11z"/><path fill="#805539" d="M12.25 11H11v1.25h1.25V11z"/><path fill="#805539" d="M13 11h-1v1.25h1V11zm-4.75 1H7v1h1.25v-1z"/><path fill="#66412C" d="M9.25 12H8v1h1.25v-1z"/><path fill="#805539" d="M10.25 12H9v1h1.25v-1z"/><path fill="#976746" d="M11.25 12H10v1h1.25v-1z"/><path fill="#805539" d="M12.25 12H11v1h1.25v-1z"/><path fill="#AD7A54" d="M13 12h-1v1h1v-1z"/><defs><linearGradient id="a" x1="7.333" x2="10" y1="2" y2="18" gradientUnits="userSpaceOnUse"><stop stop-color="#fff"/><stop offset="1" stop-color="#EBEBEB"/></linearGradient><radialGradient id="b" cx="0" cy="0" r="1" gradientTransform="matrix(6.33334 12.6667 -9.49998 4.74998 7.833 6.166)" gradientUnits="userSpaceOnUse"><stop offset=".177" stop-color="#fff"/><stop offset="1" stop-color="#EFEFEF"/></radialGradient><linearGradient id="c" x1="8.052" x2="10.765" y1="2.5" y2="17.423" gradientUnits="userSpaceOnUse"><stop stop-color="#BBB"/><stop offset="1" stop-color="#888"/></linearGradient></defs></svg>