<svg xmlns="http://www.w3.org/2000/svg" fill="none" viewBox="0 0 20 20"><path fill="url(#a)" d="M4 4a2 2 0 0 1 2-2h6a4 4 0 0 1 4 4v10a2 2 0 0 1-2 2H8a4 4 0 0 1-4-4V4z"/><path fill="url(#b)" d="M5 4a1 1 0 0 1 1-1h6a3 3 0 0 1 3 3v10a1 1 0 0 1-1 1H8a3 3 0 0 1-3-3V4z"/><path fill="url(#c)" d="M5 4a1 1 0 0 1 1-1h6a3 3 0 0 1 3 3v10a1 1 0 0 1-1 1H8a3 3 0 0 1-3-3V4z"/><path fill="#86D562" d="M8.25 7H7v1.25h1.25V7z"/><path fill="#52A535" d="M9.25 7H8v1.25h1.25V7z"/><path fill="#6CC349" d="M10.25 7H9v1.25h1.25V7z"/><path fill="#86D562" d="M11.25 7H10v1.25h1.25V7z"/><path fill="#6CC349" d="M12.25 7H11v1.25h1.25V7z"/><path fill="#52A535" d="M13 7h-1v1.25h1V7zM8.25 8H7v1.25h1.25V8z"/><path fill="#86D562" d="M9.25 8H8v1.25h1.25V8z"/><path fill="#52A535" d="M10.25 8H9v1.25h1.25V8z"/><path fill="#52A535" d="M11.25 8H10v1.25h1.25V8z"/><path fill="#6CC349" d="M12.25 8H11v1.25h1.25V8z"/><path fill="#86D562" d="M13 8h-1v1.25h1V8z"/><path fill="#6CC349" d="M8.25 9H7v1.25h1.25V9z"/><path fill="#6CC349" d="M9.25 9H8v1.25h1.25V9z"/><path fill="#52A535" d="M10.25 9H9v1.25h1.25V9z"/><path fill="#6CC349" d="M11.25 9H10v1.25h1.25V9z"/><path fill="#52A535" d="M12.25 9H11v1.25h1.25V9z"/><path fill="#6CC349" d="M13 9h-1v1.25h1V9z"/><path fill="#66412C" d="M8.25 10H7v1.25h1.25V10z"/><path fill="#AD7A54" d="M9.25 10H8v1.25h1.25V10z"/><path fill="#66412C" d="M10.25 10H9v1.25h1.25V10z"/><path fill="#805539" d="M11.25 10H10v1.25h1.25V10z"/><path fill="#6CC349" d="M12.25 10H11v1.25h1.25V10z"/><path fill="#66412C" d="M13 10h-1v1.25h1V10z"/><path fill="#976746" d="M8.25 11H7v1.25h1.25V11z"/><path fill="#805539" d="M9.25 11H8v1.25h1.25V11z"/><path fill="#976746" d="M10.25 11H9v1.25h1.25V11z"/><path fill="#AD7A54" d="M11.25 11H10v1.25h1.25V11z"/><path fill="#805539" d="M12.25 11H11v1.25h1.25V11z"/><path fill="#805539" d="M13 11h-1v1.25h1V11zm-4.75 1H7v1h1.25v-1z"/><path fill="#66412C" d="M9.25 12H8v1h1.25v-1z"/><path fill="#805539" d="M10.25 12H9v1h1.25v-1z"/><path fill="#976746" d="M11.25 12H10v1h1.25v-1z"/><path fill="#805539" d="M12.25 12H11v1h1.25v-1z"/><path fill="#AD7A54" d="M13 12h-1v1h1v-1z"/><defs><linearGradient id="a" x1="7.875" x2="10.709" y1="2" y2="17.941" gradientUnits="userSpaceOnUse"><stop stop-color="#BBB"/><stop offset="1" stop-color="#888"/></linearGradient><linearGradient id="b" x1="7.778" x2="10.221" y1="3" y2="16.961" gradientUnits="userSpaceOnUse"><stop stop-color="#fff"/><stop offset="1" stop-color="#EBEBEB"/></linearGradient><radialGradient id="c" cx="0" cy="0" r="1" gradientTransform="matrix(5.27778 11.0833 -7.91667 4.15625 8.194 6.646)" gradientUnits="userSpaceOnUse"><stop offset=".177" stop-color="#fff"/><stop offset="1" stop-color="#EFEFEF"/></radialGradient></defs></svg>