<svg xmlns="http://www.w3.org/2000/svg" fill="none" viewBox="0 0 20 20"><path fill="url(#a)" fill-rule="evenodd" d="M4 4a2 2 0 012-2h6a4 4 0 014 4v10a2 2 0 01-2 2H5a2 2 0 01-1-3.732z" clip-rule="evenodd"/><path fill="url(#b)" fill-rule="evenodd" d="M5 17h6.768a2 2 0 01-.268-1c0-.364.097-.706.268-1H5a1 1 0 100 2m9 0h-.5a1 1 0 110-2 .5.5 0 100-1H5V4a1 1 0 011-1h6a3 3 0 013 3v10a1 1 0 01-1 1" clip-rule="evenodd"/><path fill="url(#c)" fill-rule="evenodd" d="M5 17h6.768a2 2 0 01-.268-1c0-.364.097-.706.268-1H5a1 1 0 100 2m9 0h-.5a1 1 0 110-2 .5.5 0 100-1H5V4a1 1 0 011-1h6a3 3 0 013 3v10a1 1 0 01-1 1" clip-rule="evenodd"/><path fill="url(#d)" d="M10.52 9.229a.5.5 0 11.708-.707l.767.767L12 5.5a.5.5 0 111 0l-.005 3.79.768-.768a.5.5 0 11.707.707l-1.62 1.621a.5.5 0 01-.707 0z"/><path fill="url(#e)" d="M6.9 5.2a.5.5 0 00-.9.3v5a.5.5 0 101 0V7l.6.8a.5.5 0 00.8 0L9 7v3.5a.5.5 0 101 0v-5a.5.5 0 00-.9-.3L8 6.667z"/><defs><linearGradient id="a" x1="7.198" x2="9.826" y1="2" y2="18.013" gradientUnits="userSpaceOnUse"><stop stop-color="#BBB"/><stop offset="1" stop-color="#888"/></linearGradient><linearGradient id="b" x1="7.056" x2="9.288" y1="3" y2="17.034" gradientUnits="userSpaceOnUse"><stop stop-color="#fff"/><stop offset="1" stop-color="#EBEBEB"/></linearGradient><linearGradient id="d" x1="19.925" x2="6.136" y1="16.753" y2="12.865" gradientUnits="userSpaceOnUse"><stop offset="0" stop-color="#597493"/><stop offset="1" stop-color="#0F2F56"/></linearGradient><linearGradient id="e" x1="1.5" x2="8.941" y1="0" y2="17" gradientUnits="userSpaceOnUse"><stop offset="0" stop-color="#597493"/><stop offset="1" stop-color="#0F2F56"/></linearGradient><radialGradient id="c" cx="0" cy="0" r="1" gradientTransform="matrix(5.80556 11.0833 -8.70833 4.15625 7.514 6.646)" gradientUnits="userSpaceOnUse"><stop offset=".177" stop-color="#fff"/><stop offset="1" stop-color="#EFEFEF"/></radialGradient></defs></svg>