<svg xmlns="http://www.w3.org/2000/svg" fill="none" viewBox="0 0 20 20"><path fill="url(#a)" d="M2 6a2 2 0 0 1 2-2h10a4 4 0 0 1 4 4v6a2 2 0 0 1-2 2H6a4 4 0 0 1-4-4V6z"/><path fill="url(#b)" d="M2 6a2 2 0 0 1 2-2h10a4 4 0 0 1 4 4v6a2 2 0 0 1-2 2H6a4 4 0 0 1-4-4V6z"/><path fill="url(#c)" fill-rule="evenodd" d="M4 5a1 1 0 0 0-1 1v1.5a.5.5 0 0 1-1 0V6a2 2 0 0 1 2-2h1.25a.5.5 0 0 1 0 1H4zm3.25-.5a.5.5 0 0 1 .5-.5h2.5a.5.5 0 0 1 0 1h-2.5a.5.5 0 0 1-.5-.5zm5 0a.5.5 0 0 1 .5-.5H14a3.99 3.99 0 0 1 1.531.304.5.5 0 1 1-.383.923A2.99 2.99 0 0 0 14 5h-1.25a.5.5 0 0 1-.5-.5zm4.793 1.698a.5.5 0 0 1 .653.27c.196.473.304.99.304 1.532v1.5a.5.5 0 0 1-1 0V8a2.99 2.99 0 0 0-.227-1.148.5.5 0 0 1 .27-.654zM2.5 10a.5.5 0 0 1 .5.5V12c0 .408.081.795.227 1.148a.5.5 0 0 1-.923.383A3.99 3.99 0 0 1 2 12v-1.5a.5.5 0 0 1 .5-.5zm15 2a.5.5 0 0 1 .5.5V14a2 2 0 0 1-2 2h-1.25a.5.5 0 0 1 0-1H16a1 1 0 0 0 1-1v-1.5a.5.5 0 0 1 .5-.5zM4.198 15.043a.5.5 0 0 1 .654-.27c.353.146.74.227 1.148.227h1.25a.5.5 0 0 1 0 1H6a3.99 3.99 0 0 1-1.531-.304.5.5 0 0 1-.27-.653zm5.052.457a.5.5 0 0 1 .5-.5h2.5a.5.5 0 0 1 0 1h-2.5a.5.5 0 0 1-.5-.5z" clip-rule="evenodd"/><path fill="#33C481" d="M10 6a1 1 0 0 1 1 1v2l-1.09.436A2.488 2.488 0 0 0 8.5 9H6V7a1 1 0 0 1 1-1h3z"/><path fill="#21A366" d="M12 9a1 1 0 0 1 1 1v1l-2 .8v-.3A2.5 2.5 0 0 0 8.5 9H12z"/><path fill="#185C37" d="M13 11a1 1 0 0 1 1 1v1a1 1 0 0 1-1 1h-2v-2.5a2.51 2.51 0 0 0-.05-.5H13z"/><rect width="9" height="9" x="1" y="10" fill="#107C41" rx="2"/><path fill="#fff" d="M4.798 15.372V17H3.671v-5h1.742c.624 0 1.098.136 1.424.408.328.272.492.675.492 1.21 0 .55-.183.98-.551 1.29-.366.31-.857.464-1.473.464h-.507zm0-2.507v1.642h.472c.279 0 .494-.073.646-.22.15-.146.226-.357.226-.63 0-.254-.074-.45-.223-.587-.147-.137-.357-.205-.632-.205h-.489z"/><defs><linearGradient id="a" x1="6.444" x2="7.591" y1="4" y2="16.226" gradientUnits="userSpaceOnUse"><stop stop-color="#fff"/><stop offset="1" stop-color="#EBEBEB"/></linearGradient><radialGradient id="b" cx="0" cy="0" r="1" gradientTransform="matrix(8.44444 9.5 -12.6667 3.5625 7.111 7.125)" gradientUnits="userSpaceOnUse"><stop offset=".177" stop-color="#fff"/><stop offset="1" stop-color="#EFEFEF"/></radialGradient><linearGradient id="c" x1="7.167" x2="8.388" y1="4" y2="16.211" gradientUnits="userSpaceOnUse"><stop stop-color="#BBB"/><stop offset="1" stop-color="#888"/></linearGradient></defs></svg>