<svg xmlns="http://www.w3.org/2000/svg" fill="none" viewBox="0 0 20 20"><path fill="url(#a)" fill-rule="evenodd" d="M5 4a2 2 0 0 1 2-2h6a4 4 0 0 1 4 4v8a2 2 0 0 1-2 2 2 2 0 0 1-2 2H9a6 6 0 0 1-6-6V6a2 2 0 0 1 2-2z" clip-rule="evenodd"/><path fill="url(#b)" fill-rule="evenodd" d="M7 3h6a3 3 0 0 1 3 3v8a1 1 0 0 1-1 1H9a3 3 0 0 1-3-3V4a1 1 0 0 1 1-1zM5 5a1 1 0 0 0-1 1v6a5 5 0 0 0 5 5h4a1 1 0 0 0 1-1H9a4 4 0 0 1-4-4V5z" clip-rule="evenodd"/><path fill="url(#c)" fill-rule="evenodd" d="M7 3h6a3 3 0 0 1 3 3v8a1 1 0 0 1-1 1H9a3 3 0 0 1-3-3V4a1 1 0 0 1 1-1zM5 5a1 1 0 0 0-1 1v6a5 5 0 0 0 5 5h4a1 1 0 0 0 1-1H9a4 4 0 0 1-4-4V5z" clip-rule="evenodd"/><defs><linearGradient id="a" x1="7.521" x2="9.97" y1="2" y2="18.071" gradientUnits="userSpaceOnUse"><stop stop-color="#BBB"/><stop offset="1" stop-color="#888"/></linearGradient><linearGradient id="b" x1="7.333" x2="9.388" y1="3" y2="17.089" gradientUnits="userSpaceOnUse"><stop stop-color="#fff"/><stop offset="1" stop-color="#EBEBEB"/></linearGradient><radialGradient id="c" cx="0" cy="0" r="1" gradientTransform="matrix(6.33333 11.0833 -9.5 4.15625 7.833 6.646)" gradientUnits="userSpaceOnUse"><stop offset=".177" stop-color="#fff"/><stop offset="1" stop-color="#EFEFEF"/></radialGradient></defs></svg>