<svg xmlns="http://www.w3.org/2000/svg" fill="none" viewBox="0 0 20 20"><path fill="url(#a)" d="M4 4a2 2 0 0 1 2-2h6a4 4 0 0 1 4 4v10a2 2 0 0 1-2 2H8a4 4 0 0 1-4-4V4z"/><path fill="url(#b)" d="M5 4a1 1 0 0 1 1-1h6a3 3 0 0 1 3 3v10a1 1 0 0 1-1 1H8a3 3 0 0 1-3-3V4z"/><path fill="url(#c)" d="M5 4a1 1 0 0 1 1-1h6a3 3 0 0 1 3 3v10a1 1 0 0 1-1 1H8a3 3 0 0 1-3-3V4z"/><path fill="url(#d)" d="M13 13.273a.728.728 0 0 1-.727.727L11 13.999V11.5a2.49 2.49 0 0 0-.21-1H13v2.773z"/><path fill="url(#e)" d="M13 10.273a.728.728 0 0 1-.727.727H10.95a2.494 2.494 0 0 0-.72-1.302V7.86L13 7.75v2.523z"/><path fill="url(#f)" d="M12.223 6c.429 0 .777.348.777.777v.946a.777.777 0 0 1-.777.777h-.446a.778.778 0 0 0-.777.777v.946a.77.77 0 0 1-.145.447A2.498 2.498 0 0 0 8.5 9H7.001V7.375c0-.76.616-1.375 1.375-1.375h3.847z"/><path fill="url(#g)" d="M12.223 6c.429 0 .777.348.777.777v.946a.777.777 0 0 1-.777.777h-.446a.778.778 0 0 0-.777.777v.946a.77.77 0 0 1-.145.447A2.498 2.498 0 0 0 8.5 9H7.001V7.375c0-.76.616-1.375 1.375-1.375h3.847z"/><rect width="9" height="9" x="1" y="10" fill="url(#h)" rx="2"/><rect width="9" height="9" x="1" y="10" fill="url(#i)" fill-opacity=".8" rx="2"/><path fill="#fff" d="M7.752 17H6.614L4.55 13.914a9.961 9.961 0 0 1-.146-.24 2.19 2.19 0 0 1-.091-.175h-.014a21.99 21.99 0 0 1 .014.809V17H3.248v-5h1.215l1.986 2.988c.042.068.083.136.123.206.042.067.08.135.115.202H6.7a4.726 4.726 0 0 1-.01-.258 17.41 17.41 0 0 1-.004-.429V12h1.065v5z"/><defs><linearGradient id="a" x1="7.875" x2="10.709" y1="2" y2="17.941" gradientUnits="userSpaceOnUse"><stop stop-color="#BBB"/><stop offset="1" stop-color="#888"/></linearGradient><linearGradient id="b" x1="7.778" x2="10.221" y1="3" y2="16.961" gradientUnits="userSpaceOnUse"><stop stop-color="#fff"/><stop offset="1" stop-color="#EBEBEB"/></linearGradient><radialGradient id="c" cx="0" cy="0" r="1" gradientTransform="matrix(5.27778 11.0833 -7.91667 4.15625 8.194 6.646)" gradientUnits="userSpaceOnUse"><stop offset=".177" stop-color="#fff"/><stop offset="1" stop-color="#EFEFEF"/></radialGradient><radialGradient id="d" cx="0" cy="0" r="1" gradientTransform="matrix(271.898 0 0 16.3726 8.002 22.75)" gradientUnits="userSpaceOnUse"><stop offset=".159" stop-color="#A931D8"/><stop offset=".566" stop-color="#6E1996"/></radialGradient><linearGradient id="e" x1="14.243" x2="10.581" y1="9.864" y2="8.348" gradientUnits="userSpaceOnUse"><stop offset=".217" stop-color="#CA59F7"/><stop offset=".888" stop-color="#691A90"/></linearGradient><linearGradient id="f" x1="13.265" x2="7.001" y1="9.574" y2="9.574" gradientUnits="userSpaceOnUse"><stop offset=".807" stop-color="#DE66FF"/><stop offset="1" stop-color="#FCB1FF"/></linearGradient><radialGradient id="g" cx="0" cy="0" r="1" gradientTransform="matrix(-3.01614 11.3369 -8.84963 -11.4959 13.432 5.17)" gradientUnits="userSpaceOnUse"><stop stop-color="#FFC7A3"/><stop offset=".831" stop-color="#DE67FD" stop-opacity="0"/></radialGradient><radialGradient id="h" cx="0" cy="0" r="1" gradientTransform="rotate(45 -11.571 6.207) scale(12.7279)" gradientUnits="userSpaceOnUse"><stop offset=".072" stop-color="#AC13EB"/><stop offset=".879" stop-color="#580087"/></radialGradient><radialGradient id="i" cx="0" cy="0" r="1" gradientTransform="matrix(0 6.3 -7.25625 0 5.5 15.4)" gradientUnits="userSpaceOnUse"><stop offset=".585" stop-color="#841FB0" stop-opacity="0"/><stop offset=".969" stop-color="#D373FC"/></radialGradient></defs></svg>