<svg xmlns="http://www.w3.org/2000/svg" fill="none" viewBox="0 0 20 20"><path fill="url(#a)" d="M2 6a2 2 0 012-2h10a4 4 0 014 4v6a2 2 0 01-2 2H6a4 4 0 01-4-4z"/><path fill="url(#b)" d="M3 6a1 1 0 011-1h10a3 3 0 013 3v6a1 1 0 01-1 1H6a3 3 0 01-3-3z"/><path fill="url(#c)" d="M3 6a1 1 0 011-1h10a3 3 0 013 3v6a1 1 0 01-1 1H6a3 3 0 01-3-3z"/><path fill="url(#d)" d="M13 7a1 1 0 011 1v1H6V8a1 1 0 011-1z"/><path fill="#FEF4DD" d="M8.5 7.5a.5.5 0 110 1 .5.5 0 010-1m2 0a.5.5 0 110 1 .5.5 0 010-1m2 0a.5.5 0 110 1 .5.5 0 010-1"/><path fill="url(#e)" d="M14 12a1 1 0 01-1 1H9v-2.5A1.5 1.5 0 007.5 9H6V8h8z"/><path fill="url(#f)" d="M8 10.67v7.66c0 .37-.3.67-.67.67H5v-8.33c0-.37.3-.67.67-.67h1.66c.37 0 .67.3.67.67"/><path fill="#000" fill-opacity=".5" fill-rule="evenodd" d="M6.5 13.057c0-.308-.285-.557-.636-.557l-2.319.239v6.022L6.227 19H6.5z" clip-rule="evenodd" opacity=".25"/><path fill="url(#g)" d="M6 13.167V19H3v-5.83c0-.37.3-.67.67-.67h1.663c.369 0 .667.299.667.667"/><path fill="url(#h)" d="M1 15.67v2.66c0 .37.3.67.67.67H4v-3.33c0-.37-.3-.67-.67-.67H1.67c-.37 0-.67.3-.67.67"/><defs><linearGradient id="a" x1="7.167" x2="8.388" y1="4" y2="16.211" gradientUnits="userSpaceOnUse"><stop stop-color="#BBB"/><stop offset="1" stop-color="#888"/></linearGradient><linearGradient id="b" x1="6.889" x2="7.799" y1="5" y2="15.197" gradientUnits="userSpaceOnUse"><stop stop-color="#fff"/><stop offset="1" stop-color="#EBEBEB"/></linearGradient><linearGradient id="d" x1="10" x2="10.25" y1="7" y2="9" gradientUnits="userSpaceOnUse"><stop stop-color="#F2C661"/><stop offset="1" stop-color="#EAA300"/></linearGradient><linearGradient id="e" x1="9.998" x2="10.345" y1="8" y2="13.011" gradientUnits="userSpaceOnUse"><stop stop-color="#F9E2AE"/><stop offset="1" stop-color="#F2C661"/></linearGradient><linearGradient id="f" x1="4.5" x2="7.387" y1="11" y2="18.375" gradientUnits="userSpaceOnUse"><stop stop-color="#E6AD10"/><stop offset="1" stop-color="#C87E0E"/></linearGradient><linearGradient id="g" x1="3" x2="5.75" y1="13" y2="19" gradientUnits="userSpaceOnUse"><stop stop-color="#F6D751"/><stop offset="1" stop-color="#E6AD10"/></linearGradient><linearGradient id="h" x1="1" x2="2.468" y1="15" y2="19.027" gradientUnits="userSpaceOnUse"><stop stop-color="#F9E589"/><stop offset="1" stop-color="#F6D751"/></linearGradient><radialGradient id="c" cx="0" cy="0" r="1" gradientTransform="matrix(7.38889 7.91667 -11.0833 2.96875 7.472 7.604)" gradientUnits="userSpaceOnUse"><stop offset=".177" stop-color="#fff"/><stop offset="1" stop-color="#EFEFEF"/></radialGradient></defs></svg>