<svg xmlns="http://www.w3.org/2000/svg" fill="none" viewBox="0 0 20 20"><path fill="url(#a)" d="M2 6a2 2 0 0 1 2-2h10a4 4 0 0 1 4 4v6a2 2 0 0 1-2 2H6a4 4 0 0 1-4-4V6z"/><path fill="url(#b)" d="M3 6a1 1 0 0 1 1-1h10a3 3 0 0 1 3 3v6a1 1 0 0 1-1 1H6a3 3 0 0 1-3-3V6z"/><path fill="url(#c)" d="M3 6a1 1 0 0 1 1-1h10a3 3 0 0 1 3 3v6a1 1 0 0 1-1 1H6a3 3 0 0 1-3-3V6z"/><path fill="url(#d)" d="m8.133 8.68 1.26-1.472a.8.8 0 0 1 1.216 0l1.26 1.471A.8.8 0 0 1 11.262 10H8.74a.8.8 0 0 1-.607-1.32z"/><path fill="url(#e)" d="M7.087 9.185a.5.5 0 0 1-.237.667c-.678.322-.85.64-.85.81 0 .116.071.305.38.535.303.226.767.437 1.367.596a.5.5 0 1 1-.256.967c-.674-.179-1.27-.434-1.708-.761-.433-.322-.784-.772-.784-1.337 0-.797.686-1.363 1.422-1.713a.5.5 0 0 1 .666.236z"/><path fill="url(#f)" d="M12.96 9.185a.5.5 0 0 1 .666-.236c.736.35 1.42.916 1.42 1.713 0 .41-.186.762-.45 1.043-.262.279-.618.509-1.021.695-.645.298-1.47.508-2.381.606a.5.5 0 0 1-.555.832l-1.304-.87a.6.6 0 0 1 0-.998l1.304-.869a.5.5 0 0 1 .554.832l-.12.08c.833-.088 1.552-.276 2.083-.52.33-.153.565-.317.71-.473.144-.152.18-.272.18-.357 0-.171-.172-.49-.85-.811a.5.5 0 0 1-.237-.667z"/><circle cx="12.25" cy="6.75" r=".75" fill="url(#g)"/><defs><linearGradient id="a" x1="7.167" x2="8.388" y1="4" y2="16.211" gradientUnits="userSpaceOnUse"><stop stop-color="#BBB"/><stop offset="1" stop-color="#888"/></linearGradient><linearGradient id="b" x1="6.889" x2="7.799" y1="5" y2="15.197" gradientUnits="userSpaceOnUse"><stop stop-color="#fff"/><stop offset="1" stop-color="#EBEBEB"/></linearGradient><radialGradient id="c" cx="0" cy="0" r="1" gradientTransform="matrix(7.38889 7.91667 -11.0833 2.96875 7.472 7.604)" gradientUnits="userSpaceOnUse"><stop offset=".177" stop-color="#fff"/><stop offset="1" stop-color="#EFEFEF"/></radialGradient><linearGradient id="d" x1="7.511" x2="9.148" y1="5.584" y2="14.2" gradientUnits="userSpaceOnUse"><stop offset="0" stop-color="#597493"/><stop offset="1" stop-color="#0F2F56"/></linearGradient><linearGradient id="e" x1="7.511" x2="9.148" y1="5.584" y2="14.2" gradientUnits="userSpaceOnUse"><stop offset="0" stop-color="#597493"/><stop offset="1" stop-color="#0F2F56"/></linearGradient><linearGradient id="f" x1="7.511" x2="9.148" y1="5.584" y2="14.2" gradientUnits="userSpaceOnUse"><stop offset="0" stop-color="#597493"/><stop offset="1" stop-color="#0F2F56"/></linearGradient><linearGradient id="g" x1="11.5" x2="13.13" y1="5.063" y2="8.182" gradientUnits="userSpaceOnUse"><stop offset="0" stop-color="#597493"/><stop offset="1" stop-color="#0F2F56"/></linearGradient></defs></svg>