<svg xmlns="http://www.w3.org/2000/svg" fill="none" viewBox="0 0 20 20"><path fill="#035499" d="M8.456 3.698A2 2 0 006.937 3H4a2 2 0 00-2 2v9a2 2 0 002 2h12a2 2 0 002-2V7a2 2 0 00-2-2H9.966a.86.86 0 01-.651-.3z"/><path fill="url(#a)" d="M3 8.5A1.5 1.5 0 014.5 7h2.293C7.246 7 7.68 6.82 8 6.5S8.754 6 9.207 6H16a1 1 0 011 1v7a1 1 0 01-1 1H4a1 1 0 01-1-1z"/><g fill="#FAFAFA" filter="url(#b)"><path d="M9.505 12.202a.7.7 0 01.99 0l1.65 1.65A1.5 1.5 0 0111.5 14h-3c-.232 0-.45-.055-.646-.148z"/><path fill-rule="evenodd" d="M11.5 8A1.5 1.5 0 0113 9.5v3a1.5 1.5 0 01-.148.645l-1.65-1.65a1.7 1.7 0 00-2.404 0l-1.65 1.65A1.5 1.5 0 017 12.5v-3A1.5 1.5 0 018.5 8zm-.25 1a.75.75 0 100 1.5.75.75 0 000-1.5" clip-rule="evenodd"/></g><defs><linearGradient id="a" x1="7.308" x2="9.177" y1="6" y2="15.059" gradientUnits="userSpaceOnUse"><stop stop-color="#319EE4"/><stop offset="1" stop-color="#1176CA"/></linearGradient><filter id="b" width="8" height="9" x="6" y="6.5" color-interpolation-filters="sRGB" filterUnits="userSpaceOnUse"><feFlood flood-opacity="0" result="BackgroundImageFix"/><feColorMatrix in="SourceAlpha" result="hardAlpha" values="0 0 0 0 0 0 0 0 0 0 0 0 0 0 0 0 0 0 127 0"/><feOffset dy=".5"/><feGaussianBlur stdDeviation=".5"/><feComposite in2="hardAlpha" operator="out"/><feColorMatrix values="0 0 0 0 1 0 0 0 0 1 0 0 0 0 1 0 0 0 0.28 0"/><feBlend in2="BackgroundImageFix" result="effect1_dropShadow_11245_3558"/><feColorMatrix in="SourceAlpha" result="hardAlpha" values="0 0 0 0 0 0 0 0 0 0 0 0 0 0 0 0 0 0 127 0"/><feOffset dy="-.5"/><feGaussianBlur stdDeviation=".5"/><feComposite in2="hardAlpha" operator="out"/><feColorMatrix values="0 0 0 0 0 0 0 0 0 0 0 0 0 0 0 0 0 0 0.2 0"/><feBlend in2="effect1_dropShadow_11245_3558" result="effect2_dropShadow_11245_3558"/><feBlend in="SourceGraphic" in2="effect2_dropShadow_11245_3558" result="shape"/></filter></defs></svg>