<svg xmlns="http://www.w3.org/2000/svg" fill="none" viewBox="0 0 20 20"><path fill="url(#a)" fill-rule="evenodd" d="M5 5a2 2 0 012-2h6a4 4 0 014 4v6a2 2 0 01-2 2 2 2 0 01-2 2H9a6 6 0 01-6-6V7a2 2 0 012-2" clip-rule="evenodd"/><path fill="url(#b)" fill-rule="evenodd" d="M7 4h6a3 3 0 013 3v6a1 1 0 01-1 1H9a3 3 0 01-3-3V5a1 1 0 011-1M5 6a1 1 0 00-1 1v4a5 5 0 005 5h4a1 1 0 001-1H9a4 4 0 01-4-4z" clip-rule="evenodd"/><path fill="url(#c)" fill-rule="evenodd" d="M7 4h6a3 3 0 013 3v6a1 1 0 01-1 1H9a3 3 0 01-3-3V5a1 1 0 011-1M5 6a1 1 0 00-1 1v4a5 5 0 005 5h4a1 1 0 001-1H9a4 4 0 01-4-4z" clip-rule="evenodd"/><path fill="url(#d)" d="M10.045 9.955a.675.675 0 01-.955 0L8.135 9a.675.675 0 010-.955l.955-.955a.675.675 0 01.955 0l.955.955A.675.675 0 0111 9z"/><path fill="url(#e)" d="M10.045 9.955a.675.675 0 01-.955 0L8.135 9a.675.675 0 010-.955l.955-.955a.675.675 0 01.955 0l.955.955A.675.675 0 0111 9z"/><path fill="url(#f)" d="M8.135 9a.675.675 0 00.955 0l2.864-2.865a.675.675 0 01.955 0l.955.955a.675.675 0 010 .955L11 10.91a.675.675 0 01-.954 0z"/><path fill="url(#g)" d="M8.135 9a.675.675 0 00.955 0l2.864-2.865a.675.675 0 01.955 0l.955.955a.675.675 0 010 .955L11 10.91a.675.675 0 01-.954 0z"/><path fill="url(#h)" d="M9.09 9.955a.675.675 0 00.955 0l1.91-1.91a.675.675 0 01.955 0l.954.955a.675.675 0 010 .955l-1.91 1.91a.675.675 0 01-.954 0z"/><path fill="url(#i)" d="M9.09 9.955a.675.675 0 00.955 0l1.91-1.91a.675.675 0 01.955 0l.954.955a.675.675 0 010 .955l-1.91 1.91a.675.675 0 01-.954 0z"/><defs><linearGradient id="a" x1="7.521" x2="9.406" y1="3" y2="17.138" gradientUnits="userSpaceOnUse"><stop stop-color="#BBB"/><stop offset="1" stop-color="#888"/></linearGradient><linearGradient id="b" x1="7.333" x2="8.851" y1="4" y2="16.144" gradientUnits="userSpaceOnUse"><stop stop-color="#fff"/><stop offset="1" stop-color="#EBEBEB"/></linearGradient><linearGradient id="d" x1="9.568" x2="8.488" y1="6.893" y2="9.199" gradientUnits="userSpaceOnUse"><stop stop-color="#8752E0"/><stop offset="1" stop-color="#541278"/></linearGradient><linearGradient id="e" x1="10.076" x2="9.198" y1="8.763" y2="7.901" gradientUnits="userSpaceOnUse"><stop offset=".122" stop-color="#3D0D59"/><stop offset="1" stop-color="#7034B0" stop-opacity="0"/></linearGradient><linearGradient id="f" x1="12.625" x2="10.453" y1="5.937" y2="11.149" gradientUnits="userSpaceOnUse"><stop stop-color="#DB45E0"/><stop offset="1" stop-color="#6C0F71"/></linearGradient><linearGradient id="g" x1="12.625" x2="10.453" y1="5.937" y2="11.149" gradientUnits="userSpaceOnUse"><stop stop-color="#DB45E0"/><stop offset=".677" stop-color="#A829AE"/><stop offset="1" stop-color="#8F28B3"/></linearGradient><linearGradient id="h" x1="12.531" x2="11.51" y1="7.852" y2="12.063" gradientUnits="userSpaceOnUse"><stop stop-color="#3DCBFF"/><stop offset="1" stop-color="#00479E"/></linearGradient><linearGradient id="i" x1="12.586" x2="10.623" y1="7.961" y2="11.791" gradientUnits="userSpaceOnUse"><stop stop-color="#3DCBFF"/><stop offset="1" stop-color="#4A40D4"/></linearGradient><radialGradient id="c" cx="0" cy="0" r="1" gradientTransform="matrix(6.33333 9.5 -9.5 3.5625 7.833 7.125)" gradientUnits="userSpaceOnUse"><stop offset=".177" stop-color="#fff"/><stop offset="1" stop-color="#EFEFEF"/></radialGradient></defs></svg>