<svg xmlns="http://www.w3.org/2000/svg" fill="none" viewBox="0 0 20 20"><path fill="url(#a)" d="M2 6a2 2 0 0 1 2-2h10a4 4 0 0 1 4 4v6a2 2 0 0 1-2 2H6a4 4 0 0 1-4-4V6z"/><path fill="url(#b)" d="M3 6a1 1 0 0 1 1-1h10a3 3 0 0 1 3 3v6a1 1 0 0 1-1 1H6a3 3 0 0 1-3-3V6z"/><path fill="url(#c)" d="M3 6a1 1 0 0 1 1-1h10a3 3 0 0 1 3 3v6a1 1 0 0 1-1 1H6a3 3 0 0 1-3-3V6z"/><path fill="url(#d)" d="M13 6.67v6.66c0 .37-.3.67-.67.67H10V6.67c0-.37.3-.67.67-.67h1.66c.37 0 .67.3.67.67z"/><path fill="#000" fill-opacity=".5" fill-rule="evenodd" d="M11.5 8.557c0-.308-.285-.557-.636-.557l-2.319.239v5.522l2.682.239h.273V8.557z" clip-rule="evenodd" opacity=".25"/><path fill="url(#e)" d="M11 8.667V14H8V8.67c0-.37.3-.67.67-.67h1.663c.368 0 .667.298.667.667z"/><path fill="url(#f)" d="M6 10.67v2.66c0 .37.3.67.67.67H9v-3.33c0-.37-.3-.67-.67-.67H6.67c-.37 0-.67.3-.67.67z"/><defs><linearGradient id="a" x1="7.167" x2="8.388" y1="4" y2="16.211" gradientUnits="userSpaceOnUse"><stop stop-color="#BBB"/><stop offset="1" stop-color="#888"/></linearGradient><linearGradient id="b" x1="6.889" x2="7.799" y1="5" y2="15.197" gradientUnits="userSpaceOnUse"><stop stop-color="#fff"/><stop offset="1" stop-color="#EBEBEB"/></linearGradient><radialGradient id="c" cx="0" cy="0" r="1" gradientTransform="matrix(7.38889 7.91667 -11.0833 2.96875 7.472 7.604)" gradientUnits="userSpaceOnUse"><stop offset=".177" stop-color="#fff"/><stop offset="1" stop-color="#EFEFEF"/></radialGradient><linearGradient id="d" x1="9.5" x2="12.387" y1="6" y2="13.376" gradientUnits="userSpaceOnUse"><stop stop-color="#E6AD10"/><stop offset="1" stop-color="#C87E0E"/></linearGradient><linearGradient id="e" x1="8" x2="10.75" y1="8" y2="14" gradientUnits="userSpaceOnUse"><stop stop-color="#F6D751"/><stop offset="1" stop-color="#E6AD10"/></linearGradient><linearGradient id="f" x1="6" x2="7.468" y1="10" y2="14.027" gradientUnits="userSpaceOnUse"><stop stop-color="#F9E589"/><stop offset="1" stop-color="#F6D751"/></linearGradient></defs></svg>