<svg xmlns="http://www.w3.org/2000/svg" fill="none" viewBox="0 0 20 20"><path fill="url(#a)" d="M2 6a2 2 0 0 1 2-2h10a4 4 0 0 1 4 4v6a2 2 0 0 1-2 2H6a4 4 0 0 1-4-4V6z"/><path fill="url(#b)" d="M3 6a1 1 0 0 1 1-1h10a3 3 0 0 1 3 3v6a1 1 0 0 1-1 1H6a3 3 0 0 1-3-3V6z"/><path fill="url(#c)" d="M3 6a1 1 0 0 1 1-1h10a3 3 0 0 1 3 3v6a1 1 0 0 1-1 1H6a3 3 0 0 1-3-3V6z"/><path fill="url(#d)" d="M11.499 13a.5.5 0 1 1 0 1H11v-1h.499z"/><path fill="url(#e)" d="M13 10a2 2 0 0 1-1.796 1.99L11 12v-.5A2.5 2.5 0 0 0 8.5 9H7V6.5h6V10z"/><path fill="#D9D9D9" d="M6 6.5a.5.5 0 0 1 .5-.5h7a.5.5 0 0 1 0 1h-7a.5.5 0 0 1-.5-.5z"/><path fill="url(#f)" d="M6 6.5a.5.5 0 0 1 .5-.5h7a.5.5 0 0 1 0 1h-7a.5.5 0 0 1-.5-.5z"/><path fill="url(#g)" d="M6 6.5a.5.5 0 0 1 .5-.5h7a.5.5 0 0 1 0 1h-7a.5.5 0 0 1-.5-.5z"/><rect width="9" height="9" x="1" y="10" fill="url(#h)" rx="2"/><rect width="9" height="9" x="1" y="10" fill="url(#i)" fill-opacity=".3" rx="2"/><path fill="#fff" d="M4.8 15.372V17H3.672v-5h1.742c.624 0 1.099.136 1.424.408.329.272.493.675.493 1.21 0 .55-.184.98-.552 1.29-.365.31-.856.464-1.473.464H4.8zm0-2.507v1.642h.47c.28 0 .495-.073.647-.22.151-.146.227-.357.227-.63 0-.254-.075-.45-.224-.587-.146-.137-.357-.205-.632-.205H4.8z"/><defs><linearGradient id="a" x1="7.167" x2="8.388" y1="4" y2="16.211" gradientUnits="userSpaceOnUse"><stop stop-color="#BBB"/><stop offset="1" stop-color="#888"/></linearGradient><linearGradient id="b" x1="6.889" x2="7.799" y1="5" y2="15.197" gradientUnits="userSpaceOnUse"><stop stop-color="#fff"/><stop offset="1" stop-color="#EBEBEB"/></linearGradient><radialGradient id="c" cx="0" cy="0" r="1" gradientTransform="matrix(7.38889 7.91667 -11.0833 2.96875 7.472 7.604)" gradientUnits="userSpaceOnUse"><stop offset=".177" stop-color="#fff"/><stop offset="1" stop-color="#EFEFEF"/></radialGradient><linearGradient id="d" x1="-10.234" x2="2.668" y1="-30.608" y2="28.005" gradientUnits="userSpaceOnUse"><stop offset=".508" stop-color="#FA734C"/><stop offset=".725" stop-color="#E5495B"/><stop offset=".873" stop-color="#AA1D2D"/></linearGradient><linearGradient id="e" x1="12" x2="9.143" y1="6.5" y2="13.804" gradientUnits="userSpaceOnUse"><stop offset=".103" stop-color="#FFA05C"/><stop offset=".767" stop-color="#FDB567"/></linearGradient><linearGradient id="f" x1="8.285" x2="7.847" y1="8" y2="3.736" gradientUnits="userSpaceOnUse"><stop stop-color="#C64925"/><stop offset="1" stop-color="#FF8F6B"/></linearGradient><linearGradient id="g" x1="8.857" x2="9.742" y1="4" y2="8.55" gradientUnits="userSpaceOnUse"><stop offset=".298" stop-color="#FF7F48"/><stop offset=".579" stop-color="#E5495B"/><stop offset=".89" stop-color="#AA1D2D"/></linearGradient><radialGradient id="h" cx="0" cy="0" r="1" gradientTransform="rotate(45 -11.572 6.206) scale(12.7279)" gradientUnits="userSpaceOnUse"><stop stop-color="#F8193E"/><stop offset=".939" stop-color="#920616"/></radialGradient><radialGradient id="i" cx="0" cy="0" r="1" gradientTransform="matrix(0 6.3 -7.17188 0 5.499 15.4)" gradientUnits="userSpaceOnUse"><stop offset=".576" stop-color="#FFB055" stop-opacity="0"/><stop offset=".974" stop-color="#FFF2BE"/></radialGradient></defs></svg>