<svg xmlns="http://www.w3.org/2000/svg" fill="none" viewBox="0 0 20 20"><g clip-path="url(#a)"><g clip-path="url(#b)"><path fill="url(#c)" d="M4 4a2 2 0 012-2h6a4 4 0 014 4v10a2 2 0 01-2 2H8a4 4 0 01-4-4z"/><path fill="url(#d)" d="M5 4a1 1 0 011-1h6a3 3 0 013 3v10a1 1 0 01-1 1H8a3 3 0 01-3-3z"/><path fill="url(#e)" d="M5 4a1 1 0 011-1h6a3 3 0 013 3v10a1 1 0 01-1 1H8a3 3 0 01-3-3z"/><rect width="9" height="9" x="1" y="10" fill="url(#f)" rx="2"/><rect width="9" height="9" x="1" y="10" fill="url(#g)" fill-opacity=".6" rx="2"/><path fill="#fff" d="m3.613 15.968.95-.48q.16.315.419.463.261.148.572.148.346 0 .528-.135.18-.138.181-.415a.46.46 0 00-.174-.364q-.175-.152-.618-.23-.845-.148-1.23-.52a1.24 1.24 0 01-.38-.924q0-.687.503-1.1Q4.866 12 5.69 12q.555 0 .977.22.423.219.67.627l-.928.462a1 1 0 00-.332-.33.87.87 0 00-.447-.105q-.321 0-.489.135a.43.43 0 00-.164.35.43.43 0 00.157.328q.162.138.643.226.81.149 1.208.54.4.387.401.982 0 .72-.478 1.143Q6.43 17 5.544 17q-.642 0-1.16-.27a1.8 1.8 0 01-.77-.762"/><path fill="url(#h)" d="M12.5 13a.5.5 0 010 1H11v-1zm0-2a.5.5 0 010 1H11v-1z"/><path fill="url(#i)" d="M13 7v2c0 .55-.45 1-1 1h-1.77C9.69 9.38 8.89 9 8 9H7V7c0-.56.45-1 1-1h4c.55 0 1 .44 1 1"/></g></g><defs><linearGradient id="c" x1="7.875" x2="10.709" y1="2" y2="17.941" gradientUnits="userSpaceOnUse"><stop stop-color="#BBB"/><stop offset="1" stop-color="#888"/></linearGradient><linearGradient id="d" x1="7.778" x2="10.221" y1="3" y2="16.961" gradientUnits="userSpaceOnUse"><stop stop-color="#fff"/><stop offset="1" stop-color="#EBEBEB"/></linearGradient><linearGradient id="h" x1="11.125" x2="11.806" y1="9" y2="15.139" gradientUnits="userSpaceOnUse"><stop stop-color="#00E3DF"/><stop offset=".509" stop-color="#0097A8"/><stop offset=".838" stop-color="#007791"/></linearGradient><linearGradient id="i" x1="8.667" x2="9.007" y1="6" y2="10.083" gradientUnits="userSpaceOnUse"><stop stop-color="#86F2F2"/><stop offset="1" stop-color="#37C6D0"/></linearGradient><radialGradient id="e" cx="0" cy="0" r="1" gradientTransform="matrix(5.27778 11.0833 -7.91667 4.15625 8.194 6.646)" gradientUnits="userSpaceOnUse"><stop offset=".177" stop-color="#fff"/><stop offset="1" stop-color="#EFEFEF"/></radialGradient><radialGradient id="f" cx="0" cy="0" r="1" gradientTransform="rotate(45 -11.571 6.207)scale(12.7279)" gradientUnits="userSpaceOnUse"><stop offset=".063" stop-color="#00B6BD"/><stop offset=".89" stop-color="#00495C"/></radialGradient><radialGradient id="g" cx="0" cy="0" r="1" gradientTransform="matrix(0 6.3 -7.17187 0 5.5 15.4)" gradientUnits="userSpaceOnUse"><stop offset=".567" stop-color="#1E8581" stop-opacity="0"/><stop offset=".974" stop-color="#1ECBE6"/></radialGradient><clipPath id="a"><path fill="#fff" d="M0 0h20v20H0z"/></clipPath><clipPath id="b"><path fill="#fff" d="M0 0h20v20H0z"/></clipPath></defs></svg>