<svg xmlns="http://www.w3.org/2000/svg" fill="none" viewBox="0 0 20 20"><path fill="url(#a)" d="M2 6a2 2 0 0 1 2-2h10a4 4 0 0 1 4 4v6a2 2 0 0 1-2 2H6a4 4 0 0 1-4-4V6z"/><path fill="url(#b)" d="M3 6a1 1 0 0 1 1-1h10a3 3 0 0 1 3 3v6a1 1 0 0 1-1 1H6a3 3 0 0 1-3-3V6z"/><path fill="url(#c)" d="M3 6a1 1 0 0 1 1-1h10a3 3 0 0 1 3 3v6a1 1 0 0 1-1 1H6a3 3 0 0 1-3-3V6z"/><path fill="url(#d)" d="M13 8a1 1 0 0 1 1 1v2.75c0 .605-.43 1.11-1 1.225l-.25.025V8H13z"/><path fill="url(#e)" d="M12 7a1 1 0 0 1 1 1v4.975c-.08.016-.165.025-.25.025H11v-1.5A2.5 2.5 0 0 0 8.5 9H6V8a1 1 0 0 1 1-1h5z"/><path fill="#028298" d="M11.75 11a.25.25 0 1 1 0 .5H11a2.51 2.51 0 0 0-.05-.5h.8zm0-1.5a.25.25 0 1 1 0 .5h-1.254a2.511 2.511 0 0 0-.414-.435.249.249 0 0 1 .168-.065h1.5zm-.5-1.5a.25.25 0 1 1 0 .5h-3.5a.25.25 0 0 1 0-.5h3.5z"/><rect width="9" height="9" x="1" y="10" fill="url(#f)" rx="2"/><rect width="9" height="9" x="1" y="10" fill="url(#g)" fill-opacity=".6" rx="2"/><path fill="#fff" d="m3.613 15.968.95-.48c.107.21.246.364.419.463.174.099.365.148.572.148.23 0 .406-.045.527-.135.121-.092.182-.23.182-.415a.46.46 0 0 0-.175-.364c-.116-.101-.322-.178-.618-.23-.563-.098-.973-.272-1.229-.52a1.239 1.239 0 0 1-.38-.924c0-.458.167-.825.503-1.1.335-.274.777-.411 1.326-.411.37 0 .696.073.978.22.281.146.505.355.67.627l-.928.462a1.023 1.023 0 0 0-.332-.33.871.871 0 0 0-.447-.105c-.214 0-.377.045-.489.135a.433.433 0 0 0-.164.35.43.43 0 0 0 .157.328c.107.092.321.168.643.226.54.099.942.279 1.208.54.267.258.401.586.401.982 0 .48-.16.862-.478 1.143-.32.281-.774.422-1.365.422-.429 0-.815-.09-1.16-.27a1.81 1.81 0 0 1-.771-.762z"/><defs><linearGradient id="a" x1="7.167" x2="8.388" y1="4" y2="16.211" gradientUnits="userSpaceOnUse"><stop stop-color="#BBB"/><stop offset="1" stop-color="#888"/></linearGradient><linearGradient id="b" x1="6.889" x2="7.799" y1="5" y2="15.197" gradientUnits="userSpaceOnUse"><stop stop-color="#fff"/><stop offset="1" stop-color="#EBEBEB"/></linearGradient><radialGradient id="c" cx="0" cy="0" r="1" gradientTransform="matrix(7.38889 7.91667 -11.0833 2.96875 7.472 7.604)" gradientUnits="userSpaceOnUse"><stop offset=".177" stop-color="#fff"/><stop offset="1" stop-color="#EFEFEF"/></radialGradient><linearGradient id="d" x1="12.828" x2="15.645" y1="4.667" y2="14.192" gradientUnits="userSpaceOnUse"><stop stop-color="#00E3DF"/><stop offset=".509" stop-color="#0097A8"/><stop offset=".838" stop-color="#007791"/></linearGradient><linearGradient id="e" x1="7.944" x2="8.598" y1="7" y2="13.097" gradientUnits="userSpaceOnUse"><stop stop-color="#86F2F2"/><stop offset="1" stop-color="#37C6D0"/></linearGradient><radialGradient id="f" cx="0" cy="0" r="1" gradientTransform="rotate(45 -11.571 6.207) scale(12.7279)" gradientUnits="userSpaceOnUse"><stop offset=".063" stop-color="#00B6BD"/><stop offset=".89" stop-color="#00495C"/></radialGradient><radialGradient id="g" cx="0" cy="0" r="1" gradientTransform="matrix(0 6.3 -7.17187 0 5.5 15.4)" gradientUnits="userSpaceOnUse"><stop offset=".567" stop-color="#1E8581" stop-opacity="0"/><stop offset=".974" stop-color="#1ECBE6"/></radialGradient></defs></svg>