<svg xmlns="http://www.w3.org/2000/svg" fill="none" viewBox="0 0 20 20"><path fill="url(#a)" d="M4 4a2 2 0 0 1 2-2h6a4 4 0 0 1 4 4v10a2 2 0 0 1-2 2H8a4 4 0 0 1-4-4V4z"/><path fill="url(#b)" d="M5 4a1 1 0 0 1 1-1h6a3 3 0 0 1 3 3v10a1 1 0 0 1-1 1H8a3 3 0 0 1-3-3V4z"/><path fill="url(#c)" d="M5 4a1 1 0 0 1 1-1h6a3 3 0 0 1 3 3v10a1 1 0 0 1-1 1H8a3 3 0 0 1-3-3V4z"/><path fill="#185ABD" d="m7.265 9.141-.92.92a.468.468 0 0 0 0 .678l1.647 1.598 1.597-1.598-1.597-1.598a.527.527 0 0 0-.727 0z"/><path fill="url(#d)" d="m13.705 8.463-.92-.968a.468.468 0 0 0-.678 0L10.85 8.754 9.25 10.4l-1.26 1.259a.468.468 0 0 0 0 .678l.92.92a.468.468 0 0 0 .679 0l1.259-1.26 1.597-1.597 1.26-1.259c.193-.194.193-.533 0-.678z"/><defs><linearGradient id="a" x1="7.875" x2="10.709" y1="2" y2="17.941" gradientUnits="userSpaceOnUse"><stop stop-color="#BBB"/><stop offset="1" stop-color="#888"/></linearGradient><linearGradient id="b" x1="7.778" x2="10.221" y1="3" y2="16.961" gradientUnits="userSpaceOnUse"><stop stop-color="#fff"/><stop offset="1" stop-color="#EBEBEB"/></linearGradient><radialGradient id="c" cx="0" cy="0" r="1" gradientTransform="matrix(5.27778 11.0833 -7.91667 4.15625 8.194 6.646)" gradientUnits="userSpaceOnUse"><stop offset=".177" stop-color="#fff"/><stop offset="1" stop-color="#EFEFEF"/></radialGradient><linearGradient id="d" x1="10.745" x2="6.167" y1="5.67" y2="10.415" gradientUnits="userSpaceOnUse"><stop stop-color="#62C4F6"/><stop offset="1" stop-color="#2A88E5"/></linearGradient></defs></svg>