<svg xmlns="http://www.w3.org/2000/svg" fill="none" viewBox="0 0 20 20"><rect width="16" height="12" x="2" y="4" fill="url(#a)" rx="3"/><path fill="url(#b)" d="M15 5a2 2 0 0 1 2 2v6a2 2 0 0 1-1.796 1.99L15 15H5l-.204-.01a2 2 0 0 1-1.785-1.786L3 13V7a2 2 0 0 1 2-2h10zM5 5.5A1.5 1.5 0 0 0 3.5 7v6A1.5 1.5 0 0 0 5 14.5h10a1.5 1.5 0 0 0 1.5-1.5V7A1.5 1.5 0 0 0 15 5.5H5zM5.5 7a.5.5 0 0 1 .5.5v5a.5.5 0 0 1-1 0v-5a.5.5 0 0 1 .5-.5zm8.146.646a.5.5 0 1 1 .707.708l-.632.631a1.987 1.987 0 0 1 0 2.029l.633.633a.5.5 0 1 1-.707.707l-.633-.633a1.987 1.987 0 0 1-2.029 0l-.631.633a.5.5 0 1 1-.708-.707l.632-.633a1.989 1.989 0 0 1 0-2.029l-.632-.631a.5.5 0 1 1 .707-.708l.632.632a1.988 1.988 0 0 1 2.029 0l.633-.632zM12 9a1 1 0 1 0 0 2 1 1 0 0 0 0-2z"/><defs><linearGradient id="a" x1="7.167" x2="8.388" y1="4" y2="16.211" gradientUnits="userSpaceOnUse"><stop stop-color="#CAD3D8"/><stop offset="1" stop-color="#9AA6AD"/></linearGradient><linearGradient id="b" x1="7.521" x2="8.491" y1="5" y2="15.185" gradientUnits="userSpaceOnUse"><stop stop-color="#4D565C"/><stop offset="1" stop-color="#394146"/></linearGradient></defs></svg>