<svg xmlns="http://www.w3.org/2000/svg" fill="none" viewBox="0 0 20 20"><path fill="url(#a)" d="M2 6a2 2 0 0 1 2-2h10a4 4 0 0 1 4 4v6a2 2 0 0 1-2 2H6a4 4 0 0 1-4-4V6z"/><path fill="url(#b)" d="M3 6a1 1 0 0 1 1-1h10a3 3 0 0 1 3 3v6a1 1 0 0 1-1 1H6a3 3 0 0 1-3-3V6z"/><path fill="url(#c)" d="M3 6a1 1 0 0 1 1-1h10a3 3 0 0 1 3 3v6a1 1 0 0 1-1 1H6a3 3 0 0 1-3-3V6z"/><path fill="url(#d)" d="M8 6.627v3.746c0 .486.605.787 1.08.538L12 9.04c.464-.243.464-.831.002-1.075L9.082 6.09C8.605 5.84 8 6.14 8 6.627z"/><path fill="url(#e)" d="M7.088 9.185a.5.5 0 0 1-.237.667c-.678.322-.851.64-.851.81 0 .116.072.305.381.535.303.226.767.437 1.366.596a.5.5 0 0 1-.255.966c-.674-.178-1.27-.433-1.709-.76-.432-.322-.783-.772-.783-1.337 0-.797.685-1.364 1.421-1.713a.5.5 0 0 1 .667.236z"/><path fill="url(#f)" d="M12.96 9.185a.5.5 0 0 1 .666-.236c.736.35 1.422.916 1.422 1.713 0 .41-.188.762-.451 1.043-.262.278-.618.509-1.022.695-.645.298-1.468.508-2.38.606a.5.5 0 0 1-.556.832l-1.303-.87a.6.6 0 0 1 0-.998l1.303-.87a.5.5 0 1 1 .555.833l-.12.08c.833-.088 1.552-.276 2.083-.52.33-.153.565-.318.71-.473.144-.152.18-.272.18-.358 0-.17-.172-.488-.85-.81a.5.5 0 0 1-.237-.667z"/><defs><linearGradient id="a" x1="7.167" x2="8.388" y1="4" y2="16.211" gradientUnits="userSpaceOnUse"><stop stop-color="#BBB"/><stop offset="1" stop-color="#888"/></linearGradient><linearGradient id="b" x1="6.889" x2="7.799" y1="5" y2="15.197" gradientUnits="userSpaceOnUse"><stop stop-color="#fff"/><stop offset="1" stop-color="#EBEBEB"/></linearGradient><radialGradient id="c" cx="0" cy="0" r="1" gradientTransform="matrix(7.38889 7.91667 -11.0833 2.96875 7.472 7.604)" gradientUnits="userSpaceOnUse"><stop offset=".177" stop-color="#fff"/><stop offset="1" stop-color="#EFEFEF"/></radialGradient><linearGradient id="d" x1="7.512" x2="9.592" y1="4.477" y2="14.142" gradientUnits="userSpaceOnUse"><stop offset="0" stop-color="#597493"/><stop offset="1" stop-color="#0F2F56"/></linearGradient><linearGradient id="e" x1="7.512" x2="9.592" y1="4.477" y2="14.142" gradientUnits="userSpaceOnUse"><stop offset="0" stop-color="#597493"/><stop offset="1" stop-color="#0F2F56"/></linearGradient><linearGradient id="f" x1="7.512" x2="9.592" y1="4.477" y2="14.142" gradientUnits="userSpaceOnUse"><stop offset="0" stop-color="#597493"/><stop offset="1" stop-color="#0F2F56"/></linearGradient></defs></svg>