<svg xmlns="http://www.w3.org/2000/svg" fill="none" viewBox="0 0 20 20"><path fill="url(#a)" d="M2 6a2 2 0 0 1 2-2h10a4 4 0 0 1 4 4v6a2 2 0 0 1-2 2H6a4 4 0 0 1-4-4V6z"/><path fill="url(#b)" d="M2 6a2 2 0 0 1 2-2h10a4 4 0 0 1 4 4v6a2 2 0 0 1-2 2H6a4 4 0 0 1-4-4V6z"/><path fill="url(#c)" fill-rule="evenodd" d="M4 5a1 1 0 0 0-1 1v1.5a.5.5 0 0 1-1 0V6a2 2 0 0 1 2-2h1.25a.5.5 0 0 1 0 1H4zm3.25-.5a.5.5 0 0 1 .5-.5h2.5a.5.5 0 0 1 0 1h-2.5a.5.5 0 0 1-.5-.5zm5 0a.5.5 0 0 1 .5-.5H14a3.99 3.99 0 0 1 1.531.304.5.5 0 1 1-.383.923A2.99 2.99 0 0 0 14 5h-1.25a.5.5 0 0 1-.5-.5zm4.793 1.698a.5.5 0 0 1 .653.27c.196.473.304.99.304 1.532v1.5a.5.5 0 0 1-1 0V8a2.99 2.99 0 0 0-.227-1.148.5.5 0 0 1 .27-.654zM2.5 10a.5.5 0 0 1 .5.5V12c0 .408.081.795.227 1.148a.5.5 0 0 1-.923.383A3.99 3.99 0 0 1 2 12v-1.5a.5.5 0 0 1 .5-.5zm15 2a.5.5 0 0 1 .5.5V14a2 2 0 0 1-2 2h-1.25a.5.5 0 0 1 0-1H16a1 1 0 0 0 1-1v-1.5a.5.5 0 0 1 .5-.5zM4.198 15.043a.5.5 0 0 1 .654-.27c.353.146.74.227 1.148.227h1.25a.5.5 0 0 1 0 1H6a3.99 3.99 0 0 1-1.531-.304.5.5 0 0 1-.27-.653zm5.052.457a.5.5 0 0 1 .5-.5h2.5a.5.5 0 0 1 0 1h-2.5a.5.5 0 0 1-.5-.5z" clip-rule="evenodd"/><path fill="#2B7CD3" d="M12.5 8a.5.5 0 0 1 .5.5v3a.5.5 0 0 1-.5.5H11v-.5a2.5 2.5 0 0 0-2-2.45V8.5a.5.5 0 0 1 .5-.5h3z"/><path fill="#41A5EE" d="M8.648 6.145a.499.499 0 0 1 .704 0l1.502 1.502a.498.498 0 0 1 0 .704l-1.03 1.03A2.487 2.487 0 0 0 8.5 9h-.705l-.649-.649a.498.498 0 0 1 0-.704l1.502-1.502z"/><rect width="9" height="9" x="1" y="10" fill="#185ABD" rx="2"/><path fill="#fff" d="m7.853 12-1.725 5H4.851l-1.704-5h1.201l1.058 3.361c.025.08.045.148.06.206l.048.202h.021c.019-.084.034-.153.045-.209.012-.058.03-.129.056-.213L6.687 12h1.166z"/><defs><linearGradient id="a" x1="6.444" x2="7.591" y1="4" y2="16.226" gradientUnits="userSpaceOnUse"><stop stop-color="#fff"/><stop offset="1" stop-color="#EBEBEB"/></linearGradient><radialGradient id="b" cx="0" cy="0" r="1" gradientTransform="matrix(8.44444 9.5 -12.6667 3.5625 7.111 7.125)" gradientUnits="userSpaceOnUse"><stop offset=".177" stop-color="#fff"/><stop offset="1" stop-color="#EFEFEF"/></radialGradient><linearGradient id="c" x1="7.167" x2="8.388" y1="4" y2="16.211" gradientUnits="userSpaceOnUse"><stop stop-color="#BBB"/><stop offset="1" stop-color="#888"/></linearGradient></defs></svg>