<svg xmlns="http://www.w3.org/2000/svg" fill="none" viewBox="0 0 96 96"><path fill="url(#a)" d="M18 17a9 9 0 0 1 9-9h33c9.941 0 18 8.059 18 18v53a9 9 0 0 1-9 9H36c-9.941 0-18-8.059-18-18V17z"/><path fill="url(#b)" d="M20 17a7 7 0 0 1 7-7h33c8.837 0 16 7.163 16 16v53a7 7 0 0 1-7 7H36c-8.837 0-16-7.163-16-16V17z"/><path fill="url(#c)" d="M20 17a7 7 0 0 1 7-7h33c8.837 0 16 7.163 16 16v53a7 7 0 0 1-7 7H36c-8.837 0-16-7.163-16-16V17z"/><path fill="url(#d)" d="M31.227 67.74 38 60l20.5-1.5v-18H60v.505a6.25 6.25 0 0 1 6 6.245v15.5A6.25 6.25 0 0 1 59.75 69h-25.5a4.24 4.24 0 0 1-3.023-1.26z"/><path fill="url(#e)" d="M30.5 66.755c.274.513.65.962 1.102 1.321 7.416-5.799 18.947-7.042 24.77-7.286C58.356 60.707 60 59.1 60 57.113V37.75a4.25 4.25 0 0 0-4.25-4.25H54c-9.62 0-23.5 23.5-23.5 33.255z"/><path fill="url(#f)" d="M54 30.168c0-2.013-1.845-3.65-3.925-3.037-2.854.842-7.83 2.684-12.114 6.213C33.645 36.901 30 42.206 30 49.87v14.835c0 .846.236 1.66.657 2.323 1.204-7.01 8.868-11.556 19.346-12.464 2.2-.191 3.997-1.97 3.997-4.191V30.168z"/><defs><linearGradient id="a" x1="37.375" x2="51.544" y1="8" y2="87.703" gradientUnits="userSpaceOnUse"><stop stop-color="#BBB"/><stop offset="1" stop-color="#888"/></linearGradient><linearGradient id="b" x1="35.556" x2="48.436" y1="10" y2="85.926" gradientUnits="userSpaceOnUse"><stop stop-color="#fff"/><stop offset="1" stop-color="#EBEBEB"/></linearGradient><radialGradient id="c" cx="0" cy="0" r="1" gradientTransform="matrix(29.5556 60.1667 -44.3333 22.5625 37.889 29.792)" gradientUnits="userSpaceOnUse"><stop offset=".177" stop-color="#fff"/><stop offset="1" stop-color="#EFEFEF"/></radialGradient><linearGradient id="d" x1="56.532" x2="144.888" y1="48.128" y2="183.402" gradientUnits="userSpaceOnUse"><stop offset=".035" stop-color="#5029CE"/><stop offset=".169" stop-color="#C570FB"/></linearGradient><radialGradient id="e" cx="0" cy="0" r="1" gradientTransform="matrix(-28.0932 -38.2294 45.4694 -72.6224 57.897 65.486)" gradientUnits="userSpaceOnUse"><stop offset=".225" stop-color="#E331D8"/><stop offset=".688" stop-color="#DB374F"/></radialGradient><radialGradient id="f" cx="0" cy="0" r="1" gradientTransform="matrix(19.8728 40.6493 -29.4258 30.7183 34.536 18.998)" gradientUnits="userSpaceOnUse"><stop stop-color="#8C48FF"/><stop offset=".384" stop-color="#F2598A"/><stop offset=".853" stop-color="#FFB152"/></radialGradient></defs></svg>