<svg xmlns="http://www.w3.org/2000/svg" fill="none" viewBox="0 0 96 96"><path fill="url(#a)" d="M12 21a9 9 0 0 1 9-9h45c9.941 0 18 8.059 18 18v45a9 9 0 0 1-9 9H30c-9.941 0-18-8.059-18-18V21z"/><path fill="url(#b)" d="M14 21a7 7 0 0 1 7-7h45c8.837 0 16 7.163 16 16v45a7 7 0 0 1-7 7H30c-8.837 0-16-7.163-16-16V21z"/><path fill="url(#c)" d="M14 21a7 7 0 0 1 7-7h45c8.837 0 16 7.163 16 16v45a7 7 0 0 1-7 7H30c-8.837 0-16-7.163-16-16V21z"/><path fill="url(#d)" d="M18.5 30a1.5 1.5 0 0 0 0 3h59a1.5 1.5 0 0 0 0-3h-59z"/><path fill="url(#e)" d="M31.5 51a4.5 4.5 0 1 0 0-9 4.5 4.5 0 0 0 0 9z"/><path fill="url(#f)" d="M36 61.5a4.5 4.5 0 1 1-9 0 4.5 4.5 0 0 1 9 0z"/><path fill="url(#g)" d="M48 51a4.5 4.5 0 1 0 0-9 4.5 4.5 0 0 0 0 9z"/><path fill="url(#h)" d="M52.5 61.5a4.5 4.5 0 1 1-9 0 4.5 4.5 0 0 1 9 0z"/><path fill="url(#i)" d="M64.5 51a4.5 4.5 0 1 0 0-9 4.5 4.5 0 0 0 0 9z"/><defs><linearGradient id="a" x1="35.25" x2="44.944" y1="12" y2="84.707" gradientUnits="userSpaceOnUse"><stop stop-color="#BBB"/><stop offset="1" stop-color="#888"/></linearGradient><linearGradient id="b" x1="32.889" x2="41.491" y1="14" y2="82.814" gradientUnits="userSpaceOnUse"><stop stop-color="#fff"/><stop offset="1" stop-color="#EBEBEB"/></linearGradient><radialGradient id="c" cx="0" cy="0" r="1" gradientTransform="matrix(35.8889 53.8333 -53.8333 20.1875 35.722 31.708)" gradientUnits="userSpaceOnUse"><stop offset=".177" stop-color="#fff"/><stop offset="1" stop-color="#EFEFEF"/></radialGradient><linearGradient id="d" x1="30.95" x2="50.483" y1="12" y2="66.418" gradientUnits="userSpaceOnUse"><stop stop-color="#597493"/><stop offset="1" stop-color="#0F2F56"/></linearGradient><linearGradient id="e" x1="30.95" x2="50.483" y1="12" y2="66.418" gradientUnits="userSpaceOnUse"><stop stop-color="#597493"/><stop offset="1" stop-color="#0F2F56"/></linearGradient><linearGradient id="f" x1="30.95" x2="50.483" y1="12" y2="66.418" gradientUnits="userSpaceOnUse"><stop stop-color="#597493"/><stop offset="1" stop-color="#0F2F56"/></linearGradient><linearGradient id="g" x1="30.95" x2="50.483" y1="12" y2="66.418" gradientUnits="userSpaceOnUse"><stop stop-color="#597493"/><stop offset="1" stop-color="#0F2F56"/></linearGradient><linearGradient id="h" x1="30.95" x2="50.483" y1="12" y2="66.418" gradientUnits="userSpaceOnUse"><stop stop-color="#597493"/><stop offset="1" stop-color="#0F2F56"/></linearGradient><linearGradient id="i" x1="30.95" x2="50.483" y1="12" y2="66.418" gradientUnits="userSpaceOnUse"><stop stop-color="#597493"/><stop offset="1" stop-color="#0F2F56"/></linearGradient></defs></svg>