<svg xmlns="http://www.w3.org/2000/svg" fill="none" viewBox="0 0 96 96"><path fill="url(#a)" d="M18 17a9 9 0 0 1 9-9h33c9.941 0 18 8.059 18 18v53a9 9 0 0 1-9 9H36c-9.941 0-18-8.059-18-18V17z"/><path fill="url(#b)" d="M20 17a7 7 0 0 1 7-7h33c8.837 0 16 7.163 16 16v53a7 7 0 0 1-7 7H36c-8.837 0-16-7.163-16-16V17z"/><path fill="url(#c)" d="M20 17a7 7 0 0 1 7-7h33c8.837 0 16 7.163 16 16v53a7 7 0 0 1-7 7H36c-8.837 0-16-7.163-16-16V17z"/><path fill="#5E438F" d="M29.327 55.265c-.361.028-.7.195-.946.468a1.49 1.49 0 0 0-.153 1.786c.146.234.354.42.6.54L48.9 67.763a2.424 2.424 0 0 0 2.24-.08l16.527-9.331a.625.625 0 0 0 .258-.275.645.645 0 0 0-.108-.717.613.613 0 0 0-.327-.182l-17.488-3.487-20.654 1.573h-.022z"/><path fill="url(#d)" d="M29.338 55.265a1.42 1.42 0 0 0-.946.468 1.489 1.489 0 0 0-.154 1.786c.147.234.355.42.6.54l20.074 9.705a2.424 2.424 0 0 0 2.24-.08l16.527-9.331a.625.625 0 0 0 .258-.275.644.644 0 0 0-.108-.717.612.612 0 0 0-.327-.182l-17.488-3.487-20.654 1.573h-.022z" style="mix-blend-mode:multiply"/><path fill="#159CA2" d="M66.865 31.773a1.975 1.975 0 0 0 1.025-2.44 2.05 2.05 0 0 0-.904-1.063 2.051 2.051 0 0 0-1.376-.238l-36.591 5.75a1.197 1.197 0 0 0-1.013 1.185v3.273a1.201 1.201 0 0 0 .795 1.13l12.655 4.495 25.376-12.07.033-.022z"/><path fill="url(#e)" d="m66.865 31.776-.127.064-25.282 12.028-12.446 5.905-.209.1a1.399 1.399 0 0 0-.795 1.256v5.57a1.397 1.397 0 0 1 1.289-1.393h.02l20.02-1.561 16.35-1.277.465-.033a2 2 0 0 0 1.84-1.997v-20.44a1.967 1.967 0 0 1-1.125 1.778z"/><path fill="url(#f)" d="M66.865 31.773a1.975 1.975 0 0 0 1.025-2.44 2.05 2.05 0 0 0-.904-1.063 2.051 2.051 0 0 0-1.376-.238l-36.591 5.75a1.197 1.197 0 0 0-1.013 1.185v3.273a1.201 1.201 0 0 0 .795 1.13l12.655 4.495 25.376-12.07.033-.022z" style="mix-blend-mode:multiply"/><defs><linearGradient id="a" x1="37.375" x2="51.544" y1="8" y2="87.703" gradientUnits="userSpaceOnUse"><stop stop-color="#BBB"/><stop offset="1" stop-color="#888"/></linearGradient><linearGradient id="b" x1="35.556" x2="48.436" y1="10" y2="85.926" gradientUnits="userSpaceOnUse"><stop stop-color="#fff"/><stop offset="1" stop-color="#EBEBEB"/></linearGradient><radialGradient id="c" cx="0" cy="0" r="1" gradientTransform="rotate(63.838 -4.969 45.309) scale(67.034 49.7395)" gradientUnits="userSpaceOnUse"><stop offset=".177" stop-color="#fff"/><stop offset="1" stop-color="#EFEFEF"/></radialGradient><linearGradient id="d" x1="58.029" x2="28.706" y1="62.402" y2="51.164" gradientUnits="userSpaceOnUse"><stop stop-color="#5E438F" stop-opacity="0"/><stop offset=".99" stop-color="#5E438F" stop-opacity=".7"/></linearGradient><linearGradient id="e" x1="28.006" x2="67.991" y1="43.349" y2="43.349" gradientUnits="userSpaceOnUse"><stop stop-color="#4AA5E8"/><stop offset="1" stop-color="#48E6F3"/></linearGradient><linearGradient id="f" x1="27.947" x2="68.468" y1="33.632" y2="37.247" gradientUnits="userSpaceOnUse"><stop stop-color="#159CA2" stop-opacity="0"/><stop offset=".99" stop-color="#159CA2" stop-opacity=".8"/></linearGradient></defs></svg>