<svg xmlns="http://www.w3.org/2000/svg" fill="none" viewBox="0 0 96 96"><path fill="url(#a)" d="M12 21a9 9 0 0 1 9-9h45c9.941 0 18 8.059 18 18v45a9 9 0 0 1-9 9H30c-9.941 0-18-8.059-18-18V21z"/><path fill="url(#b)" d="M14 21a7 7 0 0 1 7-7h45c8.837 0 16 7.163 16 16v45a7 7 0 0 1-7 7H30c-8.837 0-16-7.163-16-16V21z"/><path fill="url(#c)" d="M14 21a7 7 0 0 1 7-7h45c8.837 0 16 7.163 16 16v45a7 7 0 0 1-7 7H30c-8.837 0-16-7.163-16-16V21z"/><path fill="#7611F0" d="M28.516 38.279a3.673 3.673 0 0 0 4.232 2.91l31.51-5.568a3.871 3.871 0 0 0 3.137-4.563l-.365-1.889a4.025 4.025 0 0 0-4.637-3.188l-31.17 5.508a3.871 3.871 0 0 0-3.138 4.562l.431 2.228z"/><path fill="url(#d)" fill-opacity=".9" d="M28.516 38.279a3.673 3.673 0 0 0 4.232 2.91l31.51-5.568a3.871 3.871 0 0 0 3.137-4.563l-.365-1.889a4.025 4.025 0 0 0-4.637-3.188l-31.17 5.508a3.871 3.871 0 0 0-3.138 4.562l.431 2.228z"/><path fill="url(#e)" fill-opacity=".6" d="M28.516 38.279a3.673 3.673 0 0 0 4.232 2.91l31.51-5.568a3.871 3.871 0 0 0 3.137-4.563l-.365-1.889a4.025 4.025 0 0 0-4.637-3.188l-31.17 5.508a3.871 3.871 0 0 0-3.138 4.562l.431 2.228z"/><path fill="url(#f)" fill-opacity=".4" d="M28.516 38.279a3.673 3.673 0 0 0 4.232 2.91l31.51-5.568a3.871 3.871 0 0 0 3.137-4.563l-.365-1.889a4.025 4.025 0 0 0-4.637-3.188l-31.17 5.508a3.871 3.871 0 0 0-3.138 4.562l.431 2.228z"/><path fill="#7611F0" d="M28.013 62.736a5.263 5.263 0 0 0 5.263 5.263H63.61a4.386 4.386 0 0 0 4.386-4.386V59.82a4.386 4.386 0 0 0-4.386-4.386H34.506a6.494 6.494 0 0 1-6.493-6.493v13.795z"/><path fill="#A966FF" fill-opacity=".2" d="M28.013 62.736a5.263 5.263 0 0 0 5.263 5.263H63.61a4.386 4.386 0 0 0 4.386-4.386V59.82a4.386 4.386 0 0 0-4.386-4.386H34.506a6.494 6.494 0 0 1-6.493-6.493v13.795z"/><path fill="url(#g)" fill-opacity=".4" d="M28.013 62.736a5.263 5.263 0 0 0 5.263 5.263H63.61a4.386 4.386 0 0 0 4.386-4.386V59.82a4.386 4.386 0 0 0-4.386-4.386H34.506a6.494 6.494 0 0 1-6.493-6.493v13.795z"/><path fill="url(#h)" fill-opacity=".15" d="M28.013 62.736a5.263 5.263 0 0 0 5.263 5.263H63.61a4.386 4.386 0 0 0 4.386-4.386V59.82a4.386 4.386 0 0 0-4.386-4.386H34.506a6.494 6.494 0 0 1-6.493-6.493v13.795z"/><path fill="url(#i)" fill-opacity=".3" d="M28.013 62.736a5.263 5.263 0 0 0 5.263 5.263H63.61a4.386 4.386 0 0 0 4.386-4.386V59.82a4.386 4.386 0 0 0-4.386-4.386H34.506a6.494 6.494 0 0 1-6.493-6.493v13.795z"/><path fill="url(#j)" fill-opacity=".2" d="M28.013 62.736a5.263 5.263 0 0 0 5.263 5.263H63.61a4.386 4.386 0 0 0 4.386-4.386V59.82a4.386 4.386 0 0 0-4.386-4.386H34.506a6.494 6.494 0 0 1-6.493-6.493v13.795z"/><path fill="#BC7FFF" d="M28.013 46.383a4.029 4.029 0 0 0 4.028 4.029h31.13a4.824 4.824 0 0 1 4.825 4.825v1.86-13.17a4.386 4.386 0 0 0-4.386-4.385H32.4a4.386 4.386 0 0 1-4.386-4.386v-1.764 12.991z"/><path fill="url(#k)" d="M28.013 46.383a4.029 4.029 0 0 0 4.028 4.029h31.13a4.824 4.824 0 0 1 4.825 4.825v1.86-13.17a4.386 4.386 0 0 0-4.386-4.385H32.4a4.386 4.386 0 0 1-4.386-4.386v-1.764 12.991z"/><path fill="url(#l)" fill-opacity=".8" d="M28.013 46.383a4.029 4.029 0 0 0 4.028 4.029h31.13a4.824 4.824 0 0 1 4.825 4.825v1.86-13.17a4.386 4.386 0 0 0-4.386-4.385H32.4a4.386 4.386 0 0 1-4.386-4.386v-1.764 12.991z"/><path fill="url(#m)" d="M28.013 46.383a4.029 4.029 0 0 0 4.028 4.029h31.13a4.824 4.824 0 0 1 4.825 4.825v1.86-13.17a4.386 4.386 0 0 0-4.386-4.385H32.4a4.386 4.386 0 0 1-4.386-4.386v-1.764 12.991z"/><path fill="#974CFF" d="M28.013 53.706a4.825 4.825 0 0 0 4.824 4.825H63.61a4.386 4.386 0 0 1 4.386 4.386v.552V53.46a4.385 4.385 0 0 0-4.386-4.385H32.837a4.825 4.825 0 0 1-4.824-4.825v-1.658 11.114z"/><path fill="#A966FF" fill-opacity=".35" d="M28.013 53.706a4.825 4.825 0 0 0 4.824 4.825H63.61a4.386 4.386 0 0 1 4.386 4.386v.552V53.46a4.385 4.385 0 0 0-4.386-4.385H32.837a4.825 4.825 0 0 1-4.824-4.825v-1.658 11.114z"/><path fill="url(#n)" fill-opacity=".4" d="M28.013 53.706a4.825 4.825 0 0 0 4.824 4.825H63.61a4.386 4.386 0 0 1 4.386 4.386v.552V53.46a4.385 4.385 0 0 0-4.386-4.385H32.837a4.825 4.825 0 0 1-4.824-4.825v-1.658 11.114z"/><path fill="url(#o)" fill-opacity=".4" d="M28.013 53.706a4.825 4.825 0 0 0 4.824 4.825H63.61a4.386 4.386 0 0 1 4.386 4.386v.552V53.46a4.385 4.385 0 0 0-4.386-4.385H32.837a4.825 4.825 0 0 1-4.824-4.825v-1.658 11.114z"/><path fill="url(#p)" fill-opacity=".6" d="M28.013 53.706a4.825 4.825 0 0 0 4.824 4.825H63.61a4.386 4.386 0 0 1 4.386 4.386v.552V53.46a4.385 4.385 0 0 0-4.386-4.385H32.837a4.825 4.825 0 0 1-4.824-4.825v-1.658 11.114z"/><defs><linearGradient id="a" x1="35.25" x2="44.944" y1="12" y2="84.707" gradientUnits="userSpaceOnUse"><stop stop-color="#BBB"/><stop offset="1" stop-color="#888"/></linearGradient><linearGradient id="b" x1="32.889" x2="41.491" y1="14" y2="82.814" gradientUnits="userSpaceOnUse"><stop stop-color="#fff"/><stop offset="1" stop-color="#EBEBEB"/></linearGradient><radialGradient id="c" cx="0" cy="0" r="1" gradientTransform="matrix(35.8889 53.8333 -53.8333 20.1875 35.722 31.708)" gradientUnits="userSpaceOnUse"><stop offset=".177" stop-color="#fff"/><stop offset="1" stop-color="#EFEFEF"/></radialGradient><radialGradient id="d" cx="0" cy="0" r="1" gradientTransform="matrix(-32.6832 16.9007 21.2574 37.2882 48.522 8.128)" gradientUnits="userSpaceOnUse"><stop offset=".625" stop-color="#974CFF"/><stop offset="1" stop-color="#5000B0"/></radialGradient><radialGradient id="e" cx="0" cy="0" r="1" gradientTransform="matrix(-29.7631 12.9642 31.4381 64.5746 68.596 22.91)" gradientUnits="userSpaceOnUse"><stop offset=".147" stop-color="#DE91FF"/><stop offset=".678" stop-color="#D373FC" stop-opacity="0"/></radialGradient><radialGradient id="f" cx="0" cy="0" r="1" gradientTransform="matrix(-12.3984 16.3608 49.3469 20.9241 51.847 16.918)" gradientUnits="userSpaceOnUse"><stop stop-color="#FFC7A3"/><stop offset=".831" stop-color="#DE67FD" stop-opacity="0"/></radialGradient><linearGradient id="g" x1="53.669" x2="52.518" y1="57.945" y2="64.769" gradientUnits="userSpaceOnUse"><stop stop-color="#330072"/><stop offset="1" stop-color="#7611F0" stop-opacity="0"/></linearGradient><linearGradient id="h" x1="36.986" x2="36.986" y1="57.957" y2="68.045" gradientUnits="userSpaceOnUse"><stop stop-color="#9136F2" stop-opacity="0"/><stop offset=".836" stop-color="#B76AFF"/></linearGradient><linearGradient id="i" x1="38.917" x2="28.011" y1="57.3" y2="57.398" gradientUnits="userSpaceOnUse"><stop stop-color="#9136F2" stop-opacity="0"/><stop offset=".836" stop-color="#B76AFF"/></linearGradient><linearGradient id="j" x1="55.957" x2="72.303" y1="57.392" y2="70.913" gradientUnits="userSpaceOnUse"><stop stop-color="#9136F2" stop-opacity="0"/><stop offset=".836" stop-color="#B76AFF"/></linearGradient><linearGradient id="k" x1="38.917" x2="28.011" y1="43.528" y2="43.528" gradientUnits="userSpaceOnUse"><stop stop-color="#BC80FF" stop-opacity="0"/><stop offset=".836" stop-color="#ECB4FF"/></linearGradient><linearGradient id="l" x1="54.75" x2="67.996" y1="43.528" y2="43.528" gradientUnits="userSpaceOnUse"><stop stop-color="#BC7FFF" stop-opacity="0"/><stop offset=".836" stop-color="#ECB4FF"/></linearGradient><radialGradient id="m" cx="0" cy="0" r="1" gradientTransform="matrix(-13.0478 20.2158 26.3432 47.7474 61.052 17.71)" gradientUnits="userSpaceOnUse"><stop stop-color="#FFC7A3"/><stop offset=".831" stop-color="#DE67FD" stop-opacity="0"/></radialGradient><linearGradient id="n" x1="51.785" x2="51.276" y1="43.26" y2="55.567" gradientUnits="userSpaceOnUse"><stop stop-color="#6200D5"/><stop offset="1" stop-color="#3E008D" stop-opacity="0"/></linearGradient><linearGradient id="o" x1="57.093" x2="67.999" y1="53.14" y2="53.14" gradientUnits="userSpaceOnUse"><stop stop-color="#9B54FD" stop-opacity="0"/><stop offset=".836" stop-color="#ECB4FF"/></linearGradient><linearGradient id="p" x1="38.917" x2="28.011" y1="53.14" y2="53.14" gradientUnits="userSpaceOnUse"><stop stop-color="#944EF6" stop-opacity="0"/><stop offset=".836" stop-color="#ECB4FF"/></linearGradient></defs></svg>