<svg xmlns="http://www.w3.org/2000/svg" fill="none" viewBox="0 0 96 96"><path fill="#035499" d="M35.575 15.075A10.5 10.5 0 0028.151 12H18.5C12.701 12 8 16.701 8 22.5v45C8 73.299 12.701 78 18.5 78h59C83.299 78 88 73.299 88 67.5v-36C88 25.701 83.299 21 77.5 21H43.364a4.5 4.5 0 01-3.182-1.318z"/><path fill="url(#a)" d="M10 37.5a8.5 8.5 0 018.5-8.5h12.75a7.5 7.5 0 006-3 7.5 7.5 0 016-3H77.5a8.5 8.5 0 018.5 8.5v36a8.5 8.5 0 01-8.5 8.5h-59a8.5 8.5 0 01-8.5-8.5z"/><g fill="#FAFAFA" filter="url(#b)"><path fill-rule="evenodd" d="M52.404 32.995c2.54 0 4.474 2.336 4.474 4.893v9.421h2.895c2.54 0 4.227 2.332 4.227 4.89V67.44c0 .852-.686 1.544-1.532 1.544H60v-8.437c0-.852-.645-1.547-1.491-1.548l-17.018-.01c-.846 0-1.491.696-1.491 1.548v8.442l-2.468.005A1.54 1.54 0 0136 67.44V37.935c0-2.558 1.604-4.94 4.144-4.94zM42 53a2 2 0 100 4 2 2 0 000-4m8 0a2 2 0 100 4 2 2 0 000-4m8 0a2 2 0 100 4 2 2 0 000-4m-16-8a2 2 0 100 4 2 2 0 000-4m8 0a2 2 0 100 4 2 2 0 000-4m-8-8a2 2 0 100 4 2 2 0 000-4m8 0a2 2 0 100 4 2 2 0 000-4" clip-rule="evenodd"/><path d="M44 61h4v8h-4zm8 0h4v8h-4z"/></g><defs><linearGradient id="a" x1="33.385" x2="45.24" y1="23" y2="75.963" gradientUnits="userSpaceOnUse"><stop stop-color="#319EE4"/><stop offset="1" stop-color="#1176CA"/></linearGradient><filter id="b" width="32" height="42.005" x="34" y="29.995" color-interpolation-filters="sRGB" filterUnits="userSpaceOnUse"><feFlood flood-opacity="0" result="BackgroundImageFix"/><feColorMatrix in="SourceAlpha" result="hardAlpha" values="0 0 0 0 0 0 0 0 0 0 0 0 0 0 0 0 0 0 127 0"/><feOffset dy="1"/><feGaussianBlur stdDeviation="1"/><feComposite in2="hardAlpha" operator="out"/><feColorMatrix values="0 0 0 0 1 0 0 0 0 1 0 0 0 0 1 0 0 0 0.28 0"/><feBlend in2="BackgroundImageFix" result="effect1_dropShadow_11146_3160"/><feColorMatrix in="SourceAlpha" result="hardAlpha" values="0 0 0 0 0 0 0 0 0 0 0 0 0 0 0 0 0 0 127 0"/><feOffset dy="-1"/><feGaussianBlur stdDeviation="1"/><feComposite in2="hardAlpha" operator="out"/><feColorMatrix values="0 0 0 0 0 0 0 0 0 0 0 0 0 0 0 0 0 0 0.2 0"/><feBlend in2="effect1_dropShadow_11146_3160" result="effect2_dropShadow_11146_3160"/><feBlend in="SourceGraphic" in2="effect2_dropShadow_11146_3160" result="shape"/></filter></defs></svg>