<svg xmlns="http://www.w3.org/2000/svg" fill="none" viewBox="0 0 96 96"><path fill="url(#a)" d="M18 17a9 9 0 019-9h33c9.941 0 18 8.059 18 18v53a9 9 0 01-9 9H27a9 9 0 01-9-9z"/><path fill="url(#b)" d="M27 10a7 7 0 00-7 7v56.343A8.98 8.98 0 0127 70h42a7 7 0 007-7V26c0-8.837-7.163-16-16-16z"/><path fill="url(#c)" d="M27 10a7 7 0 00-7 7v56.343A8.98 8.98 0 0127 70h42a7 7 0 007-7V26c0-8.837-7.163-16-16-16z"/><path fill="url(#d)" d="M76 68.657A8.98 8.98 0 0169 72H27a7 7 0 100 14h42a7 7 0 007-7v-2.343A8.98 8.98 0 0169 80H27a1 1 0 110-2h42a7 7 0 007-7z"/><path fill="url(#e)" d="M76 68.657A8.98 8.98 0 0169 72H27a7 7 0 100 14h42a7 7 0 007-7v-2.343A8.98 8.98 0 0169 80H27a1 1 0 110-2h42a7 7 0 007-7z"/><path fill="url(#f)" d="M38.52 47.976c.312.178.672.25 1.028.208l8.671-1.053s-4.398-4.587-7.582-8.87c-.846-1.137-.225-2.718 1.15-3.065l.424-.107c-.02-1.514-5.575-4.654-6.89-3.903l-4.231 2.418c-.52.297-.84.849-.84 1.447v6.265c0 1.196.641 2.3 1.68 2.894z"/><path fill="url(#g)" d="M38.52 47.976c.312.178.672.25 1.028.208l8.671-1.053s-4.398-4.587-7.582-8.87c-.846-1.137-.225-2.718 1.15-3.065l.424-.107c-.02-1.514-5.575-4.654-6.89-3.903l-4.231 2.418c-.52.297-.84.849-.84 1.447v6.265c0 1.196.641 2.3 1.68 2.894z"/><path fill="url(#h)" d="M60.066 42.693a1.67 1.67 0 00-.404-1.082l-5.36-6.213s-1.68 5.089-3.731 10.024c-.57 1.37-2.353 1.66-3.363.573l-.177-.19c-1.303.798-1.128 7.278.192 8.048l4.111 2.398a1.67 1.67 0 001.673.004l5.426-3.133a3.33 3.33 0 001.667-2.901z"/><path fill="url(#i)" d="M60.066 42.693a1.67 1.67 0 00-.404-1.082l-5.36-6.213s-1.68 5.089-3.731 10.024c-.57 1.37-2.353 1.66-3.363.573l-.177-.19c-1.303.798-1.128 7.278.192 8.048l4.111 2.398a1.67 1.67 0 001.673.004l5.426-3.133a3.33 3.33 0 001.667-2.901z"/><path fill="url(#j)" d="M44.713 26.615c-.34.199-.6.511-.73.883L41.23 35.26s6.155-1.27 10.75-1.867c1.423-.185 2.494 1.15 2.089 2.526l-.258.874c1.325.737 6.986-3.026 6.993-4.543l.022-4.855a1.67 1.67 0 00-.834-1.45l-5.425-3.133a3.33 3.33 0 00-3.347.007z"/><path fill="url(#k)" d="M44.713 26.615c-.34.199-.6.511-.73.883L41.23 35.26s6.155-1.27 10.75-1.867c1.423-.185 2.494 1.15 2.089 2.526l-.258.874c1.325.737 6.986-3.026 6.993-4.543l.022-4.855a1.67 1.67 0 00-.834-1.45l-5.425-3.133a3.33 3.33 0 00-3.347.007z"/><path fill="url(#l)" d="M44.424 21.775c1.829-.208 3.326 1.3 3.326 3.141v6.314c0 1.642-1.19 3.042-2.804 3.35-3.463.661-9.35 1.948-13.072 3.644-1.042.475-1.624 1.554-1.624 2.7v3.16-15.002c0-2.92 6.662-6.454 14.174-7.307"/><path fill="url(#m)" d="M44.424 21.775c1.829-.208 3.326 1.3 3.326 3.141v6.314c0 1.642-1.19 3.042-2.804 3.35-3.463.661-9.35 1.948-13.072 3.644-1.042.475-1.624 1.554-1.624 2.7v3.16-15.002c0-2.92 6.662-6.454 14.174-7.307"/><path fill="url(#n)" d="M34.424 50.618c-1.094-1.48-.537-3.53 1.057-4.451l5.468-3.157c1.422-.821 3.23-.49 4.303.753 2.304 2.668 6.363 7.124 9.692 9.5.933.664 2.158.628 3.15.056l2.736-1.58-12.99 7.5c-2.53 1.46-8.922-2.542-13.416-8.621"/><path fill="url(#o)" d="M34.424 50.618c-1.094-1.48-.537-3.53 1.057-4.451l5.468-3.157c1.422-.821 3.23-.49 4.303.753 2.304 2.668 6.363 7.124 9.692 9.5.933.664 2.158.628 3.15.056l2.736-1.58-12.99 7.5c-2.53 1.46-8.922-2.542-13.416-8.621"/><path fill="url(#p)" d="M64.402 44.857c-.734 1.688-2.789 2.23-4.383 1.31L54.55 43.01c-1.422-.821-2.039-2.552-1.5-4.103 1.16-3.33 2.99-9.073 3.381-13.144.11-1.14-.534-2.183-1.525-2.755l-2.737-1.58 12.991 7.5c2.53 1.46 2.258 8.997-.759 15.928"/><path fill="url(#q)" d="M64.402 44.857c-.734 1.688-2.789 2.23-4.383 1.31L54.55 43.01c-1.422-.821-2.039-2.552-1.5-4.103 1.16-3.33 2.99-9.073 3.381-13.144.11-1.14-.534-2.183-1.525-2.755l-2.737-1.58 12.991 7.5c2.53 1.46 2.258 8.997-.759 15.928"/><defs><linearGradient id="a" x1="37.375" x2="51.544" y1="8" y2="87.703" gradientUnits="userSpaceOnUse"><stop stop-color="#BBB"/><stop offset="1" stop-color="#888"/></linearGradient><linearGradient id="b" x1="35.556" x2="48.436" y1="10" y2="85.926" gradientUnits="userSpaceOnUse"><stop stop-color="#fff"/><stop offset="1" stop-color="#EBEBEB"/></linearGradient><linearGradient id="d" x1="35.556" x2="48.436" y1="10" y2="85.926" gradientUnits="userSpaceOnUse"><stop stop-color="#fff"/><stop offset="1" stop-color="#EBEBEB"/></linearGradient><linearGradient id="f" x1="31.047" x2="38.796" y1="38.431" y2="48.026" gradientUnits="userSpaceOnUse"><stop stop-color="#C02B3C"/><stop offset=".945" stop-color="#F68500"/></linearGradient><linearGradient id="h" x1="55.785" x2="55.211" y1="41.855" y2="54.127" gradientUnits="userSpaceOnUse"><stop stop-color="#0D91E1"/><stop offset="1" stop-color="#0B6528"/></linearGradient><linearGradient id="j" x1="45.947" x2="56.779" y1="31.553" y2="29.381" gradientUnits="userSpaceOnUse"><stop stop-color="#C515F1"/><stop offset="1" stop-color="#0D91E1"/></linearGradient><linearGradient id="l" x1="47.215" x2="30.25" y1="30.629" y2="31.221" gradientUnits="userSpaceOnUse"><stop stop-color="#CC23D1"/><stop offset=".5" stop-color="#F2598A"/><stop offset=".975" stop-color="#FFB657"/></linearGradient><linearGradient id="m" x1="49.847" x2="43.439" y1="27.527" y2="27.701" gradientUnits="userSpaceOnUse"><stop offset=".058" stop-color="#F7ADFA"/><stop offset="1" stop-color="#F2598A" stop-opacity="0"/></linearGradient><linearGradient id="n" x1="51.815" x2="39.801" y1="60.245" y2="43.242" gradientUnits="userSpaceOnUse"><stop stop-color="#0D91E1"/><stop offset=".487" stop-color="#52B471"/><stop offset=".715" stop-color="#98BD42"/><stop offset=".937" stop-color="#FFC800"/></linearGradient><linearGradient id="o" x1="39.034" x2="40.033" y1="44.026" y2="45.693" gradientUnits="userSpaceOnUse"><stop stop-color="#FFEEAF"/><stop offset="1" stop-color="#FFC800" stop-opacity="0"/></linearGradient><linearGradient id="p" x1="62.263" x2="54.605" y1="26.3" y2="42.905" gradientUnits="userSpaceOnUse"><stop stop-color="#8C48FF"/><stop offset=".721" stop-color="#00AEFF"/><stop offset=".995" stop-color="#3DCBFF"/></linearGradient><linearGradient id="q" x1="57.334" x2="56.056" y1="41.692" y2="43.993" gradientUnits="userSpaceOnUse"><stop stop-color="#00AEFF" stop-opacity="0"/><stop offset="1" stop-color="#8BDFFD"/></linearGradient><radialGradient id="c" cx="0" cy="0" r="1" gradientTransform="matrix(29.5556 60.1667 -44.3333 22.5625 37.889 29.792)" gradientUnits="userSpaceOnUse"><stop offset=".177" stop-color="#fff"/><stop offset="1" stop-color="#EFEFEF"/></radialGradient><radialGradient id="e" cx="0" cy="0" r="1" gradientTransform="matrix(29.5556 60.1667 -44.3333 22.5625 37.889 29.792)" gradientUnits="userSpaceOnUse"><stop offset=".177" stop-color="#fff"/><stop offset="1" stop-color="#EFEFEF"/></radialGradient><radialGradient id="g" cx="0" cy="0" r="1" gradientTransform="matrix(-4.5834 -7.91664 13.60903 -7.87904 36.292 45.75)" gradientUnits="userSpaceOnUse"><stop offset=".549" stop-color="#C02B3C" stop-opacity="0"/><stop offset="1" stop-color="#9C212F"/></radialGradient><radialGradient id="i" cx="0" cy="0" r="1" gradientTransform="rotate(119.427 16.14 40.104)scale(9.32858 17.948)" gradientUnits="userSpaceOnUse"><stop offset=".579" stop-color="#137D34" stop-opacity="0"/><stop offset="1" stop-color="#0A5622"/></radialGradient><radialGradient id="k" cx="0" cy="0" r="1" gradientTransform="matrix(9.16667 0 0 17.3493 47.75 25.958)" gradientUnits="userSpaceOnUse"><stop offset=".588" stop-color="#2253CE" stop-opacity="0"/><stop offset="1" stop-color="#032DAA"/></radialGradient></defs></svg>