<svg xmlns="http://www.w3.org/2000/svg" fill="none" viewBox="0 0 96 96"><path fill="#035499" d="M35.575 15.075A10.5 10.5 0 0028.151 12H18.5C12.701 12 8 16.701 8 22.5v45C8 73.299 12.701 78 18.5 78h59C83.299 78 88 73.299 88 67.5v-36C88 25.701 83.299 21 77.5 21H43.364a4.5 4.5 0 01-3.182-1.318z"/><path fill="url(#a)" d="M10 37.5a8.5 8.5 0 018.5-8.5h12.75a7.5 7.5 0 006-3 7.5 7.5 0 016-3H77.5a8.5 8.5 0 018.5 8.5v36a8.5 8.5 0 01-8.5 8.5h-59a8.5 8.5 0 01-8.5-8.5z"/><g filter="url(#b)"><path fill="#FAFAFA" fill-rule="evenodd" d="M57 64a1 1 0 110 2H39a1 1 0 110-2h3v-4h-6a4 4 0 01-4-4V40a4 4 0 014-4h24a4 4 0 014 4v16a4 4 0 01-4 4h-6v4zm-5 0v-4h-8v4z" clip-rule="evenodd"/></g><defs><linearGradient id="a" x1="33.385" x2="45.24" y1="23" y2="75.963" gradientUnits="userSpaceOnUse"><stop stop-color="#319EE4"/><stop offset="1" stop-color="#1176CA"/></linearGradient><filter id="b" width="36" height="36" x="30" y="33" color-interpolation-filters="sRGB" filterUnits="userSpaceOnUse"><feFlood flood-opacity="0" result="BackgroundImageFix"/><feColorMatrix in="SourceAlpha" result="hardAlpha" values="0 0 0 0 0 0 0 0 0 0 0 0 0 0 0 0 0 0 127 0"/><feOffset dy="1"/><feGaussianBlur stdDeviation="1"/><feComposite in2="hardAlpha" operator="out"/><feColorMatrix values="0 0 0 0 1 0 0 0 0 1 0 0 0 0 1 0 0 0 0.28 0"/><feBlend in2="BackgroundImageFix" result="effect1_dropShadow_11320_2408"/><feColorMatrix in="SourceAlpha" result="hardAlpha" values="0 0 0 0 0 0 0 0 0 0 0 0 0 0 0 0 0 0 127 0"/><feOffset dy="-1"/><feGaussianBlur stdDeviation="1"/><feComposite in2="hardAlpha" operator="out"/><feColorMatrix values="0 0 0 0 0 0 0 0 0 0 0 0 0 0 0 0 0 0 0.2 0"/><feBlend in2="effect1_dropShadow_11320_2408" result="effect2_dropShadow_11320_2408"/><feBlend in="SourceGraphic" in2="effect2_dropShadow_11320_2408" result="shape"/></filter></defs></svg>