<svg xmlns="http://www.w3.org/2000/svg" fill="none" viewBox="0 0 96 96"><path fill="url(#a)" d="M71.614 81.614A9.004 9.004 0 0 1 63 88H42c-13.255 0-24-10.745-24-24V23a9.004 9.004 0 0 1 6.386-8.614A9.004 9.004 0 0 1 33 8h27c9.941 0 18 8.059 18 18v47a9.004 9.004 0 0 1-6.386 8.614z"/><path fill="url(#b)" d="M33 10a7 7 0 0 0-7 7v47c0 8.837 7.163 16 16 16h27a7 7 0 0 0 7-7V26c0-8.837-7.163-16-16-16H33z"/><path fill="url(#c)" d="M33 10a7 7 0 0 0-7 7v47c0 8.837 7.163 16 16 16h27a7 7 0 0 0 7-7V26c0-8.837-7.163-16-16-16H33z"/><path fill="url(#d)" d="M24 17c0-.11.002-.22.006-.33A7 7 0 0 0 20 23v41c0 12.15 9.85 22 22 22h21a7 7 0 0 0 6.33-4.006A9.23 9.23 0 0 1 69 82H42c-9.941 0-18-8.059-18-18V17z"/><path fill="url(#e)" d="M24 17c0-.11.002-.22.006-.33A7 7 0 0 0 20 23v41c0 12.15 9.85 22 22 22h21a7 7 0 0 0 6.33-4.006A9.23 9.23 0 0 1 69 82H42c-9.941 0-18-8.059-18-18V17z"/><path fill="url(#f)" fill-rule="evenodd" d="M50.648 23c1.909 0 3.905.462 5.474 1.484 1.613 1.051 2.797 2.728 2.797 4.98 0 1.045-.192 1.903-.542 2.64-.345.726-.804 1.25-1.196 1.652-.13.134-.25.254-.357.363-.58.582-.856.859-.999 1.477-.02.086-.046.385-.01.987.033.561.113 1.27.233 2.102.241 1.66.633 3.72 1.096 5.888.391 1.836.83 3.732 1.263 5.504h2.157a4 4 0 0 1 3.98 3.602l.892 8.923A4 4 0 0 1 61.456 67H39.834a4 4 0 0 1-3.98-4.398l.892-8.923a4 4 0 0 1 3.98-3.602h2.393c.407-1.539.817-3.203 1.183-4.855.485-2.188.886-4.318 1.107-6.077.111-.88.173-1.643.182-2.26.01-.648-.042-1.022-.093-1.186-.073-.24-.203-.448-.433-.71a9.755 9.755 0 0 0-.434-.449l-.297-.297a12.335 12.335 0 0 1-.268-.281c-.41-.444-.851-1.006-1.18-1.768-.327-.764-.51-1.654-.51-2.73 0-2.252 1.185-3.929 2.797-4.98C46.742 23.462 48.74 23 50.648 23zm0 3c-1.477 0-2.867.366-3.837.998-.927.604-1.435 1.41-1.435 2.467 0 .725.12 1.205.267 1.545.147.341.352.619.627.917.133.144.27.281.433.443l.042.041c.172.17.374.372.568.592.4.454.811 1.03 1.052 1.814.191.621.237 1.373.226 2.11-.011.768-.087 1.65-.205 2.593-.237 1.888-.66 4.117-1.155 6.351a127.365 127.365 0 0 1-1.014 4.206h9.102a196.994 196.994 0 0 1-1.11-4.878c-.468-2.197-.875-4.33-1.13-6.083a28.882 28.882 0 0 1-.26-2.354c-.037-.637-.04-1.306.083-1.841.35-1.522 1.284-2.43 1.885-3.016.09-.087.172-.167.244-.24.3-.31.498-.556.636-.848.134-.282.252-.69.252-1.352 0-1.058-.509-1.863-1.435-2.467-.97-.632-2.36-.998-3.836-.998z" clip-rule="evenodd"/><defs><linearGradient id="a" x1="37.375" x2="51.544" y1="8" y2="87.703" gradientUnits="userSpaceOnUse"><stop stop-color="#BBB"/><stop offset="1" stop-color="#888"/></linearGradient><linearGradient id="b" x1="35.556" x2="48.436" y1="10" y2="85.926" gradientUnits="userSpaceOnUse"><stop stop-color="#fff"/><stop offset="1" stop-color="#EBEBEB"/></linearGradient><radialGradient id="c" cx="0" cy="0" r="1" gradientTransform="matrix(29.5556 60.1667 -44.3333 22.5625 37.889 29.792)" gradientUnits="userSpaceOnUse"><stop offset=".177" stop-color="#fff"/><stop offset="1" stop-color="#EFEFEF"/></radialGradient><linearGradient id="d" x1="35.556" x2="48.436" y1="10" y2="85.926" gradientUnits="userSpaceOnUse"><stop stop-color="#fff"/><stop offset="1" stop-color="#EBEBEB"/></linearGradient><radialGradient id="e" cx="0" cy="0" r="1" gradientTransform="matrix(29.5556 60.1667 -44.3333 22.5625 37.889 29.792)" gradientUnits="userSpaceOnUse"><stop offset=".177" stop-color="#fff"/><stop offset="1" stop-color="#EFEFEF"/></radialGradient><linearGradient id="f" x1="42.574" x2="70.54" y1="17.923" y2="64.369" gradientUnits="userSpaceOnUse"><stop offset="0" stop-color="#597493"/><stop offset="1" stop-color="#0F2F56"/></linearGradient></defs></svg>