<svg xmlns="http://www.w3.org/2000/svg" fill="none" viewBox="0 0 96 96"><path fill="url(#a)" d="M8 27a9 9 0 0 1 9-9h53c9.941 0 18 8.059 18 18v33a9 9 0 0 1-9 9H26c-9.941 0-18-8.059-18-18V27z"/><path fill="url(#b)" d="M10 27a7 7 0 0 1 7-7h53c8.837 0 16 7.163 16 16v33a7 7 0 0 1-7 7H26c-8.837 0-16-7.163-16-16V27z"/><path fill="url(#c)" d="M10 27a7 7 0 0 1 7-7h53c8.837 0 16 7.163 16 16v33a7 7 0 0 1-7 7H26c-8.837 0-16-7.163-16-16V27z"/><path fill="url(#d)" fill-rule="evenodd" d="M52.049 27.791a6.114 6.114 0 0 1 5.84-1.6 6.463 6.463 0 0 1 2.96 1.522l.244.23 4.95 4.952a6.467 6.467 0 0 1 1.69 2.94 6.117 6.117 0 0 1-1.525 6.117l-5.127 5.124A6.494 6.494 0 0 1 64 52.5v7a6.5 6.5 0 0 1-6.5 6.5H34.116l-.625-.033A6.117 6.117 0 0 1 28 59.883V36.5a6.5 6.5 0 0 1 6.5-6.5h7a6.493 6.493 0 0 1 5.422 2.915l5.127-5.124zM31.336 59.883a2.781 2.781 0 0 0 2.78 2.78h10.566V49.32H31.336v10.564zm16.682 2.78h9.453a2.781 2.781 0 0 0 2.78-2.78V52.1a2.78 2.78 0 0 0-2.78-2.78h-9.453v13.344zM34.116 33.75a2.78 2.78 0 0 0-2.764 2.496l-.016.285v9.453h13.346V36.53a2.78 2.78 0 0 0-2.78-2.78h-7.786zm13.902 12.234h2.554l-2.554-2.555v2.555z" clip-rule="evenodd"/><defs><linearGradient id="a" x1="33.833" x2="39.939" y1="18" y2="79.056" gradientUnits="userSpaceOnUse"><stop stop-color="#BBB"/><stop offset="1" stop-color="#888"/></linearGradient><linearGradient id="b" x1="31.111" x2="36.368" y1="20" y2="77.071" gradientUnits="userSpaceOnUse"><stop stop-color="#fff"/><stop offset="1" stop-color="#EBEBEB"/></linearGradient><radialGradient id="c" cx="0" cy="0" r="1" gradientTransform="matrix(40.1111 44.3333 -60.1667 16.625 34.278 34.583)" gradientUnits="userSpaceOnUse"><stop offset=".177" stop-color="#fff"/><stop offset="1" stop-color="#EFEFEF"/></radialGradient><linearGradient id="d" x1="38" x2="58.004" y1="26" y2="61.713" gradientUnits="userSpaceOnUse"><stop offset="0" stop-color="#597493"/><stop offset="1" stop-color="#0F2F56"/></linearGradient></defs></svg>