<svg xmlns="http://www.w3.org/2000/svg" fill="none" viewBox="0 0 96 96"><path fill="url(#a)" d="M35.575 15.075A10.5 10.5 0 0 0 28.151 12H18.5C12.701 12 8 16.701 8 22.5v45C8 73.299 12.701 78 18.5 78h59C83.299 78 88 73.299 88 67.5v-36C88 25.701 83.299 21 77.5 21H43.364a4.5 4.5 0 0 1-3.182-1.318l-4.607-4.607z"/><path fill="url(#b)" fill-opacity=".2" d="M35.575 15.075A10.5 10.5 0 0 0 28.151 12H18.5C12.701 12 8 16.701 8 22.5v45C8 73.299 12.701 78 18.5 78h59C83.299 78 88 73.299 88 67.5v-36C88 25.701 83.299 21 77.5 21H43.364a4.5 4.5 0 0 1-3.182-1.318l-4.607-4.607z"/><path fill="url(#c)" d="M10 37.5a8.5 8.5 0 0 1 8.5-8.5h12.75a7.5 7.5 0 0 0 6-3 7.5 7.5 0 0 1 6-3H77.5a8.5 8.5 0 0 1 8.5 8.5v36a8.5 8.5 0 0 1-8.5 8.5h-59a8.5 8.5 0 0 1-8.5-8.5v-30z"/><path fill="#944600" d="M68.788 51.102c.495-1.003 1.926-1.003 2.421 0l2.358 4.778 5.273.766c1.107.16 1.549 1.522.748 2.303l-3.816 3.719.901 5.25c.19 1.104-.968 1.945-1.959 1.424l-4.716-2.48-4.716 2.48c-.99.52-2.147-.32-1.958-1.423l.9-5.251-3.815-3.72c-.801-.78-.359-2.141.748-2.302l5.273-.766 2.358-4.778z"/><defs><linearGradient id="a" x1="27" x2="27" y1="78" y2="12" gradientUnits="userSpaceOnUse"><stop stop-color="#BA7300"/><stop offset=".221" stop-color="#C77B00"/><stop offset=".716" stop-color="#D48300"/><stop offset="1" stop-color="#D48300"/></linearGradient><radialGradient id="b" cx="0" cy="0" r="1" gradientTransform="matrix(0 8.76362 -30 0 36 31.5)" gradientUnits="userSpaceOnUse"><stop/><stop offset="1" stop-opacity="0"/></radialGradient><linearGradient id="c" x1="42.75" x2="31.125" y1="78.75" y2="24" gradientUnits="userSpaceOnUse"><stop stop-color="#F7AB40"/><stop offset="1" stop-color="#FFDD57"/></linearGradient></defs></svg>