<svg xmlns="http://www.w3.org/2000/svg" fill="none" viewBox="0 0 96 96"><path fill="url(#a)" d="M18 17a9 9 0 0 1 9-9h33c9.941 0 18 8.059 18 18v53a9 9 0 0 1-9 9H36c-9.941 0-18-8.059-18-18V17z"/><path fill="url(#b)" d="M20 17a7 7 0 0 1 7-7h33c8.837 0 16 7.163 16 16v53a7 7 0 0 1-7 7H36c-8.837 0-16-7.163-16-16V17z"/><path fill="url(#c)" d="M20 17a7 7 0 0 1 7-7h33c8.837 0 16 7.163 16 16v53a7 7 0 0 1-7 7H36c-8.837 0-16-7.163-16-16V17z"/><path fill="url(#d)" d="M66 66.333A3.667 3.667 0 0 1 62.333 70H48V59c0-6.075-4.925-11-11-11h-7v-8.5a5.5 5.5 0 0 1 5.5-5.5H66v32.333z"/><path fill="url(#e)" fill-opacity=".8" d="M66 66.333A3.667 3.667 0 0 1 62.333 70H48V59c0-6.075-4.925-11-11-11h-7v-8.5a5.5 5.5 0 0 1 5.5-5.5H66v32.333z"/><path fill="url(#f)" d="M62 26a4 4 0 0 1 4 4v14a4 4 0 0 1-4 4H37.377c-.063 0-.127.002-.19.004-.062-.001-.124-.004-.187-.004h-7V33.376A7.377 7.377 0 0 1 37.377 26H62z"/><path fill="url(#g)" d="M62 26a4 4 0 0 1 4 4v14a4 4 0 0 1-4 4H37.377c-.063 0-.127.002-.19.004-.062-.001-.124-.004-.187-.004h-7V33.376A7.377 7.377 0 0 1 37.377 26H62z"/><path fill="url(#h)" d="M55 44a7 7 0 1 0 0-14 7 7 0 0 0 0 14z"/><path fill="url(#i)" d="M55 41a4 4 0 1 0 0-8 4 4 0 0 0 0 8z"/><path fill="url(#j)" d="M59 54a1 1 0 0 1 1 1v8a1 1 0 0 1-1 1h-8a1 1 0 0 1-1-1v-8a1 1 0 0 1 1-1h8z"/><rect width="40" height="40" x="6" y="50" fill="url(#k)" rx="9"/><rect width="40" height="40" x="6" y="50" fill="url(#l)" fill-opacity=".6" rx="9"/><path fill="#fff" d="M32.922 62.485h-8.45v5.774h7.765v4.452h-7.765V82h-5.394V58h13.844v4.485z"/><defs><linearGradient id="a" x1="37.375" x2="51.544" y1="8" y2="87.703" gradientUnits="userSpaceOnUse"><stop stop-color="#BBB"/><stop offset="1" stop-color="#888"/></linearGradient><linearGradient id="b" x1="35.556" x2="48.436" y1="10" y2="85.926" gradientUnits="userSpaceOnUse"><stop stop-color="#fff"/><stop offset="1" stop-color="#EBEBEB"/></linearGradient><radialGradient id="c" cx="0" cy="0" r="1" gradientTransform="matrix(29.5556 60.1667 -44.3333 22.5625 37.889 29.792)" gradientUnits="userSpaceOnUse"><stop offset=".177" stop-color="#fff"/><stop offset="1" stop-color="#EFEFEF"/></radialGradient><radialGradient id="d" cx="0" cy="0" r="1" gradientTransform="matrix(-22 -48.8571 33.3978 -24.86 58 76.429)" gradientUnits="userSpaceOnUse"><stop offset=".008" stop-color="#1A7F7C"/><stop offset=".45" stop-color="#14717C"/><stop offset=".803" stop-color="#08567B"/></radialGradient><radialGradient id="e" cx="0" cy="0" r="1" gradientTransform="matrix(-14.375 -18.4821 11.1305 -14.3047 41 40.429)" gradientUnits="userSpaceOnUse"><stop stop-color="#06517B"/><stop offset=".992" stop-color="#06517B" stop-opacity="0"/></radialGradient><linearGradient id="f" x1="30.81" x2="69.312" y1="49.826" y2="33.491" gradientUnits="userSpaceOnUse"><stop offset=".227" stop-color="#15B4D5"/><stop offset="1" stop-color="#43E5CA"/></linearGradient><linearGradient id="g" x1="39.918" x2="30" y1="39.705" y2="39.705" gradientUnits="userSpaceOnUse"><stop offset=".184" stop-color="#29CBDC" stop-opacity="0"/><stop offset="1" stop-color="#36DFF1"/></linearGradient><linearGradient id="h" x1="50" x2="59" y1="31" y2="44" gradientUnits="userSpaceOnUse"><stop stop-color="#119FC5"/><stop offset="1" stop-color="#22918B"/></linearGradient><linearGradient id="i" x1="52.143" x2="57.286" y1="33.571" y2="41" gradientUnits="userSpaceOnUse"><stop stop-color="#06517B"/><stop offset="1" stop-color="#1A7F7C"/></linearGradient><linearGradient id="j" x1="51.429" x2="57.857" y1="54.714" y2="64" gradientUnits="userSpaceOnUse"><stop stop-color="#119FC5"/><stop offset="1" stop-color="#20AC9D"/></linearGradient><radialGradient id="k" cx="0" cy="0" r="1" gradientTransform="rotate(45 -57.355 32.243) scale(56.5685)" gradientUnits="userSpaceOnUse"><stop offset=".063" stop-color="#009BBC"/><stop offset=".591" stop-color="#01657D"/><stop offset=".941" stop-color="#014354"/></radialGradient><radialGradient id="l" cx="0" cy="0" r="1" gradientTransform="matrix(0 28 -31.875 0 26 74)" gradientUnits="userSpaceOnUse"><stop offset=".567" stop-color="#1E8581" stop-opacity="0"/><stop offset=".974" stop-color="#1ECBE6"/></radialGradient></defs></svg>