<svg xmlns="http://www.w3.org/2000/svg" fill="none" viewBox="0 0 96 96"><path fill="url(#a)" d="M8 27a9 9 0 0 1 9-9h53c9.941 0 18 8.059 18 18v33a9 9 0 0 1-9 9H26c-9.941 0-18-8.059-18-18V27z"/><path fill="url(#b)" d="M10 27a7 7 0 0 1 7-7h53c8.837 0 16 7.163 16 16v33a7 7 0 0 1-7 7H26c-8.837 0-16-7.163-16-16V27z"/><path fill="url(#c)" d="M10 27a7 7 0 0 1 7-7h53c8.837 0 16 7.163 16 16v33a7 7 0 0 1-7 7H26c-8.837 0-16-7.163-16-16V27z"/><path fill="url(#d)" fill-rule="evenodd" d="M48 27c11.598 0 21 9.402 21 21s-9.402 21-21 21-21-9.402-21-21 9.402-21 21-21zm5.129 3.741A18.045 18.045 0 0 1 63.592 39h-7.458c-.678-3.328-1.72-6.175-3.005-8.259zm0 34.518A18.045 18.045 0 0 0 63.592 57h-7.458c-.678 3.328-1.72 6.175-3.005 8.259zM53.067 57c-.39 1.758-.888 3.331-1.46 4.667-.72 1.678-1.499 2.844-2.211 3.547-.7.69-1.168.786-1.396.786-.228 0-.696-.095-1.396-.785-.712-.704-1.492-1.87-2.21-3.548-.573-1.336-1.07-2.91-1.46-4.667h10.133zm3.56-3h8.349A17.971 17.971 0 0 0 66 48c0-2.104-.36-4.123-1.024-6h-8.349A47.56 47.56 0 0 1 57 48c0 2.085-.13 4.099-.373 6zm-3.026-12c.257 1.87.399 3.886.399 6s-.142 4.13-.399 6H42.4a44.303 44.303 0 0 1-.4-6c0-2.114.142-4.13.399-6H53.6zm-.534-3c-.39-1.758-.888-3.331-1.46-4.667-.72-1.678-1.499-2.844-2.211-3.547-.7-.69-1.168-.786-1.396-.786-.228 0-.696.095-1.396.785-.712.704-1.492 1.87-2.21 3.548-.573 1.336-1.07 2.91-1.46 4.667h10.133zm-13.2 0c.677-3.328 1.719-6.175 3.004-8.259A18.045 18.045 0 0 0 32.408 39h7.458zm-.494 3h-8.349A17.971 17.971 0 0 0 30 48c0 2.104.36 4.123 1.024 6h8.349A47.56 47.56 0 0 1 39 48c0-2.085.13-4.099.373-6zm.493 15h-7.458a18.045 18.045 0 0 0 10.463 8.259c-1.285-2.084-2.327-4.93-3.005-8.259z" clip-rule="evenodd"/><defs><linearGradient id="a" x1="33.833" x2="39.939" y1="18" y2="79.056" gradientUnits="userSpaceOnUse"><stop stop-color="#BBB"/><stop offset="1" stop-color="#888"/></linearGradient><linearGradient id="b" x1="31.111" x2="36.368" y1="20" y2="77.071" gradientUnits="userSpaceOnUse"><stop stop-color="#fff"/><stop offset="1" stop-color="#EBEBEB"/></linearGradient><radialGradient id="c" cx="0" cy="0" r="1" gradientTransform="matrix(40.1111 44.3333 -60.1667 16.625 34.278 34.583)" gradientUnits="userSpaceOnUse"><stop offset=".177" stop-color="#fff"/><stop offset="1" stop-color="#EFEFEF"/></radialGradient><linearGradient id="d" x1="39.886" x2="51.976" y1="32.25" y2="68.498" gradientUnits="userSpaceOnUse"><stop offset="0" stop-color="#597493"/><stop offset="1" stop-color="#0F2F56"/></linearGradient></defs></svg>