<svg xmlns="http://www.w3.org/2000/svg" fill="none" viewBox="0 0 96 96"><path fill="url(#a)" d="M12 21a9 9 0 019-9h45c9.941 0 18 8.059 18 18v45a9 9 0 01-9 9H30c-9.941 0-18-8.059-18-18z"/><path fill="url(#b)" d="M14 21a7 7 0 017-7h45c8.837 0 16 7.163 16 16v45a7 7 0 01-7 7H30c-8.837 0-16-7.163-16-16z"/><path fill="url(#c)" d="M14 21a7 7 0 017-7h45c8.837 0 16 7.163 16 16v45a7 7 0 01-7 7H30c-8.837 0-16-7.163-16-16z"/><path fill="url(#d)" d="M24.092 43.66c-.574-3.272 1.6-6.393 4.854-6.97l25.933-4.598c3.254-.577 6.358 1.608 6.931 4.88l4.098 23.368c.574 3.272-1.6 6.393-4.854 6.97l-25.933 4.598c-3.254.577-6.358-1.608-6.931-4.88z"/><path fill="url(#e)" d="M30 30a6 6 0 016-6h30a6 6 0 016 6v28a6 6 0 01-6 6H36a6 6 0 01-6-6z"/><path fill="url(#f)" fill-opacity=".6" d="M30 30a6 6 0 016-6h30a6 6 0 016 6v28a6 6 0 01-6 6H36a6 6 0 01-6-6z"/><path fill="#000" d="M65.783 42.953a44.6 44.6 0 00-.033-9.164 47 47 0 00-.12-1.03.87.87 0 00-.202-.465.68.68 0 00-.435-.229.68.68 0 00-.472.138.87.87 0 00-.29.416q-.168.492-.323.985a45 45 0 00-.906 3.309 18 18 0 00-1.98-1.804c-2.841-2.196-5.901-3.807-9.468-4.7-1.78-.411-3.756-.666-5.921-.119-2.18.485-4.293 2.382-5.04 4.399-1 2.111-.75 5.17.481 7.044 1.164 1.93 2.64 3.181 4.012 4.356 2.666 2.194 5.806 4.596 5.157 6.196-.014.06-.03.102-.039.13-.28 0-.848-.15-1.376-.369-1.21-.488-2.497-1.224-3.893-1.893-.706-.332-1.427-.666-2.336-.899-.475-.112-.98-.207-1.64-.12-.641.064-1.461.518-1.845 1.12-1.195 2.33-.51 3.754-.326 5.304.111.567.223 1.05.368 1.634q.188.741.428 1.579c.081.278.274.516.53.662.255.145.552.187.832.115.28-.073.522-.254.675-.505a1.13 1.13 0 00.143-.834 40 40 0 01-.32-1.524c-.106-.556-.18-1.01-.252-1.528-.203-1.285-.191-3.07.113-3.33.04-.014-.079.06.002.046.076-.002.293.025.553.108.514.163 1.123.469 1.728.803 1.23.676 2.468 1.499 3.944 2.207.76.337 1.54.725 2.788.767.621.012 1.46-.174 2.1-.708a3.3 3.3 0 00.744-.862c.169-.278.293-.558.393-.856.947-2.6-.637-5.15-1.862-6.505-1.302-1.486-2.667-2.626-3.889-3.792-2.543-2.342-4.056-4.555-2.911-6.444 2.073-3.591 8.638-.513 12.403 2.981.408.364.8.753 1.13 1.13a45 45 0 00-4.517.352.87.87 0 00-.466.2.67.67 0 00-.227.436.67.67 0 00.136.472.87.87 0 00.416.29q.492.168.986.323a44.6 44.6 0 008.974 1.857 1.844 1.844 0 002.053-1.679"/><path fill="url(#g)" d="M65.783 42.953a44.6 44.6 0 00-.033-9.164 47 47 0 00-.12-1.03.87.87 0 00-.202-.465.68.68 0 00-.435-.229.68.68 0 00-.472.138.87.87 0 00-.29.416q-.168.492-.323.985a45 45 0 00-.906 3.309 18 18 0 00-1.98-1.804c-2.841-2.196-5.901-3.807-9.468-4.7-1.78-.411-3.756-.666-5.921-.119-2.18.485-4.293 2.382-5.04 4.399-1 2.111-.75 5.17.481 7.044 1.164 1.93 2.64 3.181 4.012 4.356 2.666 2.194 5.806 4.596 5.157 6.196-.014.06-.03.102-.039.13-.28 0-.848-.15-1.376-.369-1.21-.488-2.497-1.224-3.893-1.893-.706-.332-1.427-.666-2.336-.899-.475-.112-.98-.207-1.64-.12-.641.064-1.461.518-1.845 1.12-1.195 2.33-.51 3.754-.326 5.304.111.567.223 1.05.368 1.634q.188.741.428 1.579c.081.278.274.516.53.662.255.145.552.187.832.115.28-.073.522-.254.675-.505a1.13 1.13 0 00.143-.834 40 40 0 01-.32-1.524c-.106-.556-.18-1.01-.252-1.528-.203-1.285-.191-3.07.113-3.33.04-.014-.079.06.002.046.076-.002.293.025.553.108.514.163 1.123.469 1.728.803 1.23.676 2.468 1.499 3.944 2.207.76.337 1.54.725 2.788.767.621.012 1.46-.174 2.1-.708a3.3 3.3 0 00.744-.862c.169-.278.293-.558.393-.856.947-2.6-.637-5.15-1.862-6.505-1.302-1.486-2.667-2.626-3.889-3.792-2.543-2.342-4.056-4.555-2.911-6.444 2.073-3.591 8.638-.513 12.403 2.981.408.364.8.753 1.13 1.13a45 45 0 00-4.517.352.87.87 0 00-.466.2.67.67 0 00-.227.436.67.67 0 00.136.472.87.87 0 00.416.29q.492.168.986.323a44.6 44.6 0 008.974 1.857 1.844 1.844 0 002.053-1.679"/><defs><linearGradient id="a" x1="35.25" x2="44.944" y1="12" y2="84.707" gradientUnits="userSpaceOnUse"><stop stop-color="#BBB"/><stop offset="1" stop-color="#888"/></linearGradient><linearGradient id="b" x1="32.889" x2="41.491" y1="14" y2="82.814" gradientUnits="userSpaceOnUse"><stop stop-color="#fff"/><stop offset="1" stop-color="#EBEBEB"/></linearGradient><linearGradient id="f" x1="51.7" x2="51.7" y1="24" y2="63" gradientUnits="userSpaceOnUse"><stop stop-color="#FFC7A3" stop-opacity=".8"/><stop offset=".186" stop-color="#FFC7A3" stop-opacity="0"/><stop offset=".807" stop-color="#F08AF4" stop-opacity="0"/><stop offset="1" stop-color="#F08AF4" stop-opacity=".9"/></linearGradient><linearGradient id="g" x1="1.824" x2="78.228" y1="-17.93" y2="18.637" gradientUnits="userSpaceOnUse"><stop offset=".024" stop-color="#FFC8D7"/><stop offset=".807" stop-color="#fff"/></linearGradient><radialGradient id="c" cx="0" cy="0" r="1" gradientTransform="matrix(35.8889 53.8333 -53.8333 20.1875 35.722 31.708)" gradientUnits="userSpaceOnUse"><stop offset=".177" stop-color="#fff"/><stop offset="1" stop-color="#EFEFEF"/></radialGradient><radialGradient id="d" cx="0" cy="0" r="1" gradientTransform="matrix(-16.8808 24.7192 -24.5838 -16.9738 48.278 43.818)" gradientUnits="userSpaceOnUse"><stop offset=".434" stop-color="#5C1488"/><stop offset="1" stop-color="#844BFA"/></radialGradient><radialGradient id="e" cx="0" cy="0" r="1" gradientTransform="matrix(48.2997 44.1797 -50.7497 42.0469 23.7 24)" gradientUnits="userSpaceOnUse"><stop offset=".087" stop-color="#FFC470"/><stop offset=".302" stop-color="#FF835C"/><stop offset=".584" stop-color="#F24A9D"/><stop offset=".953" stop-color="#B339F0"/></radialGradient></defs></svg>