<svg xmlns="http://www.w3.org/2000/svg" fill="none" viewBox="0 0 96 96"><path fill="url(#a)" d="M35.575 15.075A10.5 10.5 0 0 0 28.151 12H18.5C12.701 12 8 16.701 8 22.5v45C8 73.299 12.701 78 18.5 78h59C83.299 78 88 73.299 88 67.5v-36C88 25.701 83.299 21 77.5 21H43.364a4.5 4.5 0 0 1-3.182-1.318l-4.607-4.607z"/><path fill="url(#b)" fill-opacity=".2" d="M35.575 15.075A10.5 10.5 0 0 0 28.151 12H18.5C12.701 12 8 16.701 8 22.5v45C8 73.299 12.701 78 18.5 78h59C83.299 78 88 73.299 88 67.5v-36C88 25.701 83.299 21 77.5 21H43.364a4.5 4.5 0 0 1-3.182-1.318l-4.607-4.607z"/><path fill="url(#c)" d="M10 37.5a8.5 8.5 0 0 1 8.5-8.5h12.75a7.5 7.5 0 0 0 6-3 7.5 7.5 0 0 1 6-3H77.5a8.5 8.5 0 0 1 8.5 8.5v36a8.5 8.5 0 0 1-8.5 8.5h-59a8.5 8.5 0 0 1-8.5-8.5v-30z"/><path fill="#944600" d="M66 60a4 4 0 1 0 0-8 4 4 0 0 0 0 8zm9 0a3 3 0 1 0 0-6 3 3 0 0 0 0 6zm-12.75 2A2.25 2.25 0 0 0 60 64.25v.25s0 4.5 6 4.5 6-4.5 6-4.5v-.25A2.25 2.25 0 0 0 69.75 62h-7.5zM75 67.5c-1.171 0-2.068-.181-2.755-.458a5.503 5.503 0 0 0 .736-2.207A3.987 3.987 0 0 0 73 64.55v-.3a3.24 3.24 0 0 0-.902-2.248A2.32 2.32 0 0 1 72.2 62h5.6a2.2 2.2 0 0 1 2.2 2.2s0 3.3-5 3.3z"/><path fill="url(#d)" d="M70 70a5 5 0 0 1 5-5h12a5 5 0 0 1 5 5v12a5 5 0 0 1-5 5H75a5 5 0 0 1-5-5V70z"/><path fill="url(#e)" d="M70 70a5 5 0 0 1 5-5h12a5 5 0 0 1 5 5v12a5 5 0 0 1-5 5H75a5 5 0 0 1-5-5V70z"/><path fill="url(#f)" d="M91 70a4 4 0 0 0-3.794-3.995L87 66H75a4 4 0 0 0-4 4v12l.005.206A4 4 0 0 0 75 86h12a4 4 0 0 0 4-4V70zm2 12a6 6 0 0 1-6 6H75a6 6 0 0 1-5.992-5.691L69 82V70a6 6 0 0 1 6-6h12l.309.008A6 6 0 0 1 93 70v12z"/><path fill="url(#g)" d="M87 79a1 1 0 1 1-2 0v-5.586l-8.293 8.293a1 1 0 1 1-1.414-1.414L83.586 72H78a1 1 0 1 1 0-2h8l.103.005A1 1 0 0 1 87 71v8z"/><defs><linearGradient id="a" x1="27" x2="27" y1="78" y2="12" gradientUnits="userSpaceOnUse"><stop stop-color="#BA7300"/><stop offset=".221" stop-color="#C77B00"/><stop offset=".716" stop-color="#D48300"/><stop offset="1" stop-color="#D48300"/></linearGradient><radialGradient id="b" cx="0" cy="0" r="1" gradientTransform="matrix(0 8.76362 -30 0 36 31.5)" gradientUnits="userSpaceOnUse"><stop/><stop offset="1" stop-opacity="0"/></radialGradient><linearGradient id="c" x1="42.75" x2="31.125" y1="78.75" y2="24" gradientUnits="userSpaceOnUse"><stop stop-color="#F7AB40"/><stop offset="1" stop-color="#FFDD57"/></linearGradient><linearGradient id="d" x1="76.111" x2="78.894" y1="65" y2="87.263" gradientUnits="userSpaceOnUse"><stop stop-color="#fff"/><stop offset="1" stop-color="#EBEBEB"/></linearGradient><radialGradient id="e" cx="0" cy="0" r="1" gradientTransform="matrix(11.6111 17.4167 -17.4167 6.53125 77.028 70.73)" gradientUnits="userSpaceOnUse"><stop offset=".177" stop-color="#fff"/><stop offset="1" stop-color="#EFEFEF"/></radialGradient><linearGradient id="f" x1="76.75" x2="79.981" y1="64" y2="88.236" gradientUnits="userSpaceOnUse"><stop stop-color="#898989"/><stop offset="1" stop-color="#636262"/></linearGradient><linearGradient id="g" x1="75.546" x2="81.457" y1="64.273" y2="81.182" gradientUnits="userSpaceOnUse"><stop offset="0" stop-color="#597493"/><stop offset="1" stop-color="#0F2F56"/></linearGradient></defs></svg>