<svg xmlns="http://www.w3.org/2000/svg" fill="none" viewBox="0 0 96 96"><path fill="url(#a)" d="M8 27a9 9 0 0 1 9-9h53c9.941 0 18 8.059 18 18v33a9 9 0 0 1-9 9H26c-9.941 0-18-8.059-18-18V27z"/><path fill="url(#b)" d="M10 27a7 7 0 0 1 7-7h53c8.837 0 16 7.163 16 16v33a7 7 0 0 1-7 7H26c-8.837 0-16-7.163-16-16V27z"/><path fill="url(#c)" d="M10 27a7 7 0 0 1 7-7h53c8.837 0 16 7.163 16 16v33a7 7 0 0 1-7 7H26c-8.837 0-16-7.163-16-16V27z"/><path fill="url(#d)" fill-rule="evenodd" d="M48.542 27.007C59.89 27.294 69.001 36.583 69.001 48c0 11.598-9.403 21-21 21a1.5 1.5 0 0 1-.154-2.992l.154-.008c.467 0 1.08-.241 1.81-1.042.728-.801 1.452-2.045 2.092-3.708.477-1.24.89-2.67 1.22-4.25H48.5a1.5 1.5 0 0 1 0-3h5.124c.242-1.874.377-3.891.377-6s-.135-4.126-.377-6h-11.25a46.944 46.944 0 0 0-.372 5.515 1.5 1.5 0 0 1-3-.03A50.2 50.2 0 0 1 39.353 42h-8.327c-.615 1.739-.97 3.6-1.02 5.538a1.501 1.501 0 0 1-3-.076C27.292 36.112 36.582 27 48.001 27l.541.007zM56.182 57c-.378 1.965-.877 3.762-1.478 5.327a18.516 18.516 0 0 1-1.374 2.87A18.048 18.048 0 0 0 63.592 57h-7.41zm.467-15c.229 1.904.352 3.92.352 6s-.123 4.096-.352 6h8.326a17.97 17.97 0 0 0 1.026-6 17.97 17.97 0 0 0-1.026-6H56.65zm-13.98-11.197A18.048 18.048 0 0 0 32.41 39h7.408c.392-2.038.915-3.896 1.548-5.502.386-.98.82-1.887 1.304-2.695zM48.001 30c-.461 0-1.063.233-1.777 1.005-.716.774-1.432 1.977-2.068 3.593-.502 1.273-.933 2.757-1.278 4.402h10.245c-.33-1.58-.743-3.01-1.22-4.25-.64-1.663-1.364-2.907-2.093-3.708C49.082 30.242 48.468 30 48 30zm5.329.802c.513.855.97 1.823 1.374 2.87.602 1.566 1.1 3.363 1.478 5.328h7.41a18.049 18.049 0 0 0-10.262-8.198z" clip-rule="evenodd"/><path fill="url(#e)" d="M44 65.5a1.5 1.5 0 0 1-3 0v-8.379l-9.44 9.44a1.5 1.5 0 1 1-2.121-2.122L38.879 55h-8.38a1.5 1.5 0 0 1 0-3h12a1.5 1.5 0 0 1 1.5 1.5v12z"/><defs><linearGradient id="a" x1="33.833" x2="39.939" y1="18" y2="79.056" gradientUnits="userSpaceOnUse"><stop stop-color="#BBB"/><stop offset="1" stop-color="#888"/></linearGradient><linearGradient id="b" x1="31.111" x2="36.368" y1="20" y2="77.071" gradientUnits="userSpaceOnUse"><stop stop-color="#fff"/><stop offset="1" stop-color="#EBEBEB"/></linearGradient><radialGradient id="c" cx="0" cy="0" r="1" gradientTransform="matrix(40.1111 44.3333 -60.1667 16.625 34.278 34.583)" gradientUnits="userSpaceOnUse"><stop offset=".177" stop-color="#fff"/><stop offset="1" stop-color="#EFEFEF"/></radialGradient><linearGradient id="d" x1="36.5" x2="58.467" y1="27" y2="64.29" gradientUnits="userSpaceOnUse"><stop offset="0" stop-color="#597493"/><stop offset="1" stop-color="#0F2F56"/></linearGradient><linearGradient id="e" x1="36.5" x2="58.467" y1="27" y2="64.29" gradientUnits="userSpaceOnUse"><stop offset="0" stop-color="#597493"/><stop offset="1" stop-color="#0F2F56"/></linearGradient></defs></svg>