<svg xmlns="http://www.w3.org/2000/svg" fill="none" viewBox="0 0 96 96"><path fill="url(#a)" d="M8 27a9 9 0 0 1 9-9h53c9.941 0 18 8.059 18 18v33a9 9 0 0 1-9 9H26c-9.941 0-18-8.059-18-18V27z"/><path fill="url(#b)" d="M10 27a7 7 0 0 1 7-7h53c8.837 0 16 7.163 16 16v33a7 7 0 0 1-7 7H26c-8.837 0-16-7.163-16-16V27z"/><path fill="url(#c)" d="M10 27a7 7 0 0 1 7-7h53c8.837 0 16 7.163 16 16v33a7 7 0 0 1-7 7H26c-8.837 0-16-7.163-16-16V27z"/><path fill="#FEE200" d="m6 63 9-9h25.57c.792 0 1.43.638 1.43 1.43V63l-18 4.125L6 63z"/><path fill="url(#d)" d="M17.143 71.732 6 76.34V63h9l2.143 8.732z"/><path fill="url(#e)" d="M42 72.107V63H15v9.214l12.268 2.197L42 72.107z"/><path fill="url(#f)" d="M42 81v-9H13.018v9.054l17.839 1.66L42 81z"/><path fill="url(#g)" d="m15 81-9 3V72h9v9z"/><path fill="url(#h)" d="m15 81-1.393 4.286L15 90h18l9-9H15z"/><path fill="url(#i)" d="M15 90H7.693A1.69 1.69 0 0 1 6 88.307V81h9v9z"/><path fill="url(#j)" d="M70.5 60a1.5 1.5 0 0 1 0 3H44v-3h26.5z"/><path fill="url(#k)" d="M70.5 51a1.5 1.5 0 0 1 0 3H43.688a3.434 3.434 0 0 0-1.676-1.683A1.5 1.5 0 0 1 43.5 51h27z"/><path fill="url(#l)" d="M34.5 51a1.5 1.5 0 0 1 1.413 1H24.087a1.5 1.5 0 0 1 1.413-1h9z"/><path fill="url(#m)" d="M34.5 42a1.5 1.5 0 0 1 0 3h-9a1.5 1.5 0 0 1 0-3h9z"/><path fill="url(#n)" d="M70.5 42a1.5 1.5 0 0 1 0 3h-27a1.5 1.5 0 0 1 0-3h27z"/><path fill="url(#o)" d="M34.5 33a1.5 1.5 0 0 1 0 3h-9a1.5 1.5 0 0 1 0-3h9z"/><path fill="url(#p)" d="M70.5 33a1.5 1.5 0 0 1 0 3h-27a1.5 1.5 0 0 1 0-3h27z"/><defs><linearGradient id="a" x1="33.833" x2="39.939" y1="18" y2="79.056" gradientUnits="userSpaceOnUse"><stop stop-color="#BBB"/><stop offset="1" stop-color="#888"/></linearGradient><linearGradient id="b" x1="31.111" x2="36.368" y1="20" y2="77.071" gradientUnits="userSpaceOnUse"><stop stop-color="#fff"/><stop offset="1" stop-color="#EBEBEB"/></linearGradient><radialGradient id="c" cx="0" cy="0" r="1" gradientTransform="matrix(40.1111 44.3333 -60.1667 16.625 34.278 34.583)" gradientUnits="userSpaceOnUse"><stop offset=".177" stop-color="#fff"/><stop offset="1" stop-color="#EFEFEF"/></radialGradient><linearGradient id="d" x1="11.571" x2="11.571" y1="76.339" y2="63" gradientUnits="userSpaceOnUse"><stop stop-color="#E25A01"/><stop offset=".61" stop-color="#E15801"/><stop offset=".878" stop-color="#E05101"/><stop offset="1" stop-color="#DE4A01"/></linearGradient><linearGradient id="e" x1="28.5" x2="28.5" y1="74.411" y2="63" gradientUnits="userSpaceOnUse"><stop stop-color="#F18C0A"/><stop offset=".437" stop-color="#F0880A"/><stop offset=".868" stop-color="#EC7C0A"/><stop offset="1" stop-color="#EB770A"/></linearGradient><linearGradient id="f" x1="27.509" x2="27.509" y1="82.714" y2="72" gradientUnits="userSpaceOnUse"><stop stop-color="#D83B01"/><stop offset=".472" stop-color="#D63701"/><stop offset=".937" stop-color="#CE2B01"/><stop offset="1" stop-color="#CD2901"/></linearGradient><linearGradient id="g" x1="10.5" x2="10.5" y1="84" y2="72" gradientUnits="userSpaceOnUse"><stop offset="0" stop-color="#BF3207"/><stop offset=".472" stop-color="#BB3207"/><stop offset=".937" stop-color="#AF3007"/><stop offset="1" stop-color="#AD3007"/></linearGradient><linearGradient id="h" x1="27.804" x2="27.804" y1="90" y2="81" gradientUnits="userSpaceOnUse"><stop stop-color="#854A81"/><stop offset=".482" stop-color="#82497E"/><stop offset=".812" stop-color="#794475"/><stop offset="1" stop-color="#703F6C"/></linearGradient><linearGradient id="i" x1="10.5" x2="10.5" y1="90" y2="81" gradientUnits="userSpaceOnUse"><stop stop-color="#703D6E"/><stop offset=".631" stop-color="#6C3B6A"/><stop offset="1" stop-color="#663764"/></linearGradient><linearGradient id="j" x1="45" x2="58.151" y1="33" y2="61.054" gradientUnits="userSpaceOnUse"><stop stop-color="#A35B98"/><stop offset="1" stop-color="#87447D"/></linearGradient><linearGradient id="k" x1="45" x2="58.151" y1="33" y2="61.054" gradientUnits="userSpaceOnUse"><stop stop-color="#A35B98"/><stop offset="1" stop-color="#87447D"/></linearGradient><linearGradient id="l" x1="45" x2="58.151" y1="33" y2="61.054" gradientUnits="userSpaceOnUse"><stop stop-color="#A35B98"/><stop offset="1" stop-color="#87447D"/></linearGradient><linearGradient id="m" x1="45" x2="58.151" y1="33" y2="61.054" gradientUnits="userSpaceOnUse"><stop stop-color="#A35B98"/><stop offset="1" stop-color="#87447D"/></linearGradient><linearGradient id="n" x1="45" x2="58.151" y1="33" y2="61.054" gradientUnits="userSpaceOnUse"><stop stop-color="#A35B98"/><stop offset="1" stop-color="#87447D"/></linearGradient><linearGradient id="o" x1="45" x2="58.151" y1="33" y2="61.054" gradientUnits="userSpaceOnUse"><stop stop-color="#A35B98"/><stop offset="1" stop-color="#87447D"/></linearGradient><linearGradient id="p" x1="45" x2="58.151" y1="33" y2="61.054" gradientUnits="userSpaceOnUse"><stop stop-color="#A35B98"/><stop offset="1" stop-color="#87447D"/></linearGradient></defs></svg>