<svg xmlns="http://www.w3.org/2000/svg" fill="none" viewBox="0 0 96 96"><path fill="url(#a)" d="M8 27a9 9 0 0 1 9-9h53c9.941 0 18 8.059 18 18v33a9 9 0 0 1-9 9H26c-9.941 0-18-8.059-18-18V27z"/><path fill="url(#b)" d="M10 27a7 7 0 0 1 7-7h53c8.837 0 16 7.163 16 16v33a7 7 0 0 1-7 7H26c-8.837 0-16-7.163-16-16V27z"/><path fill="url(#c)" d="M10 27a7 7 0 0 1 7-7h53c8.837 0 16 7.163 16 16v33a7 7 0 0 1-7 7H26c-8.837 0-16-7.163-16-16V27z"/><path fill="url(#d)" d="M72 63a3 3 0 0 1-3 3H47.636C45.755 55.76 36.784 48 26 48c-.674 0-1.341.032-2 .09V36h48v27z"/><path fill="url(#e)" d="M24 33a3 3 0 0 1 3-3h42a3 3 0 0 1 3 3v6H24v-6z"/><path fill="#F3F3F3" d="M38.5 70c0 6.904-5.596 12.5-12.5 12.5S13.5 76.904 13.5 70 19.096 57.5 26 57.5 38.5 63.096 38.5 70z"/><path fill="url(#f)" fill-rule="evenodd" d="M26 50c11.046 0 20 8.954 20 20s-8.954 20-20 20H6.001L6 70c0-11.046 8.954-20 20-20zm0 12a8 8 0 0 0-8 8v8h8a8 8 0 1 0 0-16z" clip-rule="evenodd"/><path fill="url(#g)" d="M46 70c0 11.046-8.955 20-20 20H6v-.103C6.057 83.317 11.408 78 18 78h8a8 8 0 0 0 8-8h12z"/><path fill="url(#h)" fill-opacity=".56" d="M46 70c0 11.046-8.955 20-20 20H6v-.103C6.057 83.317 11.408 78 18 78h8a8 8 0 0 0 8-8h12z"/><path fill="url(#i)" fill-opacity=".1" d="M46 70c0 11.046-8.955 20-20 20H6v-.103C6.057 83.317 11.408 78 18 78h8a8 8 0 0 0 8-8h12z"/><path fill="url(#j)" d="M26 50a19.938 19.938 0 0 1 14.143 5.857l-8.486 8.486A8 8 0 0 0 18 70v8c0 6.627-5.373 11.999-12 11.999V70c0-11.046 8.954-20 20-20z"/><path fill="url(#k)" d="M26 50a19.938 19.938 0 0 1 14.143 5.857l-8.486 8.486A8 8 0 0 0 18 70v8c0 6.627-5.373 11.999-12 11.999V70c0-11.046 8.954-20 20-20z"/><defs><linearGradient id="a" x1="33.833" x2="39.939" y1="18" y2="79.056" gradientUnits="userSpaceOnUse"><stop stop-color="#BBB"/><stop offset="1" stop-color="#888"/></linearGradient><linearGradient id="b" x1="31.111" x2="36.368" y1="20" y2="77.071" gradientUnits="userSpaceOnUse"><stop stop-color="#fff"/><stop offset="1" stop-color="#EBEBEB"/></linearGradient><radialGradient id="c" cx="0" cy="0" r="1" gradientTransform="matrix(40.1111 44.3333 -60.1667 16.625 34.278 34.583)" gradientUnits="userSpaceOnUse"><stop offset=".177" stop-color="#fff"/><stop offset="1" stop-color="#EFEFEF"/></radialGradient><linearGradient id="d" x1="48" x2="48" y1="35.25" y2="69" gradientUnits="userSpaceOnUse"><stop stop-color="#D0BEFE"/><stop offset="1" stop-color="#C2AAFE"/></linearGradient><linearGradient id="e" x1="48" x2="48" y1="30" y2="39" gradientUnits="userSpaceOnUse"><stop stop-color="#AB85FF"/><stop offset="1" stop-color="#9354FF"/></linearGradient><linearGradient id="f" x1="30.4" x2="23.8" y1="64.2" y2="91.2" gradientUnits="userSpaceOnUse"><stop stop-color="#9237E3"/><stop offset="1" stop-color="#48E6F3"/></linearGradient><linearGradient id="g" x1="19" x2="36.6" y1="87" y2="83" gradientUnits="userSpaceOnUse"><stop stop-color="#51E6FF"/><stop offset="1" stop-color="#71D4FF" stop-opacity="0"/></linearGradient><radialGradient id="h" cx="0" cy="0" r="1" gradientTransform="matrix(7.99981 5.5 -9.66614 14.0602 13 81.5)" gradientUnits="userSpaceOnUse"><stop/><stop offset=".7" stop-opacity="0"/></radialGradient><radialGradient id="i" cx="0" cy="0" r="1" gradientTransform="matrix(14.7996 9.2 -16.1688 26.0113 10.6 80)" gradientUnits="userSpaceOnUse"><stop offset=".328"/><stop offset=".604" stop-opacity="0"/></radialGradient><linearGradient id="j" x1="14.188" x2="24.478" y1="71.534" y2="57.119" gradientUnits="userSpaceOnUse"><stop stop-color="#6D05E8"/><stop offset="1" stop-color="#AB5ADD" stop-opacity="0"/></linearGradient><radialGradient id="k" cx="0" cy="0" r="1" gradientTransform="matrix(26.7595 -4.62884 12.0758 70.9026 2.605 62.478)" gradientUnits="userSpaceOnUse"><stop stop-color="#6D05E8"/><stop offset="1" stop-color="#6D05E8" stop-opacity="0"/></radialGradient></defs></svg>