<svg xmlns="http://www.w3.org/2000/svg" fill="none" viewBox="0 0 96 96"><path fill="url(#a)" d="M18 17a9 9 0 0 1 9-9h33c9.941 0 18 8.059 18 18v53a9 9 0 0 1-9 9H36c-9.941 0-18-8.059-18-18V17z"/><path fill="url(#b)" d="M20 17a7 7 0 0 1 7-7h33c8.837 0 16 7.163 16 16v53a7 7 0 0 1-7 7H36c-8.837 0-16-7.163-16-16V17z"/><path fill="url(#c)" d="M20 17a7 7 0 0 1 7-7h33c8.837 0 16 7.163 16 16v53a7 7 0 0 1-7 7H36c-8.837 0-16-7.163-16-16V17z"/><path fill="#86D562" d="M36 30h-6v6l3 .5 3-.5.5-3-.5-3z"/><path fill="#52A535" d="M42 30h-6v6l3 .5 3-.5.5-3-.5-3z"/><path fill="#6CC349" d="M48 30h-6v6l3 .5 3-.5.5-3-.5-3z"/><path fill="#86D562" d="M54 30h-6v6l3 .5 3-.5.5-3-.5-3z"/><path fill="#6CC349" d="M60 30h-6v6l3 .5 3-.5.5-3-.5-3z"/><path fill="#52A535" d="M66 30h-6v6l3 .5 3-.5v-6zm-30 6h-6v6l3 .5 3-.5.5-3-.5-3z"/><path fill="#66412C" d="M42 36h-6v6l3 .5 3-.5.5-3-.5-3z"/><path fill="#52A535" d="M48 36h-6v6l3 .5 3-.5.5-3-.5-3z"/><path fill="#3C8527" d="M54 36h-6v6l3 .5 3-.5.5-3-.5-3z"/><path fill="#52A535" d="M60 36h-6v6l3 .5 3-.5.5-3-.5-3z"/><path fill="#6CC349" d="M66 36h-6v6l3 .5 3-.5v-6z"/><path fill="#66412C" d="M36 42h-6v6l3 .5 3-.5.5-3-.5-3z"/><path fill="#998F8B" d="M42 42h-6v6l3 .5 3-.5.5-3-.5-3z"/><path fill="#66412C" d="M48 42h-6v6l3 .5 3-.5.5-3-.5-3z"/><path fill="#66412C" d="M54 42h-6v6l3 .5 3-.5.5-3-.5-3z"/><path fill="#6CC349" d="M60 42h-6v6l3 .5 3-.5.5-3-.5-3z"/><path fill="#66412C" d="M66 42h-6v6l3 .5 3-.5v-6z"/><path fill="#976746" d="M36 48h-6v6l3 .5 3-.5.5-3-.5-3z"/><path fill="#805539" d="M42 48h-6v6l3 .5 3-.5.5-3-.5-3z"/><path fill="#976746" d="M48 48h-6v6l3 .5 3-.5.5-3-.5-3z"/><path fill="#AD7A54" d="M54 48h-6v6l3 .5 3-.5.5-3-.5-3z"/><path fill="#66412C" d="M60 48h-6v6l3 .5 3-.5.5-3-.5-3z"/><path fill="#805539" d="M66 48h-6v6l3 .5 3-.5v-6zm-30 6h-6v6l3 .5 3-.5.5-3-.5-3z"/><path fill="#66412C" d="M42 54h-6v6l3 .5 3-.5.5-3-.5-3z"/><path fill="#66412C" d="M48 54h-6v6l3 .5 3-.5.5-3-.5-3z"/><path fill="#976746" d="M54 54h-6v6l3 .5 3-.5.5-3-.5-3z"/><path fill="#805539" d="M54 54v6l3 .5 3-.5.5-3-.5-3h-6z"/><path fill="#AD7A54" d="M66 54h-6v6l3 .5 3-.5v-6zm-30 6h-6v6h6l.5-3-.5-3z"/><path fill="#805539" d="M42 60h-6v6h6l.5-3-.5-3z"/><path fill="#66412C" d="M48 60h-6v6h6l.5-3-.5-3z"/><path fill="#66412C" d="M54 60h-6v6h6l.5-3-.5-3z"/><path fill="#998F8B" d="M60 60h-6v6h6l.5-3-.5-3z"/><path fill="#805539" d="M66 60h-6v6h6v-6z"/><defs><linearGradient id="a" x1="37.375" x2="51.544" y1="8" y2="87.703" gradientUnits="userSpaceOnUse"><stop stop-color="#BBB"/><stop offset="1" stop-color="#888"/></linearGradient><linearGradient id="b" x1="35.556" x2="48.436" y1="10" y2="85.926" gradientUnits="userSpaceOnUse"><stop stop-color="#fff"/><stop offset="1" stop-color="#EBEBEB"/></linearGradient><radialGradient id="c" cx="0" cy="0" r="1" gradientTransform="matrix(29.5556 60.1667 -44.3333 22.5625 37.889 29.792)" gradientUnits="userSpaceOnUse"><stop offset=".177" stop-color="#fff"/><stop offset="1" stop-color="#EFEFEF"/></radialGradient></defs></svg>