<svg xmlns="http://www.w3.org/2000/svg" fill="none" viewBox="0 0 96 96"><path fill="url(#a)" fill-rule="evenodd" d="M69 88H21a9 9 0 01-9-9 9 9 0 016-8.488V17a9 9 0 019-9h33c9.941 0 18 8.059 18 18v53a9 9 0 01-9 9" clip-rule="evenodd"/><path fill="url(#b)" fill-rule="evenodd" d="M20 17a7 7 0 017-7h33c8.837 0 16 7.163 16 16v53a7 7 0 11-7-7 1 1 0 100-2H21q-.508 0-1 .055zm43.343 55H21a7 7 0 100 14h42.343A8.98 8.98 0 0160 79a8.98 8.98 0 013.343-7" clip-rule="evenodd"/><path fill="url(#c)" fill-rule="evenodd" d="M20 17a7 7 0 017-7h33c8.837 0 16 7.163 16 16v53a7 7 0 11-7-7 1 1 0 100-2H21q-.508 0-1 .055zm43.343 55H21a7 7 0 100 14h42.343A8.98 8.98 0 0160 79a8.98 8.98 0 013.343-7" clip-rule="evenodd"/><path fill="#242424" d="M29.941 26.107a1.5 1.5 0 011.645.358L41 36.326l9.414-9.861A1.5 1.5 0 0153 27.5v23a1.5 1.5 0 01-3 0V31.244l-7.914 8.291a1.5 1.5 0 01-2.172 0L32 31.245V50.5a1.5 1.5 0 01-3 0v-23a1.5 1.5 0 01.941-1.393M62.5 26a1.5 1.5 0 011.5 1.5v19.379l2.445-2.443a1.5 1.5 0 012.121 2.12l-5.001 5.005a1.5 1.5 0 01-2.122 0l-5.003-5.004a1.5 1.5 0 112.12-2.122l2.44 2.44V27.5a1.5 1.5 0 011.5-1.5"/><path fill="url(#d)" d="M29.941 26.107a1.5 1.5 0 011.645.358L41 36.326l9.414-9.861A1.5 1.5 0 0153 27.5v23a1.5 1.5 0 01-3 0V31.244l-7.914 8.291a1.5 1.5 0 01-2.172 0L32 31.245V50.5a1.5 1.5 0 01-3 0v-23a1.5 1.5 0 01.941-1.393M62.5 26a1.5 1.5 0 011.5 1.5v19.379l2.445-2.443a1.5 1.5 0 012.121 2.12l-5.001 5.005a1.5 1.5 0 01-2.122 0l-5.003-5.004a1.5 1.5 0 112.12-2.122l2.44 2.44V27.5a1.5 1.5 0 011.5-1.5"/><defs><linearGradient id="a" x1="33.313" x2="46.263" y1="8" y2="88.129" gradientUnits="userSpaceOnUse"><stop stop-color="#BBB"/><stop offset="1" stop-color="#888"/></linearGradient><linearGradient id="b" x1="31.222" x2="42.916" y1="10" y2="86.319" gradientUnits="userSpaceOnUse"><stop stop-color="#fff"/><stop offset="1" stop-color="#EBEBEB"/></linearGradient><linearGradient id="d" x1="119.062" x2="17.05" y1="76.959" y2="14.413" gradientUnits="userSpaceOnUse"><stop offset="0" stop-color="#597493"/><stop offset="1" stop-color="#0F2F56"/></linearGradient><radialGradient id="c" cx="0" cy="0" r="1" gradientTransform="matrix(32.7222 60.1667 -49.0833 22.5625 33.806 29.792)" gradientUnits="userSpaceOnUse"><stop offset=".177" stop-color="#fff"/><stop offset="1" stop-color="#EFEFEF"/></radialGradient></defs></svg>