<svg xmlns="http://www.w3.org/2000/svg" fill="none" viewBox="0 0 96 96"><path fill="url(#a)" d="M8 27a9 9 0 0 1 9-9h53c9.941 0 18 8.059 18 18v33a9 9 0 0 1-9 9H26c-9.941 0-18-8.059-18-18V27z"/><path fill="url(#b)" d="M10 27a7 7 0 0 1 7-7h53c8.837 0 16 7.163 16 16v33a7 7 0 0 1-7 7H26c-8.837 0-16-7.163-16-16V27z"/><path fill="url(#c)" d="M10 27a7 7 0 0 1 7-7h53c8.837 0 16 7.163 16 16v33a7 7 0 0 1-7 7H26c-8.837 0-16-7.163-16-16V27z"/><path fill="#33C481" d="M52 28a3 3 0 0 1 3 3v10l-13.426.994a.993.993 0 0 1-.148 0L28 41V31a3 3 0 0 1 3-3h21z"/><path fill="#21A366" d="M58 41a3 3 0 0 1 3 3v11l-11 1-2.481-.226C46.14 51.274 41.953 48 37 48h-9v-7h30z"/><path fill="#185C37" d="M65 55a3 3 0 0 1 3 3v7a3 3 0 0 1-3 3H48v-9c0-1.412-.269-2.76-.753-4H65z"/><rect width="40" height="40" x="6" y="50" fill="#107C41" rx="9"/><path fill="#fff" d="M23.273 74.184V82h-5.394V58h8.333c2.983 0 5.255.653 6.813 1.958 1.57 1.306 2.355 3.241 2.355 5.808 0 2.644-.88 4.708-2.639 6.192-1.748 1.484-4.097 2.226-7.047 2.226h-2.421zm0-12.033v7.883h2.254c1.336 0 2.366-.352 3.09-1.055.723-.703 1.085-1.713 1.085-3.03 0-1.215-.356-2.153-1.069-2.81-.701-.66-1.709-.988-3.022-.988h-2.338z"/><defs><linearGradient id="a" x1="33.833" x2="39.939" y1="18" y2="79.056" gradientUnits="userSpaceOnUse"><stop stop-color="#BBB"/><stop offset="1" stop-color="#888"/></linearGradient><linearGradient id="b" x1="31.111" x2="36.368" y1="20" y2="77.071" gradientUnits="userSpaceOnUse"><stop stop-color="#fff"/><stop offset="1" stop-color="#EBEBEB"/></linearGradient><radialGradient id="c" cx="0" cy="0" r="1" gradientTransform="matrix(40.1111 44.3333 -60.1667 16.625 34.278 34.583)" gradientUnits="userSpaceOnUse"><stop offset=".177" stop-color="#fff"/><stop offset="1" stop-color="#EFEFEF"/></radialGradient></defs></svg>