<svg xmlns="http://www.w3.org/2000/svg" fill="none" viewBox="0 0 96 96"><path fill="url(#a)" d="M8 27a9 9 0 0 1 9-9h53c9.941 0 18 8.059 18 18v33a9 9 0 0 1-9 9H26c-9.941 0-18-8.059-18-18V27z"/><path fill="url(#b)" d="M8 27a9 9 0 0 1 9-9h53c9.941 0 18 8.059 18 18v33a9 9 0 0 1-9 9H26c-9.941 0-18-8.059-18-18V27z"/><path stroke="url(#c)" stroke-dasharray="13 8" stroke-linecap="round" stroke-width="2" d="M9 27a8 8 0 0 1 8-8h53c9.389 0 17 7.611 17 17v33a8 8 0 0 1-8 8H26c-9.389 0-17-7.611-17-17V27z"/><path fill="#33C481" d="M52 28a3 3 0 0 1 3 3v10l-13.426.994a.993.993 0 0 1-.148 0L28 41V31a3 3 0 0 1 3-3h21z"/><path fill="#21A366" d="M58 41a3 3 0 0 1 3 3v11l-11 1-2.481-.226C46.14 51.274 41.953 48 37 48h-9v-7h30z"/><path fill="#185C37" d="M65 55a3 3 0 0 1 3 3v7a3 3 0 0 1-3 3H48v-9c0-1.412-.269-2.76-.753-4H65z"/><rect width="40" height="40" x="6" y="50" fill="#107C41" rx="9"/><path fill="#fff" d="M23.272 74.184V82h-5.394V58h8.333c2.984 0 5.255.653 6.814 1.958 1.57 1.306 2.354 3.241 2.354 5.808 0 2.644-.88 4.708-2.638 6.192-1.748 1.484-4.097 2.226-7.047 2.226h-2.422zm0-12.033v7.883h2.255c1.336 0 2.365-.352 3.089-1.055.724-.703 1.085-1.713 1.085-3.03 0-1.215-.356-2.153-1.068-2.81-.702-.66-1.71-.988-3.023-.988h-2.338z"/><defs><linearGradient id="a" x1="30.222" x2="35.953" y1="18" y2="79.129" gradientUnits="userSpaceOnUse"><stop stop-color="#fff"/><stop offset="1" stop-color="#EBEBEB"/></linearGradient><radialGradient id="b" cx="0" cy="0" r="1" gradientTransform="matrix(42.2222 47.5 -63.3333 17.8125 33.556 33.625)" gradientUnits="userSpaceOnUse"><stop offset=".177" stop-color="#fff"/><stop offset="1" stop-color="#EFEFEF"/></radialGradient><linearGradient id="c" x1="34.188" x2="40.04" y1="19" y2="78.031" gradientUnits="userSpaceOnUse"><stop stop-color="#BBB"/><stop offset="1" stop-color="#888"/></linearGradient></defs></svg>