<svg xmlns="http://www.w3.org/2000/svg" fill="none" viewBox="0 0 96 96"><path fill="url(#a)" d="M71.614 81.614A9.004 9.004 0 0 1 63 88H42c-13.255 0-24-10.745-24-24V23a9.004 9.004 0 0 1 6.386-8.614A9.004 9.004 0 0 1 33 8h27c9.941 0 18 8.059 18 18v47a9.004 9.004 0 0 1-6.386 8.614z"/><path fill="url(#b)" d="M33 10a7 7 0 0 0-7 7v47c0 8.837 7.163 16 16 16h27a7 7 0 0 0 7-7V26c0-8.837-7.163-16-16-16H33z"/><path fill="url(#c)" d="M33 10a7 7 0 0 0-7 7v47c0 8.837 7.163 16 16 16h27a7 7 0 0 0 7-7V26c0-8.837-7.163-16-16-16H33z"/><path fill="url(#d)" d="M24 17c0-.11.002-.22.006-.33A7 7 0 0 0 20 23v41c0 12.15 9.85 22 22 22h21a7 7 0 0 0 6.33-4.006A9.23 9.23 0 0 1 69 82H42c-9.941 0-18-8.059-18-18V17z"/><path fill="url(#e)" d="M24 17c0-.11.002-.22.006-.33A7 7 0 0 0 20 23v41c0 12.15 9.85 22 22 22h21a7 7 0 0 0 6.33-4.006A9.23 9.23 0 0 1 69 82H42c-9.941 0-18-8.059-18-18V17z"/><rect width="40" height="40" x="6" y="50" fill="url(#f)" rx="9"/><rect width="40" height="40" x="6" y="50" fill="url(#g)" fill-opacity=".8" rx="9"/><path fill="#fff" d="M36.773 82h-5.445L21.46 67.188a49.048 49.048 0 0 1-.701-1.154c-.19-.335-.334-.614-.434-.837h-.067c.022.424.039.96.05 1.606.011.648.017 1.406.017 2.276V82H15.23V58h5.812l9.502 14.343c.2.324.395.653.584.987.2.324.384.648.551.971h.067a22.664 22.664 0 0 1-.05-1.238c-.011-.558-.017-1.244-.017-2.059V58h5.094v24z"/><path fill="url(#h)" d="M69 62.999a4 4 0 0 1-4.001 4L48 66.994V59c0-5.335-3.798-9.781-8.837-10.786A8.016 8.016 0 0 1 41 48h28v14.999z"/><path fill="url(#i)" d="M52 32h17v16a4 4 0 0 1-4 4H52V32z"/><path fill="url(#j)" d="M65 23a4 4 0 0 1 4 4v7a4 4 0 0 1-4 4h-4a4 4 0 0 0-4 4v6a4 4 0 0 1-4 4h-7.515c-2.017-2.443-5.07-4-8.485-4h-3.992V30.5a7.5 7.5 0 0 1 7.5-7.5H65z"/><path fill="url(#k)" fill-opacity=".8" d="M65 23a4 4 0 0 1 4 4v7a4 4 0 0 1-4 4h-4a4 4 0 0 0-4 4v6a4 4 0 0 1-4 4h-7.515c-2.017-2.443-5.07-4-8.485-4h-3.992V30.5a7.5 7.5 0 0 1 7.5-7.5H65z"/><defs><linearGradient id="a" x1="37.375" x2="51.544" y1="8" y2="87.703" gradientUnits="userSpaceOnUse"><stop stop-color="#BBB"/><stop offset="1" stop-color="#888"/></linearGradient><linearGradient id="b" x1="35.556" x2="48.436" y1="10" y2="85.926" gradientUnits="userSpaceOnUse"><stop stop-color="#fff"/><stop offset="1" stop-color="#EBEBEB"/></linearGradient><radialGradient id="c" cx="0" cy="0" r="1" gradientTransform="matrix(29.5556 60.1667 -44.3333 22.5625 37.889 29.792)" gradientUnits="userSpaceOnUse"><stop offset=".177" stop-color="#fff"/><stop offset="1" stop-color="#EFEFEF"/></radialGradient><linearGradient id="d" x1="35.556" x2="48.436" y1="10" y2="85.926" gradientUnits="userSpaceOnUse"><stop stop-color="#fff"/><stop offset="1" stop-color="#EBEBEB"/></linearGradient><radialGradient id="e" cx="0" cy="0" r="1" gradientTransform="matrix(29.5556 60.1667 -44.3333 22.5625 37.889 29.792)" gradientUnits="userSpaceOnUse"><stop offset=".177" stop-color="#fff"/><stop offset="1" stop-color="#EFEFEF"/></radialGradient><radialGradient id="f" cx="0" cy="0" r="1" gradientTransform="rotate(45 -57.355 32.243) scale(56.5685)" gradientUnits="userSpaceOnUse"><stop offset=".072" stop-color="#AC13EB"/><stop offset=".879" stop-color="#580087"/></radialGradient><radialGradient id="g" cx="0" cy="0" r="1" gradientTransform="matrix(0 28 -32.25 0 26 74)" gradientUnits="userSpaceOnUse"><stop offset=".585" stop-color="#841FB0" stop-opacity="0"/><stop offset=".969" stop-color="#D373FC"/></radialGradient><radialGradient id="h" cx="0" cy="0" r="1" gradientTransform="matrix(57.088 0 0 25.3942 67.95 67)" gradientUnits="userSpaceOnUse"><stop offset=".159" stop-color="#A931D8"/><stop offset=".566" stop-color="#6E1996"/></radialGradient><linearGradient id="i" x1="76.631" x2="55.416" y1="42.939" y2="32.522" gradientUnits="userSpaceOnUse"><stop offset=".217" stop-color="#CA59F7"/><stop offset=".888" stop-color="#691A90"/></linearGradient><linearGradient id="j" x1="69.756" x2="33.008" y1="32.49" y2="32.49" gradientUnits="userSpaceOnUse"><stop stop-color="#DE68F2"/><stop offset=".775" stop-color="#DE66FF"/><stop offset="1" stop-color="#FF84F7"/></linearGradient><radialGradient id="k" cx="0" cy="0" r="1" gradientTransform="matrix(-18.374 20.91837 -20.94835 -18.40034 69.756 23)" gradientUnits="userSpaceOnUse"><stop stop-color="#FFC5D0"/><stop offset="1" stop-color="#EBC5FF" stop-opacity="0"/></radialGradient></defs></svg>