<svg xmlns="http://www.w3.org/2000/svg" fill="none" viewBox="0 0 96 96"><path fill="url(#a)" d="M8 27a9 9 0 019-9h53c9.941 0 18 8.059 18 18v33a9 9 0 01-9 9H26c-9.941 0-18-8.059-18-18z"/><path fill="url(#b)" d="M10 27a7 7 0 017-7h53c8.837 0 16 7.163 16 16v33a7 7 0 01-7 7H26c-8.837 0-16-7.163-16-16z"/><path fill="url(#c)" d="M10 27a7 7 0 017-7h53c8.837 0 16 7.163 16 16v33a7 7 0 01-7 7H26c-8.837 0-16-7.163-16-16z"/><path fill="url(#d)" d="M69 30a3 3 0 013 3v6H24v-6a3 3 0 013-3z"/><path fill="#FEF4DD" d="M55.5 33a1.5 1.5 0 110 3 1.5 1.5 0 010-3m6 0a1.5 1.5 0 110 3 1.5 1.5 0 010-3m6 0a1.5 1.5 0 110 3 1.5 1.5 0 010-3"/><path fill="url(#e)" d="M72 63a3 3 0 01-3 3H40V52a4 4 0 00-4-4H26a4 4 0 00-2 .536V36h48z"/><path fill="url(#f)" d="M38 51.539v36.923c0 .85-.689 1.538-1.538 1.538H24V51.539c0-.85.689-1.539 1.538-1.539h10.924c.85 0 1.538.689 1.538 1.538"/><path fill="#000" fill-opacity=".5" fill-rule="evenodd" d="M30 61.784C30 60.246 28.78 59 27.273 59l-10.272 1.193v28.614L28.83 90H30z" clip-rule="evenodd" opacity=".25"/><path fill="url(#g)" d="M29 60.539V90H15V60.539c0-.85.689-1.539 1.538-1.539h10.924c.85 0 1.538.689 1.538 1.538"/><path fill="url(#h)" d="M6 71.539v16.923C6 89.312 6.689 90 7.538 90H20V71.539c0-.85-.689-1.539-1.538-1.539H7.538C6.688 70 6 70.689 6 71.538"/><defs><linearGradient id="a" x1="33.833" x2="39.939" y1="18" y2="79.056" gradientUnits="userSpaceOnUse"><stop stop-color="#BBB"/><stop offset="1" stop-color="#888"/></linearGradient><linearGradient id="b" x1="31.111" x2="36.368" y1="20" y2="77.071" gradientUnits="userSpaceOnUse"><stop stop-color="#fff"/><stop offset="1" stop-color="#EBEBEB"/></linearGradient><linearGradient id="d" x1="48" x2="48.849" y1="30" y2="39.061" gradientUnits="userSpaceOnUse"><stop stop-color="#F2C661"/><stop offset="1" stop-color="#EAA300"/></linearGradient><linearGradient id="e" x1="48" x2="50.088" y1="36" y2="66.063" gradientUnits="userSpaceOnUse"><stop stop-color="#F9E2AE"/><stop offset="1" stop-color="#F2C661"/></linearGradient><linearGradient id="f" x1="21.667" x2="36.833" y1="50" y2="86.167" gradientUnits="userSpaceOnUse"><stop stop-color="#E6AD10"/><stop offset="1" stop-color="#C87E0E"/></linearGradient><linearGradient id="g" x1="14.999" x2="30.136" y1="59" y2="88.831" gradientUnits="userSpaceOnUse"><stop stop-color="#F6D751"/><stop offset="1" stop-color="#E6AD10"/></linearGradient><linearGradient id="h" x1="5.999" x2="13.732" y1="70" y2="89.792" gradientUnits="userSpaceOnUse"><stop stop-color="#F9E589"/><stop offset="1" stop-color="#F6D751"/></linearGradient><radialGradient id="c" cx="0" cy="0" r="1" gradientTransform="matrix(40.1111 44.3333 -60.1667 16.625 34.278 34.583)" gradientUnits="userSpaceOnUse"><stop offset=".177" stop-color="#fff"/><stop offset="1" stop-color="#EFEFEF"/></radialGradient></defs></svg>