<svg xmlns="http://www.w3.org/2000/svg" fill="none" viewBox="0 0 96 96"><path fill="url(#a)" d="M18 17a9 9 0 0 1 9-9h33c9.941 0 18 8.059 18 18v53a9 9 0 0 1-9 9H36c-9.941 0-18-8.059-18-18V17z"/><path fill="url(#b)" d="M20 17a7 7 0 0 1 7-7h33c8.837 0 16 7.163 16 16v53a7 7 0 0 1-7 7H36c-8.837 0-16-7.163-16-16V17z"/><path fill="url(#c)" d="M20 17a7 7 0 0 1 7-7h33c8.837 0 16 7.163 16 16v53a7 7 0 0 1-7 7H36c-8.837 0-16-7.163-16-16V17z"/><path fill="#D20112" fill-rule="evenodd" d="M34.545 24c.74 0 1.816.21 2.75.883 1.012.728 1.75 1.928 1.75 3.617s-.738 2.89-1.75 3.617c-.934.673-2.01.883-2.75.883h-1.5v4.5a1.5 1.5 0 0 1-3 0v-12l.008-.153A1.5 1.5 0 0 1 31.545 24h3zm-1.5 6h1.5c.26 0 .684-.09.999-.317.239-.172.5-.472.5-1.183 0-.71-.261-1.01-.5-1.183a1.859 1.859 0 0 0-1-.317h-1.5v3zm13.943-5.994c1.677.062 3.41.599 4.773 1.777 1.49 1.288 2.393 3.22 2.393 5.717 0 2.496-.904 4.429-2.393 5.717C50.307 38.474 48.433 39 46.654 39h-3a1.5 1.5 0 0 1-1.5-1.5v-12l.008-.153A1.5 1.5 0 0 1 43.654 24h3l.334.006zM45.154 36h1.5c1.222 0 2.347-.364 3.144-1.053.76-.657 1.356-1.725 1.356-3.447s-.596-2.79-1.356-3.447c-.747-.646-1.783-1.007-2.916-1.05L46.654 27h-1.5v9z" clip-rule="evenodd"/><path fill="#D20112" d="M64.5 24a1.5 1.5 0 0 1 0 3H60v3h2.5a1.5 1.5 0 0 1 0 3H60v4.5a1.5 1.5 0 0 1-3 0v-12l.008-.153A1.5 1.5 0 0 1 58.5 24h6z"/><path fill="url(#d)" d="M64.5 69a1.5 1.5 0 0 1 0 3h-33a1.5 1.5 0 0 1 0-3h33zm0-9a1.5 1.5 0 0 1 0 3h-33a1.5 1.5 0 0 1 0-3h33zm0-9a1.5 1.5 0 0 1 0 3h-33a1.5 1.5 0 0 1 0-3h33z"/><defs><linearGradient id="a" x1="37.375" x2="51.544" y1="8" y2="87.703" gradientUnits="userSpaceOnUse"><stop stop-color="#BBB"/><stop offset="1" stop-color="#888"/></linearGradient><linearGradient id="b" x1="35.556" x2="48.436" y1="10" y2="85.926" gradientUnits="userSpaceOnUse"><stop stop-color="#fff"/><stop offset="1" stop-color="#EBEBEB"/></linearGradient><radialGradient id="c" cx="0" cy="0" r="1" gradientTransform="matrix(29.5556 60.1667 -44.3333 22.5625 37.889 29.792)" gradientUnits="userSpaceOnUse"><stop offset=".177" stop-color="#fff"/><stop offset="1" stop-color="#EFEFEF"/></radialGradient><linearGradient id="d" x1="41.625" x2="43.294" y1="51" y2="72.454" gradientUnits="userSpaceOnUse"><stop stop-color="#898989"/><stop offset="1" stop-color="#636262"/></linearGradient></defs></svg>