<svg xmlns="http://www.w3.org/2000/svg" fill="none" viewBox="0 0 96 96"><path fill="url(#a)" d="M8 27a9 9 0 0 1 9-9h53c9.941 0 18 8.059 18 18v33a9 9 0 0 1-9 9H26c-9.941 0-18-8.059-18-18V27z"/><path fill="url(#b)" d="M10 27a7 7 0 0 1 7-7h53c8.837 0 16 7.163 16 16v33a7 7 0 0 1-7 7H26c-8.837 0-16-7.163-16-16V27z"/><path fill="url(#c)" d="M10 27a7 7 0 0 1 7-7h53c8.837 0 16 7.163 16 16v33a7 7 0 0 1-7 7H26c-8.837 0-16-7.163-16-16V27z"/><path fill="url(#d)" d="m34.246 51.047 11.482-13.39a3 3 0 0 1 4.555 0l11.478 13.39c1.668 1.947.285 4.953-2.278 4.953h-22.96c-2.563 0-3.945-3.007-2.277-4.953z"/><path fill="url(#e)" d="M38.98 41.094a1.5 1.5 0 0 1-1.233 1.726c-5.153.86-9.453 2.336-12.421 4.142C22.299 48.804 21 50.76 21 52.5c0 1.74 1.299 3.696 4.326 5.538 2.968 1.806 7.268 3.282 12.421 4.142a1.5 1.5 0 0 1-.494 2.959c-5.391-.9-10.09-2.471-13.487-4.538C20.43 58.57 18 55.826 18 52.5c0-3.326 2.43-6.07 5.766-8.1 3.397-2.068 8.096-3.639 13.487-4.539a1.5 1.5 0 0 1 1.727 1.233z"/><path fill="url(#f)" d="M57.02 41.094a1.5 1.5 0 0 1 1.727-1.233c5.391.9 10.09 2.471 13.487 4.538C75.57 46.43 78 49.174 78 52.5c0 2.174-1.053 4.113-2.681 5.734-1.624 1.616-3.896 3.002-6.584 4.134-5.282 2.223-12.44 3.58-20.283 3.63l.38.254a1.5 1.5 0 1 1-1.664 2.496l-4.375-2.917a1.6 1.6 0 0 1 0-2.662l4.375-2.917a1.5 1.5 0 1 1 1.664 2.496l-.376.25c7.536-.05 14.28-1.36 19.114-3.395 2.47-1.04 4.37-2.24 5.632-3.495C74.458 54.858 75 53.64 75 52.5c0-1.74-1.299-3.696-4.326-5.538-2.968-1.806-7.268-3.282-12.421-4.142a1.5 1.5 0 0 1-1.233-1.726z"/><circle cx="59" cy="32" r="4" fill="url(#g)"/><defs><linearGradient id="a" x1="33.833" x2="39.939" y1="18" y2="79.056" gradientUnits="userSpaceOnUse"><stop stop-color="#BBB"/><stop offset="1" stop-color="#888"/></linearGradient><linearGradient id="b" x1="31.111" x2="36.368" y1="20" y2="77.071" gradientUnits="userSpaceOnUse"><stop stop-color="#fff"/><stop offset="1" stop-color="#EBEBEB"/></linearGradient><radialGradient id="c" cx="0" cy="0" r="1" gradientTransform="matrix(40.1111 44.3333 -60.1667 16.625 34.278 34.583)" gradientUnits="userSpaceOnUse"><stop offset=".177" stop-color="#fff"/><stop offset="1" stop-color="#EFEFEF"/></radialGradient><linearGradient id="d" x1="33" x2="38.964" y1="30.38" y2="70.852" gradientUnits="userSpaceOnUse"><stop offset="0" stop-color="#597493"/><stop offset="1" stop-color="#0F2F56"/></linearGradient><linearGradient id="e" x1="33" x2="38.964" y1="30.38" y2="70.852" gradientUnits="userSpaceOnUse"><stop offset="0" stop-color="#597493"/><stop offset="1" stop-color="#0F2F56"/></linearGradient><linearGradient id="f" x1="33" x2="38.964" y1="30.38" y2="70.852" gradientUnits="userSpaceOnUse"><stop offset="0" stop-color="#597493"/><stop offset="1" stop-color="#0F2F56"/></linearGradient><linearGradient id="g" x1="55" x2="63.691" y1="23" y2="39.639" gradientUnits="userSpaceOnUse"><stop offset="0" stop-color="#597493"/><stop offset="1" stop-color="#0F2F56"/></linearGradient></defs></svg>