<svg xmlns="http://www.w3.org/2000/svg" fill="none" viewBox="0 0 96 96"><path fill="url(#a)" d="M77.614 77.614A9.004 9.004 0 0 1 69 84H36c-13.255 0-24-10.745-24-24V27a9.004 9.004 0 0 1 6.386-8.614A9.004 9.004 0 0 1 27 12h39c9.941 0 18 8.059 18 18v39a9.004 9.004 0 0 1-6.386 8.614z"/><path fill="url(#b)" d="M27 14a7 7 0 0 0-7 7v39c0 8.837 7.163 16 16 16h39a7 7 0 0 0 7-7V30c0-8.837-7.163-16-16-16H27z"/><path fill="url(#c)" d="M27 14a7 7 0 0 0-7 7v39c0 8.837 7.163 16 16 16h39a7 7 0 0 0 7-7V30c0-8.837-7.163-16-16-16H27z"/><path fill="url(#d)" d="M18 21c0-.11.002-.22.006-.33A7 7 0 0 0 14 27v33c0 12.15 9.85 22 22 22h33a7 7 0 0 0 6.33-4.006A8.99 8.99 0 0 1 75 78H36c-9.941 0-18-8.059-18-18V21z"/><path fill="url(#e)" d="M18 21c0-.11.002-.22.006-.33A7 7 0 0 0 14 27v33c0 12.15 9.85 22 22 22h33a7 7 0 0 0 6.33-4.006A8.99 8.99 0 0 1 75 78H36c-9.941 0-18-8.059-18-18V21z"/><path fill="url(#f)" d="M42.706 27.584c-3-1.686-6.706.48-6.706 3.92v26.991c0 3.44 3.706 5.607 6.706 3.92l24-13.494c3.059-1.72 3.059-6.121 0-7.841l-24-13.496z"/><defs><linearGradient id="a" x1="35.25" x2="44.944" y1="12" y2="84.707" gradientUnits="userSpaceOnUse"><stop stop-color="#BBB"/><stop offset="1" stop-color="#888"/></linearGradient><linearGradient id="b" x1="32.889" x2="41.491" y1="14" y2="82.814" gradientUnits="userSpaceOnUse"><stop stop-color="#fff"/><stop offset="1" stop-color="#EBEBEB"/></linearGradient><radialGradient id="c" cx="0" cy="0" r="1" gradientTransform="matrix(35.8889 53.8333 -53.8333 20.1875 35.722 31.708)" gradientUnits="userSpaceOnUse"><stop offset=".177" stop-color="#fff"/><stop offset="1" stop-color="#EFEFEF"/></radialGradient><linearGradient id="d" x1="32.889" x2="41.491" y1="14" y2="82.814" gradientUnits="userSpaceOnUse"><stop stop-color="#fff"/><stop offset="1" stop-color="#EBEBEB"/></linearGradient><radialGradient id="e" cx="0" cy="0" r="1" gradientTransform="matrix(35.8889 53.8333 -53.8333 20.1875 35.722 31.708)" gradientUnits="userSpaceOnUse"><stop offset=".177" stop-color="#fff"/><stop offset="1" stop-color="#EFEFEF"/></radialGradient><linearGradient id="f" x1="52.5" x2="48.219" y1="54.189" y2="33.852" gradientUnits="userSpaceOnUse"><stop stop-color="#892FFF"/><stop offset="1" stop-color="#A966FF"/></linearGradient></defs></svg>