<svg xmlns="http://www.w3.org/2000/svg" fill="none" viewBox="0 0 96 96"><path fill="url(#a)" d="M77.614 77.614A9 9 0 0169 84H36c-13.255 0-24-10.745-24-24V27a9 9 0 016.386-8.614A9 9 0 0127 12h39c9.941 0 18 8.059 18 18v39a9 9 0 01-6.386 8.614"/><path fill="url(#b)" d="M27 14a7 7 0 00-7 7v39c0 8.837 7.163 16 16 16h39a7 7 0 007-7V30c0-8.837-7.163-16-16-16z"/><path fill="url(#c)" d="M27 14a7 7 0 00-7 7v39c0 8.837 7.163 16 16 16h39a7 7 0 007-7V30c0-8.837-7.163-16-16-16z"/><path fill="url(#d)" d="M18 21q0-.165.006-.33A7 7 0 0014 27v33c0 12.15 9.85 22 22 22h33a7 7 0 006.33-4.006A9 9 0 0175 78H36c-9.941 0-18-8.059-18-18z"/><path fill="url(#e)" d="M18 21q0-.165.006-.33A7 7 0 0014 27v33c0 12.15 9.85 22 22 22h33a7 7 0 006.33-4.006A9 9 0 0175 78H36c-9.941 0-18-8.059-18-18z"/><path fill="url(#f)" d="M44.076 50.924a4.19 4.19 0 01-5.925 0l-5.924-5.925a4.19 4.19 0 010-5.924l5.924-5.924a4.19 4.19 0 015.925 0L50 39.075a4.19 4.19 0 010 5.924z"/><path fill="url(#g)" d="M44.076 50.924a4.19 4.19 0 01-5.925 0l-5.924-5.925a4.19 4.19 0 010-5.924l5.924-5.924a4.19 4.19 0 015.925 0L50 39.075a4.19 4.19 0 010 5.924z"/><path fill="url(#h)" d="M32.227 45a4.19 4.19 0 005.924 0l17.774-17.773a4.19 4.19 0 015.924 0l5.924 5.924a4.19 4.19 0 010 5.925L50 56.849a4.19 4.19 0 01-5.925 0z"/><path fill="url(#i)" d="M32.227 45a4.19 4.19 0 005.924 0l17.774-17.773a4.19 4.19 0 015.924 0l5.924 5.924a4.19 4.19 0 010 5.925L50 56.849a4.19 4.19 0 01-5.925 0z"/><path fill="url(#j)" d="M38.152 50.924a4.19 4.19 0 005.925 0l11.849-11.848a4.19 4.19 0 015.924 0L67.775 45a4.19 4.19 0 010 5.924l-11.85 11.85a4.19 4.19 0 01-5.924 0z"/><path fill="url(#k)" d="M38.152 50.924a4.19 4.19 0 005.925 0l11.849-11.848a4.19 4.19 0 015.924 0L67.775 45a4.19 4.19 0 010 5.924l-11.85 11.85a4.19 4.19 0 01-5.924 0z"/><defs><linearGradient id="a" x1="35.25" x2="44.944" y1="12" y2="84.707" gradientUnits="userSpaceOnUse"><stop stop-color="#BBB"/><stop offset="1" stop-color="#888"/></linearGradient><linearGradient id="b" x1="32.889" x2="41.491" y1="14" y2="82.814" gradientUnits="userSpaceOnUse"><stop stop-color="#fff"/><stop offset="1" stop-color="#EBEBEB"/></linearGradient><linearGradient id="d" x1="32.889" x2="41.491" y1="14" y2="82.814" gradientUnits="userSpaceOnUse"><stop stop-color="#fff"/><stop offset="1" stop-color="#EBEBEB"/></linearGradient><linearGradient id="f" x1="41.113" x2="34.417" y1="31.924" y2="46.23" gradientUnits="userSpaceOnUse"><stop stop-color="#8752E0"/><stop offset="1" stop-color="#541278"/></linearGradient><linearGradient id="g" x1="44.269" x2="38.823" y1="43.527" y2="38.179" gradientUnits="userSpaceOnUse"><stop offset=".122" stop-color="#3D0D59"/><stop offset="1" stop-color="#7034B0" stop-opacity="0"/></linearGradient><linearGradient id="h" x1="60.086" x2="46.607" y1="26" y2="58.331" gradientUnits="userSpaceOnUse"><stop stop-color="#DB45E0"/><stop offset="1" stop-color="#6C0F71"/></linearGradient><linearGradient id="i" x1="60.086" x2="46.607" y1="26" y2="58.331" gradientUnits="userSpaceOnUse"><stop stop-color="#DB45E0"/><stop offset=".677" stop-color="#A829AE"/><stop offset="1" stop-color="#8F28B3"/></linearGradient><linearGradient id="j" x1="59.502" x2="53.169" y1="37.875" y2="63.999" gradientUnits="userSpaceOnUse"><stop stop-color="#3DCBFF"/><stop offset="1" stop-color="#00479E"/></linearGradient><linearGradient id="k" x1="59.844" x2="47.664" y1="38.55" y2="62.317" gradientUnits="userSpaceOnUse"><stop stop-color="#3DCBFF"/><stop offset="1" stop-color="#4A40D4"/></linearGradient><radialGradient id="c" cx="0" cy="0" r="1" gradientTransform="matrix(35.8889 53.8333 -53.8333 20.1875 35.722 31.708)" gradientUnits="userSpaceOnUse"><stop offset=".177" stop-color="#fff"/><stop offset="1" stop-color="#EFEFEF"/></radialGradient><radialGradient id="e" cx="0" cy="0" r="1" gradientTransform="matrix(35.8889 53.8333 -53.8333 20.1875 35.722 31.708)" gradientUnits="userSpaceOnUse"><stop offset=".177" stop-color="#fff"/><stop offset="1" stop-color="#EFEFEF"/></radialGradient></defs></svg>