<svg xmlns="http://www.w3.org/2000/svg" fill="none" viewBox="0 0 96 96"><path fill="url(#a)" d="M8 27a9 9 0 0 1 9-9h53c9.941 0 18 8.059 18 18v33a9 9 0 0 1-9 9H26c-9.941 0-18-8.059-18-18V27z"/><path fill="url(#b)" d="M10 27a7 7 0 0 1 7-7h53c8.837 0 16 7.163 16 16v33a7 7 0 0 1-7 7H26c-8.837 0-16-7.163-16-16V27z"/><path fill="url(#c)" d="M10 27a7 7 0 0 1 7-7h53c8.837 0 16 7.163 16 16v33a7 7 0 0 1-7 7H26c-8.837 0-16-7.163-16-16V27z"/><path fill="url(#d)" d="M47.998 27c11.597 0 20.998 9.402 20.998 21 0 11.597-9.4 20.998-20.996 20.999V59c0-6.075-4.925-11-11-11H27c0-11.598 9.401-21 20.998-21z"/><path fill="url(#e)" d="M47.998 27c11.597 0 20.998 9.402 20.998 21 0 11.597-9.4 20.998-20.996 20.999V59c0-6.075-4.925-11-11-11H27c0-11.598 9.401-21 20.998-21z"/><path fill="url(#f)" fill-opacity=".5" d="M47.998 27c11.597 0 20.998 9.402 20.998 21 0 11.597-9.4 20.998-20.996 20.999V59c0-6.075-4.925-11-11-11H27c0-11.598 9.401-21 20.998-21z"/><path fill="url(#g)" d="M48.001 27c11.597 0 20.998 9.402 20.998 21 0 3.862-1.044 7.48-2.863 10.59l.345-.767c2.08-4.614-1.298-9.836-6.359-9.832l-8.357.006A3.76 3.76 0 0 1 48 44.237v-8.373c0-5.062-5.227-8.435-9.84-6.35l-.672.303A20.9 20.9 0 0 1 48.001 27z"/><path fill="url(#h)" d="M48.001 27c11.597 0 20.998 9.402 20.998 21 0 3.862-1.044 7.48-2.863 10.59l.345-.767c2.08-4.614-1.298-9.836-6.359-9.832l-8.357.006A3.76 3.76 0 0 1 48 44.237v-8.373c0-5.062-5.227-8.435-9.84-6.35l-.672.303A20.9 20.9 0 0 1 48.001 27z"/><rect width="40" height="40" x="6" y="50" fill="url(#i)" rx="9"/><rect width="40" height="40" x="6" y="50" fill="url(#j)" fill-opacity=".3" rx="9"/><path fill="#fff" d="M23.273 74.184V82h-5.394V58h8.333c2.983 0 5.255.653 6.813 1.958 1.57 1.306 2.355 3.241 2.355 5.808 0 2.644-.88 4.708-2.639 6.192-1.748 1.484-4.097 2.226-7.047 2.226h-2.421zm0-12.033v7.883h2.254c1.336 0 2.366-.352 3.09-1.055.723-.703 1.085-1.713 1.085-3.03 0-1.215-.356-2.153-1.069-2.81-.701-.66-1.709-.988-3.022-.988h-2.338z"/><defs><linearGradient id="a" x1="33.833" x2="39.939" y1="18" y2="79.056" gradientUnits="userSpaceOnUse"><stop stop-color="#BBB"/><stop offset="1" stop-color="#888"/></linearGradient><linearGradient id="b" x1="31.111" x2="36.368" y1="20" y2="77.071" gradientUnits="userSpaceOnUse"><stop stop-color="#fff"/><stop offset="1" stop-color="#EBEBEB"/></linearGradient><radialGradient id="c" cx="0" cy="0" r="1" gradientTransform="matrix(40.1111 44.3333 -60.1667 16.625 34.278 34.583)" gradientUnits="userSpaceOnUse"><stop offset=".177" stop-color="#fff"/><stop offset="1" stop-color="#EFEFEF"/></radialGradient><linearGradient id="d" x1="44.385" x2="18.634" y1="25.663" y2="51.876" gradientUnits="userSpaceOnUse"><stop offset=".058" stop-color="#FF7F48"/><stop offset="1" stop-color="#E5495B"/></linearGradient><radialGradient id="e" cx="0" cy="0" r="1" gradientTransform="matrix(-31.7242 29.8143 -53.3961 -50.1814 55.485 39.187)" gradientUnits="userSpaceOnUse"><stop offset=".152" stop-color="#AA1D2D"/><stop offset=".381" stop-color="#D12B18" stop-opacity=".44"/><stop offset=".602" stop-color="#FF3C00" stop-opacity="0"/></radialGradient><radialGradient id="f" cx="0" cy="0" r="1" gradientTransform="matrix(38.4556 -17.0705 32.9069 65.4736 16.51 65.071)" gradientUnits="userSpaceOnUse"><stop offset=".407" stop-color="#FF66FB"/><stop offset="1" stop-color="#EA3D01" stop-opacity="0"/></radialGradient><radialGradient id="g" cx="0" cy="0" r="1" gradientTransform="matrix(19.1999 -21.9892 20.4919 17.0638 45.653 50.9)" gradientUnits="userSpaceOnUse"><stop stop-color="#FD6EF9"/><stop offset=".637" stop-color="#F94"/><stop offset=".852" stop-color="#FCC479"/></radialGradient><radialGradient id="h" cx="0" cy="0" r="1" gradientTransform="matrix(-2.16876 14.701 -33.246 -4.67743 43.743 29.776)" gradientUnits="userSpaceOnUse"><stop offset=".144" stop-color="#FF8D13"/><stop offset=".537" stop-color="#FF7F29" stop-opacity="0"/></radialGradient><radialGradient id="i" cx="0" cy="0" r="1" gradientTransform="rotate(45 -57.358 32.237) scale(56.5685)" gradientUnits="userSpaceOnUse"><stop stop-color="#F8193E"/><stop offset=".939" stop-color="#920616"/></radialGradient><radialGradient id="j" cx="0" cy="0" r="1" gradientTransform="matrix(0 28 -31.875 0 25.995 74)" gradientUnits="userSpaceOnUse"><stop offset=".576" stop-color="#FFB055" stop-opacity="0"/><stop offset=".974" stop-color="#FFF2BE"/></radialGradient></defs></svg>