<svg xmlns="http://www.w3.org/2000/svg" fill="none" viewBox="0 0 96 96"><path fill="url(#a)" d="M8 27a9 9 0 0 1 9-9h53c9.941 0 18 8.059 18 18v33a9 9 0 0 1-9 9H26c-9.941 0-18-8.059-18-18V27z"/><path fill="url(#b)" d="M10 27a7 7 0 0 1 7-7h53c8.837 0 16 7.163 16 16v33a7 7 0 0 1-7 7H26c-8.837 0-16-7.163-16-16V27z"/><path fill="url(#c)" d="M10 27a7 7 0 0 1 7-7h53c8.837 0 16 7.163 16 16v33a7 7 0 0 1-7 7H26c-8.837 0-16-7.163-16-16V27z"/><path fill="url(#d)" d="M51 27c-.55 0-1.096.025-1.635.073A1.5 1.5 0 0 0 48 28.567V46a2 2 0 0 0 2 2h17.433a1.5 1.5 0 0 0 1.494-1.365c.048-.54.073-1.084.073-1.635 0-9.941-8.059-18-18-18z"/><path fill="url(#e)" fill-rule="evenodd" d="M44.512 33.46A1.5 1.5 0 0 1 45 34.567V46.5a4.5 4.5 0 0 0 4.5 4.5h11.933a1.5 1.5 0 0 1 1.494 1.635C62.1 61.81 54.39 69 45 69c-9.941 0-18-8.059-18-18 0-9.39 7.19-17.1 16.365-17.927a1.5 1.5 0 0 1 1.147.387zM42 36.3c-6.846 1.389-12 7.443-12 14.7 0 8.284 6.716 15 15 15 7.257 0 13.31-5.154 14.7-12H49.5a7.5 7.5 0 0 1-7.5-7.5V36.3z" clip-rule="evenodd"/><defs><linearGradient id="a" x1="33.833" x2="39.939" y1="18" y2="79.056" gradientUnits="userSpaceOnUse"><stop stop-color="#BBB"/><stop offset="1" stop-color="#888"/></linearGradient><linearGradient id="b" x1="31.111" x2="36.368" y1="20" y2="77.071" gradientUnits="userSpaceOnUse"><stop stop-color="#fff"/><stop offset="1" stop-color="#EBEBEB"/></linearGradient><radialGradient id="c" cx="0" cy="0" r="1" gradientTransform="matrix(40.1111 44.3333 -60.1667 16.625 34.278 34.583)" gradientUnits="userSpaceOnUse"><stop offset=".177" stop-color="#fff"/><stop offset="1" stop-color="#EFEFEF"/></radialGradient><linearGradient id="d" x1="39.886" x2="51.976" y1="32.25" y2="68.498" gradientUnits="userSpaceOnUse"><stop offset="0" stop-color="#597493"/><stop offset="1" stop-color="#0F2F56"/></linearGradient><linearGradient id="e" x1="39.886" x2="51.976" y1="32.25" y2="68.498" gradientUnits="userSpaceOnUse"><stop offset="0" stop-color="#597493"/><stop offset="1" stop-color="#0F2F56"/></linearGradient></defs></svg>