<svg xmlns="http://www.w3.org/2000/svg" fill="none" viewBox="0 0 96 96"><path fill="url(#a)" d="M18 17a9 9 0 0 1 9-9h33c9.941 0 18 8.059 18 18v53a9 9 0 0 1-9 9H36c-9.941 0-18-8.059-18-18V17z"/><path fill="url(#b)" d="M20 17a7 7 0 0 1 7-7h33c8.837 0 16 7.163 16 16v53a7 7 0 0 1-7 7H36c-8.837 0-16-7.163-16-16V17z"/><path fill="url(#c)" d="M20 17a7 7 0 0 1 7-7h33c8.837 0 16 7.163 16 16v53a7 7 0 0 1-7 7H36c-8.837 0-16-7.163-16-16V17z"/><path fill="#038387" d="M64 30a2 2 0 0 1 2 2v32a2 2 0 0 1-2 2h-6v-7c0-5.392-3.88-9.875-9-10.815V32a2 2 0 0 1 2-2h13z"/><path fill="url(#d)" fill-opacity=".2" d="M64 30a2 2 0 0 1 2 2v32a2 2 0 0 1-2 2h-6v-7c0-5.392-3.88-9.875-9-10.815V32a2 2 0 0 1 2-2h13z"/><path fill="#038387" d="M61 57v10.2c0 .99-.897 1.8-1.993 1.8H48V59c0-.683-.065-1.351-.185-2H61z"/><path fill="#37C6D0" d="M58.786 27c1.218 0 2.214.9 2.214 2v20H41.581c-1.395-.64-2.946-1-4.581-1h-7V29c0-1.1.996-2 2.214-2h26.572z"/><path fill="#1A9BA1" d="M61 48v10H47.953C47.448 52.394 42.738 48 37 48h24z"/><rect width="40" height="40" x="6" y="50" fill="#038387" rx="9"/><path fill="#fff" d="M23.272 74.184V82h-5.394V58h8.333c2.984 0 5.255.653 6.814 1.958 1.57 1.306 2.354 3.241 2.354 5.808 0 2.644-.88 4.708-2.638 6.192-1.748 1.484-4.097 2.226-7.047 2.226h-2.422zm0-12.033v7.883h2.255c1.336 0 2.365-.352 3.089-1.055.724-.703 1.085-1.713 1.085-3.03 0-1.215-.356-2.153-1.068-2.81-.702-.66-1.71-.988-3.023-.988h-2.338z"/><defs><linearGradient id="a" x1="37.375" x2="51.544" y1="8" y2="87.703" gradientUnits="userSpaceOnUse"><stop stop-color="#BBB"/><stop offset="1" stop-color="#888"/></linearGradient><linearGradient id="b" x1="35.556" x2="48.436" y1="10" y2="85.926" gradientUnits="userSpaceOnUse"><stop stop-color="#fff"/><stop offset="1" stop-color="#EBEBEB"/></linearGradient><radialGradient id="c" cx="0" cy="0" r="1" gradientTransform="matrix(29.5556 60.1667 -44.3333 22.5625 37.889 29.792)" gradientUnits="userSpaceOnUse"><stop offset=".177" stop-color="#fff"/><stop offset="1" stop-color="#EFEFEF"/></radialGradient><linearGradient id="d" x1="66" x2="61" y1="47" y2="47" gradientUnits="userSpaceOnUse"><stop stop-opacity="0"/><stop offset="1"/></linearGradient></defs></svg>