<svg xmlns="http://www.w3.org/2000/svg" fill="none" viewBox="0 0 96 96"><path fill="url(#a)" d="M8 27a9 9 0 0 1 9-9h53c9.941 0 18 8.059 18 18v33a9 9 0 0 1-9 9H26c-9.941 0-18-8.059-18-18V27z"/><path fill="url(#b)" d="M10 27a7 7 0 0 1 7-7h53c8.837 0 16 7.163 16 16v33a7 7 0 0 1-7 7H26c-8.837 0-16-7.163-16-16V27z"/><path fill="url(#c)" d="M10 27a7 7 0 0 1 7-7h53c8.837 0 16 7.163 16 16v33a7 7 0 0 1-7 7H26c-8.837 0-16-7.163-16-16V27z"/><path fill="#FEE200" d="m28 38 10-10h28.41c.882 0 1.59.708 1.59 1.59V38l-20 4.583L28 38z"/><path fill="url(#d)" d="M40.381 47.702 28 52.822V38h10l2.381 9.702z"/><path fill="url(#e)" d="M68 48.119V38H38v10.238l13.631 2.44L68 48.12z"/><path fill="url(#f)" d="M68 58V48H35.798v10.06l19.821 1.845L68 58z"/><path fill="url(#g)" d="m38 58-10 3.333V48h10v10z"/><path fill="url(#h)" d="m38 58-1.548 4.762L38 68h20l10-10H38z"/><path fill="url(#i)" d="M38 68h-8.119A1.877 1.877 0 0 1 28 66.119V58h10v10z"/><defs><linearGradient id="a" x1="33.833" x2="39.939" y1="18" y2="79.056" gradientUnits="userSpaceOnUse"><stop stop-color="#BBB"/><stop offset="1" stop-color="#888"/></linearGradient><linearGradient id="b" x1="31.111" x2="36.368" y1="20" y2="77.071" gradientUnits="userSpaceOnUse"><stop stop-color="#fff"/><stop offset="1" stop-color="#EBEBEB"/></linearGradient><radialGradient id="c" cx="0" cy="0" r="1" gradientTransform="matrix(40.1111 44.3333 -60.1667 16.625 34.278 34.583)" gradientUnits="userSpaceOnUse"><stop offset=".177" stop-color="#fff"/><stop offset="1" stop-color="#EFEFEF"/></radialGradient><linearGradient id="d" x1="34.191" x2="34.191" y1="52.821" y2="38" gradientUnits="userSpaceOnUse"><stop stop-color="#E25A01"/><stop offset=".61" stop-color="#E15801"/><stop offset=".878" stop-color="#E05101"/><stop offset="1" stop-color="#DE4A01"/></linearGradient><linearGradient id="e" x1="53" x2="53" y1="50.679" y2="38" gradientUnits="userSpaceOnUse"><stop stop-color="#F18C0A"/><stop offset=".437" stop-color="#F0880A"/><stop offset=".868" stop-color="#EC7C0A"/><stop offset="1" stop-color="#EB770A"/></linearGradient><linearGradient id="f" x1="51.899" x2="51.899" y1="59.905" y2="48" gradientUnits="userSpaceOnUse"><stop stop-color="#D83B01"/><stop offset=".472" stop-color="#D63701"/><stop offset=".937" stop-color="#CE2B01"/><stop offset="1" stop-color="#CD2901"/></linearGradient><linearGradient id="g" x1="33" x2="33" y1="61.333" y2="48" gradientUnits="userSpaceOnUse"><stop offset="0" stop-color="#BF3207"/><stop offset=".472" stop-color="#BB3207"/><stop offset=".937" stop-color="#AF3007"/><stop offset="1" stop-color="#AD3007"/></linearGradient><linearGradient id="h" x1="52.226" x2="52.226" y1="68" y2="58" gradientUnits="userSpaceOnUse"><stop stop-color="#854A81"/><stop offset=".482" stop-color="#82497E"/><stop offset=".812" stop-color="#794475"/><stop offset="1" stop-color="#703F6C"/></linearGradient><linearGradient id="i" x1="33" x2="33" y1="68" y2="58" gradientUnits="userSpaceOnUse"><stop stop-color="#703D6E"/><stop offset=".631" stop-color="#6C3B6A"/><stop offset="1" stop-color="#663764"/></linearGradient></defs></svg>