<svg xmlns="http://www.w3.org/2000/svg" fill="none" viewBox="0 0 96 96"><path fill="url(#a)" d="M18 17a9 9 0 019-9h33c9.941 0 18 8.059 18 18v53a9 9 0 01-9 9H36c-9.941 0-18-8.059-18-18z"/><path fill="url(#b)" d="M20 17a7 7 0 017-7h33c8.837 0 16 7.163 16 16v53a7 7 0 01-7 7H36c-8.837 0-16-7.163-16-16z"/><path fill="url(#c)" d="M20 17a7 7 0 017-7h33c8.837 0 16 7.163 16 16v53a7 7 0 01-7 7H36c-8.837 0-16-7.163-16-16z"/><path fill="#37C6D0" d="M65.87 50.5c0 .83-.67 1.5-1.5 1.5H46.61c-.85-1.18-1.9-2.2-3.11-3h20.87c.83 0 1.5.67 1.5 1.5"/><path fill="#0097A8" d="M65.87 59.5c0 .83-.67 1.5-1.5 1.5h-15.5v-2c0-.34 0-.67-.04-1h15.54c.83 0 1.5.67 1.5 1.5"/><path fill="#007791" d="M65.87 68.5c0 .83-.67 1.5-1.5 1.5h-15.5v-3h15.5c.83 0 1.5.67 1.5 1.5"/><rect width="40" height="40" x="6" y="50" fill="url(#d)" rx="9"/><rect width="40" height="40" x="6" y="50" fill="url(#e)" fill-opacity=".6" rx="9"/><path fill="#fff" d="m16.973 77.045 4.542-2.3q.768 1.506 2.004 2.219a5.44 5.44 0 002.738.712q1.654 0 2.522-.648.868-.663.868-1.992 0-1.035-.835-1.749-.835-.728-2.955-1.1-4.041-.713-5.878-2.495-1.82-1.78-1.82-4.437-.001-3.303 2.404-5.28 2.404-1.974 6.346-1.975 2.655 0 4.676 1.053a8 8 0 013.206 3.012l-4.442 2.218q-.735-1.101-1.587-1.587-.851-.502-2.137-.502-1.536 0-2.338.648-.785.648-.785 1.684 0 .891.752 1.571.768.665 3.072 1.085 3.874.713 5.778 2.591 1.92 1.863 1.92 4.713 0 3.465-2.287 5.49Q30.449 82 26.207 82q-3.072 0-5.544-1.296-2.454-1.311-3.69-3.66"/><rect width="36" height="17" x="30" y="26" fill="url(#f)" rx="3"/><defs><radialGradient id="c" cx="0" cy="0" r="1" gradientTransform="matrix(29.5556 60.1667 -44.3333 22.5625 37.889 29.792)" gradientUnits="userSpaceOnUse"><stop offset=".177" stop-color="#fff"/><stop offset="1" stop-color="#EFEFEF"/></radialGradient><radialGradient id="d" cx="0" cy="0" r="1" gradientTransform="rotate(45 -57.355 32.243)scale(56.5685)" gradientUnits="userSpaceOnUse"><stop offset=".063" stop-color="#00B6BD"/><stop offset=".89" stop-color="#00495C"/></radialGradient><radialGradient id="e" cx="0" cy="0" r="1" gradientTransform="matrix(0 28 -31.875 0 26 74)" gradientUnits="userSpaceOnUse"><stop offset=".567" stop-color="#1E8581" stop-opacity="0"/><stop offset=".974" stop-color="#1ECBE6"/></radialGradient><linearGradient id="a" x1="37.375" x2="51.544" y1="8" y2="87.703" gradientUnits="userSpaceOnUse"><stop stop-color="#BBB"/><stop offset="1" stop-color="#888"/></linearGradient><linearGradient id="b" x1="35.556" x2="48.436" y1="10" y2="85.926" gradientUnits="userSpaceOnUse"><stop stop-color="#fff"/><stop offset="1" stop-color="#EBEBEB"/></linearGradient><linearGradient id="f" x1="40" x2="41.028" y1="26" y2="43.412" gradientUnits="userSpaceOnUse"><stop stop-color="#86F2F2"/><stop offset="1" stop-color="#37C6D0"/></linearGradient></defs></svg>