<svg xmlns="http://www.w3.org/2000/svg" fill="none" viewBox="0 0 96 96"><path fill="url(#a)" d="M8 27a9 9 0 0 1 9-9h53c9.941 0 18 8.059 18 18v33a9 9 0 0 1-9 9H26c-9.941 0-18-8.059-18-18V27z"/><path fill="url(#b)" d="M10 27a7 7 0 0 1 7-7h53c8.837 0 16 7.163 16 16v33a7 7 0 0 1-7 7H26c-8.837 0-16-7.163-16-16V27z"/><path fill="url(#c)" d="M10 27a7 7 0 0 1 7-7h53c8.837 0 16 7.163 16 16v33a7 7 0 0 1-7 7H26c-8.837 0-16-7.163-16-16V27z"/><path fill="url(#d)" d="M63 36h6a3 3 0 0 1 3 3v21a6 6 0 0 1-6 6h-3V36z"/><path fill="url(#e)" d="M63 30a3 3 0 0 1 3 3v33H48v-7c0-6.075-4.925-11-11-11H24V33a3 3 0 0 1 3-3h36z"/><path fill="#028298" d="M40 45a2 2 0 0 1 2 2v2.203A10.95 10.95 0 0 0 37 48h-7v-1a2 2 0 0 1 2-2h8zm18.5 9a1.5 1.5 0 0 1 0 3h-9a1.5 1.5 0 0 1 0-3h9zm0-9a1.5 1.5 0 0 1 0 3h-9a1.5 1.5 0 0 1 0-3h9zm-3-9a1.5 1.5 0 0 1 0 3h-21a1.5 1.5 0 0 1 0-3h21z"/><rect width="40" height="40" x="6" y="50" fill="url(#f)" rx="9"/><rect width="40" height="40" x="6" y="50" fill="url(#g)" fill-opacity=".6" rx="9"/><path fill="#fff" d="m16.973 77.044 4.542-2.3c.512 1.005 1.18 1.745 2.004 2.22a5.443 5.443 0 0 0 2.738.712c1.103 0 1.943-.216 2.522-.648.579-.442.868-1.106.868-1.992 0-.69-.278-1.273-.835-1.749-.556-.485-1.542-.853-2.955-1.1-2.694-.476-4.654-1.307-5.878-2.495-1.214-1.187-1.82-2.666-1.82-4.437 0-2.202.8-3.962 2.404-5.28C22.166 58.66 24.281 58 26.909 58c1.77 0 3.328.35 4.675 1.053a8.004 8.004 0 0 1 3.207 3.012l-4.442 2.218c-.49-.734-1.019-1.263-1.587-1.587-.567-.334-1.28-.502-2.137-.502-1.024 0-1.804.216-2.338.648-.523.432-.785.993-.785 1.684 0 .594.25 1.118.752 1.571.512.443 1.536.805 3.072 1.085 2.583.475 4.509 1.339 5.778 2.591 1.28 1.242 1.92 2.813 1.92 4.713 0 2.31-.762 4.14-2.287 5.49C31.21 81.326 29.035 82 26.207 82c-2.048 0-3.896-.432-5.544-1.296-1.636-.874-2.866-2.094-3.69-3.66z"/><defs><linearGradient id="a" x1="33.833" x2="39.939" y1="18" y2="79.056" gradientUnits="userSpaceOnUse"><stop stop-color="#BBB"/><stop offset="1" stop-color="#888"/></linearGradient><linearGradient id="b" x1="31.111" x2="36.368" y1="20" y2="77.071" gradientUnits="userSpaceOnUse"><stop stop-color="#fff"/><stop offset="1" stop-color="#EBEBEB"/></linearGradient><radialGradient id="c" cx="0" cy="0" r="1" gradientTransform="matrix(40.1111 44.3333 -60.1667 16.625 34.278 34.583)" gradientUnits="userSpaceOnUse"><stop offset=".177" stop-color="#fff"/><stop offset="1" stop-color="#EFEFEF"/></radialGradient><linearGradient id="d" x1="63.563" x2="78.002" y1="16" y2="74.59" gradientUnits="userSpaceOnUse"><stop stop-color="#00E3DF"/><stop offset=".509" stop-color="#0097A8"/><stop offset=".838" stop-color="#007791"/></linearGradient><linearGradient id="e" x1="35.667" x2="39.586" y1="30" y2="66.58" gradientUnits="userSpaceOnUse"><stop stop-color="#86F2F2"/><stop offset="1" stop-color="#37C6D0"/></linearGradient><radialGradient id="f" cx="0" cy="0" r="1" gradientTransform="rotate(45 -57.355 32.243) scale(56.5685)" gradientUnits="userSpaceOnUse"><stop offset=".063" stop-color="#00B6BD"/><stop offset=".89" stop-color="#00495C"/></radialGradient><radialGradient id="g" cx="0" cy="0" r="1" gradientTransform="matrix(0 28 -31.875 0 26 74)" gradientUnits="userSpaceOnUse"><stop offset=".567" stop-color="#1E8581" stop-opacity="0"/><stop offset=".974" stop-color="#1ECBE6"/></radialGradient></defs></svg>