<svg xmlns="http://www.w3.org/2000/svg" fill="none" viewBox="0 0 96 96"><path fill="url(#a)" d="M8 27a9 9 0 0 1 9-9h53c9.941 0 18 8.059 18 18v33a9 9 0 0 1-9 9H26c-9.941 0-18-8.059-18-18V27z"/><path fill="url(#b)" d="M10 27a7 7 0 0 1 7-7h53c8.837 0 16 7.163 16 16v33a7 7 0 0 1-7 7H26c-8.837 0-16-7.163-16-16V27z"/><path fill="url(#c)" d="M10 27a7 7 0 0 1 7-7h53c8.837 0 16 7.163 16 16v33a7 7 0 0 1-7 7H26c-8.837 0-16-7.163-16-16V27z"/><path fill="url(#d)" fill-rule="evenodd" d="M24 36.5a6.5 6.5 0 0 1 6.5-6.5h34.993a6.5 6.5 0 0 1 6.5 6.5v22.987a6.5 6.5 0 0 1-6.5 6.5H30.5a6.5 6.5 0 0 1-6.5-6.5V36.501zm18 26.487h11.997V55H42v7.987zM39 55v7.987h-8.5a3.5 3.5 0 0 1-3.5-3.5V55h12zm3-3h11.997v-8H42v8zm-3-8v8H27v-8h12zm3-3h11.997v-8H42v8zm-3-8v8H27v-4.5a3.5 3.5 0 0 1 3.5-3.5H39zm17.997 0v8h11.997v-4.5a3.5 3.5 0 0 0-3.5-3.5h-8.496zm0 11v8h11.997v-8H56.997zm0 11v7.987h8.497a3.5 3.5 0 0 0 3.5-3.5V55H56.997z" clip-rule="evenodd"/><defs><linearGradient id="a" x1="33.833" x2="39.939" y1="18" y2="79.056" gradientUnits="userSpaceOnUse"><stop stop-color="#BBB"/><stop offset="1" stop-color="#888"/></linearGradient><linearGradient id="b" x1="31.111" x2="36.368" y1="20" y2="77.071" gradientUnits="userSpaceOnUse"><stop stop-color="#fff"/><stop offset="1" stop-color="#EBEBEB"/></linearGradient><radialGradient id="c" cx="0" cy="0" r="1" gradientTransform="matrix(40.1111 44.3333 -60.1667 16.625 34.278 34.583)" gradientUnits="userSpaceOnUse"><stop offset=".177" stop-color="#fff"/><stop offset="1" stop-color="#EFEFEF"/></radialGradient><linearGradient id="d" x1="34.499" x2="50.814" y1="25.502" y2="65.99" gradientUnits="userSpaceOnUse"><stop offset="0" stop-color="#597493"/><stop offset="1" stop-color="#0F2F56"/></linearGradient></defs></svg>