<svg xmlns="http://www.w3.org/2000/svg" fill="none" viewBox="0 0 96 96"><path fill="url(#a)" d="M8 27a9 9 0 0 1 9-9h53c9.941 0 18 8.059 18 18v33a9 9 0 0 1-9 9H26c-9.941 0-18-8.059-18-18V27z"/><path fill="url(#b)" d="M10 27a7 7 0 0 1 7-7h53c8.837 0 16 7.163 16 16v33a7 7 0 0 1-7 7H26c-8.837 0-16-7.163-16-16V27z"/><path fill="url(#c)" d="M10 27a7 7 0 0 1 7-7h53c8.837 0 16 7.163 16 16v33a7 7 0 0 1-7 7H26c-8.837 0-16-7.163-16-16V27z"/><path fill="url(#d)" fill-rule="evenodd" d="M65.5 28a2.5 2.5 0 0 1 0 5H65v15.5a7.5 7.5 0 0 1-7.114 7.49L57.5 56h-7.996l-.004 9h5l.153.008a1.5 1.5 0 0 1 0 2.984L54.5 68h-13a1.5 1.5 0 0 1 0-3h5l.003-9H38.5a7.5 7.5 0 0 1-7.5-7.5V33h-.5a2.5 2.5 0 0 1 0-5h35zM34 33v15.5a4.5 4.5 0 0 0 4.5 4.5h19l.231-.006A4.5 4.5 0 0 0 62 48.5V33H34z" clip-rule="evenodd"/><defs><linearGradient id="a" x1="33.833" x2="39.939" y1="18" y2="79.056" gradientUnits="userSpaceOnUse"><stop stop-color="#BBB"/><stop offset="1" stop-color="#888"/></linearGradient><linearGradient id="b" x1="31.111" x2="36.368" y1="20" y2="77.071" gradientUnits="userSpaceOnUse"><stop stop-color="#fff"/><stop offset="1" stop-color="#EBEBEB"/></linearGradient><radialGradient id="c" cx="0" cy="0" r="1" gradientTransform="matrix(40.1111 44.3333 -60.1667 16.625 34.278 34.583)" gradientUnits="userSpaceOnUse"><stop offset=".177" stop-color="#fff"/><stop offset="1" stop-color="#EFEFEF"/></radialGradient><linearGradient id="d" x1="36" x2="59.556" y1="20" y2="62.953" gradientUnits="userSpaceOnUse"><stop offset="0" stop-color="#597493"/><stop offset="1" stop-color="#0F2F56"/></linearGradient></defs></svg>