<svg xmlns="http://www.w3.org/2000/svg" fill="none" viewBox="0 0 96 96"><path fill="url(#a)" d="M18 17a9 9 0 0 1 9-9h33c9.941 0 18 8.059 18 18v53a9 9 0 0 1-9 9H36c-9.941 0-18-8.059-18-18V17z"/><path fill="url(#b)" d="M20 17a7 7 0 0 1 7-7h33c8.837 0 16 7.163 16 16v53a7 7 0 0 1-7 7H36c-8.837 0-16-7.163-16-16V17z"/><path fill="url(#c)" d="M20 17a7 7 0 0 1 7-7h33c8.837 0 16 7.163 16 16v53a7 7 0 0 1-7 7H36c-8.837 0-16-7.163-16-16V17z"/><path fill="url(#d)" fill-rule="evenodd" d="M42.748 68.338a1.434 1.434 0 0 1-1.058-1.314l-.316-5.047a1.5 1.5 0 0 0-2.164-1.25l-4.529 2.25a1.433 1.433 0 0 1-1.667-.26 21.042 21.042 0 0 1-3.2-4.217 21.041 21.041 0 0 1-2.052-4.88c-.167-.6.09-1.23.608-1.574l4.213-2.796a1.5 1.5 0 0 0 0-2.5l-4.213-2.796c-.518-.345-.775-.975-.608-1.574a21.041 21.041 0 0 1 2.052-4.88 21.042 21.042 0 0 1 3.2-4.218c.436-.444 1.11-.536 1.667-.26l4.529 2.25a1.5 1.5 0 0 0 2.164-1.249l.316-5.047c.039-.62.456-1.159 1.059-1.314A21.037 21.037 0 0 1 48 27c1.814 0 3.574.23 5.252.662.603.155 1.02.693 1.059 1.314l.315 5.047a1.5 1.5 0 0 0 2.165 1.25l4.528-2.25c.558-.277 1.232-.185 1.668.26a21.035 21.035 0 0 1 3.2 4.217 21.035 21.035 0 0 1 2.052 4.88c.167.6-.09 1.23-.609 1.574l-4.213 2.796a1.5 1.5 0 0 0 0 2.5l4.213 2.796c.519.345.776.975.609 1.574a21.035 21.035 0 0 1-2.053 4.88 21.035 21.035 0 0 1-3.2 4.218c-.435.444-1.11.536-1.667.26l-4.528-2.251a1.5 1.5 0 0 0-2.165 1.25l-.315 5.047c-.039.62-.456 1.159-1.059 1.314A21.037 21.037 0 0 1 48 69c-1.814 0-3.574-.23-5.252-.662zM48.002 54a6 6 0 1 0 0-12 6 6 0 0 0 0 12z" clip-rule="evenodd"/><defs><linearGradient id="a" x1="37.375" x2="51.544" y1="8" y2="87.703" gradientUnits="userSpaceOnUse"><stop stop-color="#BBB"/><stop offset="1" stop-color="#888"/></linearGradient><linearGradient id="b" x1="35.556" x2="48.436" y1="10" y2="85.926" gradientUnits="userSpaceOnUse"><stop stop-color="#fff"/><stop offset="1" stop-color="#EBEBEB"/></linearGradient><radialGradient id="c" cx="0" cy="0" r="1" gradientTransform="matrix(29.5556 60.1667 -44.3333 22.5625 37.889 29.792)" gradientUnits="userSpaceOnUse"><stop offset=".177" stop-color="#fff"/><stop offset="1" stop-color="#EFEFEF"/></radialGradient><linearGradient id="d" x1="40.162" x2="52.585" y1="32.25" y2="68.241" gradientUnits="userSpaceOnUse"><stop offset="0" stop-color="#597493"/><stop offset="1" stop-color="#0F2F56"/></linearGradient></defs></svg>