<svg xmlns="http://www.w3.org/2000/svg" fill="none" viewBox="0 0 96 96"><path fill="url(#a)" d="M18 17a9 9 0 0 1 9-9h33c9.941 0 18 8.059 18 18v53a9 9 0 0 1-9 9H36c-9.941 0-18-8.059-18-18V17z"/><path fill="url(#b)" d="M20 17a7 7 0 0 1 7-7h33c8.837 0 16 7.163 16 16v53a7 7 0 0 1-7 7H36c-8.837 0-16-7.163-16-16V17z"/><path fill="url(#c)" d="M20 17a7 7 0 0 1 7-7h33c8.837 0 16 7.163 16 16v53a7 7 0 0 1-7 7H36c-8.837 0-16-7.163-16-16V17z"/><path fill="#185ABD" d="m31.67 39.463-7.127 7.125a1.996 1.996 0 0 0 0 2.821l9.948 9.948 9.946-9.948-9.946-9.946a1.997 1.997 0 0 0-2.822 0z"/><path fill="url(#d)" d="m71.457 36.642-7.126-7.126a1.991 1.991 0 0 0-2.82 0l-8.537 8.537L43.026 48l-8.535 8.536a1.994 1.994 0 0 0 0 2.822l7.125 7.125a1.996 1.996 0 0 0 2.822 0l8.536-8.537 9.947-9.947 8.536-8.536a1.996 1.996 0 0 0 0-2.822z"/><defs><linearGradient id="a" x1="37.375" x2="51.544" y1="8" y2="87.703" gradientUnits="userSpaceOnUse"><stop stop-color="#BBB"/><stop offset="1" stop-color="#888"/></linearGradient><linearGradient id="b" x1="35.556" x2="48.436" y1="10" y2="85.926" gradientUnits="userSpaceOnUse"><stop stop-color="#fff"/><stop offset="1" stop-color="#EBEBEB"/></linearGradient><radialGradient id="c" cx="0" cy="0" r="1" gradientTransform="matrix(29.5556 60.1667 -44.3333 22.5625 37.889 29.792)" gradientUnits="userSpaceOnUse"><stop offset=".177" stop-color="#fff"/><stop offset="1" stop-color="#EFEFEF"/></radialGradient><linearGradient id="d" x1="52.313" x2="23.479" y1="18.351" y2="48.481" gradientUnits="userSpaceOnUse"><stop stop-color="#62C4F6"/><stop offset="1" stop-color="#2A88E5"/></linearGradient></defs></svg>