<svg xmlns="http://www.w3.org/2000/svg" fill="none" viewBox="0 0 96 96"><path fill="url(#a)" d="M18 17a9 9 0 0 1 9-9h33c9.941 0 18 8.059 18 18v53a9 9 0 0 1-9 9H36c-9.941 0-18-8.059-18-18V17z"/><path fill="url(#b)" d="M20 17a7 7 0 0 1 7-7h33c8.837 0 16 7.163 16 16v53a7 7 0 0 1-7 7H36c-8.837 0-16-7.163-16-16V17z"/><path fill="url(#c)" d="M20 17a7 7 0 0 1 7-7h33c8.837 0 16 7.163 16 16v53a7 7 0 0 1-7 7H36c-8.837 0-16-7.163-16-16V17z"/><path fill="url(#d)" fill-rule="evenodd" d="M30 25.5a1.5 1.5 0 0 1 1.5-1.5h33a1.5 1.5 0 0 1 0 3h-33a1.5 1.5 0 0 1-1.5-1.5zm0 9a1.5 1.5 0 0 1 1.5-1.5h33a1.5 1.5 0 0 1 0 3h-33a1.5 1.5 0 0 1-1.5-1.5zm0 9a1.5 1.5 0 0 1 1.5-1.5h33a1.5 1.5 0 0 1 0 3h-33a1.5 1.5 0 0 1-1.5-1.5zm0 9a1.5 1.5 0 0 1 1.5-1.5h33a1.5 1.5 0 0 1 0 3h-33a1.5 1.5 0 0 1-1.5-1.5zm0 9a1.5 1.5 0 0 1 1.5-1.5h33a1.5 1.5 0 0 1 0 3h-33a1.5 1.5 0 0 1-1.5-1.5zm0 9a1.5 1.5 0 0 1 1.5-1.5h33a1.5 1.5 0 0 1 0 3h-33a1.5 1.5 0 0 1-1.5-1.5z" clip-rule="evenodd"/><defs><linearGradient id="a" x1="37.375" x2="51.544" y1="8" y2="87.703" gradientUnits="userSpaceOnUse"><stop stop-color="#BBB"/><stop offset="1" stop-color="#888"/></linearGradient><linearGradient id="b" x1="35.556" x2="48.436" y1="10" y2="85.926" gradientUnits="userSpaceOnUse"><stop stop-color="#fff"/><stop offset="1" stop-color="#EBEBEB"/></linearGradient><radialGradient id="c" cx="0" cy="0" r="1" gradientTransform="matrix(29.5556 60.1667 -44.3333 22.5625 37.889 29.792)" gradientUnits="userSpaceOnUse"><stop offset=".177" stop-color="#fff"/><stop offset="1" stop-color="#EFEFEF"/></radialGradient><linearGradient id="d" x1="41.045" x2="58.137" y1="30" y2="68.434" gradientUnits="userSpaceOnUse"><stop offset="0" stop-color="#597493"/><stop offset="1" stop-color="#0F2F56"/></linearGradient></defs></svg>