<svg xmlns="http://www.w3.org/2000/svg" fill="none" viewBox="0 0 96 96"><rect width="80" height="60" x="8" y="18" fill="url(#a)" rx="14"/><path fill="url(#b)" d="M74.515 22.013C79.798 22.28 84 26.65 84 32v32l-.013.515a10.001 10.001 0 0 1-9.472 9.472L74 74H22c-5.35 0-9.72-4.202-9.987-9.485L12 64V32c0-5.523 4.477-10 10-10h52l.515.013zM22 25a7 7 0 0 0-7 7v32a7 7 0 0 0 7 7h52a7 7 0 0 0 7-7V32a7 7 0 0 0-7-7H22zm-.5 5a1.5 1.5 0 0 1 1.5 1.5v33a1.5 1.5 0 0 1-3 0v-33a1.5 1.5 0 0 1 1.5-1.5zm48.94 3.44a1.5 1.5 0 1 1 2.12 2.12l-5.795 5.795A10.949 10.949 0 0 1 69 48c0 2.497-.834 4.797-2.235 6.644l5.796 5.796a1.5 1.5 0 1 1-2.122 2.12l-5.795-5.795A10.949 10.949 0 0 1 58 59c-2.497 0-4.798-.834-6.645-2.235l-5.794 5.795a1.5 1.5 0 1 1-2.121-2.12l5.794-5.796A10.95 10.95 0 0 1 47 48c0-2.497.833-4.798 2.234-6.645l-5.794-5.794a1.5 1.5 0 1 1 2.12-2.121l5.795 5.794A10.95 10.95 0 0 1 58 37c2.496 0 4.797.833 6.644 2.234l5.795-5.794zM58 40a8 8 0 1 0 0 16 8 8 0 0 0 0-16z"/><defs><linearGradient id="a" x1="33.833" x2="39.939" y1="18" y2="79.056" gradientUnits="userSpaceOnUse"><stop stop-color="#CAD3D8"/><stop offset="1" stop-color="#9AA6AD"/></linearGradient><linearGradient id="b" x1="35.25" x2="40.349" y1="22" y2="74.953" gradientUnits="userSpaceOnUse"><stop stop-color="#4D565C"/><stop offset="1" stop-color="#394146"/></linearGradient></defs></svg>