<svg xmlns="http://www.w3.org/2000/svg" fill="none" viewBox="0 0 96 96"><rect width="80" height="60" x="8" y="18" fill="url(#a)" rx="14"/><rect width="72" height="52" x="12" y="22" fill="url(#b)" rx="10"/><rect width="72" height="52" x="12" y="22" fill="url(#c)" fill-opacity=".28" rx="10"/><path fill="url(#d)" d="M32 32.5a4.5 4.5 0 0 1 4.5-4.5h17a8.5 8.5 0 0 1 8.5 8.5v27a4.5 4.5 0 0 1-4.5 4.5h-17a8.5 8.5 0 0 1-8.5-8.5v-27z"/><path fill="url(#e)" d="M32 32.5a4.5 4.5 0 0 1 4.5-4.5h17a8.5 8.5 0 0 1 8.5 8.5v27a4.5 4.5 0 0 1-4.5 4.5h-17a8.5 8.5 0 0 1-8.5-8.5v-27z"/><rect width="4" height="52" x="80" y="22" fill="url(#f)" rx="2"/><path fill="url(#g)" d="M76 30a4 4 0 0 1 4-4v44a4 4 0 0 1-4-4V30z"/><defs><linearGradient id="a" x1="33.833" x2="39.939" y1="18" y2="79.056" gradientUnits="userSpaceOnUse"><stop stop-color="#CAD3D8"/><stop offset="1" stop-color="#9AA6AD"/></linearGradient><linearGradient id="b" x1="35.25" x2="40.349" y1="22" y2="74.953" gradientUnits="userSpaceOnUse"><stop stop-color="#626C72"/><stop offset="1" stop-color="#4D565C"/></linearGradient><linearGradient id="c" x1="48" x2="48" y1="22" y2="74" gradientUnits="userSpaceOnUse"><stop/><stop offset=".6" stop-color="#5C666C" stop-opacity="0"/><stop offset="1"/></linearGradient><linearGradient id="d" x1="40.333" x2="47" y1="28" y2="68" gradientUnits="userSpaceOnUse"><stop stop-color="#fff"/><stop offset="1" stop-color="#EBEBEB"/></linearGradient><radialGradient id="e" cx="0" cy="0" r="1" gradientTransform="rotate(63.435 -10.288 52.85) scale(35.4044 26.5533)" gradientUnits="userSpaceOnUse"><stop offset=".177" stop-color="#fff"/><stop offset="1" stop-color="#EFEFEF"/></radialGradient><linearGradient id="f" x1="81.5" x2="99.963" y1="22" y2="28.817" gradientUnits="userSpaceOnUse"><stop stop-color="#EEF0F2"/><stop offset="1" stop-color="#C9CED0"/></linearGradient><linearGradient id="g" x1="78" x2="78" y1="26" y2="70" gradientUnits="userSpaceOnUse"><stop stop-color="#CAD1D6"/><stop offset="1" stop-color="#929CA2"/></linearGradient></defs></svg>