<svg xmlns="http://www.w3.org/2000/svg" fill="none" viewBox="0 0 96 96"><path fill="url(#a)" d="M12 21a9 9 0 0 1 9-9h45c9.941 0 18 8.059 18 18v45a9 9 0 0 1-9 9H30c-9.941 0-18-8.059-18-18V21z"/><path fill="url(#b)" d="M14 21a7 7 0 0 1 7-7h45c8.837 0 16 7.163 16 16v45a7 7 0 0 1-7 7H30c-8.837 0-16-7.163-16-16V21z"/><path fill="url(#c)" d="M14 21a7 7 0 0 1 7-7h45c8.837 0 16 7.163 16 16v45a7 7 0 0 1-7 7H30c-8.837 0-16-7.163-16-16V21z"/><path fill="url(#d)" d="M38.706 30.584c-3-1.686-6.706.48-6.706 3.92v26.991c0 3.44 3.706 5.607 6.706 3.92l24-13.494c3.059-1.72 3.059-6.121 0-7.841l-24-13.496z"/><defs><linearGradient id="a" x1="35.25" x2="44.944" y1="12" y2="84.707" gradientUnits="userSpaceOnUse"><stop stop-color="#BBB"/><stop offset="1" stop-color="#888"/></linearGradient><linearGradient id="b" x1="32.889" x2="41.491" y1="14" y2="82.814" gradientUnits="userSpaceOnUse"><stop stop-color="#fff"/><stop offset="1" stop-color="#EBEBEB"/></linearGradient><radialGradient id="c" cx="0" cy="0" r="1" gradientTransform="matrix(35.8889 53.8333 -53.8333 20.1875 35.722 31.708)" gradientUnits="userSpaceOnUse"><stop offset=".177" stop-color="#fff"/><stop offset="1" stop-color="#EFEFEF"/></radialGradient><linearGradient id="d" x1="48.5" x2="44.219" y1="57.189" y2="36.852" gradientUnits="userSpaceOnUse"><stop stop-color="#892FFF"/><stop offset="1" stop-color="#A966FF"/></linearGradient></defs></svg>