<svg xmlns="http://www.w3.org/2000/svg" fill="none" viewBox="0 0 96 96"><path fill="url(#a)" d="M8 27a9 9 0 0 1 9-9h53c9.941 0 18 8.059 18 18v33a9 9 0 0 1-9 9H26c-9.941 0-18-8.059-18-18V27z"/><path fill="url(#b)" d="M10 27a7 7 0 0 1 7-7h53c8.837 0 16 7.163 16 16v33a7 7 0 0 1-7 7H26c-8.837 0-16-7.163-16-16V27z"/><path fill="url(#c)" d="M10 27a7 7 0 0 1 7-7h53c8.837 0 16 7.163 16 16v33a7 7 0 0 1-7 7H26c-8.837 0-16-7.163-16-16V27z"/><path fill="url(#d)" d="M39 33.384v20.232c0 2.623 2.9 4.246 5.183 2.9L61.33 46.418a3.355 3.355 0 0 0 .004-5.798L44.187 30.486c-2.284-1.35-5.187.273-5.187 2.898z"/><path fill="url(#e)" d="M35.963 41.598a1.5 1.5 0 0 1-1.131 1.795c-4.352.987-7.904 2.429-10.329 4.103C22.046 49.192 21 50.933 21 52.5c0 1.74 1.299 3.696 4.326 5.538 2.968 1.806 7.268 3.282 12.421 4.142a1.5 1.5 0 0 1-.494 2.959c-5.391-.9-10.09-2.471-13.487-4.538C20.43 58.572 18 55.827 18 52.5c0-3.003 1.989-5.534 4.799-7.474 2.842-1.962 6.79-3.52 11.37-4.56a1.5 1.5 0 0 1 1.794 1.131z"/><path fill="url(#f)" d="M66.168 43.22a1.5 1.5 0 0 1 1.948-.84c2.861 1.137 5.284 2.549 7.015 4.204 1.736 1.66 2.869 3.66 2.869 5.917 0 2.174-1.053 4.113-2.681 5.734-1.624 1.616-3.896 3.002-6.584 4.134-5.281 2.223-12.439 3.58-20.282 3.63l.379.253a1.5 1.5 0 0 1-1.664 2.496l-4.375-2.916a1.6 1.6 0 0 1 0-2.663l4.375-2.917a1.5 1.5 0 0 1 1.664 2.496l-.377.252c7.537-.051 14.28-1.36 19.115-3.396 2.47-1.04 4.37-2.24 5.632-3.495C74.458 54.859 75 53.64 75 52.5c0-1.182-.584-2.45-1.942-3.748-1.362-1.302-3.408-2.535-6.05-3.585a1.5 1.5 0 0 1-.84-1.948z"/><defs><linearGradient id="a" x1="33.833" x2="39.939" y1="18" y2="79.056" gradientUnits="userSpaceOnUse"><stop stop-color="#BBB"/><stop offset="1" stop-color="#888"/></linearGradient><linearGradient id="b" x1="31.111" x2="36.368" y1="20" y2="77.071" gradientUnits="userSpaceOnUse"><stop stop-color="#fff"/><stop offset="1" stop-color="#EBEBEB"/></linearGradient><radialGradient id="c" cx="0" cy="0" r="1" gradientTransform="matrix(40.1111 44.3333 -60.1667 16.625 34.278 34.583)" gradientUnits="userSpaceOnUse"><stop offset=".177" stop-color="#fff"/><stop offset="1" stop-color="#EFEFEF"/></radialGradient><linearGradient id="d" x1="33" x2="41.564" y1="22.5" y2="70.769" gradientUnits="userSpaceOnUse"><stop offset="0" stop-color="#597493"/><stop offset="1" stop-color="#0F2F56"/></linearGradient><linearGradient id="e" x1="33" x2="41.564" y1="22.5" y2="70.769" gradientUnits="userSpaceOnUse"><stop offset="0" stop-color="#597493"/><stop offset="1" stop-color="#0F2F56"/></linearGradient><linearGradient id="f" x1="33" x2="41.564" y1="22.5" y2="70.769" gradientUnits="userSpaceOnUse"><stop offset="0" stop-color="#597493"/><stop offset="1" stop-color="#0F2F56"/></linearGradient></defs></svg>