<svg xmlns="http://www.w3.org/2000/svg" fill="none" viewBox="0 0 96 96"><path fill="url(#a)" d="M8 27a9 9 0 0 1 9-9h53c9.941 0 18 8.059 18 18v33a9 9 0 0 1-9 9H26c-9.941 0-18-8.059-18-18V27z"/><path fill="url(#b)" d="M8 27a9 9 0 0 1 9-9h53c9.941 0 18 8.059 18 18v33a9 9 0 0 1-9 9H26c-9.941 0-18-8.059-18-18V27z"/><path stroke="url(#c)" stroke-dasharray="13 8" stroke-linecap="round" stroke-width="2" d="M9 27a8 8 0 0 1 8-8h53c9.389 0 17 7.611 17 17v33a8 8 0 0 1-8 8H26c-9.389 0-17-7.611-17-17V27z"/><path fill="#2B7CD3" d="M61 36c1.656 0 3 1.344 3 3v18c0 1.656-1.344 3-3 3H48v-1c0-5.035-3.383-9.277-8-10.583V39c0-1.656 1.344-3 3-3h18z"/><path fill="#41A5EE" d="M41.887 24.873a2.994 2.994 0 0 1 4.226 0l9.012 9.013a2.99 2.99 0 0 1 0 4.226l-9.012 9.013a2.99 2.99 0 0 1-4.226 0l-9.012-9.013a2.99 2.99 0 0 1 0-4.226l9.012-9.013z"/><path fill="#103F91" d="M44 48c6.627 0 12 5.373 12 12 0 5.224-3.34 9.666-8 11.314V59c0-4.882-3.18-9.02-7.582-10.457A11.993 11.993 0 0 1 44 48z"/><rect width="40" height="40" x="6" y="50" fill="#185ABD" rx="9"/><path fill="#fff" d="m37.256 58-8.25 24h-6.112l-8.149-24h5.745l5.06 16.134c.122.38.217.708.283.987.067.268.145.592.234.971h.1c.09-.402.162-.736.217-1.004.056-.28.145-.62.268-1.021L31.678 58h5.578z"/><defs><linearGradient id="a" x1="30.222" x2="35.953" y1="18" y2="79.129" gradientUnits="userSpaceOnUse"><stop stop-color="#fff"/><stop offset="1" stop-color="#EBEBEB"/></linearGradient><radialGradient id="b" cx="0" cy="0" r="1" gradientTransform="matrix(42.2222 47.5 -63.3333 17.8125 33.556 33.625)" gradientUnits="userSpaceOnUse"><stop offset=".177" stop-color="#fff"/><stop offset="1" stop-color="#EFEFEF"/></radialGradient><linearGradient id="c" x1="34.188" x2="40.04" y1="19" y2="78.031" gradientUnits="userSpaceOnUse"><stop stop-color="#BBB"/><stop offset="1" stop-color="#888"/></linearGradient></defs></svg>