<svg xmlns="http://www.w3.org/2000/svg" fill="none" viewBox="0 0 96 96"><path fill="url(#a)" d="M8 27a9 9 0 0 1 9-9h53c9.941 0 18 8.059 18 18v33a9 9 0 0 1-9 9H26c-9.941 0-18-8.059-18-18V27z"/><path fill="url(#b)" d="M10 27a7 7 0 0 1 7-7h53c8.837 0 16 7.163 16 16v33a7 7 0 0 1-7 7H26c-8.837 0-16-7.163-16-16V27z"/><path fill="url(#c)" d="M10 27a7 7 0 0 1 7-7h53c8.837 0 16 7.163 16 16v33a7 7 0 0 1-7 7H26c-8.837 0-16-7.163-16-16V27z"/><path fill="url(#d)" d="M70 30H26a2 2 0 0 0-2 2v32a2 2 0 0 0 2 2h44a2 2 0 0 0 2-2V32a2 2 0 0 0-2-2z"/><path fill="#fff" d="M52.28 48.39c-.45-.35-.82.01-.82.01-1.69 1.44-3.73 1.74-5.34 1.23-.78-.26-1.4-.77-2.03-1.44-.5-.58-3.29-4.1-4.4-5.14-1.04-.98-2.51-1.77-4.06-1.97-1.52-.22-3.04.07-4.31.79-1.26.72-2.23 1.82-2.7 3.07 0 0-.18.4.23.71.36.28.76-.05.76-.05 1.69-1.44 3.73-1.74 5.34-1.23.78.26 1.4.77 2.03 1.44.5.58 3.29 4.1 4.4 5.14 1.04.98 2.51 1.77 4.06 1.97 1.52.22 3.04-.07 4.31-.79 1.26-.72 2.23-1.82 2.7-3.07 0 0 .17-.4-.17-.68v.01z"/><path fill="#1E2021" d="m54.69 46.7-1.8 1.37c-.34.26-.91-.1-.81-.52l.48-2.21 2.13 1.36z"/><path fill="#CCC" d="M53.17 41.58s-.04.09-.05.14l-.52 2.15-.48 1.98c-.04.18.01.35.14.43l1.71 1.09c.13.08.3.06.45-.06l1.59-1.27 1.73-1.38s.07-.06.1-.1l-1.51-2.52-3.17-.46h.01z"/><path fill="#333" d="m57.91 44.48 11.04-17.33c.1-.15.05-.37-.12-.53-.35-.33-1.02-.9-1.9-1.46-.88-.56-1.69-.93-2.13-1.11-.21-.09-.43-.04-.53.11L53.23 41.49s-.04.06-.05.1l4.67 2.98s.05-.06.07-.09h-.01z"/><defs><linearGradient id="a" x1="33.833" x2="39.939" y1="18" y2="79.056" gradientUnits="userSpaceOnUse"><stop stop-color="#BBB"/><stop offset="1" stop-color="#888"/></linearGradient><linearGradient id="b" x1="31.111" x2="36.368" y1="20" y2="77.071" gradientUnits="userSpaceOnUse"><stop stop-color="#fff"/><stop offset="1" stop-color="#EBEBEB"/></linearGradient><radialGradient id="c" cx="0" cy="0" r="1" gradientTransform="matrix(40.1111 44.3333 -60.1667 16.625 34.278 34.583)" gradientUnits="userSpaceOnUse"><stop offset=".177" stop-color="#fff"/><stop offset="1" stop-color="#EFEFEF"/></radialGradient><linearGradient id="d" x1="66.21" x2="39.36" y1="79.54" y2="33.03" gradientUnits="userSpaceOnUse"><stop offset=".1" stop-color="#30E5D0"/><stop offset="1" stop-color="#0C34FB"/></linearGradient></defs></svg>