<svg xmlns="http://www.w3.org/2000/svg" fill="none" viewBox="0 0 48 48"><path fill="url(#a)" d="M9 8.5A4.5 4.5 0 0 1 13.5 4H30a9 9 0 0 1 9 9v26.5a4.5 4.5 0 0 1-4.5 4.5H18a9 9 0 0 1-9-9V8.5z"/><path fill="url(#b)" d="M10 8.5A3.5 3.5 0 0 1 13.5 5H30a8 8 0 0 1 8 8v26.5a3.5 3.5 0 0 1-3.5 3.5H18a8 8 0 0 1-8-8V8.5z"/><path fill="url(#c)" d="M10 8.5A3.5 3.5 0 0 1 13.5 5H30a8 8 0 0 1 8 8v26.5a3.5 3.5 0 0 1-3.5 3.5H18a8 8 0 0 1-8-8V8.5z"/><path fill="url(#d)" d="M30 20.01a3.25 3.25 0 0 1 3 3.24v7.5A3.25 3.25 0 0 1 29.75 34h-12.5a2.242 2.242 0 0 1-1.54-.61L18.5 31l9-2 1.5-.5.34-9.5H30v1.01z"/><path fill="url(#e)" d="M27.75 16a2.245 2.245 0 0 1 2.238 2.02c.008.075.012.152.012.23v9.501c0 1.298-1.052 2.311-2.349 2.361-1.551.06-4.729.086-7.308.888-2.477.77-3.6 1.596-4.61 2.41a2.244 2.244 0 0 1-.612-.935L16.5 26.5 26 16h1.75z"/><path fill="url(#f)" d="M24.868 13.084c.471-.142.918-.07 1.281.14.468.275.793.777.843 1.355l.005.082.003.072v9.885c0 .997-.999 2.088-2.121 2.193-1.122.104-3.002.254-4.879 1.247-1.679.887-3.506 1.852-4.773 4.675 0-.003-.003-.005-.004-.008a2.235 2.235 0 0 1-.223-.973V24.5a12.038 12.038 0 0 1 .107-1.589c.042-.298.095-.589.159-.871l.018-.082c.064-.273.137-.539.22-.797l.023-.072c.317-.965.762-1.825 1.29-2.59.171-.25.35-.49.538-.72.45-.543.942-1.032 1.456-1.471 1.363-1.168 2.885-1.99 4.193-2.551.712-.3 1.355-.519 1.864-.673z"/><defs><linearGradient id="a" x1="18.688" x2="25.772" y1="4" y2="43.852" gradientUnits="userSpaceOnUse"><stop stop-color="#BBB"/><stop offset="1" stop-color="#888"/></linearGradient><linearGradient id="b" x1="17.778" x2="24.218" y1="5" y2="42.963" gradientUnits="userSpaceOnUse"><stop stop-color="#fff"/><stop offset="1" stop-color="#EBEBEB"/></linearGradient><radialGradient id="c" cx="0" cy="0" r="1" gradientTransform="matrix(14.7778 30.0833 -22.1667 11.2812 18.944 14.896)" gradientUnits="userSpaceOnUse"><stop offset=".177" stop-color="#fff"/><stop offset="1" stop-color="#EFEFEF"/></radialGradient><linearGradient id="d" x1="28.266" x2="72.795" y1="23.505" y2="91.292" gradientUnits="userSpaceOnUse"><stop offset=".035" stop-color="#5029CE"/><stop offset=".169" stop-color="#C570FB"/></linearGradient><radialGradient id="e" cx="0" cy="0" r="1" gradientTransform="matrix(-13.9332 -16.3052 22.5512 -30.9741 28.957 32.305)" gradientUnits="userSpaceOnUse"><stop offset=".225" stop-color="#E331D8"/><stop offset=".688" stop-color="#DB374F"/></radialGradient><radialGradient id="f" cx="0" cy="0" r="1" gradientTransform="matrix(9.93642 20.0442 -14.7129 15.1472 17.268 9.064)" gradientUnits="userSpaceOnUse"><stop stop-color="#8C48FF"/><stop offset=".384" stop-color="#F2598A"/><stop offset=".853" stop-color="#FFB152"/></radialGradient></defs></svg>