<svg xmlns="http://www.w3.org/2000/svg" fill="none" viewBox="0 0 48 48"><path fill="url(#a)" d="M9 8.5A4.5 4.5 0 0 1 13.5 4H30a9 9 0 0 1 9 9v26.5a4.5 4.5 0 0 1-4.5 4.5h-21A4.5 4.5 0 0 1 9 39.5v-31z"/><path fill="url(#b)" d="M13.5 5A3.5 3.5 0 0 0 10 8.5v28.171A4.491 4.491 0 0 1 13.5 35h21a3.5 3.5 0 0 0 3.5-3.5V13a8 8 0 0 0-8-8H13.5z"/><path fill="url(#c)" d="M13.5 5A3.5 3.5 0 0 0 10 8.5v28.171A4.491 4.491 0 0 1 13.5 35h21a3.5 3.5 0 0 0 3.5-3.5V13a8 8 0 0 0-8-8H13.5z"/><path fill="url(#d)" d="M38 34.329A4.491 4.491 0 0 1 34.5 36h-21a3.5 3.5 0 1 0 0 7h21a3.5 3.5 0 0 0 3.5-3.5v-1.171A4.491 4.491 0 0 1 34.5 40h-21a.5.5 0 0 1 0-1h21a3.5 3.5 0 0 0 3.5-3.5v-1.171z"/><path fill="url(#e)" d="M38 34.329A4.491 4.491 0 0 1 34.5 36h-21a3.5 3.5 0 1 0 0 7h21a3.5 3.5 0 0 0 3.5-3.5v-1.171A4.491 4.491 0 0 1 34.5 40h-21a.5.5 0 0 1 0-1h21a3.5 3.5 0 0 0 3.5-3.5v-1.171z"/><path fill="url(#f)" d="m22.341 17.81-5.885 6.42c-1.323 1.443-.299 3.77 1.659 3.77h11.77c1.958 0 2.982-2.327 1.659-3.77l-5.885-6.42a2.25 2.25 0 0 0-3.318 0z"/><path fill="url(#g)" d="M31.999 13.5a2.5 2.5 0 1 1-5 0 2.5 2.5 0 0 1 5 0z"/><defs><linearGradient id="a" x1="18.688" x2="25.772" y1="4" y2="43.852" gradientUnits="userSpaceOnUse"><stop stop-color="#BBB"/><stop offset="1" stop-color="#888"/></linearGradient><linearGradient id="b" x1="17.778" x2="24.218" y1="5" y2="42.963" gradientUnits="userSpaceOnUse"><stop stop-color="#fff"/><stop offset="1" stop-color="#EBEBEB"/></linearGradient><radialGradient id="c" cx="0" cy="0" r="1" gradientTransform="matrix(14.7778 30.0833 -22.1667 11.2812 18.944 14.896)" gradientUnits="userSpaceOnUse"><stop offset=".177" stop-color="#fff"/><stop offset="1" stop-color="#EFEFEF"/></radialGradient><linearGradient id="d" x1="17.778" x2="24.218" y1="5" y2="42.963" gradientUnits="userSpaceOnUse"><stop stop-color="#fff"/><stop offset="1" stop-color="#EBEBEB"/></linearGradient><radialGradient id="e" cx="0" cy="0" r="1" gradientTransform="matrix(14.7778 30.0833 -22.1667 11.2812 18.944 14.896)" gradientUnits="userSpaceOnUse"><stop offset=".177" stop-color="#fff"/><stop offset="1" stop-color="#EFEFEF"/></radialGradient><linearGradient id="f" x1="18.604" x2="28.596" y1="11.923" y2="31.213" gradientUnits="userSpaceOnUse"><stop offset="0" stop-color="#597493"/><stop offset="1" stop-color="#0F2F56"/></linearGradient><linearGradient id="g" x1="26.999" x2="32.431" y1="7.875" y2="18.274" gradientUnits="userSpaceOnUse"><stop offset="0" stop-color="#597493"/><stop offset="1" stop-color="#0F2F56"/></linearGradient></defs></svg>