<svg xmlns="http://www.w3.org/2000/svg" fill="none" viewBox="0 0 48 48"><path fill="url(#a)" d="M9 8.5A4.5 4.5 0 0 1 13.5 4H30a9 9 0 0 1 9 9v26.5a4.5 4.5 0 0 1-4.5 4.5H18a9 9 0 0 1-9-9V8.5z"/><path fill="url(#b)" d="M10 8.5A3.5 3.5 0 0 1 13.5 5H30a8 8 0 0 1 8 8v26.5a3.5 3.5 0 0 1-3.5 3.5H18a8 8 0 0 1-8-8V8.5z"/><path fill="url(#c)" d="M10 8.5A3.5 3.5 0 0 1 13.5 5H30a8 8 0 0 1 8 8v26.5a3.5 3.5 0 0 1-3.5 3.5H18a8 8 0 0 1-8-8V8.5z"/><path fill="#5E438F" d="M15.597 27.27a.64.64 0 0 0-.425.21.67.67 0 0 0 .2 1.046l9.034 4.368a1.09 1.09 0 0 0 1.008-.036l7.437-4.2a.281.281 0 0 0 .116-.123.29.29 0 0 0-.049-.322.276.276 0 0 0-.147-.082l-7.87-1.57-9.294.709h-.01z"/><path fill="url(#d)" d="M15.602 27.27a.64.64 0 0 0-.425.21.67.67 0 0 0 .2 1.046l9.033 4.368a1.091 1.091 0 0 0 1.009-.036l7.436-4.2a.281.281 0 0 0 .117-.123.29.29 0 0 0-.049-.322.276.276 0 0 0-.147-.082l-7.87-1.57-9.294.709h-.01z" style="mix-blend-mode:multiply"/><path fill="#159CA2" d="M32.489 16.698a.889.889 0 0 0 .461-1.098.923.923 0 0 0-1.026-.586l-16.466 2.588a.539.539 0 0 0-.456.533v1.473a.54.54 0 0 0 .358.508l5.694 2.023 11.42-5.431.015-.01z"/><path fill="url(#e)" d="m32.49 16.7-.058.028-11.377 5.412-5.6 2.658-.094.045a.63.63 0 0 0-.358.565v2.507a.629.629 0 0 1 .58-.627h.01l9.008-.703 7.358-.574.209-.015a.9.9 0 0 0 .828-.899V15.9a.884.884 0 0 1-.506.8z"/><path fill="url(#f)" d="M32.489 16.698a.889.889 0 0 0 .461-1.098.923.923 0 0 0-1.026-.586l-16.466 2.588a.539.539 0 0 0-.456.533v1.473a.54.54 0 0 0 .358.508l5.694 2.023 11.42-5.431.015-.01z" style="mix-blend-mode:multiply"/><defs><linearGradient id="a" x1="18.688" x2="25.772" y1="4" y2="43.852" gradientUnits="userSpaceOnUse"><stop stop-color="#BBB"/><stop offset="1" stop-color="#888"/></linearGradient><linearGradient id="b" x1="17.778" x2="24.218" y1="5" y2="42.963" gradientUnits="userSpaceOnUse"><stop stop-color="#fff"/><stop offset="1" stop-color="#EBEBEB"/></linearGradient><radialGradient id="c" cx="0" cy="0" r="1" gradientTransform="rotate(63.838 -2.484 22.654) scale(33.517 24.8697)" gradientUnits="userSpaceOnUse"><stop offset=".177" stop-color="#fff"/><stop offset="1" stop-color="#EFEFEF"/></radialGradient><linearGradient id="d" x1="28.513" x2="15.318" y1="30.481" y2="25.424" gradientUnits="userSpaceOnUse"><stop stop-color="#5E438F" stop-opacity="0"/><stop offset=".99" stop-color="#5E438F" stop-opacity=".7"/></linearGradient><linearGradient id="e" x1="15.003" x2="32.996" y1="21.907" y2="21.907" gradientUnits="userSpaceOnUse"><stop stop-color="#4AA5E8"/><stop offset="1" stop-color="#48E6F3"/></linearGradient><linearGradient id="f" x1="14.976" x2="33.21" y1="17.534" y2="19.161" gradientUnits="userSpaceOnUse"><stop stop-color="#159CA2" stop-opacity="0"/><stop offset=".99" stop-color="#159CA2" stop-opacity=".8"/></linearGradient></defs></svg>