<svg xmlns="http://www.w3.org/2000/svg" fill="none" viewBox="0 0 48 48"><path fill="url(#a)" d="M6 10.5A4.5 4.5 0 0 1 10.5 6H33a9 9 0 0 1 9 9v22.5a4.5 4.5 0 0 1-4.5 4.5H15a9 9 0 0 1-9-9V10.5z"/><path fill="url(#b)" d="M7 10.5A3.5 3.5 0 0 1 10.5 7H33a8 8 0 0 1 8 8v22.5a3.5 3.5 0 0 1-3.5 3.5H15a8 8 0 0 1-8-8V10.5z"/><path fill="url(#c)" d="M7 10.5A3.5 3.5 0 0 1 10.5 7H33a8 8 0 0 1 8 8v22.5a3.5 3.5 0 0 1-3.5 3.5H15a8 8 0 0 1-8-8V10.5z"/><path fill="#7611F0" d="M15.266 20.414a1.745 1.745 0 0 0 2.033 1.347l14.135-2.747a1.839 1.839 0 0 0 1.453-2.193l-.188-.894a1.912 1.912 0 0 0-2.228-1.476l-13.975 2.716a1.839 1.839 0 0 0-1.453 2.192l.223 1.055z"/><path fill="url(#d)" fill-opacity=".9" d="M15.266 20.414a1.745 1.745 0 0 0 2.033 1.347l14.135-2.747a1.839 1.839 0 0 0 1.453-2.193l-.188-.894a1.912 1.912 0 0 0-2.228-1.476l-13.975 2.716a1.839 1.839 0 0 0-1.453 2.192l.223 1.055z"/><path fill="url(#e)" fill-opacity=".6" d="M15.266 20.414a1.745 1.745 0 0 0 2.033 1.347l14.135-2.747a1.839 1.839 0 0 0 1.453-2.193l-.188-.894a1.912 1.912 0 0 0-2.228-1.476l-13.975 2.716a1.839 1.839 0 0 0-1.453 2.192l.223 1.055z"/><path fill="url(#f)" fill-opacity=".4" d="M15.266 20.414a1.745 1.745 0 0 0 2.033 1.347l14.135-2.747a1.839 1.839 0 0 0 1.453-2.193l-.188-.894a1.912 1.912 0 0 0-2.228-1.476l-13.975 2.716a1.839 1.839 0 0 0-1.453 2.192l.223 1.055z"/><path fill="#7611F0" d="M15.004 30.502a2.5 2.5 0 0 0 2.5 2.5h13.395c1.15 0 2.083-.932 2.083-2.083v-1.198c0-1.15-.932-2.083-2.083-2.083H18.03a3.025 3.025 0 0 1-3.025-3.025v5.89z"/><path fill="#A966FF" fill-opacity=".2" d="M15.004 30.502a2.5 2.5 0 0 0 2.5 2.5h13.395c1.15 0 2.083-.932 2.083-2.083v-1.198c0-1.15-.932-2.083-2.083-2.083H18.03a3.025 3.025 0 0 1-3.025-3.025v5.89z"/><path fill="url(#g)" fill-opacity=".4" d="M15.004 30.502a2.5 2.5 0 0 0 2.5 2.5h13.395c1.15 0 2.083-.932 2.083-2.083v-1.198c0-1.15-.932-2.083-2.083-2.083H18.03a3.025 3.025 0 0 1-3.025-3.025v5.89z"/><path fill="url(#h)" fill-opacity=".15" d="M15.004 30.502a2.5 2.5 0 0 0 2.5 2.5h13.395c1.15 0 2.083-.932 2.083-2.083v-1.198c0-1.15-.932-2.083-2.083-2.083H18.03a3.025 3.025 0 0 1-3.025-3.025v5.89z"/><path fill="url(#i)" fill-opacity=".3" d="M15.004 30.502a2.5 2.5 0 0 0 2.5 2.5h13.395c1.15 0 2.083-.932 2.083-2.083v-1.198c0-1.15-.932-2.083-2.083-2.083H18.03a3.025 3.025 0 0 1-3.025-3.025v5.89z"/><path fill="url(#j)" fill-opacity=".2" d="M15.004 30.502a2.5 2.5 0 0 0 2.5 2.5h13.395c1.15 0 2.083-.932 2.083-2.083v-1.198c0-1.15-.932-2.083-2.083-2.083H18.03a3.025 3.025 0 0 1-3.025-3.025v5.89z"/><path fill="#BC7FFF" d="M15.004 23.251c0 1.057.857 1.914 1.914 1.914H30.69a2.292 2.292 0 0 1 2.291 2.291v.884-5.255c0-1.15-.932-2.084-2.083-2.084H17.087a2.083 2.083 0 0 1-2.083-2.083v-.838 5.171z"/><path fill="url(#k)" d="M15.004 23.251c0 1.057.857 1.914 1.914 1.914H30.69a2.292 2.292 0 0 1 2.291 2.291v.884-5.255c0-1.15-.932-2.084-2.083-2.084H17.087a2.083 2.083 0 0 1-2.083-2.083v-.838 5.171z"/><path fill="url(#l)" fill-opacity=".8" d="M15.004 23.251c0 1.057.857 1.914 1.914 1.914H30.69a2.292 2.292 0 0 1 2.291 2.291v.884-5.255c0-1.15-.932-2.084-2.083-2.084H17.087a2.083 2.083 0 0 1-2.083-2.083v-.838 5.171z"/><path fill="url(#m)" d="M15.004 23.251c0 1.057.857 1.914 1.914 1.914H30.69a2.292 2.292 0 0 1 2.291 2.291v.884-5.255c0-1.15-.932-2.084-2.083-2.084H17.087a2.083 2.083 0 0 1-2.083-2.083v-.838 5.171z"/><path fill="#974CFF" d="M15.004 26.709a2.292 2.292 0 0 0 2.292 2.292h13.603c1.15 0 2.083.933 2.083 2.083v.262-4.268c0-1.15-.932-2.081-2.083-2.081H17.296a2.292 2.292 0 0 1-2.292-2.292v-.788 4.792z"/><path fill="#A966FF" fill-opacity=".35" d="M15.004 26.709a2.292 2.292 0 0 0 2.292 2.292h13.603c1.15 0 2.083.933 2.083 2.083v.262-4.268c0-1.15-.932-2.081-2.083-2.081H17.296a2.292 2.292 0 0 1-2.292-2.292v-.788 4.792z"/><path fill="url(#n)" fill-opacity=".4" d="M15.004 26.709a2.292 2.292 0 0 0 2.292 2.292h13.603c1.15 0 2.083.933 2.083 2.083v.262-4.268c0-1.15-.932-2.081-2.083-2.081H17.296a2.292 2.292 0 0 1-2.292-2.292v-.788 4.792z"/><path fill="url(#o)" fill-opacity=".4" d="M15.004 26.709a2.292 2.292 0 0 0 2.292 2.292h13.603c1.15 0 2.083.933 2.083 2.083v.262-4.268c0-1.15-.932-2.081-2.083-2.081H17.296a2.292 2.292 0 0 1-2.292-2.292v-.788 4.792z"/><path fill="url(#p)" fill-opacity=".6" d="M15.004 26.709a2.292 2.292 0 0 0 2.292 2.292h13.603c1.15 0 2.083.933 2.083 2.083v.262-4.268c0-1.15-.932-2.081-2.083-2.081H17.296a2.292 2.292 0 0 1-2.292-2.292v-.788 4.792z"/><defs><linearGradient id="a" x1="17.625" x2="22.472" y1="6" y2="42.354" gradientUnits="userSpaceOnUse"><stop stop-color="#BBB"/><stop offset="1" stop-color="#888"/></linearGradient><linearGradient id="b" x1="16.444" x2="20.745" y1="7" y2="41.407" gradientUnits="userSpaceOnUse"><stop stop-color="#fff"/><stop offset="1" stop-color="#EBEBEB"/></linearGradient><radialGradient id="c" cx="0" cy="0" r="1" gradientTransform="matrix(17.9444 26.9167 -26.9167 10.0937 17.861 15.854)" gradientUnits="userSpaceOnUse"><stop offset=".177" stop-color="#fff"/><stop offset="1" stop-color="#EFEFEF"/></radialGradient><radialGradient id="d" cx="0" cy="0" r="1" gradientTransform="matrix(-14.685 8.15581 10.1249 17.59 24.019 6.03)" gradientUnits="userSpaceOnUse"><stop offset=".625" stop-color="#974CFF"/><stop offset="1" stop-color="#5000B0"/></radialGradient><radialGradient id="e" cx="0" cy="0" r="1" gradientTransform="matrix(-13.4018 6.27648 15.086 30.4851 33.337 12.952)" gradientUnits="userSpaceOnUse"><stop offset=".147" stop-color="#DE91FF"/><stop offset=".678" stop-color="#D373FC" stop-opacity="0"/></radialGradient><radialGradient id="f" cx="0" cy="0" r="1" gradientTransform="matrix(-5.45258 7.81194 22.724 9.70853 25.638 10.184)" gradientUnits="userSpaceOnUse"><stop stop-color="#FFC7A3"/><stop offset=".831" stop-color="#DE67FD" stop-opacity="0"/></radialGradient><linearGradient id="g" x1="26.54" x2="25.986" y1="28.808" y2="31.981" gradientUnits="userSpaceOnUse"><stop stop-color="#330072"/><stop offset="1" stop-color="#7611F0" stop-opacity="0"/></linearGradient><linearGradient id="h" x1="19.039" x2="19.039" y1="28.814" y2="33.513" gradientUnits="userSpaceOnUse"><stop stop-color="#9136F2" stop-opacity="0"/><stop offset=".836" stop-color="#B76AFF"/></linearGradient><linearGradient id="i" x1="19.907" x2="15.003" y1="28.507" y2="28.55" gradientUnits="userSpaceOnUse"><stop stop-color="#9136F2" stop-opacity="0"/><stop offset=".836" stop-color="#B76AFF"/></linearGradient><linearGradient id="j" x1="27.569" x2="35.129" y1="28.55" y2="34.586" gradientUnits="userSpaceOnUse"><stop stop-color="#9136F2" stop-opacity="0"/><stop offset=".836" stop-color="#B76AFF"/></linearGradient><linearGradient id="k" x1="19.907" x2="15.003" y1="22.895" y2="22.895" gradientUnits="userSpaceOnUse"><stop stop-color="#BC80FF" stop-opacity="0"/><stop offset=".836" stop-color="#ECB4FF"/></linearGradient><linearGradient id="l" x1="27.026" x2="32.982" y1="22.895" y2="22.895" gradientUnits="userSpaceOnUse"><stop stop-color="#BC7FFF" stop-opacity="0"/><stop offset=".836" stop-color="#ECB4FF"/></linearGradient><radialGradient id="m" cx="0" cy="0" r="1" gradientTransform="matrix(-5.86692 9.60249 11.8452 22.68 29.86 10.632)" gradientUnits="userSpaceOnUse"><stop stop-color="#FFC7A3"/><stop offset=".831" stop-color="#DE67FD" stop-opacity="0"/></radialGradient><linearGradient id="n" x1="25.693" x2="25.438" y1="21.747" y2="27.592" gradientUnits="userSpaceOnUse"><stop stop-color="#6200D5"/><stop offset="1" stop-color="#3E008D" stop-opacity="0"/></linearGradient><linearGradient id="o" x1="28.08" x2="32.984" y1="26.44" y2="26.44" gradientUnits="userSpaceOnUse"><stop stop-color="#9B54FD" stop-opacity="0"/><stop offset=".836" stop-color="#ECB4FF"/></linearGradient><linearGradient id="p" x1="19.907" x2="15.003" y1="26.44" y2="26.44" gradientUnits="userSpaceOnUse"><stop stop-color="#944EF6" stop-opacity="0"/><stop offset=".836" stop-color="#ECB4FF"/></linearGradient></defs></svg>