<svg xmlns="http://www.w3.org/2000/svg" fill="none" viewBox="0 0 48 48"><path fill="url(#a)" d="M4 13.5A4.5 4.5 0 0 1 8.5 9H35a9 9 0 0 1 9 9v16.5a4.5 4.5 0 0 1-4.5 4.5H13a9 9 0 0 1-9-9V13.5z"/><path fill="url(#b)" d="M5 13.5A3.5 3.5 0 0 1 8.5 10H35a8 8 0 0 1 8 8v16.5a3.5 3.5 0 0 1-3.5 3.5H13a8 8 0 0 1-8-8V13.5z"/><path fill="url(#c)" d="M5 13.5A3.5 3.5 0 0 1 8.5 10H35a8 8 0 0 1 8 8v16.5a3.5 3.5 0 0 1-3.5 3.5H13a8 8 0 0 1-8-8V13.5z"/><path fill="url(#d)" d="M20 19.5a3.5 3.5 0 1 1-7 0 3.5 3.5 0 0 1 7 0z"/><path fill="url(#e)" d="M21.29 25c.972 0 1.76.788 1.76 1.76V27c0 2.602-2.427 5-6.525 5C12.427 32 10 29.602 10 27v-.24c0-.972.788-1.76 1.76-1.76h9.53z"/><path fill="url(#f)" d="M26.75 18a.75.75 0 0 0 0 1.5h10.5a.75.75 0 0 0 0-1.5h-10.5z"/><path fill="url(#g)" d="M26.75 23.25a.75.75 0 0 0 0 1.5h10.5a.75.75 0 0 0 0-1.5h-10.5z"/><path fill="url(#h)" d="M26.75 28.5a.75.75 0 0 0 0 1.5h10.5a.75.75 0 0 0 0-1.5h-10.5z"/><defs><linearGradient id="a" x1="16.917" x2="19.97" y1="9" y2="39.528" gradientUnits="userSpaceOnUse"><stop stop-color="#BBB"/><stop offset="1" stop-color="#888"/></linearGradient><linearGradient id="b" x1="15.556" x2="18.184" y1="10" y2="38.536" gradientUnits="userSpaceOnUse"><stop stop-color="#fff"/><stop offset="1" stop-color="#EBEBEB"/></linearGradient><radialGradient id="c" cx="0" cy="0" r="1" gradientTransform="matrix(20.0556 22.1667 -30.0833 8.3125 17.139 17.292)" gradientUnits="userSpaceOnUse"><stop offset=".177" stop-color="#fff"/><stop offset="1" stop-color="#EFEFEF"/></radialGradient><linearGradient id="d" x1="15.6" x2="24.874" y1="12" y2="32.352" gradientUnits="userSpaceOnUse"><stop offset="0" stop-color="#597493"/><stop offset="1" stop-color="#0F2F56"/></linearGradient><linearGradient id="e" x1="15.6" x2="24.874" y1="12" y2="32.352" gradientUnits="userSpaceOnUse"><stop offset="0" stop-color="#597493"/><stop offset="1" stop-color="#0F2F56"/></linearGradient><linearGradient id="f" x1="15.6" x2="24.874" y1="12" y2="32.352" gradientUnits="userSpaceOnUse"><stop offset="0" stop-color="#597493"/><stop offset="1" stop-color="#0F2F56"/></linearGradient><linearGradient id="g" x1="15.6" x2="24.874" y1="12" y2="32.352" gradientUnits="userSpaceOnUse"><stop offset="0" stop-color="#597493"/><stop offset="1" stop-color="#0F2F56"/></linearGradient><linearGradient id="h" x1="15.6" x2="24.874" y1="12" y2="32.352" gradientUnits="userSpaceOnUse"><stop offset="0" stop-color="#597493"/><stop offset="1" stop-color="#0F2F56"/></linearGradient></defs></svg>