<svg xmlns="http://www.w3.org/2000/svg" fill="none" viewBox="0 0 48 48"><path fill="url(#a)" d="M9 8.5A4.5 4.5 0 0113.5 4H30a9 9 0 019 9v26.5a4.5 4.5 0 01-4.5 4.5h-21A4.5 4.5 0 019 39.5z"/><path fill="url(#b)" d="M13.5 5A3.5 3.5 0 0010 8.5v28.171A4.5 4.5 0 0113.5 35h21a3.5 3.5 0 003.5-3.5V13a8 8 0 00-8-8z"/><path fill="url(#c)" d="M13.5 5A3.5 3.5 0 0010 8.5v28.171A4.5 4.5 0 0113.5 35h21a3.5 3.5 0 003.5-3.5V13a8 8 0 00-8-8z"/><path fill="url(#d)" d="M38 34.329A4.5 4.5 0 0134.5 36h-21a3.5 3.5 0 100 7h21a3.5 3.5 0 003.5-3.5v-1.171A4.5 4.5 0 0134.5 40h-21a.5.5 0 010-1h21a3.5 3.5 0 003.5-3.5z"/><path fill="url(#e)" d="M38 34.329A4.5 4.5 0 0134.5 36h-21a3.5 3.5 0 100 7h21a3.5 3.5 0 003.5-3.5v-1.171A4.5 4.5 0 0134.5 40h-21a.5.5 0 010-1h21a3.5 3.5 0 003.5-3.5z"/><g clip-path="url(#f)"><path fill="url(#g)" d="M19.26 24.488a.83.83 0 00.514.103l4.336-.526s-2.2-2.294-3.792-4.435c-.422-.568-.112-1.359.575-1.533l.212-.053c-.01-.757-2.787-2.327-3.444-1.952l-2.116 1.21a.83.83 0 00-.42.723v3.132c0 .599.32 1.15.84 1.448z"/><path fill="url(#h)" d="M19.26 24.488a.83.83 0 00.514.103l4.336-.526s-2.2-2.294-3.792-4.435c-.422-.568-.112-1.359.575-1.533l.212-.053c-.01-.757-2.787-2.327-3.444-1.952l-2.116 1.21a.83.83 0 00-.42.723v3.132c0 .599.32 1.15.84 1.448z"/><path fill="url(#i)" d="M30.033 21.846a.83.83 0 00-.202-.54l-2.68-3.107s-.84 2.544-1.866 5.012c-.284.685-1.176.83-1.681.287l-.089-.096c-.651.4-.564 3.64.096 4.024l2.056 1.2c.258.15.578.15.837.001l2.713-1.566c.518-.299.836-.852.833-1.45z"/><path fill="url(#j)" d="M30.033 21.846a.83.83 0 00-.202-.54l-2.68-3.107s-.84 2.544-1.866 5.012c-.284.685-1.176.83-1.681.287l-.089-.096c-.651.4-.564 3.64.096 4.024l2.056 1.2c.258.15.578.15.837.001l2.713-1.566c.518-.299.836-.852.833-1.45z"/><path fill="url(#k)" d="M22.357 13.808a.83.83 0 00-.366.44l-1.376 3.882s3.078-.635 5.375-.934c.711-.092 1.247.576 1.044 1.263l-.128.438c.662.368 3.493-1.514 3.496-2.272l.01-2.427a.83.83 0 00-.416-.726l-2.713-1.566a1.67 1.67 0 00-1.673.004z"/><path fill="url(#l)" d="M22.357 13.808a.83.83 0 00-.366.44l-1.376 3.882s3.078-.635 5.375-.934c.711-.092 1.247.576 1.044 1.263l-.128.438c.662.368 3.493-1.514 3.496-2.272l.01-2.427a.83.83 0 00-.416-.726l-2.713-1.566a1.67 1.67 0 00-1.673.004z"/><path fill="url(#m)" d="M22.212 11.388c.914-.104 1.663.65 1.663 1.57v3.157c0 .821-.595 1.52-1.402 1.675-1.731.33-4.675.974-6.536 1.822-.521.238-.812.777-.812 1.35v1.58-7.5c0-1.461 3.331-3.228 7.087-3.655"/><path fill="url(#n)" d="M22.212 11.388c.914-.104 1.663.65 1.663 1.57v3.157c0 .821-.595 1.52-1.402 1.675-1.731.33-4.675.974-6.536 1.822-.521.238-.812.777-.812 1.35v1.58-7.5c0-1.461 3.331-3.228 7.087-3.655"/><path fill="url(#o)" d="M17.212 25.81c-.547-.74-.268-1.766.529-2.226l2.734-1.579a1.716 1.716 0 012.15.377c1.153 1.334 3.182 3.562 4.847 4.75.466.332 1.079.314 1.575.028l1.368-.79-6.495 3.75c-1.265.73-4.46-1.271-6.708-4.31"/><path fill="url(#p)" d="M17.212 25.81c-.547-.74-.268-1.766.529-2.226l2.734-1.579a1.716 1.716 0 012.15.377c1.153 1.334 3.182 3.562 4.847 4.75.466.332 1.079.314 1.575.028l1.368-.79-6.495 3.75c-1.265.73-4.46-1.271-6.708-4.31"/><path fill="url(#q)" d="M32.201 22.928c-.367.844-1.395 1.116-2.192.655l-2.734-1.578a1.716 1.716 0 01-.75-2.052c.58-1.665 1.495-4.536 1.691-6.571.055-.57-.267-1.092-.763-1.378l-1.368-.79 6.496 3.75c1.264.73 1.129 4.498-.38 7.964"/><path fill="url(#r)" d="M32.201 22.928c-.367.844-1.395 1.116-2.192.655l-2.734-1.578a1.716 1.716 0 01-.75-2.052c.58-1.665 1.495-4.536 1.691-6.571.055-.57-.267-1.092-.763-1.378l-1.368-.79 6.496 3.75c1.264.73 1.129 4.498-.38 7.964"/></g><defs><linearGradient id="a" x1="18.688" x2="25.772" y1="4" y2="43.852" gradientUnits="userSpaceOnUse"><stop stop-color="#BBB"/><stop offset="1" stop-color="#888"/></linearGradient><linearGradient id="b" x1="17.778" x2="24.218" y1="5" y2="42.963" gradientUnits="userSpaceOnUse"><stop stop-color="#fff"/><stop offset="1" stop-color="#EBEBEB"/></linearGradient><linearGradient id="d" x1="17.778" x2="24.218" y1="5" y2="42.963" gradientUnits="userSpaceOnUse"><stop stop-color="#fff"/><stop offset="1" stop-color="#EBEBEB"/></linearGradient><linearGradient id="g" x1="15.523" x2="19.398" y1="19.715" y2="24.513" gradientUnits="userSpaceOnUse"><stop stop-color="#C02B3C"/><stop offset=".945" stop-color="#F68500"/></linearGradient><linearGradient id="i" x1="27.892" x2="27.606" y1="21.427" y2="27.563" gradientUnits="userSpaceOnUse"><stop stop-color="#0D91E1"/><stop offset="1" stop-color="#0B6528"/></linearGradient><linearGradient id="k" x1="22.974" x2="28.39" y1="16.277" y2="15.191" gradientUnits="userSpaceOnUse"><stop stop-color="#C515F1"/><stop offset="1" stop-color="#0D91E1"/></linearGradient><linearGradient id="m" x1="23.608" x2="15.125" y1="15.814" y2="16.111" gradientUnits="userSpaceOnUse"><stop stop-color="#CC23D1"/><stop offset=".5" stop-color="#F2598A"/><stop offset=".975" stop-color="#FFB657"/></linearGradient><linearGradient id="n" x1="24.924" x2="21.719" y1="14.263" y2="14.351" gradientUnits="userSpaceOnUse"><stop offset=".058" stop-color="#F7ADFA"/><stop offset="1" stop-color="#F2598A" stop-opacity="0"/></linearGradient><linearGradient id="o" x1="25.908" x2="19.901" y1="30.623" y2="22.122" gradientUnits="userSpaceOnUse"><stop stop-color="#0D91E1"/><stop offset=".487" stop-color="#52B471"/><stop offset=".715" stop-color="#98BD42"/><stop offset=".937" stop-color="#FFC800"/></linearGradient><linearGradient id="p" x1="19.517" x2="20.017" y1="22.514" y2="23.347" gradientUnits="userSpaceOnUse"><stop stop-color="#FFEEAF"/><stop offset="1" stop-color="#FFC800" stop-opacity="0"/></linearGradient><linearGradient id="q" x1="31.131" x2="27.302" y1="13.65" y2="21.953" gradientUnits="userSpaceOnUse"><stop stop-color="#8C48FF"/><stop offset=".721" stop-color="#00AEFF"/><stop offset=".995" stop-color="#3DCBFF"/></linearGradient><linearGradient id="r" x1="28.667" x2="28.028" y1="21.346" y2="22.497" gradientUnits="userSpaceOnUse"><stop stop-color="#00AEFF" stop-opacity="0"/><stop offset="1" stop-color="#8BDFFD"/></linearGradient><radialGradient id="c" cx="0" cy="0" r="1" gradientTransform="matrix(14.7778 30.0833 -22.1667 11.2812 18.944 14.896)" gradientUnits="userSpaceOnUse"><stop offset=".177" stop-color="#fff"/><stop offset="1" stop-color="#EFEFEF"/></radialGradient><radialGradient id="e" cx="0" cy="0" r="1" gradientTransform="matrix(14.7778 30.0833 -22.1667 11.2812 18.944 14.896)" gradientUnits="userSpaceOnUse"><stop offset=".177" stop-color="#fff"/><stop offset="1" stop-color="#EFEFEF"/></radialGradient><radialGradient id="h" cx="0" cy="0" r="1" gradientTransform="matrix(-2.2917 -3.95831 6.80453 -3.93953 18.146 23.375)" gradientUnits="userSpaceOnUse"><stop offset=".549" stop-color="#C02B3C" stop-opacity="0"/><stop offset="1" stop-color="#9C212F"/></radialGradient><radialGradient id="j" cx="0" cy="0" r="1" gradientTransform="matrix(-2.29163 4.06251 -7.81621 -4.40906 29.5 23.375)" gradientUnits="userSpaceOnUse"><stop offset=".579" stop-color="#137D34" stop-opacity="0"/><stop offset="1" stop-color="#0A5622"/></radialGradient><radialGradient id="l" cx="0" cy="0" r="1" gradientTransform="matrix(4.58333 0 0 8.67465 23.875 13.48)" gradientUnits="userSpaceOnUse"><stop offset=".588" stop-color="#2253CE" stop-opacity="0"/><stop offset="1" stop-color="#032DAA"/></radialGradient><clipPath id="f"><path fill="#fff" d="M13.875 10.875h20v20h-20z"/></clipPath></defs></svg>