<svg xmlns="http://www.w3.org/2000/svg" fill="none" viewBox="0 0 48 48"><path fill="url(#a)" d="M4 13.5A4.5 4.5 0 0 1 8.5 9H35a9 9 0 0 1 9 9v16.5a4.5 4.5 0 0 1-4.5 4.5H13a9 9 0 0 1-9-9V13.5z"/><path fill="url(#b)" d="M5 13.5A3.5 3.5 0 0 1 8.5 10H35a8 8 0 0 1 8 8v16.5a3.5 3.5 0 0 1-3.5 3.5H13a8 8 0 0 1-8-8V13.5z"/><path fill="url(#c)" d="M5 13.5A3.5 3.5 0 0 1 8.5 10H35a8 8 0 0 1 8 8v16.5a3.5 3.5 0 0 1-3.5 3.5H13a8 8 0 0 1-8-8V13.5z"/><path fill="url(#d)" d="M36 28a1 1 0 0 1 1 1c0 1.616-.005 3.278-1.257 4.669a1 1 0 1 1-1.486-1.338C34.925 31.59 35 30.718 35 29a1 1 0 0 1 1-1z"/><path fill="url(#e)" d="M26.499 16c1.599 0 3.22.4 4.463 1.398C32.239 18.425 33 19.992 33 22.064V31a1 1 0 1 1-2 0v-.482l-.099.066A9.09 9.09 0 0 1 25.988 32 8.22 8.22 0 0 1 24 31.77v-2.09c.526.202 1.182.32 1.988.32a7.094 7.094 0 0 0 3.83-1.097c.455-.293.788-.593.996-.835.098-.113.156-.201.186-.256V23.48c-.53-.002-1.061-.162-1.506-.304-.952-.304-2.015-.695-3.572-.695-1.45 0-2.4.548-3.002 1.255a3.917 3.917 0 0 0-.807 1.619 5.492 5.492 0 0 0-1.779-1.04 5.828 5.828 0 0 1 1.063-1.875c.99-1.164 2.501-1.96 4.525-1.96 1.918 0 3.273.501 4.18.79.445.143.694.2.869.207-.12-1.204-.612-1.998-1.262-2.52-.783-.63-1.912-.957-3.21-.957-1.292 0-2.743.092-3.66.979a1 1 0 0 1-1.39-1.438C23.021 16.02 25.302 16 26.5 16z"/><rect width="20" height="20" x="3" y="25" fill="url(#f)" rx="4.5"/><rect width="20" height="20" x="3" y="25" fill="url(#g)" fill-opacity=".3" rx="4.5"/><path fill="#fff" d="M18.51 41h-3.232l-2.029-3.824a11.64 11.64 0 0 1-.167-.318 9.894 9.894 0 0 1-.108-.285h-.033c-.05.134-.098.243-.142.327a9.984 9.984 0 0 0-.159.31L10.536 41H7.488l3.657-6.008L7.74 29h3.19l1.803 3.414c.072.14.133.262.184.368.055.1.11.22.166.36h.034c.078-.162.14-.29.184-.385l.2-.376L15.37 29h3.04l-3.457 5.9L18.51 41z"/><defs><linearGradient id="a" x1="16.917" x2="19.97" y1="9" y2="39.528" gradientUnits="userSpaceOnUse"><stop stop-color="#BBB"/><stop offset="1" stop-color="#888"/></linearGradient><linearGradient id="b" x1="15.556" x2="18.184" y1="10" y2="38.536" gradientUnits="userSpaceOnUse"><stop stop-color="#fff"/><stop offset="1" stop-color="#EBEBEB"/></linearGradient><radialGradient id="c" cx="0" cy="0" r="1" gradientTransform="matrix(20.0556 22.1667 -30.0833 8.3125 17.139 17.292)" gradientUnits="userSpaceOnUse"><stop offset=".177" stop-color="#fff"/><stop offset="1" stop-color="#EFEFEF"/></radialGradient><linearGradient id="d" x1="43.436" x2="21.102" y1="42.836" y2="11.463" gradientUnits="userSpaceOnUse"><stop offset=".168" stop-color="#15561C"/><stop offset=".541" stop-color="#15561C"/><stop offset="1" stop-color="#297C2D"/></linearGradient><linearGradient id="e" x1="43.436" x2="21.102" y1="42.836" y2="11.463" gradientUnits="userSpaceOnUse"><stop offset=".168" stop-color="#15561C"/><stop offset=".541" stop-color="#15561C"/><stop offset="1" stop-color="#297C2D"/></linearGradient><radialGradient id="f" cx="0" cy="0" r="1" gradientTransform="rotate(45 -28.678 16.121) scale(28.2843 80.5176)" gradientUnits="userSpaceOnUse"><stop stop-color="#20A85E"/><stop offset=".944" stop-color="#09442A"/></radialGradient><radialGradient id="g" cx="0" cy="0" r="1" gradientTransform="matrix(0 14 -16.125 0 13 37)" gradientUnits="userSpaceOnUse"><stop offset=".58" stop-color="#33A662" stop-opacity="0"/><stop offset=".974" stop-color="#98F0B0"/></radialGradient></defs></svg>