<svg xmlns="http://www.w3.org/2000/svg" fill="none" viewBox="0 0 48 48"><path fill="#035499" d="M17.766 7.427A5.25 5.25 0 0014.168 6H9.25A5.25 5.25 0 004 11.25v22.5C4 36.65 6.35 39 9.25 39h29.5c2.9 0 5.25-2.35 5.25-5.25v-18.5c0-2.9-2.35-5.25-5.25-5.25H21.392a2.25 2.25 0 01-1.542-.612z"/><path fill="url(#a)" d="M5 19.5A4.5 4.5 0 019.5 15H15a5 5 0 004-2 5 5 0 014-2h15.5a4.5 4.5 0 014.5 4.5v18a4.5 4.5 0 01-4.5 4.5h-29A4.5 4.5 0 015 33.5z"/><g filter="url(#b)"><path fill="#FAFAFA" fill-rule="evenodd" d="M28.5 32a.5.5 0 010 1h-9a.5.5 0 010-1H21v-2h-3a2 2 0 01-2-2v-8a2 2 0 012-2h12a2 2 0 012 2v8a2 2 0 01-2 2h-3v2zM26 32v-2h-4v2z" clip-rule="evenodd"/></g><defs><linearGradient id="a" x1="16.692" x2="22.835" y1="11" y2="37.932" gradientUnits="userSpaceOnUse"><stop stop-color="#319EE4"/><stop offset="1" stop-color="#1176CA"/></linearGradient><filter id="b" width="18" height="18" x="15" y="16.5" color-interpolation-filters="sRGB" filterUnits="userSpaceOnUse"><feFlood flood-opacity="0" result="BackgroundImageFix"/><feColorMatrix in="SourceAlpha" result="hardAlpha" values="0 0 0 0 0 0 0 0 0 0 0 0 0 0 0 0 0 0 127 0"/><feOffset dy=".5"/><feGaussianBlur stdDeviation=".5"/><feComposite in2="hardAlpha" operator="out"/><feColorMatrix values="0 0 0 0 1 0 0 0 0 1 0 0 0 0 1 0 0 0 0.28 0"/><feBlend in2="BackgroundImageFix" result="effect1_dropShadow_11320_2412"/><feColorMatrix in="SourceAlpha" result="hardAlpha" values="0 0 0 0 0 0 0 0 0 0 0 0 0 0 0 0 0 0 127 0"/><feOffset dy="-.5"/><feGaussianBlur stdDeviation=".5"/><feComposite in2="hardAlpha" operator="out"/><feColorMatrix values="0 0 0 0 0 0 0 0 0 0 0 0 0 0 0 0 0 0 0.2 0"/><feBlend in2="effect1_dropShadow_11320_2412" result="effect2_dropShadow_11320_2412"/><feBlend in="SourceGraphic" in2="effect2_dropShadow_11320_2412" result="shape"/></filter></defs></svg>