<svg xmlns="http://www.w3.org/2000/svg" fill="none" viewBox="0 0 48 48"><path fill="url(#a)" d="M35.807 40.807A4.502 4.502 0 0 1 31.5 44H21c-6.627 0-12-5.373-12-12V11.5a4.502 4.502 0 0 1 3.193-4.307A4.502 4.502 0 0 1 16.5 4H30a9 9 0 0 1 9 9v23.5a4.502 4.502 0 0 1-3.193 4.307z"/><path fill="url(#b)" d="M12 8.501v23.5a9 9 0 0 0 9 9h13.5c.055 0 .11-.003.164-.005a3.5 3.5 0 0 1-3.164 2.005H21c-6.075 0-11-4.925-11-11v-20.5c0-1.398.82-2.604 2.004-3.165-.002.054-.004.11-.004.165zM30 5a8 8 0 0 1 8 8v23.5a3.5 3.5 0 0 1-3.5 3.5H21a8 8 0 0 1-8-8V8.5A3.5 3.5 0 0 1 16.5 5H30z"/><path fill="url(#c)" d="M12 8.501v23.5a9 9 0 0 0 9 9h13.5c.055 0 .11-.003.164-.005a3.5 3.5 0 0 1-3.164 2.005H21c-6.075 0-11-4.925-11-11v-20.5c0-1.398.82-2.604 2.004-3.165-.002.054-.004.11-.004.165zM30 5a8 8 0 0 1 8 8v23.5a3.5 3.5 0 0 1-3.5 3.5H21a8 8 0 0 1-8-8V8.5A3.5 3.5 0 0 1 16.5 5H30z"/><path fill="url(#d)" fill-rule="evenodd" d="M25.332 12c.916 0 1.876.221 2.631.714.778.507 1.351 1.317 1.351 2.406 0 .503-.093.917-.262 1.274a2.92 2.92 0 0 1-.577.797 9.93 9.93 0 0 1-.173.175c-.275.277-.4.403-.465.688l-.001.002-.001.008a1.326 1.326 0 0 0-.01.126c-.003.083-.001.192.007.325.015.266.053.604.111 1 .115.792.302 1.774.522 2.808.185.867.395 1.762.6 2.6h.917a2 2 0 0 1 1.99 1.8l.408 4.078A2 2 0 0 1 30.39 33H20.272a2 2 0 0 1-1.99-2.2l.407-4.076a2 2 0 0 1 1.99-1.801h1.034c.191-.727.384-1.511.557-2.29a32.77 32.77 0 0 0 .528-2.898c.053-.419.082-.782.086-1.075.005-.308-.02-.481-.043-.555a.867.867 0 0 0-.199-.327 4.674 4.674 0 0 0-.206-.213l-.021-.021a8.037 8.037 0 0 1-.25-.255 2.97 2.97 0 0 1-.569-.854c-.158-.369-.246-.798-.246-1.315 0-1.089.573-1.9 1.35-2.406.756-.492 1.716-.714 2.632-.714zm0 1.5c-.7 0-1.357.173-1.813.47-.434.284-.669.66-.669 1.15 0 .342.057.566.125.724.068.158.163.287.293.428.063.068.128.133.206.21l.02.02c.082.081.179.178.272.283.194.219.392.499.509.88.093.3.115.664.11 1.017-.006.368-.042.79-.098 1.24-.114.903-.317 1.968-.553 3.035-.146.66-.309 1.328-.473 1.966h4.26c-.18-.748-.36-1.528-.522-2.287a47.033 47.033 0 0 1-.54-2.905 13.52 13.52 0 0 1-.124-1.127c-.019-.304-.02-.628.04-.888.17-.737.623-1.177.91-1.456l.115-.115a1.46 1.46 0 0 0 .297-.395c.061-.13.117-.32.117-.63 0-.491-.235-.866-.67-1.15-.456-.297-1.113-.47-1.812-.47z" clip-rule="evenodd"/><defs><linearGradient id="a" x1="18.688" x2="25.772" y1="4" y2="43.852" gradientUnits="userSpaceOnUse"><stop stop-color="#BBB"/><stop offset="1" stop-color="#888"/></linearGradient><linearGradient id="b" x1="17.778" x2="24.218" y1="5" y2="42.964" gradientUnits="userSpaceOnUse"><stop stop-color="#fff"/><stop offset="1" stop-color="#EBEBEB"/></linearGradient><radialGradient id="c" cx="0" cy="0" r="1" gradientTransform="matrix(14.7778 30.0841 -22.1667 11.2815 18.944 14.896)" gradientUnits="userSpaceOnUse"><stop offset=".177" stop-color="#fff"/><stop offset="1" stop-color="#EFEFEF"/></radialGradient><linearGradient id="d" x1="21.484" x2="34.84" y1="9.577" y2="31.728" gradientUnits="userSpaceOnUse"><stop offset="0" stop-color="#597493"/><stop offset="1" stop-color="#0F2F56"/></linearGradient></defs></svg>