<svg xmlns="http://www.w3.org/2000/svg" fill="none" viewBox="0 0 48 48"><path fill="url(#a)" d="M9 8.5A4.5 4.5 0 0 1 13.5 4H30a9 9 0 0 1 9 9v26.5a4.5 4.5 0 0 1-4.5 4.5H18a9 9 0 0 1-9-9V8.5z"/><path fill="url(#b)" d="M10 8.5A3.5 3.5 0 0 1 13.5 5H30a8 8 0 0 1 8 8v26.5a3.5 3.5 0 0 1-3.5 3.5H18a8 8 0 0 1-8-8V8.5z"/><path fill="url(#c)" d="M10 8.5A3.5 3.5 0 0 1 13.5 5H30a8 8 0 0 1 8 8v26.5a3.5 3.5 0 0 1-3.5 3.5H18a8 8 0 0 1-8-8V8.5z"/><path fill="url(#d)" d="M33 33.167C33 34.179 32.18 35 31.167 35H24v-5.5a5.5 5.5 0 0 0-5.5-5.5h-2.8a5.749 5.749 0 0 1 5.05-3H33v12.167z"/><path fill="url(#e)" fill-opacity=".8" d="M33 33.167C33 34.179 32.18 35 31.167 35H24v-5.5a5.5 5.5 0 0 0-5.5-5.5h-2.8a5.749 5.749 0 0 1 5.05-3H33v12.167z"/><path fill="url(#f)" d="M31 13a2 2 0 0 1 2 2v7a2 2 0 0 1-2 2H18.689l-.092.002L18.5 24H15v-7.311A3.689 3.689 0 0 1 18.689 13H31z"/><path fill="url(#g)" d="M31 13a2 2 0 0 1 2 2v7a2 2 0 0 1-2 2H18.689l-.092.002L18.5 24H15v-7.311A3.689 3.689 0 0 1 18.689 13H31z"/><path fill="url(#h)" d="M27.5 22a3.5 3.5 0 1 0 0-7 3.5 3.5 0 0 0 0 7z"/><path fill="url(#i)" d="M27.5 20.5a2 2 0 1 0 0-4 2 2 0 0 0 0 4z"/><path fill="url(#j)" d="M29.5 27a.5.5 0 0 1 .5.5v4a.5.5 0 0 1-.5.5h-4a.5.5 0 0 1-.5-.5v-4a.5.5 0 0 1 .5-.5h4z"/><rect width="20" height="20" x="3" y="25" fill="url(#k)" rx="4.5"/><rect width="20" height="20" x="3" y="25" fill="url(#l)" fill-opacity=".6" rx="4.5"/><path fill="#fff" d="M16.46 31.243h-4.224v2.887h3.883v2.226h-3.883V41H9.539V29h6.922v2.243z"/><defs><linearGradient id="a" x1="18.688" x2="25.772" y1="4" y2="43.852" gradientUnits="userSpaceOnUse"><stop stop-color="#BBB"/><stop offset="1" stop-color="#888"/></linearGradient><linearGradient id="b" x1="17.778" x2="24.218" y1="5" y2="42.963" gradientUnits="userSpaceOnUse"><stop stop-color="#fff"/><stop offset="1" stop-color="#EBEBEB"/></linearGradient><radialGradient id="c" cx="0" cy="0" r="1" gradientTransform="matrix(14.7778 30.0833 -22.1667 11.2812 18.944 14.896)" gradientUnits="userSpaceOnUse"><stop offset=".177" stop-color="#fff"/><stop offset="1" stop-color="#EFEFEF"/></radialGradient><radialGradient id="d" cx="0" cy="0" r="1" gradientTransform="matrix(-11.4446 -19 17.3738 -9.66779 28.838 37.5)" gradientUnits="userSpaceOnUse"><stop offset=".008" stop-color="#1A7F7C"/><stop offset=".45" stop-color="#14717C"/><stop offset=".803" stop-color="#08567B"/></radialGradient><radialGradient id="e" cx="0" cy="0" r="1" gradientTransform="matrix(-7.47799 -7.1875 5.79017 -5.56296 19.995 23.5)" gradientUnits="userSpaceOnUse"><stop stop-color="#06517B"/><stop offset=".992" stop-color="#06517B" stop-opacity="0"/></radialGradient><linearGradient id="f" x1="15.405" x2="34.657" y1="24.915" y2="16.748" gradientUnits="userSpaceOnUse"><stop offset=".227" stop-color="#15B4D5"/><stop offset="1" stop-color="#43E5CA"/></linearGradient><linearGradient id="g" x1="19.959" x2="15" y1="19.854" y2="19.854" gradientUnits="userSpaceOnUse"><stop offset=".184" stop-color="#29CBDC" stop-opacity="0"/><stop offset="1" stop-color="#36DFF1"/></linearGradient><linearGradient id="h" x1="25" x2="29.5" y1="15.5" y2="22" gradientUnits="userSpaceOnUse"><stop stop-color="#119FC5"/><stop offset="1" stop-color="#22918B"/></linearGradient><linearGradient id="i" x1="26.071" x2="28.643" y1="16.786" y2="20.5" gradientUnits="userSpaceOnUse"><stop stop-color="#06517B"/><stop offset="1" stop-color="#1A7F7C"/></linearGradient><linearGradient id="j" x1="16.62" x2="18.072" y1="27.357" y2="33.903" gradientUnits="userSpaceOnUse"><stop stop-color="#119FC5"/><stop offset="1" stop-color="#20AC9D"/></linearGradient><radialGradient id="k" cx="0" cy="0" r="1" gradientTransform="rotate(45 -28.678 16.121) scale(28.2843)" gradientUnits="userSpaceOnUse"><stop offset=".063" stop-color="#009BBC"/><stop offset=".591" stop-color="#01657D"/><stop offset=".941" stop-color="#014354"/></radialGradient><radialGradient id="l" cx="0" cy="0" r="1" gradientTransform="matrix(0 14 -15.9375 0 13 37)" gradientUnits="userSpaceOnUse"><stop offset=".567" stop-color="#1E8581" stop-opacity="0"/><stop offset=".974" stop-color="#1ECBE6"/></radialGradient></defs></svg>