<svg xmlns="http://www.w3.org/2000/svg" fill="none" viewBox="0 0 48 48"><path fill="url(#a)" d="M9 8.5A4.5 4.5 0 0 1 13.5 4H30a9 9 0 0 1 9 9v26.5a4.5 4.5 0 0 1-4.5 4.5H18a9 9 0 0 1-9-9V8.5z"/><path fill="url(#b)" d="M10 8.5A3.5 3.5 0 0 1 13.5 5H30a8 8 0 0 1 8 8v26.5a3.5 3.5 0 0 1-3.5 3.5H18a8 8 0 0 1-8-8V8.5z"/><path fill="url(#c)" d="M10 8.5A3.5 3.5 0 0 1 13.5 5H30a8 8 0 0 1 8 8v26.5a3.5 3.5 0 0 1-3.5 3.5H18a8 8 0 0 1-8-8V8.5z"/><defs><linearGradient id="a" x1="18.688" x2="25.772" y1="4" y2="43.852" gradientUnits="userSpaceOnUse"><stop stop-color="#BBB"/><stop offset="1" stop-color="#888"/></linearGradient><linearGradient id="b" x1="17.778" x2="24.218" y1="5" y2="42.963" gradientUnits="userSpaceOnUse"><stop stop-color="#fff"/><stop offset="1" stop-color="#EBEBEB"/></linearGradient><radialGradient id="c" cx="0" cy="0" r="1" gradientTransform="matrix(14.7778 30.0833 -22.1667 11.2812 18.944 14.896)" gradientUnits="userSpaceOnUse"><stop offset=".177" stop-color="#fff"/><stop offset="1" stop-color="#EFEFEF"/></radialGradient></defs></svg>