<svg xmlns="http://www.w3.org/2000/svg" fill="none" viewBox="0 0 48 48"><path fill="url(#a)" d="M4 13.5A4.5 4.5 0 0 1 8.5 9H35a9 9 0 0 1 9 9v16.5a4.5 4.5 0 0 1-4.5 4.5H13a9 9 0 0 1-9-9V13.5z"/><path fill="url(#b)" d="M5 13.5A3.5 3.5 0 0 1 8.5 10H35a8 8 0 0 1 8 8v16.5a3.5 3.5 0 0 1-3.5 3.5H13a8 8 0 0 1-8-8V13.5z"/><path fill="url(#c)" d="M5 13.5A3.5 3.5 0 0 1 8.5 10H35a8 8 0 0 1 8 8v16.5a3.5 3.5 0 0 1-3.5 3.5H13a8 8 0 0 1-8-8V13.5z"/><path fill="url(#d)" fill-rule="evenodd" d="M24 14c-5.523 0-10 4.477-10 10s4.477 10 10 10 10-4.477 10-10-4.477-10-10-10zm-.467 1.816c.294-.31.452-.316.466-.316l.035.005c.062.014.208.073.433.311.305.323.649.87.969 1.67.283.709.525 1.558.706 2.514h-4.284c.18-.956.423-1.805.706-2.514.32-.8.664-1.347.969-1.67zm3.08.612c.45.972.813 2.19 1.054 3.572h3.835a8.52 8.52 0 0 0-5.204-4.186c.11.192.214.397.315.614zm-.247 5.072c.087.788.134 1.627.134 2.5s-.047 1.712-.134 2.5h-4.732A22.853 22.853 0 0 1 21.5 24c0-.873.047-1.712.134-2.5h4.732zM28 24c0 .863-.044 1.701-.126 2.5h4.252c.243-.79.374-1.63.374-2.5 0-.87-.13-1.71-.374-2.5h-4.252c.082.799.126 1.637.126 2.5zm-1.858 4a13.743 13.743 0 0 1-.706 2.514c-.32.8-.664 1.347-.969 1.67-.3.316-.458.316-.467.316-.01 0-.167 0-.467-.316-.305-.323-.649-.87-.969-1.67A13.743 13.743 0 0 1 21.858 28h4.284zM20 24c0 .863.044 1.701.126 2.5h-4.252A8.497 8.497 0 0 1 15.5 24c0-.87.13-1.71.374-2.5h4.252A24.486 24.486 0 0 0 20 24zm1.702-8.186c-.597 1.05-1.074 2.496-1.37 4.186h-3.834a8.52 8.52 0 0 1 5.204-4.186zm0 16.372c-.597-1.05-1.074-2.496-1.37-4.186h-3.834a8.52 8.52 0 0 0 5.204 4.186zM27.667 28c-.295 1.69-.772 3.137-1.369 4.186A8.52 8.52 0 0 0 31.502 28h-3.835z" clip-rule="evenodd"/><defs><linearGradient id="a" x1="16.917" x2="19.97" y1="9" y2="39.528" gradientUnits="userSpaceOnUse"><stop stop-color="#BBB"/><stop offset="1" stop-color="#888"/></linearGradient><linearGradient id="b" x1="15.556" x2="18.184" y1="10" y2="38.536" gradientUnits="userSpaceOnUse"><stop stop-color="#fff"/><stop offset="1" stop-color="#EBEBEB"/></linearGradient><radialGradient id="c" cx="0" cy="0" r="1" gradientTransform="matrix(20.0556 22.1667 -30.0833 8.3125 17.139 17.292)" gradientUnits="userSpaceOnUse"><stop offset=".177" stop-color="#fff"/><stop offset="1" stop-color="#EFEFEF"/></radialGradient><linearGradient id="d" x1="20.136" x2="25.893" y1="16.5" y2="33.761" gradientUnits="userSpaceOnUse"><stop offset="0" stop-color="#597493"/><stop offset="1" stop-color="#0F2F56"/></linearGradient></defs></svg>