<svg xmlns="http://www.w3.org/2000/svg" fill="none" viewBox="0 0 48 48"><path fill="url(#a)" d="M6 10.5A4.5 4.5 0 0110.5 6H33a9 9 0 019 9v22.5a4.5 4.5 0 01-4.5 4.5H15a9 9 0 01-9-9z"/><path fill="url(#b)" d="M7 10.5A3.5 3.5 0 0110.5 7H33a8 8 0 018 8v22.5a3.5 3.5 0 01-3.5 3.5H15a8 8 0 01-8-8z"/><path fill="url(#c)" d="M7 10.5A3.5 3.5 0 0110.5 7H33a8 8 0 018 8v22.5a3.5 3.5 0 01-3.5 3.5H15a8 8 0 01-8-8z"/><path fill="url(#d)" d="M12.046 21.83a3.007 3.007 0 012.427-3.485l12.966-2.299a2.993 2.993 0 013.466 2.44l2.049 11.684a3.007 3.007 0 01-2.427 3.485l-12.966 2.299a2.993 2.993 0 01-3.466-2.44z"/><path fill="url(#e)" d="M15 15a3 3 0 013-3h15a3 3 0 013 3v14a3 3 0 01-3 3H18a3 3 0 01-3-3z"/><path fill="url(#f)" fill-opacity=".6" d="M15 15a3 3 0 013-3h15a3 3 0 013 3v14a3 3 0 01-3 3H18a3 3 0 01-3-3z"/><path fill="#000" d="M32.888 21.183a21 21 0 00-.075-4.801.44.44 0 00-.101-.232.34.34 0 00-.216-.116.34.34 0 00-.236.068.44.44 0 00-.146.205q-.085.239-.164.477-.27.823-.47 1.652a9 9 0 00-.971-.88c-1.42-1.099-2.95-1.905-4.734-2.352-.89-.205-1.878-.332-2.96-.059-1.09.242-2.146 1.192-2.52 2.2-.5 1.056-.375 2.584.241 3.522.582.965 1.319 1.592 2.005 2.179 1.333 1.097 2.902 2.297 2.579 3.097l-.02.064c-.14 0-.423-.074-.687-.183-.605-.244-1.249-.612-1.946-.947-.353-.166-.715-.334-1.17-.45a2.1 2.1 0 00-.82-.06c-.32.033-.73.26-.922.56-.598 1.166-.255 1.878-.163 2.653.056.283.112.524.184.816q.094.37.215.79a.566.566 0 00.682.388.567.567 0 00.407-.67 20 20 0 01-.286-1.525c-.101-.642-.096-1.532.056-1.664.02-.007-.039.029.001.021.039 0 .148.013.277.055.258.081.562.235.865.402.614.338 1.234.748 1.971 1.102.38.168.77.363 1.395.384.31.007.73-.087 1.05-.354a1.7 1.7 0 00.371-.43c.085-.14.147-.279.197-.428.474-1.3-.319-2.575-.931-3.253-.651-.743-1.334-1.313-1.945-1.896-1.271-1.17-2.027-2.277-1.455-3.221 1.037-1.797 4.318-.257 6.2 1.49q.147.13.283.266a21 21 0 00-1.976.174.44.44 0 00-.232.102.34.34 0 00-.113.217.34.34 0 00.068.236.43.43 0 00.207.145q.238.082.477.16 2.153.693 4.354.914l.148.015a.923.923 0 001.026-.833"/><path fill="url(#g)" d="M32.888 21.183a21 21 0 00-.075-4.801.44.44 0 00-.101-.232.34.34 0 00-.216-.116.34.34 0 00-.236.068.44.44 0 00-.146.205q-.085.239-.164.477-.27.823-.47 1.652a9 9 0 00-.971-.88c-1.42-1.099-2.95-1.905-4.734-2.352-.89-.205-1.878-.332-2.96-.059-1.09.242-2.146 1.192-2.52 2.2-.5 1.056-.375 2.584.241 3.522.582.965 1.319 1.592 2.005 2.179 1.333 1.097 2.902 2.297 2.579 3.097l-.02.064c-.14 0-.423-.074-.687-.183-.605-.244-1.249-.612-1.946-.947-.353-.166-.715-.334-1.17-.45a2.1 2.1 0 00-.82-.06c-.32.033-.73.26-.922.56-.598 1.166-.255 1.878-.163 2.653.056.283.112.524.184.816q.094.37.215.79a.566.566 0 00.682.388.567.567 0 00.407-.67 20 20 0 01-.286-1.525c-.101-.642-.096-1.532.056-1.664.02-.007-.039.029.001.021.039 0 .148.013.277.055.258.081.562.235.865.402.614.338 1.234.748 1.971 1.102.38.168.77.363 1.395.384.31.007.73-.087 1.05-.354a1.7 1.7 0 00.371-.43c.085-.14.147-.279.197-.428.474-1.3-.319-2.575-.931-3.253-.651-.743-1.334-1.313-1.945-1.896-1.271-1.17-2.027-2.277-1.455-3.221 1.037-1.797 4.318-.257 6.2 1.49q.147.13.283.266a21 21 0 00-1.976.174.44.44 0 00-.232.102.34.34 0 00-.113.217.34.34 0 00.068.236.43.43 0 00.207.145q.238.082.477.16 2.153.693 4.354.914l.148.015a.923.923 0 001.026-.833"/><defs><linearGradient id="a" x1="17.625" x2="22.472" y1="6" y2="42.354" gradientUnits="userSpaceOnUse"><stop stop-color="#BBB"/><stop offset="1" stop-color="#888"/></linearGradient><linearGradient id="b" x1="16.444" x2="20.745" y1="7" y2="41.407" gradientUnits="userSpaceOnUse"><stop stop-color="#fff"/><stop offset="1" stop-color="#EBEBEB"/></linearGradient><linearGradient id="f" x1="25.85" x2="25.85" y1="12" y2="31.5" gradientUnits="userSpaceOnUse"><stop stop-color="#FFC7A3" stop-opacity=".8"/><stop offset=".186" stop-color="#FFC7A3" stop-opacity="0"/><stop offset=".807" stop-color="#F08AF4" stop-opacity="0"/><stop offset="1" stop-color="#F08AF4" stop-opacity=".9"/></linearGradient><linearGradient id="g" x1=".968" x2="39.096" y1="-8.959" y2="9.251" gradientUnits="userSpaceOnUse"><stop offset=".024" stop-color="#FFC8D7"/><stop offset=".807" stop-color="#fff"/></linearGradient><radialGradient id="c" cx="0" cy="0" r="1" gradientTransform="matrix(17.9444 26.9167 -26.9167 10.0937 17.861 15.854)" gradientUnits="userSpaceOnUse"><stop offset=".177" stop-color="#fff"/><stop offset="1" stop-color="#EFEFEF"/></radialGradient><radialGradient id="d" cx="0" cy="0" r="1" gradientTransform="matrix(-8.44042 12.3596 -12.2919 -8.48691 24.139 21.91)" gradientUnits="userSpaceOnUse"><stop offset=".434" stop-color="#5C1488"/><stop offset="1" stop-color="#844BFA"/></radialGradient><radialGradient id="e" cx="0" cy="0" r="1" gradientTransform="matrix(24.1499 22.0898 -25.3748 21.0234 11.85 12)" gradientUnits="userSpaceOnUse"><stop offset=".087" stop-color="#FFC470"/><stop offset=".302" stop-color="#FF835C"/><stop offset=".584" stop-color="#F24A9D"/><stop offset=".953" stop-color="#B339F0"/></radialGradient></defs></svg>