<svg xmlns="http://www.w3.org/2000/svg" fill="none" viewBox="0 0 48 48"><path fill="url(#a)" d="M9 8.5A4.5 4.5 0 0 1 13.5 4H30a9 9 0 0 1 9 9v26.5a4.5 4.5 0 0 1-4.5 4.5h-21A4.5 4.5 0 0 1 9 39.5v-31z"/><path fill="url(#b)" d="M13.5 5A3.5 3.5 0 0 0 10 8.5v28.171A4.491 4.491 0 0 1 13.5 35h21a3.5 3.5 0 0 0 3.5-3.5V13a8 8 0 0 0-8-8H13.5z"/><path fill="url(#c)" d="M13.5 5A3.5 3.5 0 0 0 10 8.5v28.171A4.491 4.491 0 0 1 13.5 35h21a3.5 3.5 0 0 0 3.5-3.5V13a8 8 0 0 0-8-8H13.5z"/><path fill="url(#d)" d="M38 34.329A4.491 4.491 0 0 1 34.5 36h-21a3.5 3.5 0 1 0 0 7h21a3.5 3.5 0 0 0 3.5-3.5v-1.171A4.491 4.491 0 0 1 34.5 40h-21a.5.5 0 0 1 0-1h21a3.5 3.5 0 0 0 3.5-3.5v-1.171z"/><path fill="url(#e)" d="M38 34.329A4.491 4.491 0 0 1 34.5 36h-21a3.5 3.5 0 1 0 0 7h21a3.5 3.5 0 0 0 3.5-3.5v-1.171A4.491 4.491 0 0 1 34.5 40h-21a.5.5 0 0 1 0-1h21a3.5 3.5 0 0 0 3.5-3.5v-1.171z"/><path fill="url(#f)" d="M26.472 12.034a.75.75 0 0 1 .494.938l-4.5 14.5a.75.75 0 1 1-1.432-.444l4.5-14.5a.75.75 0 0 1 .938-.494z"/><path fill="url(#g)" d="M17.78 15.97a.75.75 0 0 1 0 1.06L14.81 20l2.97 2.97a.75.75 0 0 1-1.06 1.06l-3.5-3.5a.75.75 0 0 1 0-1.06l3.5-3.5a.75.75 0 0 1 1.06 0z"/><path fill="url(#h)" d="M30.22 15.97a.75.75 0 0 1 1.06 0l3.5 3.5a.75.75 0 0 1 0 1.06l-3.5 3.5a.75.75 0 1 1-1.06-1.06L33.19 20l-2.97-2.97a.75.75 0 0 1 0-1.06z"/><defs><linearGradient id="a" x1="18.688" x2="25.772" y1="4" y2="43.852" gradientUnits="userSpaceOnUse"><stop stop-color="#BBB"/><stop offset="1" stop-color="#888"/></linearGradient><linearGradient id="b" x1="17.778" x2="24.218" y1="5" y2="42.963" gradientUnits="userSpaceOnUse"><stop stop-color="#fff"/><stop offset="1" stop-color="#EBEBEB"/></linearGradient><radialGradient id="c" cx="0" cy="0" r="1" gradientTransform="matrix(14.7778 30.0833 -22.1667 11.2812 18.944 14.896)" gradientUnits="userSpaceOnUse"><stop offset=".177" stop-color="#fff"/><stop offset="1" stop-color="#EFEFEF"/></radialGradient><linearGradient id="d" x1="17.778" x2="24.218" y1="5" y2="42.963" gradientUnits="userSpaceOnUse"><stop stop-color="#fff"/><stop offset="1" stop-color="#EBEBEB"/></linearGradient><radialGradient id="e" cx="0" cy="0" r="1" gradientTransform="matrix(14.7778 30.0833 -22.1667 11.2812 18.944 14.896)" gradientUnits="userSpaceOnUse"><stop offset=".177" stop-color="#fff"/><stop offset="1" stop-color="#EFEFEF"/></radialGradient><linearGradient id="f" x1="17.813" x2="24.903" y1="9.333" y2="28.148" gradientUnits="userSpaceOnUse"><stop offset="0" stop-color="#597493"/><stop offset="1" stop-color="#0F2F56"/></linearGradient><linearGradient id="g" x1="17.813" x2="24.903" y1="9.333" y2="28.148" gradientUnits="userSpaceOnUse"><stop offset="0" stop-color="#597493"/><stop offset="1" stop-color="#0F2F56"/></linearGradient><linearGradient id="h" x1="17.813" x2="24.903" y1="9.333" y2="28.148" gradientUnits="userSpaceOnUse"><stop offset="0" stop-color="#597493"/><stop offset="1" stop-color="#0F2F56"/></linearGradient></defs></svg>