<svg xmlns="http://www.w3.org/2000/svg" fill="none" viewBox="0 0 48 48"><path fill="url(#a)" d="M4 13.5A4.5 4.5 0 0 1 8.5 9H35a9 9 0 0 1 9 9v16.5a4.5 4.5 0 0 1-4.5 4.5H13a9 9 0 0 1-9-9V13.5z"/><path fill="url(#b)" d="M5 13.5A3.5 3.5 0 0 1 8.5 10H35a8 8 0 0 1 8 8v16.5a3.5 3.5 0 0 1-3.5 3.5H13a8 8 0 0 1-8-8V13.5z"/><path fill="url(#c)" d="M5 13.5A3.5 3.5 0 0 1 8.5 10H35a8 8 0 0 1 8 8v16.5a3.5 3.5 0 0 1-3.5 3.5H13a8 8 0 0 1-8-8V13.5z"/><path fill="url(#d)" fill-rule="evenodd" d="M24 14c5.523 0 10 4.477 10 10s-4.477 10-10 10a.75.75 0 0 1 0-1.5c.137 0 .374-.077.689-.456.31-.374.624-.961.902-1.752.232-.66.428-1.433.579-2.292H24a.75.75 0 0 1 0-1.5h2.375a24.867 24.867 0 0 0 0-5h-4.75A24.78 24.78 0 0 0 21.5 24a.75.75 0 0 1-1.5 0c0-.862.04-1.7.117-2.5h-4.243A8.498 8.498 0 0 0 15.5 24a.75.75 0 0 1-1.5 0c0-5.523 4.477-10 10-10zm3.69 14a16.487 16.487 0 0 1-.684 2.79 9.165 9.165 0 0 1-.599 1.361A8.518 8.518 0 0 0 31.5 28h-3.81zm.193-6.5a26.498 26.498 0 0 1 0 5h4.243c.243-.79.374-1.63.374-2.5 0-.87-.131-1.71-.374-2.5h-4.243zm-6.291-5.652A8.519 8.519 0 0 0 16.5 20h3.81c.168-1.035.4-1.978.684-2.79.175-.495.374-.955.598-1.362zM24 15.5c-.137 0-.374.077-.689.456-.31.374-.624.961-.902 1.752-.232.66-.428 1.433-.579 2.292h4.34c-.15-.86-.348-1.633-.58-2.292-.277-.79-.59-1.378-.901-1.752-.315-.379-.552-.456-.689-.456zm2.407.348c.224.407.424.866.599 1.363.285.811.516 1.754.684 2.789h3.81a8.518 8.518 0 0 0-5.093-4.152z" clip-rule="evenodd"/><path fill="url(#e)" d="M22 32.25a.75.75 0 0 1-1.5 0v-3.69l-3.97 3.97a.75.75 0 0 1-1.06-1.06l3.97-3.97h-3.69a.75.75 0 0 1 0-1.5h5.5a.75.75 0 0 1 .75.75v5.5z"/><defs><linearGradient id="a" x1="16.917" x2="19.97" y1="9" y2="39.528" gradientUnits="userSpaceOnUse"><stop stop-color="#BBB"/><stop offset="1" stop-color="#888"/></linearGradient><linearGradient id="b" x1="15.556" x2="18.184" y1="10" y2="38.536" gradientUnits="userSpaceOnUse"><stop stop-color="#fff"/><stop offset="1" stop-color="#EBEBEB"/></linearGradient><radialGradient id="c" cx="0" cy="0" r="1" gradientTransform="matrix(20.0556 22.1667 -30.0833 8.3125 17.139 17.292)" gradientUnits="userSpaceOnUse"><stop offset=".177" stop-color="#fff"/><stop offset="1" stop-color="#EFEFEF"/></radialGradient><linearGradient id="d" x1="18.5" x2="28.98" y1="14" y2="31.754" gradientUnits="userSpaceOnUse"><stop offset="0" stop-color="#597493"/><stop offset="1" stop-color="#0F2F56"/></linearGradient><linearGradient id="e" x1="18.5" x2="28.98" y1="14" y2="31.754" gradientUnits="userSpaceOnUse"><stop offset="0" stop-color="#597493"/><stop offset="1" stop-color="#0F2F56"/></linearGradient></defs></svg>