<svg xmlns="http://www.w3.org/2000/svg" fill="none" viewBox="0 0 48 48"><path fill="url(#a)" d="M9 8.5A4.5 4.5 0 0 1 13.5 4H30a9 9 0 0 1 9 9v26.5a4.5 4.5 0 0 1-4.5 4.5H18a9 9 0 0 1-9-9V8.5z"/><path fill="url(#b)" d="M10 8.5A3.5 3.5 0 0 1 13.5 5H30a8 8 0 0 1 8 8v26.5a3.5 3.5 0 0 1-3.5 3.5H18a8 8 0 0 1-8-8V8.5z"/><path fill="url(#c)" d="M10 8.5A3.5 3.5 0 0 1 13.5 5H30a8 8 0 0 1 8 8v26.5a3.5 3.5 0 0 1-3.5 3.5H18a8 8 0 0 1-8-8V8.5z"/><path fill="url(#d)" fill-rule="evenodd" d="M24 14c5.523 0 10 4.477 10 10s-4.477 10-10 10H14V24c0-5.523 4.477-10 10-10zm0 6a4 4 0 0 0-4 4v4h4a4 4 0 0 0 0-8z" clip-rule="evenodd"/><path fill="url(#e)" d="M34 24c0 5.523-4.477 10-10 10H14a6 6 0 0 1 5.692-5.992L20 28h4a4 4 0 0 0 3.994-3.794L28 24h6z"/><path fill="url(#f)" fill-opacity=".56" d="M34 24c0 5.523-4.477 10-10 10H14a6 6 0 0 1 5.692-5.992L20 28h4a4 4 0 0 0 3.994-3.794L28 24h6z"/><path fill="url(#g)" fill-opacity=".1" d="M34 24c0 5.523-4.477 10-10 10H14a6 6 0 0 1 5.692-5.992L20 28h4a4 4 0 0 0 3.994-3.794L28 24h6z"/><path fill="url(#h)" d="M24 14a9.97 9.97 0 0 1 7.071 2.929l-4.243 4.243A4 4 0 0 0 20 24v4l-.008.309A6 6 0 0 1 14 34V24c0-5.523 4.477-10 10-10z"/><path fill="url(#i)" d="M24 14a9.97 9.97 0 0 1 7.071 2.929l-4.243 4.243A4 4 0 0 0 20 24v4l-.008.309A6 6 0 0 1 14 34V24c0-5.523 4.477-10 10-10z"/><defs><linearGradient id="a" x1="18.688" x2="25.772" y1="4" y2="43.852" gradientUnits="userSpaceOnUse"><stop stop-color="#BBB"/><stop offset="1" stop-color="#888"/></linearGradient><linearGradient id="b" x1="17.778" x2="24.218" y1="5" y2="42.963" gradientUnits="userSpaceOnUse"><stop stop-color="#fff"/><stop offset="1" stop-color="#EBEBEB"/></linearGradient><radialGradient id="c" cx="0" cy="0" r="1" gradientTransform="matrix(14.7778 30.0833 -22.1667 11.2812 18.944 14.896)" gradientUnits="userSpaceOnUse"><stop offset=".177" stop-color="#fff"/><stop offset="1" stop-color="#EFEFEF"/></radialGradient><linearGradient id="d" x1="26.2" x2="22.9" y1="21.1" y2="34.6" gradientUnits="userSpaceOnUse"><stop stop-color="#9237E3"/><stop offset="1" stop-color="#48E6F3"/></linearGradient><linearGradient id="e" x1="20.5" x2="29.3" y1="32.5" y2="30.5" gradientUnits="userSpaceOnUse"><stop stop-color="#51E6FF"/><stop offset="1" stop-color="#71D4FF" stop-opacity="0"/></linearGradient><radialGradient id="f" cx="0" cy="0" r="1" gradientTransform="matrix(4 2.75 -4.83318 7.0301 17.5 29.75)" gradientUnits="userSpaceOnUse"><stop/><stop offset=".7" stop-opacity="0"/></radialGradient><radialGradient id="g" cx="0" cy="0" r="1" gradientTransform="matrix(7.4 4.6 -8.08463 13.0057 16.3 29)" gradientUnits="userSpaceOnUse"><stop offset=".328"/><stop offset=".604" stop-opacity="0"/></radialGradient><linearGradient id="h" x1="18.094" x2="23.239" y1="24.767" y2="17.56" gradientUnits="userSpaceOnUse"><stop stop-color="#6D05E8"/><stop offset="1" stop-color="#AB5ADD" stop-opacity="0"/></linearGradient><radialGradient id="i" cx="0" cy="0" r="1" gradientTransform="matrix(13.3796 -2.31448 6.0378 35.4522 12.303 20.239)" gradientUnits="userSpaceOnUse"><stop stop-color="#6D05E8"/><stop offset="1" stop-color="#6D05E8" stop-opacity="0"/></radialGradient></defs></svg>