<svg xmlns="http://www.w3.org/2000/svg" fill="none" viewBox="0 0 48 48"><path fill="url(#a)" d="M4 13.5A4.5 4.5 0 0 1 8.5 9H35a9 9 0 0 1 9 9v16.5a4.5 4.5 0 0 1-4.5 4.5H13a9 9 0 0 1-9-9V13.5z"/><path fill="url(#b)" d="M5 13.5A3.5 3.5 0 0 1 8.5 10H35a8 8 0 0 1 8 8v16.5a3.5 3.5 0 0 1-3.5 3.5H13a8 8 0 0 1-8-8V13.5z"/><path fill="url(#c)" d="M5 13.5A3.5 3.5 0 0 1 8.5 10H35a8 8 0 0 1 8 8v16.5a3.5 3.5 0 0 1-3.5 3.5H13a8 8 0 0 1-8-8V13.5z"/><path fill="url(#d)" d="M35 30a2 2 0 0 1-2 2h-9.418c-1.306-4.616-5.547-8-10.582-8v-5h22v11z"/><path fill="url(#e)" d="M33 16a2 2 0 0 1 2 2v2H13v-2a2 2 0 0 1 2-2h18z"/><path fill="#F3F3F3" d="M19.25 35a6.25 6.25 0 1 1-12.5 0 6.25 6.25 0 0 1 12.5 0z"/><path fill="url(#f)" fill-rule="evenodd" d="M13 25c5.523 0 10 4.477 10 10s-4.477 10-10 10H3V35c0-5.523 4.477-10 10-10zm0 6a4 4 0 0 0-4 4v4h4a4 4 0 0 0 0-8z" clip-rule="evenodd"/><path fill="url(#g)" d="M23 35c0 5.523-4.477 10-10 10H3a6 6 0 0 1 6-6h4a4 4 0 0 0 3.994-3.794L17 35h6z"/><path fill="url(#h)" fill-opacity=".56" d="M23 35c0 5.523-4.477 10-10 10H3a6 6 0 0 1 6-6h4a4 4 0 0 0 3.994-3.794L17 35h6z"/><path fill="url(#i)" fill-opacity=".1" d="M23 35c0 5.523-4.477 10-10 10H3a6 6 0 0 1 6-6h4a4 4 0 0 0 3.994-3.794L17 35h6z"/><path fill="url(#j)" d="M13 25a9.97 9.97 0 0 1 7.071 2.929l-4.243 4.243A4 4 0 0 0 9 35v4a6 6 0 0 1-6 6V35c0-5.523 4.477-10 10-10z"/><path fill="url(#k)" d="M13 25a9.97 9.97 0 0 1 7.071 2.929l-4.243 4.243A4 4 0 0 0 9 35v4a6 6 0 0 1-6 6V35c0-5.523 4.477-10 10-10z"/><defs><linearGradient id="a" x1="16.917" x2="19.97" y1="9" y2="39.528" gradientUnits="userSpaceOnUse"><stop stop-color="#BBB"/><stop offset="1" stop-color="#888"/></linearGradient><linearGradient id="b" x1="15.556" x2="18.184" y1="10" y2="38.536" gradientUnits="userSpaceOnUse"><stop stop-color="#fff"/><stop offset="1" stop-color="#EBEBEB"/></linearGradient><radialGradient id="c" cx="0" cy="0" r="1" gradientTransform="matrix(20.0556 22.1667 -30.0833 8.3125 17.139 17.292)" gradientUnits="userSpaceOnUse"><stop offset=".177" stop-color="#fff"/><stop offset="1" stop-color="#EFEFEF"/></radialGradient><linearGradient id="d" x1="24" x2="24" y1="18.675" y2="33.3" gradientUnits="userSpaceOnUse"><stop stop-color="#D0BEFE"/><stop offset="1" stop-color="#C2AAFE"/></linearGradient><linearGradient id="e" x1="24" x2="24" y1="16" y2="20" gradientUnits="userSpaceOnUse"><stop stop-color="#AB85FF"/><stop offset="1" stop-color="#9354FF"/></linearGradient><linearGradient id="f" x1="15.2" x2="11.9" y1="32.1" y2="45.6" gradientUnits="userSpaceOnUse"><stop stop-color="#9237E3"/><stop offset="1" stop-color="#48E6F3"/></linearGradient><linearGradient id="g" x1="9.5" x2="18.3" y1="43.5" y2="41.5" gradientUnits="userSpaceOnUse"><stop stop-color="#51E6FF"/><stop offset="1" stop-color="#71D4FF" stop-opacity="0"/></linearGradient><radialGradient id="h" cx="0" cy="0" r="1" gradientTransform="matrix(4 2.75 -4.83318 7.0301 6.5 40.75)" gradientUnits="userSpaceOnUse"><stop/><stop offset=".7" stop-opacity="0"/></radialGradient><radialGradient id="i" cx="0" cy="0" r="1" gradientTransform="matrix(7.4 4.6 -8.08463 13.0057 5.3 40)" gradientUnits="userSpaceOnUse"><stop offset=".328"/><stop offset=".604" stop-opacity="0"/></radialGradient><linearGradient id="j" x1="7.094" x2="12.239" y1="35.767" y2="28.56" gradientUnits="userSpaceOnUse"><stop stop-color="#6D05E8"/><stop offset="1" stop-color="#AB5ADD" stop-opacity="0"/></linearGradient><radialGradient id="k" cx="0" cy="0" r="1" gradientTransform="matrix(13.3796 -2.31448 6.0378 35.4522 1.303 31.239)" gradientUnits="userSpaceOnUse"><stop stop-color="#6D05E8"/><stop offset="1" stop-color="#6D05E8" stop-opacity="0"/></radialGradient></defs></svg>