<svg xmlns="http://www.w3.org/2000/svg" fill="none" viewBox="0 0 48 48"><path fill="url(#a)" d="M9 8.5A4.5 4.5 0 0 1 13.5 4H30a9 9 0 0 1 9 9v26.5a4.5 4.5 0 0 1-4.5 4.5H18a9 9 0 0 1-9-9V8.5z"/><path fill="url(#b)" d="M10 8.5A3.5 3.5 0 0 1 13.5 5H30a8 8 0 0 1 8 8v26.5a3.5 3.5 0 0 1-3.5 3.5H18a8 8 0 0 1-8-8V8.5z"/><path fill="url(#c)" d="M10 8.5A3.5 3.5 0 0 1 13.5 5H30a8 8 0 0 1 8 8v26.5a3.5 3.5 0 0 1-3.5 3.5H18a8 8 0 0 1-8-8V8.5z"/><path fill="#86D562" d="M18.5 15H15v3.5h3.5V15z"/><path fill="#52A535" d="M21.5 15H18v3.5h3.5V15z"/><path fill="#6CC349" d="M24.5 15H21v3.5h3.5V15z"/><path fill="#86D562" d="M27.5 15H24v3.5h3.5V15z"/><path fill="#6CC349" d="M30.5 15H27v3.5h3.5V15z"/><path fill="#52A535" d="M33 15h-3v3.5h3V15zm-14.5 3H15v3.5h3.5V18z"/><path fill="#66412C" d="M21.5 18H18v3.5h3.5V18z"/><path fill="#52A535" d="M24.5 18H21v3.5h3.5V18z"/><path fill="#3C8527" d="M27.5 18H24v3.5h3.5V18z"/><path fill="#52A535" d="M30.5 18H27v3.5h3.5V18z"/><path fill="#6CC349" d="M33 18h-3v3.5h3V18z"/><path fill="#66412C" d="M18.5 21H15v3.5h3.5V21z"/><path fill="#998F8B" d="M21.5 21H18v3.5h3.5V21z"/><path fill="#66412C" d="M24.5 21H21v3.5h3.5V21z"/><path fill="#66412C" d="M27.5 21H24v3.5h3.5V21z"/><path fill="#6CC349" d="M30.5 21H27v3.5h3.5V21z"/><path fill="#66412C" d="M33 21h-3v3.5h3V21z"/><path fill="#976746" d="M18.5 24H15v3.5h3.5V24z"/><path fill="#805539" d="M21.5 24H18v3.5h3.5V24z"/><path fill="#976746" d="M24.5 24H21v3.5h3.5V24z"/><path fill="#AD7A54" d="M27.5 24H24v3.5h3.5V24z"/><path fill="#66412C" d="M30.5 24H27v3.5h3.5V24z"/><path fill="#805539" d="M33 24h-3v3.5h3V24zm-14.5 3H15v3.5h3.5V27z"/><path fill="#66412C" d="M21.5 27H18v3.5h3.5V27z"/><path fill="#66412C" d="M24.5 27H21v3.5h3.5V27z"/><path fill="#976746" d="M27.5 27H24v3.5h3.5V27z"/><path fill="#805539" d="M30.5 27H27v3.5h3.5V27z"/><path fill="#AD7A54" d="M33 27h-3v3.5h3V27zm-14.5 3H15v3h3.5v-3z"/><path fill="#805539" d="M21.5 30H18v3h3.5v-3z"/><path fill="#66412C" d="M24.5 30H21v3h3.5v-3z"/><path fill="#66412C" d="M27.5 30H24v3h3.5v-3z"/><path fill="#998F8B" d="M30.5 30H27v3h3.5v-3z"/><path fill="#805539" d="M33 30h-3v3h3v-3z"/><defs><linearGradient id="a" x1="18.688" x2="25.772" y1="4" y2="43.852" gradientUnits="userSpaceOnUse"><stop stop-color="#BBB"/><stop offset="1" stop-color="#888"/></linearGradient><linearGradient id="b" x1="17.778" x2="24.218" y1="5" y2="42.963" gradientUnits="userSpaceOnUse"><stop stop-color="#fff"/><stop offset="1" stop-color="#EBEBEB"/></linearGradient><radialGradient id="c" cx="0" cy="0" r="1" gradientTransform="matrix(14.7778 30.0833 -22.1667 11.2812 18.944 14.896)" gradientUnits="userSpaceOnUse"><stop offset=".177" stop-color="#fff"/><stop offset="1" stop-color="#EFEFEF"/></radialGradient></defs></svg>