<svg xmlns="http://www.w3.org/2000/svg" fill="none" viewBox="0 0 48 48"><path fill="url(#a)" d="M6 10.5A4.5 4.5 0 0 1 10.5 6H33a9 9 0 0 1 9 9v22.5a4.5 4.5 0 0 1-4.5 4.5H15a9 9 0 0 1-9-9V10.5z"/><path fill="url(#b)" d="M7 10.5A3.5 3.5 0 0 1 10.5 7H33a8 8 0 0 1 8 8v22.5a3.5 3.5 0 0 1-3.5 3.5H15a8 8 0 0 1-8-8V10.5z"/><path fill="url(#c)" d="M7 10.5A3.5 3.5 0 0 1 10.5 7H33a8 8 0 0 1 8 8v22.5a3.5 3.5 0 0 1-3.5 3.5H15a8 8 0 0 1-8-8V10.5z"/><path fill="url(#d)" fill-rule="evenodd" d="M25.024 15.199a2.75 2.75 0 0 0-2.05 0l-6.254 2.513a2.75 2.75 0 0 0-1.725 2.551v7.464a2.75 2.75 0 0 0 1.721 2.55L22.97 32.8c.66.266 1.398.266 2.058 0l6.254-2.522a2.75 2.75 0 0 0 1.721-2.55v-7.465a2.75 2.75 0 0 0-1.724-2.551l-6.255-2.513zm-8.517 4.89a1.263 1.263 0 0 0-.012.174v7.464c0 .51.31.969.782 1.16l6.255 2.522c.3.12.635.12.935 0l6.254-2.523c.473-.19.782-.65.782-1.159v-7.464c0-.058-.004-.116-.012-.173l-6.549 3.024a2.04 2.04 0 0 1-.2.081v6.164a.75.75 0 1 1-1.5 0V23.19a2.226 2.226 0 0 1-.186-.076l-6.55-3.024z" clip-rule="evenodd"/><defs><linearGradient id="a" x1="17.625" x2="22.472" y1="6" y2="42.354" gradientUnits="userSpaceOnUse"><stop stop-color="#BBB"/><stop offset="1" stop-color="#888"/></linearGradient><linearGradient id="b" x1="16.444" x2="20.745" y1="7" y2="41.407" gradientUnits="userSpaceOnUse"><stop stop-color="#fff"/><stop offset="1" stop-color="#EBEBEB"/></linearGradient><radialGradient id="c" cx="0" cy="0" r="1" gradientTransform="matrix(17.9444 26.9167 -26.9167 10.0937 17.861 15.854)" gradientUnits="userSpaceOnUse"><stop offset=".177" stop-color="#fff"/><stop offset="1" stop-color="#EFEFEF"/></radialGradient><linearGradient id="d" x1="17.567" x2="28.124" y1="10.491" y2="32.561" gradientUnits="userSpaceOnUse"><stop offset="0" stop-color="#597493"/><stop offset="1" stop-color="#0F2F56"/></linearGradient></defs></svg>