<svg xmlns="http://www.w3.org/2000/svg" fill="none" viewBox="0 0 48 48"><path fill="url(#a)" d="M4 13.5A4.5 4.5 0 0 1 8.5 9H35a9 9 0 0 1 9 9v16.5a4.5 4.5 0 0 1-4.5 4.5H13a9 9 0 0 1-9-9V13.5z"/><path fill="url(#b)" d="M5 13.5A3.5 3.5 0 0 1 8.5 10H35a8 8 0 0 1 8 8v16.5a3.5 3.5 0 0 1-3.5 3.5H13a8 8 0 0 1-8-8V13.5z"/><path fill="url(#c)" d="M5 13.5A3.5 3.5 0 0 1 8.5 10H35a8 8 0 0 1 8 8v16.5a3.5 3.5 0 0 1-3.5 3.5H13a8 8 0 0 1-8-8V13.5z"/><path fill="#33C481" d="M26 15a1 1 0 0 1 1 1v5l-5.836.973c-.109.018-.22.018-.328 0L15 21v-5a1 1 0 0 1 1-1h10z"/><path fill="#21A366" d="M29 21a1 1 0 0 1 1 1v5l-5 1-1.29-.258A5.5 5.5 0 0 0 18.5 24H15v-3h14z"/><path fill="#185C37" d="M32 27a1 1 0 0 1 1 1v4a1 1 0 0 1-1 1h-8v-3.5c0-.9-.218-1.75-.602-2.5H32z"/><rect width="20" height="20" x="3" y="25" fill="#107C41" rx="4.5"/><path fill="#fff" d="M11.636 37.092V41H8.94V29h4.167c1.492 0 2.627.326 3.406.98.785.652 1.178 1.62 1.178 2.903 0 1.322-.44 2.354-1.32 3.096-.873.742-2.048 1.113-3.523 1.113h-1.21zm0-6.017v3.942h1.128c.668 0 1.182-.176 1.544-.528.362-.35.543-.856.543-1.514 0-.608-.178-1.077-.534-1.406-.351-.33-.855-.494-1.512-.494h-1.169z"/><defs><linearGradient id="a" x1="16.917" x2="19.97" y1="9" y2="39.528" gradientUnits="userSpaceOnUse"><stop stop-color="#BBB"/><stop offset="1" stop-color="#888"/></linearGradient><linearGradient id="b" x1="15.556" x2="18.184" y1="10" y2="38.536" gradientUnits="userSpaceOnUse"><stop stop-color="#fff"/><stop offset="1" stop-color="#EBEBEB"/></linearGradient><radialGradient id="c" cx="0" cy="0" r="1" gradientTransform="matrix(20.0556 22.1667 -30.0833 8.3125 17.139 17.292)" gradientUnits="userSpaceOnUse"><stop offset=".177" stop-color="#fff"/><stop offset="1" stop-color="#EFEFEF"/></radialGradient></defs></svg>