<svg xmlns="http://www.w3.org/2000/svg" fill="none" viewBox="0 0 48 48"><path fill="url(#a)" d="M4 13.5A4.5 4.5 0 0 1 8.5 9H35a9 9 0 0 1 9 9v16.5a4.5 4.5 0 0 1-4.5 4.5H13a9 9 0 0 1-9-9V13.5z"/><path fill="url(#b)" d="M4 13.5A4.5 4.5 0 0 1 8.5 9H35a9 9 0 0 1 9 9v16.5a4.5 4.5 0 0 1-4.5 4.5H13a9 9 0 0 1-9-9V13.5z"/><path stroke="url(#c)" stroke-dasharray="6.5 4" stroke-linecap="round" d="M4.5 13.5a4 4 0 0 1 4-4H35a8.5 8.5 0 0 1 8.5 8.5v16.5a4 4 0 0 1-4 4H13A8.5 8.5 0 0 1 4.5 30V13.5z"/><path fill="#33C481" d="M26 15a1 1 0 0 1 1 1v5l-5.836.973c-.109.018-.22.018-.328 0L15 21v-5a1 1 0 0 1 1-1h10z"/><path fill="#21A366" d="M29 21a1 1 0 0 1 1 1v5l-5 1-1.29-.258A5.5 5.5 0 0 0 18.5 24H15v-3h14z"/><path fill="#185C37" d="M32 27a1 1 0 0 1 1 1v4a1 1 0 0 1-1 1h-8v-3.5c0-.9-.218-1.75-.602-2.5H32z"/><rect width="20" height="20" x="3" y="25" fill="#107C41" rx="4.5"/><path fill="#fff" d="M11.636 37.092V41H8.94V29h4.167c1.492 0 2.627.326 3.406.98.785.652 1.178 1.62 1.178 2.903 0 1.322-.44 2.354-1.32 3.096-.874.742-2.048 1.113-3.523 1.113h-1.21zm0-6.017v3.942h1.127c.668 0 1.183-.176 1.545-.528.362-.35.543-.856.543-1.514 0-.608-.178-1.077-.535-1.406-.35-.33-.854-.494-1.51-.494h-1.17z"/><defs><linearGradient id="a" x1="15.111" x2="17.977" y1="9" y2="39.565" gradientUnits="userSpaceOnUse"><stop stop-color="#fff"/><stop offset="1" stop-color="#EBEBEB"/></linearGradient><radialGradient id="b" cx="0" cy="0" r="1" gradientTransform="matrix(21.1111 23.75 -31.6667 8.90625 16.778 16.813)" gradientUnits="userSpaceOnUse"><stop offset=".177" stop-color="#fff"/><stop offset="1" stop-color="#EFEFEF"/></radialGradient><linearGradient id="c" x1="17.094" x2="20.02" y1="9.5" y2="39.015" gradientUnits="userSpaceOnUse"><stop stop-color="#BBB"/><stop offset="1" stop-color="#888"/></linearGradient></defs></svg>