<svg xmlns="http://www.w3.org/2000/svg" fill="none" viewBox="0 0 48 48"><path fill="url(#a)" d="M35.807 40.807A4.502 4.502 0 0 1 31.5 44H21c-6.627 0-12-5.373-12-12V11.5a4.502 4.502 0 0 1 3.193-4.307A4.502 4.502 0 0 1 16.5 4H30a9 9 0 0 1 9 9v23.5a4.502 4.502 0 0 1-3.193 4.307z"/><path fill="url(#b)" d="M12 8.501v23.5a9 9 0 0 0 9 9h13.5c.055 0 .11-.003.164-.005a3.5 3.5 0 0 1-3.164 2.005H21c-6.075 0-11-4.925-11-11v-20.5c0-1.398.82-2.604 2.004-3.165-.002.054-.004.11-.004.165zM30 5a8 8 0 0 1 8 8v23.5a3.5 3.5 0 0 1-3.5 3.5H21a8 8 0 0 1-8-8V8.5A3.5 3.5 0 0 1 16.5 5H30z"/><path fill="url(#c)" d="M12 8.501v23.5a9 9 0 0 0 9 9h13.5c.055 0 .11-.003.164-.005a3.5 3.5 0 0 1-3.164 2.005H21c-6.075 0-11-4.925-11-11v-20.5c0-1.398.82-2.604 2.004-3.165-.002.054-.004.11-.004.165zM30 5a8 8 0 0 1 8 8v23.5a3.5 3.5 0 0 1-3.5 3.5H21a8 8 0 0 1-8-8V8.5A3.5 3.5 0 0 1 16.5 5H30z"/><defs><linearGradient id="a" x1="18.688" x2="25.772" y1="4" y2="43.852" gradientUnits="userSpaceOnUse"><stop stop-color="#BBB"/><stop offset="1" stop-color="#888"/></linearGradient><linearGradient id="b" x1="17.778" x2="24.218" y1="5" y2="42.964" gradientUnits="userSpaceOnUse"><stop stop-color="#fff"/><stop offset="1" stop-color="#EBEBEB"/></linearGradient><radialGradient id="c" cx="0" cy="0" r="1" gradientTransform="matrix(14.7778 30.0841 -22.1667 11.2815 18.944 14.896)" gradientUnits="userSpaceOnUse"><stop offset=".177" stop-color="#fff"/><stop offset="1" stop-color="#EFEFEF"/></radialGradient></defs></svg>