<svg xmlns="http://www.w3.org/2000/svg" fill="none" viewBox="0 0 48 48"><path fill="url(#a)" fill-rule="evenodd" d="M34.5 44h-24A4.5 4.5 0 0 1 9 35.256V8.5A4.5 4.5 0 0 1 13.5 4H30a9 9 0 0 1 9 9v26.5a4.5 4.5 0 0 1-4.5 4.5z" clip-rule="evenodd"/><path fill="url(#b)" fill-rule="evenodd" d="M10 8.5A3.5 3.5 0 0 1 13.5 5H30a8 8 0 0 1 8 8v26.5a3.5 3.5 0 1 1-3.5-3.5.5.5 0 0 0 0-1h-24c-.169 0-.336.01-.5.028V8.5zM31.671 36H10.5a3.5 3.5 0 1 0 0 7h21.171A4.491 4.491 0 0 1 30 39.5c0-1.414.652-2.675 1.671-3.5z" clip-rule="evenodd"/><path fill="url(#c)" fill-rule="evenodd" d="M10 8.5A3.5 3.5 0 0 1 13.5 5H30a8 8 0 0 1 8 8v26.5a3.5 3.5 0 1 1-3.5-3.5.5.5 0 0 0 0-1h-24c-.169 0-.336.01-.5.028V8.5zM31.671 36H10.5a3.5 3.5 0 1 0 0 7h21.171A4.491 4.491 0 0 1 30 39.5c0-1.414.652-2.675 1.671-3.5z" clip-rule="evenodd"/><path fill="url(#d)" d="M31.25 26a.75.75 0 0 1 0 1.5h-14.5a.75.75 0 0 1 0-1.5h14.5z"/><path fill="url(#e)" d="M31.25 21a.75.75 0 0 1 0 1.5h-14.5a.75.75 0 0 1 0-1.5h14.5z"/><path fill="url(#f)" d="M31.25 16a.75.75 0 0 1 0 1.5h-14.5a.75.75 0 0 1 0-1.5h14.5z"/><path fill="url(#g)" d="M31.25 11a.75.75 0 0 1 0 1.5h-14.5a.75.75 0 0 1 0-1.5h14.5z"/><defs><linearGradient id="a" x1="16.656" x2="23.131" y1="4" y2="44.065" gradientUnits="userSpaceOnUse"><stop stop-color="#BBB"/><stop offset="1" stop-color="#888"/></linearGradient><linearGradient id="b" x1="15.611" x2="21.458" y1="5" y2="43.16" gradientUnits="userSpaceOnUse"><stop stop-color="#fff"/><stop offset="1" stop-color="#EBEBEB"/></linearGradient><radialGradient id="c" cx="0" cy="0" r="1" gradientTransform="matrix(16.3611 30.0833 -24.5417 11.2812 16.903 14.896)" gradientUnits="userSpaceOnUse"><stop offset=".177" stop-color="#fff"/><stop offset="1" stop-color="#EFEFEF"/></radialGradient><linearGradient id="d" x1="9.333" x2="29.801" y1="-1.692" y2="32.008" gradientUnits="userSpaceOnUse"><stop offset=".371" stop-color="#E15C01"/><stop offset=".762" stop-color="#DA4401"/><stop offset=".944" stop-color="#D83B01"/></linearGradient><linearGradient id="e" x1="9.333" x2="29.801" y1="-1.692" y2="32.008" gradientUnits="userSpaceOnUse"><stop offset=".371" stop-color="#E15C01"/><stop offset=".762" stop-color="#DA4401"/><stop offset=".944" stop-color="#D83B01"/></linearGradient><linearGradient id="f" x1="9.333" x2="29.801" y1="-1.692" y2="32.008" gradientUnits="userSpaceOnUse"><stop offset=".371" stop-color="#E15C01"/><stop offset=".762" stop-color="#DA4401"/><stop offset=".944" stop-color="#D83B01"/></linearGradient><linearGradient id="g" x1="9.333" x2="29.801" y1="-1.692" y2="32.008" gradientUnits="userSpaceOnUse"><stop offset=".371" stop-color="#E15C01"/><stop offset=".762" stop-color="#DA4401"/><stop offset=".944" stop-color="#D83B01"/></linearGradient></defs></svg>