<svg xmlns="http://www.w3.org/2000/svg" fill="none" viewBox="0 0 48 48"><path fill="url(#a)" d="M35.807 40.807A4.502 4.502 0 0 1 31.5 44H21c-6.627 0-12-5.373-12-12V11.5a4.502 4.502 0 0 1 3.193-4.307A4.502 4.502 0 0 1 16.5 4H30a9 9 0 0 1 9 9v23.5a4.502 4.502 0 0 1-3.193 4.307z"/><path fill="url(#b)" d="M12 8.501v23.5a9 9 0 0 0 9 9h13.5c.055 0 .11-.003.164-.005a3.5 3.5 0 0 1-3.164 2.005H21c-6.075 0-11-4.925-11-11v-20.5c0-1.398.82-2.604 2.004-3.165-.002.054-.004.11-.004.165zM30 5a8 8 0 0 1 8 8v23.5a3.5 3.5 0 0 1-3.5 3.5H21a8 8 0 0 1-8-8V8.5A3.5 3.5 0 0 1 16.5 5H30z"/><path fill="url(#c)" d="M12 8.501v23.5a9 9 0 0 0 9 9h13.5c.055 0 .11-.003.164-.005a3.5 3.5 0 0 1-3.164 2.005H21c-6.075 0-11-4.925-11-11v-20.5c0-1.398.82-2.604 2.004-3.165-.002.054-.004.11-.004.165zM30 5a8 8 0 0 1 8 8v23.5a3.5 3.5 0 0 1-3.5 3.5H21a8 8 0 0 1-8-8V8.5A3.5 3.5 0 0 1 16.5 5H30z"/><rect width="20" height="20" x="3" y="25" fill="url(#d)" rx="4.5"/><rect width="20" height="20" x="3" y="25" fill="url(#e)" fill-opacity=".8" rx="4.5"/><path fill="#fff" d="M18.386 41h-2.722l-4.934-7.406c-.14-.223-.256-.416-.351-.577a5.252 5.252 0 0 1-.217-.419h-.034c.012.212.02.48.025.804.006.323.009.703.009 1.138V41H7.615V29h2.906l4.75 7.172c.101.161.198.326.293.493.1.162.192.324.276.486h.033a11.42 11.42 0 0 1-.025-.62 53.586 53.586 0 0 1-.008-1.029V29h2.546v12z"/><path fill="url(#f)" d="M34 31.999a2 2 0 0 1-2.001 2L24 33.996V29.5a5.5 5.5 0 0 0-4.98-5.476A3.981 3.981 0 0 1 21 23.5h13v8.499z"/><path fill="url(#g)" d="M26.5 15.5H34v9a2 2 0 0 1-2 2h-5.5v-11z"/><path fill="url(#h)" d="M32 11a2 2 0 0 1 2.001 2v3.5a2 2 0 0 1-2.001 2h-1a2 2 0 0 0-1.999 2v4a2 2 0 0 1-2.001 2h-3.892A5.493 5.493 0 0 0 18.5 24h-1.496v-9.25a3.75 3.75 0 0 1 3.75-3.75H32z"/><path fill="url(#i)" d="M32 11a2 2 0 0 1 2.001 2v3.5a2 2 0 0 1-2.001 2h-1a2 2 0 0 0-1.999 2v4a2 2 0 0 1-2.001 2h-3.892A5.493 5.493 0 0 0 18.5 24h-1.496v-9.25a3.75 3.75 0 0 1 3.75-3.75H32z"/><defs><linearGradient id="a" x1="18.688" x2="25.772" y1="4" y2="43.852" gradientUnits="userSpaceOnUse"><stop stop-color="#BBB"/><stop offset="1" stop-color="#888"/></linearGradient><linearGradient id="b" x1="17.778" x2="24.218" y1="5" y2="42.964" gradientUnits="userSpaceOnUse"><stop stop-color="#fff"/><stop offset="1" stop-color="#EBEBEB"/></linearGradient><radialGradient id="c" cx="0" cy="0" r="1" gradientTransform="matrix(14.7778 30.0841 -22.1667 11.2815 18.944 14.896)" gradientUnits="userSpaceOnUse"><stop offset=".177" stop-color="#fff"/><stop offset="1" stop-color="#EFEFEF"/></radialGradient><radialGradient id="d" cx="0" cy="0" r="1" gradientTransform="rotate(45 -28.678 16.121) scale(28.2843)" gradientUnits="userSpaceOnUse"><stop offset=".072" stop-color="#AC13EB"/><stop offset=".879" stop-color="#580087"/></radialGradient><radialGradient id="e" cx="0" cy="0" r="1" gradientTransform="matrix(0 14 -16.125 0 13 37)" gradientUnits="userSpaceOnUse"><stop offset=".585" stop-color="#841FB0" stop-opacity="0"/><stop offset=".969" stop-color="#D373FC"/></radialGradient><radialGradient id="f" cx="0" cy="0" r="1" gradientTransform="matrix(28.544 0 0 12.6971 34.475 33)" gradientUnits="userSpaceOnUse"><stop offset=".159" stop-color="#A931D8"/><stop offset=".566" stop-color="#6E1996"/></radialGradient><linearGradient id="g" x1="38.816" x2="28.208" y1="20.97" y2="15.761" gradientUnits="userSpaceOnUse"><stop offset=".217" stop-color="#CA59F7"/><stop offset=".888" stop-color="#691A90"/></linearGradient><linearGradient id="h" x1="35.797" x2="17.005" y1="15.723" y2="15.723" gradientUnits="userSpaceOnUse"><stop offset=".807" stop-color="#DE66FF"/><stop offset="1" stop-color="#FCB1FF"/></linearGradient><radialGradient id="i" cx="0" cy="0" r="1" gradientTransform="matrix(-9.04843 14.9809 -26.5489 -15.1911 36.295 9.904)" gradientUnits="userSpaceOnUse"><stop stop-color="#FFC7A3"/><stop offset=".831" stop-color="#DE67FD" stop-opacity="0"/></radialGradient></defs></svg>