<svg xmlns="http://www.w3.org/2000/svg" fill="none" viewBox="0 0 48 48"><path fill="url(#a)" d="M4 13.5A4.5 4.5 0 018.5 9H35a9 9 0 019 9v16.5a4.5 4.5 0 01-4.5 4.5H13a9 9 0 01-9-9z"/><path fill="url(#b)" d="M5 13.5A3.5 3.5 0 018.5 10H35a8 8 0 018 8v16.5a3.5 3.5 0 01-3.5 3.5H13a8 8 0 01-8-8z"/><path fill="url(#c)" d="M5 13.5A3.5 3.5 0 018.5 10H35a8 8 0 018 8v16.5a3.5 3.5 0 01-3.5 3.5H13a8 8 0 01-8-8z"/><path fill="url(#d)" d="M33 16a2 2 0 012 2v2H13v-2a2 2 0 012-2z"/><path fill="#FEF4DD" d="M26 17a1 1 0 110 2 1 1 0 010-2m3 0a1 1 0 110 2 1 1 0 010-2m3 0a1 1 0 110 2 1 1 0 010-2"/><path fill="url(#e)" d="M35 30a2 2 0 01-2 2H19v-6a2 2 0 00-2-2h-4v-5h22z"/><path fill="url(#f)" d="M18 25.83V45h-7V25.83a.83.83 0 01.83-.83h5.34a.83.83 0 01.83.83"/><path fill="#000" fill-opacity=".5" d="M14.5 31.25V45h-1l-6-1V31.747a.83.83 0 01.673-.814L13 30h.25c.69 0 1.25.56 1.25 1.25" opacity=".5"/><path fill="url(#g)" d="M14 30.833V45H7V30.83a.83.83 0 01.83-.83h5.337c.46 0 .833.373.833.833"/><path fill="url(#h)" d="M3 35.83V45h7v-9.167A.833.833 0 009.167 35H3.83a.83.83 0 00-.83.83"/><defs><linearGradient id="a" x1="16.917" x2="19.97" y1="9" y2="39.528" gradientUnits="userSpaceOnUse"><stop stop-color="#BBB"/><stop offset="1" stop-color="#888"/></linearGradient><linearGradient id="b" x1="15.556" x2="18.184" y1="10" y2="38.536" gradientUnits="userSpaceOnUse"><stop stop-color="#fff"/><stop offset="1" stop-color="#EBEBEB"/></linearGradient><linearGradient id="d" x1="24" x2="24.366" y1="16" y2="20.029" gradientUnits="userSpaceOnUse"><stop stop-color="#F2C661"/><stop offset="1" stop-color="#EAA300"/></linearGradient><linearGradient id="e" x1="26" x2="27.044" y1="19" y2="32.007" gradientUnits="userSpaceOnUse"><stop stop-color="#F9E2AE"/><stop offset="1" stop-color="#F2C661"/></linearGradient><linearGradient id="f" x1="9.833" x2="18.35" y1="25" y2="43.956" gradientUnits="userSpaceOnUse"><stop stop-color="#E6AD10"/><stop offset="1" stop-color="#C87E0E"/></linearGradient><linearGradient id="g" x1="6.999" x2="14.181" y1="30" y2="44.624" gradientUnits="userSpaceOnUse"><stop stop-color="#F6D751"/><stop offset="1" stop-color="#E6AD10"/></linearGradient><linearGradient id="h" x1="2.999" x2="6.946" y1="35" y2="44.821" gradientUnits="userSpaceOnUse"><stop stop-color="#F9E589"/><stop offset="1" stop-color="#F6D751"/></linearGradient><radialGradient id="c" cx="0" cy="0" r="1" gradientTransform="matrix(20.0556 22.1667 -30.0833 8.3125 17.139 17.292)" gradientUnits="userSpaceOnUse"><stop offset=".177" stop-color="#fff"/><stop offset="1" stop-color="#EFEFEF"/></radialGradient></defs></svg>