<svg xmlns="http://www.w3.org/2000/svg" fill="none" viewBox="0 0 48 48"><path fill="url(#a)" d="M4 13.5A4.5 4.5 0 0 1 8.5 9H35a9 9 0 0 1 9 9v16.5a4.5 4.5 0 0 1-4.5 4.5H13a9 9 0 0 1-9-9V13.5z"/><path fill="url(#b)" d="M5 13.5A3.5 3.5 0 0 1 8.5 10H35a8 8 0 0 1 8 8v16.5a3.5 3.5 0 0 1-3.5 3.5H13a8 8 0 0 1-8-8V13.5z"/><path fill="url(#c)" d="M5 13.5A3.5 3.5 0 0 1 8.5 10H35a8 8 0 0 1 8 8v16.5a3.5 3.5 0 0 1-3.5 3.5H13a8 8 0 0 1-8-8V13.5z"/><path fill="url(#d)" d="m18.076 24.534 4.776-5.672a1.5 1.5 0 0 1 2.295 0l4.776 5.672c.821.975.128 2.466-1.148 2.466h-9.551c-1.276 0-1.97-1.49-1.148-2.466z"/><path fill="url(#e)" d="M19.839 20.175a.75.75 0 0 1-.615.864c-2.4.406-4.399 1.102-5.776 1.952-1.405.866-1.999 1.78-1.999 2.586 0 .807.594 1.72 1.999 2.587 1.377.85 3.377 1.545 5.776 1.951a.75.75 0 0 1-.25 1.48c-2.52-.427-4.721-1.172-6.314-2.154-1.565-.965-2.71-2.274-2.71-3.864 0-1.59 1.146-2.898 2.71-3.863 1.593-.982 3.793-1.727 6.314-2.153a.75.75 0 0 1 .865.614z"/><path fill="url(#f)" d="M28.16 20.175a.75.75 0 0 1 .864-.614c2.521.426 4.721 1.17 6.314 2.153 1.565.965 2.711 2.274 2.711 3.863 0 1.039-.496 1.964-1.262 2.737-.763.77-1.83 1.429-3.089 1.966-2.446 1.044-5.748 1.684-9.368 1.72l.08.052a.75.75 0 0 1-.822 1.255l-1.973-1.291a.85.85 0 0 1 0-1.422l1.973-1.292a.75.75 0 0 1 .9 1.196c3.399-.053 6.432-.664 8.621-1.598 1.148-.49 2.03-1.054 2.612-1.642.58-.585.828-1.152.828-1.68 0-.807-.593-1.72-1.998-2.587-1.378-.85-3.377-1.546-5.777-1.951a.75.75 0 0 1-.614-.865z"/><circle cx="29" cy="17" r="2" fill="url(#g)"/><defs><linearGradient id="a" x1="16.917" x2="19.97" y1="9" y2="39.528" gradientUnits="userSpaceOnUse"><stop stop-color="#BBB"/><stop offset="1" stop-color="#888"/></linearGradient><linearGradient id="b" x1="15.556" x2="18.184" y1="10" y2="38.536" gradientUnits="userSpaceOnUse"><stop stop-color="#fff"/><stop offset="1" stop-color="#EBEBEB"/></linearGradient><radialGradient id="c" cx="0" cy="0" r="1" gradientTransform="matrix(20.0556 22.1667 -30.0833 8.3125 17.139 17.292)" gradientUnits="userSpaceOnUse"><stop offset=".177" stop-color="#fff"/><stop offset="1" stop-color="#EFEFEF"/></radialGradient><linearGradient id="d" x1="16.974" x2="19.742" y1="15.425" y2="34.297" gradientUnits="userSpaceOnUse"><stop offset="0" stop-color="#597493"/><stop offset="1" stop-color="#0F2F56"/></linearGradient><linearGradient id="e" x1="16.974" x2="19.742" y1="15.425" y2="34.297" gradientUnits="userSpaceOnUse"><stop offset="0" stop-color="#597493"/><stop offset="1" stop-color="#0F2F56"/></linearGradient><linearGradient id="f" x1="16.974" x2="19.742" y1="15.425" y2="34.297" gradientUnits="userSpaceOnUse"><stop offset="0" stop-color="#597493"/><stop offset="1" stop-color="#0F2F56"/></linearGradient><linearGradient id="g" x1="27" x2="31.345" y1="12.5" y2="20.82" gradientUnits="userSpaceOnUse"><stop offset="0" stop-color="#597493"/><stop offset="1" stop-color="#0F2F56"/></linearGradient></defs></svg>