<svg xmlns="http://www.w3.org/2000/svg" fill="none" viewBox="0 0 48 48"><path fill="url(#a)" d="M6 10.5A4.5 4.5 0 0 1 10.5 6H33a9 9 0 0 1 9 9v22.5a4.5 4.5 0 0 1-4.5 4.5H15a9 9 0 0 1-9-9V10.5z"/><path fill="url(#b)" d="M7 10.5A3.5 3.5 0 0 1 10.5 7H33a8 8 0 0 1 8 8v22.5a3.5 3.5 0 0 1-3.5 3.5H15a8 8 0 0 1-8-8V10.5z"/><path fill="url(#c)" d="M7 10.5A3.5 3.5 0 0 1 10.5 7H33a8 8 0 0 1 8 8v22.5a3.5 3.5 0 0 1-3.5 3.5H15a8 8 0 0 1-8-8V10.5z"/><path fill="url(#d)" d="m22.585 22.843-6.742 6.743c-1.26 1.26-.368 3.414 1.414 3.414h13.486c1.782 0 2.674-2.155 1.414-3.415l-6.744-6.742a2 2 0 0 0-2.828 0z"/><circle cx="30.5" cy="17.5" r="2.5" fill="url(#e)"/><defs><linearGradient id="a" x1="17.625" x2="22.472" y1="6" y2="42.354" gradientUnits="userSpaceOnUse"><stop stop-color="#BBB"/><stop offset="1" stop-color="#888"/></linearGradient><linearGradient id="b" x1="16.444" x2="20.745" y1="7" y2="41.407" gradientUnits="userSpaceOnUse"><stop stop-color="#fff"/><stop offset="1" stop-color="#EBEBEB"/></linearGradient><radialGradient id="c" cx="0" cy="0" r="1" gradientTransform="matrix(17.9444 26.9167 -26.9167 10.0937 17.861 15.854)" gradientUnits="userSpaceOnUse"><stop offset=".177" stop-color="#fff"/><stop offset="1" stop-color="#EFEFEF"/></radialGradient><linearGradient id="d" x1="15.101" x2="23.54" y1="18.255" y2="41.429" gradientUnits="userSpaceOnUse"><stop offset="0" stop-color="#597493"/><stop offset="1" stop-color="#0F2F56"/></linearGradient><linearGradient id="e" x1="28" x2="33.432" y1="11.875" y2="22.274" gradientUnits="userSpaceOnUse"><stop offset="0" stop-color="#597493"/><stop offset="1" stop-color="#0F2F56"/></linearGradient></defs></svg>