<svg xmlns="http://www.w3.org/2000/svg" fill="none" viewBox="0 0 48 48"><path fill="url(#a)" d="M6 10.5A4.5 4.5 0 0110.5 6H33a9 9 0 019 9v22.5a4.5 4.5 0 01-4.5 4.5H15a9 9 0 01-9-9z"/><path fill="url(#b)" d="M7 10.5A3.5 3.5 0 0110.5 7H33a8 8 0 018 8v22.5a3.5 3.5 0 01-3.5 3.5H15a8 8 0 01-8-8z"/><path fill="url(#c)" d="M7 10.5A3.5 3.5 0 0110.5 7H33a8 8 0 018 8v22.5a3.5 3.5 0 01-3.5 3.5H15a8 8 0 01-8-8z"/><path fill="url(#d)" d="M19.882 27.118a2.205 2.205 0 01-3.118 0L13.646 24a2.205 2.205 0 010-3.118l3.118-3.118a2.205 2.205 0 013.118 0L23 20.882A2.205 2.205 0 0123 24z"/><path fill="url(#e)" d="M19.882 27.118a2.205 2.205 0 01-3.118 0L13.646 24a2.205 2.205 0 010-3.118l3.118-3.118a2.205 2.205 0 013.118 0L23 20.882A2.205 2.205 0 0123 24z"/><path fill="url(#f)" d="M13.647 24a2.205 2.205 0 003.118 0l9.354-9.354a2.205 2.205 0 013.118 0l3.119 3.118a2.205 2.205 0 010 3.118L23 30.236a2.205 2.205 0 01-3.118 0z"/><path fill="url(#g)" d="M13.647 24a2.205 2.205 0 003.118 0l9.354-9.354a2.205 2.205 0 013.118 0l3.119 3.118a2.205 2.205 0 010 3.118L23 30.236a2.205 2.205 0 01-3.118 0z"/><path fill="url(#h)" d="M16.764 27.118a2.205 2.205 0 003.118 0l6.236-6.236a2.205 2.205 0 013.118 0L32.355 24a2.205 2.205 0 010 3.118l-6.237 6.237a2.205 2.205 0 01-3.118 0z"/><path fill="url(#i)" d="M16.764 27.118a2.205 2.205 0 003.118 0l6.236-6.236a2.205 2.205 0 013.118 0L32.355 24a2.205 2.205 0 010 3.118l-6.237 6.237a2.205 2.205 0 01-3.118 0z"/><defs><linearGradient id="a" x1="17.625" x2="22.472" y1="6" y2="42.354" gradientUnits="userSpaceOnUse"><stop stop-color="#BBB"/><stop offset="1" stop-color="#888"/></linearGradient><linearGradient id="b" x1="16.444" x2="20.745" y1="7" y2="41.407" gradientUnits="userSpaceOnUse"><stop stop-color="#fff"/><stop offset="1" stop-color="#EBEBEB"/></linearGradient><linearGradient id="d" x1="18.323" x2="14.798" y1="17.118" y2="24.648" gradientUnits="userSpaceOnUse"><stop stop-color="#8752E0"/><stop offset="1" stop-color="#541278"/></linearGradient><linearGradient id="e" x1="19.984" x2="17.117" y1="23.225" y2="20.411" gradientUnits="userSpaceOnUse"><stop offset=".122" stop-color="#3D0D59"/><stop offset="1" stop-color="#7034B0" stop-opacity="0"/></linearGradient><linearGradient id="f" x1="28.309" x2="21.215" y1="14" y2="31.017" gradientUnits="userSpaceOnUse"><stop stop-color="#DB45E0"/><stop offset="1" stop-color="#6C0F71"/></linearGradient><linearGradient id="g" x1="28.309" x2="21.215" y1="14" y2="31.017" gradientUnits="userSpaceOnUse"><stop stop-color="#DB45E0"/><stop offset=".677" stop-color="#A829AE"/><stop offset="1" stop-color="#8F28B3"/></linearGradient><linearGradient id="h" x1="28" x2="24.667" y1="20.25" y2="34" gradientUnits="userSpaceOnUse"><stop stop-color="#3DCBFF"/><stop offset="1" stop-color="#00479E"/></linearGradient><linearGradient id="i" x1="28.181" x2="21.77" y1="20.606" y2="33.114" gradientUnits="userSpaceOnUse"><stop stop-color="#3DCBFF"/><stop offset="1" stop-color="#4A40D4"/></linearGradient><radialGradient id="c" cx="0" cy="0" r="1" gradientTransform="matrix(17.9444 26.9167 -26.9167 10.0937 17.861 15.854)" gradientUnits="userSpaceOnUse"><stop offset=".177" stop-color="#fff"/><stop offset="1" stop-color="#EFEFEF"/></radialGradient></defs></svg>