<svg xmlns="http://www.w3.org/2000/svg" fill="none" viewBox="0 0 48 48"><path fill="url(#a)" d="M38.807 38.807A4.5 4.5 0 0134.5 42H18c-6.627 0-12-5.373-12-12V13.5a4.5 4.5 0 013.193-4.307A4.5 4.5 0 0113.5 6H33a9 9 0 019 9v19.5a4.5 4.5 0 01-3.193 4.307"/><path fill="url(#b)" d="M13.5 7a3.5 3.5 0 00-3.5 3.5V30a8 8 0 008 8h19.5a3.5 3.5 0 003.5-3.5V15a8 8 0 00-8-8z"/><path fill="url(#c)" d="M13.5 7a3.5 3.5 0 00-3.5 3.5V30a8 8 0 008 8h19.5a3.5 3.5 0 003.5-3.5V15a8 8 0 00-8-8z"/><path fill="url(#d)" d="m9 10.5.003-.165A3.5 3.5 0 007 13.5V30c0 6.075 4.925 11 11 11h16.5a3.5 3.5 0 003.165-2.003L37.5 39H18a9 9 0 01-9-9z"/><path fill="url(#e)" d="m9 10.5.003-.165A3.5 3.5 0 007 13.5V30c0 6.075 4.925 11 11 11h16.5a3.5 3.5 0 003.165-2.003L37.5 39H18a9 9 0 01-9-9z"/><path fill="url(#f)" d="M21.538 25.462a2.094 2.094 0 01-2.962 0L15.613 22.5a2.095 2.095 0 010-2.962l2.963-2.963a2.094 2.094 0 012.962 0l2.962 2.963a2.095 2.095 0 010 2.962z"/><path fill="url(#g)" d="M21.538 25.462a2.094 2.094 0 01-2.962 0L15.613 22.5a2.095 2.095 0 010-2.962l2.963-2.963a2.094 2.094 0 012.962 0l2.962 2.963a2.095 2.095 0 010 2.962z"/><path fill="url(#h)" d="M15.615 22.5a2.095 2.095 0 002.963 0l8.886-8.886a2.095 2.095 0 012.963 0l2.962 2.962a2.095 2.095 0 010 2.962l-8.887 8.887a2.095 2.095 0 01-2.962 0z"/><path fill="url(#i)" d="M15.615 22.5a2.095 2.095 0 002.963 0l8.886-8.886a2.095 2.095 0 012.963 0l2.962 2.962a2.095 2.095 0 010 2.962l-8.887 8.887a2.095 2.095 0 01-2.962 0z"/><path fill="url(#j)" d="M18.574 25.462a2.095 2.095 0 002.962 0l5.925-5.925a2.095 2.095 0 012.962 0l2.963 2.963a2.095 2.095 0 010 2.962l-5.925 5.924a2.095 2.095 0 01-2.962 0z"/><path fill="url(#k)" d="M18.574 25.462a2.095 2.095 0 002.962 0l5.925-5.925a2.095 2.095 0 012.962 0l2.963 2.963a2.095 2.095 0 010 2.962l-5.925 5.924a2.095 2.095 0 01-2.962 0z"/><defs><linearGradient id="a" x1="17.625" x2="22.472" y1="6" y2="42.354" gradientUnits="userSpaceOnUse"><stop stop-color="#BBB"/><stop offset="1" stop-color="#888"/></linearGradient><linearGradient id="b" x1="16.444" x2="20.745" y1="7" y2="41.407" gradientUnits="userSpaceOnUse"><stop stop-color="#fff"/><stop offset="1" stop-color="#EBEBEB"/></linearGradient><linearGradient id="d" x1="16.444" x2="20.745" y1="7" y2="41.407" gradientUnits="userSpaceOnUse"><stop stop-color="#fff"/><stop offset="1" stop-color="#EBEBEB"/></linearGradient><linearGradient id="f" x1="20.057" x2="16.708" y1="15.962" y2="23.115" gradientUnits="userSpaceOnUse"><stop stop-color="#8752E0"/><stop offset="1" stop-color="#541278"/></linearGradient><linearGradient id="g" x1="21.635" x2="18.911" y1="21.763" y2="19.09" gradientUnits="userSpaceOnUse"><stop offset=".122" stop-color="#3D0D59"/><stop offset="1" stop-color="#7034B0" stop-opacity="0"/></linearGradient><linearGradient id="h" x1="29.545" x2="22.806" y1="13" y2="29.166" gradientUnits="userSpaceOnUse"><stop stop-color="#DB45E0"/><stop offset="1" stop-color="#6C0F71"/></linearGradient><linearGradient id="i" x1="29.545" x2="22.806" y1="13" y2="29.166" gradientUnits="userSpaceOnUse"><stop stop-color="#DB45E0"/><stop offset=".677" stop-color="#A829AE"/><stop offset="1" stop-color="#8F28B3"/></linearGradient><linearGradient id="j" x1="29.249" x2="26.083" y1="18.937" y2="31.999" gradientUnits="userSpaceOnUse"><stop stop-color="#3DCBFF"/><stop offset="1" stop-color="#00479E"/></linearGradient><linearGradient id="k" x1="29.42" x2="23.33" y1="19.275" y2="31.158" gradientUnits="userSpaceOnUse"><stop stop-color="#3DCBFF"/><stop offset="1" stop-color="#4A40D4"/></linearGradient><radialGradient id="c" cx="0" cy="0" r="1" gradientTransform="matrix(17.9444 26.9168 -26.9167 10.0938 17.861 15.854)" gradientUnits="userSpaceOnUse"><stop offset=".177" stop-color="#fff"/><stop offset="1" stop-color="#EFEFEF"/></radialGradient><radialGradient id="e" cx="0" cy="0" r="1" gradientTransform="matrix(17.9444 26.9168 -26.9167 10.0938 17.861 15.854)" gradientUnits="userSpaceOnUse"><stop offset=".177" stop-color="#fff"/><stop offset="1" stop-color="#EFEFEF"/></radialGradient></defs></svg>