<svg xmlns="http://www.w3.org/2000/svg" fill="none" viewBox="0 0 48 48"><path fill="url(#a)" d="M9 8.5A4.5 4.5 0 0 1 13.5 4H30a9 9 0 0 1 9 9v26.5a4.5 4.5 0 0 1-4.5 4.5H18a9 9 0 0 1-9-9V8.5z"/><path fill="url(#b)" d="M10 8.5A3.5 3.5 0 0 1 13.5 5H30a8 8 0 0 1 8 8v26.5a3.5 3.5 0 0 1-3.5 3.5H18a8 8 0 0 1-8-8V8.5z"/><path fill="url(#c)" d="M10 8.5A3.5 3.5 0 0 1 13.5 5H30a8 8 0 0 1 8 8v26.5a3.5 3.5 0 0 1-3.5 3.5H18a8 8 0 0 1-8-8V8.5z"/><path fill="#038387" d="M31.086 16c.505 0 .914.41.914.914v14.172c0 .505-.41.914-.914.914h-6.172a.914.914 0 0 1-.914-.914V16.914c0-.505.41-.914.914-.914h6.172z"/><path fill="#000" d="M31 16h-1v16h1V16z" opacity=".2"/><path fill="#038387" d="M30 32.992c0 .552-.41 1.008-.904 1.008H24v-4.5a5.5 5.5 0 0 0-.208-1.5H30v4.992z"/><path fill="#37C6D0" d="M29.106 14H16.905c-.496 0-.905.422-.905.933V24h14v-9.067c0-.51-.398-.933-.905-.933h.011z"/><path fill="#1A9BA1" d="M30 24v5h-6.023a5.5 5.5 0 0 0-5.477-5H30z"/><rect width="20" height="20" x="3" y="25" fill="#038387" rx="4.5"/><path fill="#fff" d="M11.636 37.092V41H8.94V29h4.167c1.492 0 2.627.326 3.406.98.785.652 1.178 1.62 1.178 2.903 0 1.322-.44 2.354-1.32 3.096-.873.742-2.048 1.113-3.523 1.113h-1.21zm0-6.017v3.942h1.128c.668 0 1.182-.176 1.544-.528.362-.35.543-.856.543-1.514 0-.608-.178-1.077-.534-1.406-.351-.33-.855-.494-1.512-.494h-1.169z"/><defs><linearGradient id="a" x1="18.688" x2="25.772" y1="4" y2="43.852" gradientUnits="userSpaceOnUse"><stop stop-color="#BBB"/><stop offset="1" stop-color="#888"/></linearGradient><linearGradient id="b" x1="17.778" x2="24.218" y1="5" y2="42.963" gradientUnits="userSpaceOnUse"><stop stop-color="#fff"/><stop offset="1" stop-color="#EBEBEB"/></linearGradient><radialGradient id="c" cx="0" cy="0" r="1" gradientTransform="matrix(14.7778 30.0833 -22.1667 11.2812 18.944 14.896)" gradientUnits="userSpaceOnUse"><stop offset=".177" stop-color="#fff"/><stop offset="1" stop-color="#EFEFEF"/></radialGradient></defs></svg>