<svg xmlns="http://www.w3.org/2000/svg" fill="none" viewBox="0 0 48 48"><path fill="url(#a)" d="M4 13.5A4.5 4.5 0 0 1 8.5 9H35a9 9 0 0 1 9 9v16.5a4.5 4.5 0 0 1-4.5 4.5H13a9 9 0 0 1-9-9V13.5z"/><path fill="url(#b)" d="M5 13.5A3.5 3.5 0 0 1 8.5 10H35a8 8 0 0 1 8 8v16.5a3.5 3.5 0 0 1-3.5 3.5H13a8 8 0 0 1-8-8V13.5z"/><path fill="url(#c)" d="M5 13.5A3.5 3.5 0 0 1 8.5 10H35a8 8 0 0 1 8 8v16.5a3.5 3.5 0 0 1-3.5 3.5H13a8 8 0 0 1-8-8V13.5z"/><path fill="#FEE200" d="m15 19.5 4.5-4.5h12.785c.396 0 .715.319.715.715V19.5l-9 2.063-9-2.063z"/><path fill="url(#d)" d="M20.571 23.866 15 26.17V19.5h4.5l1.071 4.366z"/><path fill="url(#e)" d="M33 24.054V19.5H19.5v4.607l6.134 1.098L33 24.054z"/><path fill="url(#f)" d="M33 28.5V24H18.509v4.527l8.92.83 5.57-.857z"/><path fill="url(#g)" d="M19.5 28.5 15 30v-6h4.5v4.5z"/><path fill="url(#h)" d="m19.5 28.5-.696 2.143L19.5 33h9l4.5-4.5H19.5z"/><path fill="url(#i)" d="M19.5 33h-3.654a.845.845 0 0 1-.846-.846V28.5h4.5V33z"/><defs><linearGradient id="a" x1="16.917" x2="19.97" y1="9" y2="39.528" gradientUnits="userSpaceOnUse"><stop stop-color="#BBB"/><stop offset="1" stop-color="#888"/></linearGradient><linearGradient id="b" x1="15.556" x2="18.184" y1="10" y2="38.536" gradientUnits="userSpaceOnUse"><stop stop-color="#fff"/><stop offset="1" stop-color="#EBEBEB"/></linearGradient><radialGradient id="c" cx="0" cy="0" r="1" gradientTransform="matrix(20.0556 22.1667 -30.0833 8.3125 17.139 17.292)" gradientUnits="userSpaceOnUse"><stop offset=".177" stop-color="#fff"/><stop offset="1" stop-color="#EFEFEF"/></radialGradient><linearGradient id="d" x1="17.786" x2="17.786" y1="26.17" y2="19.5" gradientUnits="userSpaceOnUse"><stop stop-color="#E25A01"/><stop offset=".61" stop-color="#E15801"/><stop offset=".878" stop-color="#E05101"/><stop offset="1" stop-color="#DE4A01"/></linearGradient><linearGradient id="e" x1="26.25" x2="26.25" y1="25.205" y2="19.5" gradientUnits="userSpaceOnUse"><stop stop-color="#F18C0A"/><stop offset=".437" stop-color="#F0880A"/><stop offset=".868" stop-color="#EC7C0A"/><stop offset="1" stop-color="#EB770A"/></linearGradient><linearGradient id="f" x1="25.754" x2="25.754" y1="29.357" y2="24" gradientUnits="userSpaceOnUse"><stop stop-color="#D83B01"/><stop offset=".472" stop-color="#D63701"/><stop offset=".937" stop-color="#CE2B01"/><stop offset="1" stop-color="#CD2901"/></linearGradient><linearGradient id="g" x1="17.25" x2="17.25" y1="30" y2="24" gradientUnits="userSpaceOnUse"><stop offset="0" stop-color="#BF3207"/><stop offset=".472" stop-color="#BB3207"/><stop offset=".937" stop-color="#AF3007"/><stop offset="1" stop-color="#AD3007"/></linearGradient><linearGradient id="h" x1="25.902" x2="25.902" y1="33" y2="28.5" gradientUnits="userSpaceOnUse"><stop stop-color="#854A81"/><stop offset=".482" stop-color="#82497E"/><stop offset=".812" stop-color="#794475"/><stop offset="1" stop-color="#703F6C"/></linearGradient><linearGradient id="i" x1="17.25" x2="17.25" y1="33" y2="28.5" gradientUnits="userSpaceOnUse"><stop stop-color="#703D6E"/><stop offset=".631" stop-color="#6C3B6A"/><stop offset="1" stop-color="#663764"/></linearGradient></defs></svg>