<svg xmlns="http://www.w3.org/2000/svg" fill="none" viewBox="0 0 48 48"><path fill="url(#a)" d="M9 8.5A4.5 4.5 0 0113.5 4H30a9 9 0 019 9v26.5a4.5 4.5 0 01-4.5 4.5H18a9 9 0 01-9-9z"/><path fill="url(#b)" d="M10 8.5A3.5 3.5 0 0113.5 5H30a8 8 0 018 8v26.5a3.5 3.5 0 01-3.5 3.5H18a8 8 0 01-8-8z"/><path fill="url(#c)" d="M10 8.5A3.5 3.5 0 0113.5 5H30a8 8 0 018 8v26.5a3.5 3.5 0 01-3.5 3.5H18a8 8 0 01-8-8z"/><rect width="20" height="20" x="3" y="25" fill="url(#d)" rx="4.5"/><rect width="20" height="20" x="3" y="25" fill="url(#e)" fill-opacity=".6" rx="4.5"/><path fill="#fff" d="m8.486 38.522 2.271-1.15q.385.753 1.002 1.11.627.356 1.37.356.826 0 1.26-.324.435-.331.435-.996 0-.518-.418-.874-.417-.365-1.478-.55-2.02-.357-2.939-1.248-.91-.89-.91-2.218 0-1.653 1.202-2.64Q11.484 29 13.455 29q1.328 0 2.338.526 1.01.527 1.603 1.506l-2.22 1.11q-.368-.55-.794-.794-.426-.25-1.069-.25-.768 0-1.168.323a1.04 1.04 0 00-.393.842q0 .445.376.786.384.331 1.536.542 1.937.357 2.889 1.296.96.93.96 2.356 0 1.733-1.144 2.745T13.104 41q-1.537 0-2.772-.648-1.228-.655-1.846-1.83"/><rect width="16" height="9" x="16" y="12" fill="url(#f)" rx="2"/><path fill="#37C6D0" d="M32.06 25c0 .55-.45 1-1 1h-7.03c-.52-.81-1.21-1.5-2.03-2h9.06c.55 0 1 .45 1 1"/><path fill="#0097A8" d="M32.06 30c0 .55-.45 1-1 1h-6v-1.5c0-.17 0-.34-.02-.5h6.02c.55 0 1 .45 1 1"/><path fill="#007791" d="M32.06 35c0 .55-.45 1-1 1h-6v-2h6c.55 0 1 .45 1 1"/><defs><radialGradient id="c" cx="0" cy="0" r="1" gradientTransform="matrix(14.7778 30.0833 -22.1667 11.2812 18.944 14.896)" gradientUnits="userSpaceOnUse"><stop offset=".177" stop-color="#fff"/><stop offset="1" stop-color="#EFEFEF"/></radialGradient><radialGradient id="d" cx="0" cy="0" r="1" gradientTransform="rotate(45 -28.678 16.121)scale(28.2843)" gradientUnits="userSpaceOnUse"><stop offset=".063" stop-color="#00B6BD"/><stop offset=".89" stop-color="#00495C"/></radialGradient><radialGradient id="e" cx="0" cy="0" r="1" gradientTransform="matrix(0 14 -15.9375 0 13 37)" gradientUnits="userSpaceOnUse"><stop offset=".567" stop-color="#1E8581" stop-opacity="0"/><stop offset=".974" stop-color="#1ECBE6"/></radialGradient><linearGradient id="a" x1="18.688" x2="25.772" y1="4" y2="43.852" gradientUnits="userSpaceOnUse"><stop stop-color="#BBB"/><stop offset="1" stop-color="#888"/></linearGradient><linearGradient id="b" x1="17.778" x2="24.218" y1="5" y2="42.963" gradientUnits="userSpaceOnUse"><stop stop-color="#fff"/><stop offset="1" stop-color="#EBEBEB"/></linearGradient><linearGradient id="f" x1="20.444" x2="21.092" y1="12" y2="21.204" gradientUnits="userSpaceOnUse"><stop stop-color="#86F2F2"/><stop offset="1" stop-color="#37C6D0"/></linearGradient></defs></svg>