<svg xmlns="http://www.w3.org/2000/svg" fill="none" viewBox="0 0 48 48"><path fill="url(#a)" d="M4 13.5A4.5 4.5 0 0 1 8.5 9H35a9 9 0 0 1 9 9v16.5a4.5 4.5 0 0 1-4.5 4.5H13a9 9 0 0 1-9-9V13.5z"/><path fill="url(#b)" d="M5 13.5A3.5 3.5 0 0 1 8.5 10H35a8 8 0 0 1 8 8v16.5a3.5 3.5 0 0 1-3.5 3.5H13a8 8 0 0 1-8-8V13.5z"/><path fill="url(#c)" d="M5 13.5A3.5 3.5 0 0 1 8.5 10H35a8 8 0 0 1 8 8v16.5a3.5 3.5 0 0 1-3.5 3.5H13a8 8 0 0 1-8-8V13.5z"/><path fill="url(#d)" d="M31 19h2a2 2 0 0 1 2 2v8a3 3 0 0 1-3 3h-1V19z"/><path fill="url(#e)" d="M30 16a2 2 0 0 1 2 2v14h-8v-2.5a5.5 5.5 0 0 0-5.5-5.5H13v-6a2 2 0 0 1 2-2h15z"/><path fill="#028298" d="M21 23a1 1 0 0 1 1 1v1.257A5.478 5.478 0 0 0 18.5 24H16a1 1 0 0 1 1-1h4zm7.25 4.5a.75.75 0 0 1 0 1.5h-3.5a.75.75 0 0 1 0-1.5h3.5zm0-4.5a.75.75 0 0 1 0 1.5h-3.5a.75.75 0 0 1 0-1.5h3.5zm-1.249-4a.75.75 0 0 1 0 1.5h-9.333a.75.75 0 0 1 0-1.5h9.333z"/><rect width="20" height="20" x="3" y="25" fill="url(#f)" rx="4.5"/><rect width="20" height="20" x="3" y="25" fill="url(#g)" fill-opacity=".6" rx="4.5"/><path fill="#fff" d="m8.486 38.522 2.271-1.15c.257.502.59.872 1.002 1.11.418.237.874.356 1.37.356.55 0 .971-.108 1.26-.324.29-.221.435-.553.435-.996 0-.345-.14-.637-.418-.874-.278-.243-.77-.427-1.478-.55-1.347-.238-2.326-.654-2.939-1.248-.606-.594-.91-1.333-.91-2.218 0-1.102.4-1.982 1.202-2.64.802-.659 1.86-.988 3.173-.988.885 0 1.665.175 2.338.526a4 4 0 0 1 1.603 1.506l-2.22 1.11c-.246-.367-.51-.632-.794-.794-.284-.167-.64-.25-1.069-.25-.512 0-.901.107-1.168.323a1.04 1.04 0 0 0-.393.842c0 .297.125.559.376.786.256.22.768.402 1.536.542 1.291.238 2.255.67 2.889 1.296.64.62.96 1.406.96 2.356 0 1.155-.381 2.07-1.144 2.745-.762.675-1.85 1.012-3.264 1.012-1.025 0-1.949-.216-2.772-.648-.819-.437-1.434-1.047-1.846-1.83z"/><defs><linearGradient id="a" x1="16.917" x2="19.97" y1="9" y2="39.528" gradientUnits="userSpaceOnUse"><stop stop-color="#BBB"/><stop offset="1" stop-color="#888"/></linearGradient><linearGradient id="b" x1="15.556" x2="18.184" y1="10" y2="38.536" gradientUnits="userSpaceOnUse"><stop stop-color="#fff"/><stop offset="1" stop-color="#EBEBEB"/></linearGradient><radialGradient id="c" cx="0" cy="0" r="1" gradientTransform="matrix(20.0556 22.1667 -30.0833 8.3125 17.139 17.292)" gradientUnits="userSpaceOnUse"><stop offset=".177" stop-color="#fff"/><stop offset="1" stop-color="#EFEFEF"/></radialGradient><linearGradient id="d" x1="31.25" x2="37.368" y1="10.333" y2="35.794" gradientUnits="userSpaceOnUse"><stop stop-color="#00E3DF"/><stop offset=".509" stop-color="#0097A8"/><stop offset=".838" stop-color="#007791"/></linearGradient><linearGradient id="e" x1="18.278" x2="19.99" y1="16" y2="32.264" gradientUnits="userSpaceOnUse"><stop stop-color="#86F2F2"/><stop offset="1" stop-color="#37C6D0"/></linearGradient><radialGradient id="f" cx="0" cy="0" r="1" gradientTransform="rotate(45 -28.678 16.121) scale(28.2843)" gradientUnits="userSpaceOnUse"><stop offset=".063" stop-color="#00B6BD"/><stop offset=".89" stop-color="#00495C"/></radialGradient><radialGradient id="g" cx="0" cy="0" r="1" gradientTransform="matrix(0 14 -15.9375 0 13 37)" gradientUnits="userSpaceOnUse"><stop offset=".567" stop-color="#1E8581" stop-opacity="0"/><stop offset=".974" stop-color="#1ECBE6"/></radialGradient></defs></svg>