<svg xmlns="http://www.w3.org/2000/svg" fill="none" viewBox="0 0 48 48"><path fill="url(#a)" d="M4 13.5A4.5 4.5 0 0 1 8.5 9H35a9 9 0 0 1 9 9v16.5a4.5 4.5 0 0 1-4.5 4.5H13a9 9 0 0 1-9-9V13.5z"/><path fill="url(#b)" d="M5 13.5A3.5 3.5 0 0 1 8.5 10H35a8 8 0 0 1 8 8v16.5a3.5 3.5 0 0 1-3.5 3.5H13a8 8 0 0 1-8-8V13.5z"/><path fill="url(#c)" d="M5 13.5A3.5 3.5 0 0 1 8.5 10H35a8 8 0 0 1 8 8v16.5a3.5 3.5 0 0 1-3.5 3.5H13a8 8 0 0 1-8-8V13.5z"/><path fill="url(#d)" fill-rule="evenodd" d="M12.991 18.728a2.75 2.75 0 0 1 2.75-2.75h16.516a2.75 2.75 0 0 1 2.75 2.75v2.902a.754.754 0 0 1 0 .24v7.402a2.75 2.75 0 0 1-2.75 2.75H15.741a2.75 2.75 0 0 1-2.75-2.75v-2.915a.762.762 0 0 1 0-.215v-7.414zm8.51 11.794h5V27h-5v3.522zM20.002 27v3.522h-4.26c-.69 0-1.25-.56-1.25-1.25V27h5.51zm1.5-1.5h5v-3h-5v3zm-1.5-3v3h-5.51v-3h5.51zm1.5-1.5h5v-3.522h-5V21zm-1.5-3.522V21h-5.51v-2.272c0-.69.56-1.25 1.25-1.25h4.26zm8 0V21h5.506v-2.272c0-.69-.56-1.25-1.25-1.25h-4.255zm0 5.022v3h5.506v-3h-5.505zm0 4.5v3.522h4.256c.69 0 1.25-.56 1.25-1.25V27h-5.505z" clip-rule="evenodd"/><defs><linearGradient id="a" x1="16.917" x2="19.97" y1="9" y2="39.528" gradientUnits="userSpaceOnUse"><stop stop-color="#BBB"/><stop offset="1" stop-color="#888"/></linearGradient><linearGradient id="b" x1="15.556" x2="18.184" y1="10" y2="38.536" gradientUnits="userSpaceOnUse"><stop stop-color="#fff"/><stop offset="1" stop-color="#EBEBEB"/></linearGradient><radialGradient id="c" cx="0" cy="0" r="1" gradientTransform="matrix(20.0556 22.1667 -30.0833 8.3125 17.139 17.292)" gradientUnits="userSpaceOnUse"><stop offset=".177" stop-color="#fff"/><stop offset="1" stop-color="#EFEFEF"/></radialGradient><linearGradient id="d" x1="17.803" x2="24.923" y1="13.973" y2="32.168" gradientUnits="userSpaceOnUse"><stop offset="0" stop-color="#597493"/><stop offset="1" stop-color="#0F2F56"/></linearGradient></defs></svg>