<svg xmlns="http://www.w3.org/2000/svg" fill="none" viewBox="0 0 48 48"><path fill="url(#a)" d="M9 8.5A4.5 4.5 0 0 1 13.5 4H30a9 9 0 0 1 9 9v26.5a4.5 4.5 0 0 1-4.5 4.5H18a9 9 0 0 1-9-9V8.5z"/><path fill="url(#b)" d="M10 8.5A3.5 3.5 0 0 1 13.5 5H30a8 8 0 0 1 8 8v26.5a3.5 3.5 0 0 1-3.5 3.5H18a8 8 0 0 1-8-8V8.5z"/><path fill="url(#c)" d="M10 8.5A3.5 3.5 0 0 1 13.5 5H30a8 8 0 0 1 8 8v26.5a3.5 3.5 0 0 1-3.5 3.5H18a8 8 0 0 1-8-8V8.5z"/><path fill="url(#d)" fill-rule="evenodd" d="M21.523 33.69a.716.716 0 0 1-.53-.656l-.145-2.325a.75.75 0 0 0-1.082-.625l-2.086 1.037a.716.716 0 0 1-.833-.13A10.017 10.017 0 0 1 15.34 29a9.976 9.976 0 0 1-.97-2.3.716.716 0 0 1 .303-.787l1.941-1.288a.75.75 0 0 0 0-1.25l-1.94-1.288a.716.716 0 0 1-.305-.787 10.068 10.068 0 0 1 2.478-4.29.716.716 0 0 1 .833-.131l2.086 1.037a.75.75 0 0 0 1.082-.625l.146-2.325c.02-.31.228-.58.53-.657A10.02 10.02 0 0 1 24 14c.856 0 1.686.107 2.478.31.301.076.51.345.53.656l.145 2.325a.75.75 0 0 0 1.082.625l2.086-1.037a.716.716 0 0 1 .833.13A10.02 10.02 0 0 1 32.661 19c.427.74.75 1.513.97 2.3a.716.716 0 0 1-.303.787l-1.94 1.288a.75.75 0 0 0 0 1.25l1.94 1.288c.26.172.388.487.304.787a10.02 10.02 0 0 1-.971 2.3 10.02 10.02 0 0 1-1.507 1.99.716.716 0 0 1-.833.131l-2.086-1.037a.75.75 0 0 0-1.082.625l-.146 2.325a.716.716 0 0 1-.53.657A10.02 10.02 0 0 1 24 34a10.02 10.02 0 0 1-2.477-.31zM24 27a3 3 0 1 0 0-6 3 3 0 0 0 0 6z" clip-rule="evenodd"/><defs><linearGradient id="a" x1="18.688" x2="25.772" y1="4" y2="43.852" gradientUnits="userSpaceOnUse"><stop stop-color="#BBB"/><stop offset="1" stop-color="#888"/></linearGradient><linearGradient id="b" x1="17.778" x2="24.218" y1="5" y2="42.963" gradientUnits="userSpaceOnUse"><stop stop-color="#fff"/><stop offset="1" stop-color="#EBEBEB"/></linearGradient><radialGradient id="c" cx="0" cy="0" r="1" gradientTransform="matrix(14.7778 30.0833 -22.1667 11.2812 18.944 14.896)" gradientUnits="userSpaceOnUse"><stop offset=".177" stop-color="#fff"/><stop offset="1" stop-color="#EFEFEF"/></radialGradient><linearGradient id="d" x1="20.27" x2="26.188" y1="16.5" y2="33.637" gradientUnits="userSpaceOnUse"><stop offset="0" stop-color="#597493"/><stop offset="1" stop-color="#0F2F56"/></linearGradient></defs></svg>