<svg xmlns="http://www.w3.org/2000/svg" fill="none" viewBox="0 0 48 48"><rect width="40" height="30" x="4" y="9" fill="url(#a)" rx="7"/><rect width="36" height="26" x="6" y="11" fill="url(#b)" rx="5"/><rect width="36" height="26" x="6" y="11" fill="url(#c)" fill-opacity=".28" rx="5"/><path fill="url(#d)" d="M15 16a2 2 0 0 1 2-2h10a4 4 0 0 1 4 4v14a2 2 0 0 1-2 2H19a4 4 0 0 1-4-4V16z"/><path fill="url(#e)" d="M15 16a2 2 0 0 1 2-2h10a4 4 0 0 1 4 4v14a2 2 0 0 1-2 2H19a4 4 0 0 1-4-4V16z"/><rect width="2" height="26" x="40" y="11" fill="url(#f)" rx="1"/><path fill="url(#g)" d="M38 15a2 2 0 0 1 2-2v22a2 2 0 0 1-2-2V15z"/><defs><linearGradient id="a" x1="16.917" x2="19.97" y1="9" y2="39.528" gradientUnits="userSpaceOnUse"><stop stop-color="#CAD3D8"/><stop offset="1" stop-color="#9AA6AD"/></linearGradient><linearGradient id="b" x1="17.625" x2="20.175" y1="11" y2="37.477" gradientUnits="userSpaceOnUse"><stop stop-color="#626C72"/><stop offset="1" stop-color="#4D565C"/></linearGradient><linearGradient id="c" x1="24" x2="24" y1="11" y2="37" gradientUnits="userSpaceOnUse"><stop/><stop offset=".6" stop-color="#5C666C" stop-opacity="0"/><stop offset="1"/></linearGradient><linearGradient id="d" x1="19.444" x2="22.58" y1="14" y2="34.066" gradientUnits="userSpaceOnUse"><stop stop-color="#fff"/><stop offset="1" stop-color="#EBEBEB"/></linearGradient><radialGradient id="e" cx="0" cy="0" r="1" gradientTransform="matrix(8.44444 15.8333 -12.6667 5.9375 20.111 19.208)" gradientUnits="userSpaceOnUse"><stop offset=".177" stop-color="#fff"/><stop offset="1" stop-color="#EFEFEF"/></radialGradient><linearGradient id="f" x1="40.75" x2="49.981" y1="11" y2="14.409" gradientUnits="userSpaceOnUse"><stop stop-color="#EEF0F2"/><stop offset="1" stop-color="#C9CED0"/></linearGradient><linearGradient id="g" x1="39" x2="39" y1="13" y2="35" gradientUnits="userSpaceOnUse"><stop stop-color="#CAD1D6"/><stop offset="1" stop-color="#929CA2"/></linearGradient></defs></svg>