<svg xmlns="http://www.w3.org/2000/svg" fill="none" viewBox="0 0 48 48"><rect width="40" height="30" x="4" y="9" fill="url(#a)" rx="7"/><path fill="url(#b)" d="M37.257 11.007A5 5 0 0 1 42 16v16l-.007.257a5 5 0 0 1-4.736 4.736L37 37H11a5 5 0 0 1-4.993-4.743L6 32V16a5 5 0 0 1 5-5h26l.257.007zM11 12.5A3.5 3.5 0 0 0 7.5 16v16a3.5 3.5 0 0 0 3.5 3.5h26a3.5 3.5 0 0 0 3.5-3.5V16a3.5 3.5 0 0 0-3.5-3.5H11zm-.25 2.5a.75.75 0 0 1 .75.75v16.5a.75.75 0 0 1-1.5 0v-16.5a.75.75 0 0 1 .75-.75zm24.72.97a.75.75 0 1 1 1.06 1.06l-3.373 3.372A5.477 5.477 0 0 1 34.5 24a5.476 5.476 0 0 1-1.343 3.597l3.373 3.373a.75.75 0 0 1-1.06 1.06l-3.44-3.44c-.87.574-1.91.91-3.03.91a5.474 5.474 0 0 1-3.03-.91l-3.44 3.44a.75.75 0 0 1-1.06-1.06l3.372-3.373A5.476 5.476 0 0 1 23.5 24c0-1.376.506-2.633 1.342-3.598L21.47 17.03a.75.75 0 1 1 1.06-1.06l3.44 3.44A5.475 5.475 0 0 1 29 18.5c1.12 0 2.16.335 3.03.91l3.44-3.44zM29 20a4 4 0 1 0 0 8 4 4 0 0 0 0-8z"/><defs><linearGradient id="a" x1="16.917" x2="19.97" y1="9" y2="39.528" gradientUnits="userSpaceOnUse"><stop stop-color="#CAD3D8"/><stop offset="1" stop-color="#9AA6AD"/></linearGradient><linearGradient id="b" x1="17.625" x2="20.175" y1="11" y2="37.477" gradientUnits="userSpaceOnUse"><stop stop-color="#4D565C"/><stop offset="1" stop-color="#394146"/></linearGradient></defs></svg>