<svg xmlns="http://www.w3.org/2000/svg" fill="none" viewBox="0 0 48 48"><path fill="url(#a)" d="M9 8.5A4.5 4.5 0 0 1 13.5 4H30a9 9 0 0 1 9 9v26.5a4.5 4.5 0 0 1-4.5 4.5H18a9 9 0 0 1-9-9V8.5z"/><path fill="url(#b)" d="M10 8.5A3.5 3.5 0 0 1 13.5 5H30a8 8 0 0 1 8 8v26.5a3.5 3.5 0 0 1-3.5 3.5H18a8 8 0 0 1-8-8V8.5z"/><path fill="url(#c)" d="M10 8.5A3.5 3.5 0 0 1 13.5 5H30a8 8 0 0 1 8 8v26.5a3.5 3.5 0 0 1-3.5 3.5H18a8 8 0 0 1-8-8V8.5z"/><path fill="url(#d)" fill-rule="evenodd" d="M15 16.75c0-.966.784-1.75 1.75-1.75h1.5a1.75 1.75 0 0 1 1.732 1.5h8.226a2.5 2.5 0 1 1-.158 1.5h-3.676c3.678 1.971 6.23 5.58 6.822 10h.054c.967 0 1.75.784 1.75 1.75v1.5A1.75 1.75 0 0 1 31.25 33h-1.5A1.75 1.75 0 0 1 28 31.25v-1.5a1.75 1.75 0 0 1 1.681-1.749c-.775-5.174-4.559-9.04-9.681-9.935v.184A1.75 1.75 0 0 1 18.25 20h-1.5A1.75 1.75 0 0 1 15 18.25v-1.5zm1.75-.25a.25.25 0 0 0-.25.25v1.5c0 .138.112.25.25.25h1.5a.25.25 0 0 0 .25-.25v-1.5a.25.25 0 0 0-.25-.25h-1.5zM29.5 29.75a.25.25 0 0 1 .25-.25h1.5a.25.25 0 0 1 .25.25v1.5a.25.25 0 0 1-.25.25h-1.5a.25.25 0 0 1-.25-.25v-1.5zm0-12.25a1 1 0 1 0 2 0 1 1 0 0 0-2 0z" clip-rule="evenodd"/><path fill="url(#e)" fill-rule="evenodd" d="M19.35 22.832c.42-1.03 1.877-1.037 2.309-.011l3.548 8.44c.422 1.003-.55 2.028-1.575 1.66l-3.128-1.123-3.014 1.112c-1.02.377-2.001-.64-1.59-1.646l3.45-8.432zm1.15 1.149v6.301c.144 0 .288.024.425.074l2.679.961-3.094-7.36-.01.024z" clip-rule="evenodd"/><defs><linearGradient id="a" x1="18.688" x2="25.772" y1="4" y2="43.852" gradientUnits="userSpaceOnUse"><stop stop-color="#BBB"/><stop offset="1" stop-color="#888"/></linearGradient><linearGradient id="b" x1="17.778" x2="24.218" y1="5" y2="42.963" gradientUnits="userSpaceOnUse"><stop stop-color="#fff"/><stop offset="1" stop-color="#EBEBEB"/></linearGradient><radialGradient id="c" cx="0" cy="0" r="1" gradientTransform="matrix(14.7778 30.0833 -22.1667 11.2812 18.944 14.896)" gradientUnits="userSpaceOnUse"><stop offset=".177" stop-color="#fff"/><stop offset="1" stop-color="#EFEFEF"/></radialGradient><linearGradient id="d" x1="17.571" x2="25.952" y1="11.143" y2="32.652" gradientUnits="userSpaceOnUse"><stop offset="0" stop-color="#597493"/><stop offset="1" stop-color="#0F2F56"/></linearGradient><linearGradient id="e" x1="17.571" x2="25.952" y1="11.143" y2="32.652" gradientUnits="userSpaceOnUse"><stop offset="0" stop-color="#597493"/><stop offset="1" stop-color="#0F2F56"/></linearGradient></defs></svg>