<svg xmlns="http://www.w3.org/2000/svg" fill="none" viewBox="0 0 48 48"><path fill="url(#a)" d="M4 13.5A4.5 4.5 0 0 1 8.5 9H35a9 9 0 0 1 9 9v16.5a4.5 4.5 0 0 1-4.5 4.5H13a9 9 0 0 1-9-9V13.5z"/><path fill="url(#b)" d="M5 13.5A3.5 3.5 0 0 1 8.5 10H35a8 8 0 0 1 8 8v16.5a3.5 3.5 0 0 1-3.5 3.5H13a8 8 0 0 1-8-8V13.5z"/><path fill="url(#c)" d="M5 13.5A3.5 3.5 0 0 1 8.5 10H35a8 8 0 0 1 8 8v16.5a3.5 3.5 0 0 1-3.5 3.5H13a8 8 0 0 1-8-8V13.5z"/><path fill="#2B7CD3" d="M29.625 19c.759 0 1.375.616 1.375 1.375v8.25c0 .759-.616 1.375-1.375 1.375H24v-.5a5.501 5.501 0 0 0-4-5.292v-3.833c0-.759.616-1.375 1.375-1.375h8.25z"/><path fill="#41A5EE" d="M20.532 13.4a1.373 1.373 0 0 1 1.937 0l4.13 4.13a1.37 1.37 0 0 1 0 1.938l-4.13 4.13a1.37 1.37 0 0 1-1.937 0l-4.131-4.13a1.37 1.37 0 0 1 0-1.937l4.13-4.13z"/><path fill="#103F91" d="M21.5 24A5.5 5.5 0 0 1 24 34.398V29.5a5.501 5.501 0 0 0-4-5.292A5.5 5.5 0 0 1 21.5 24z"/><rect width="20" height="20" x="3" y="25" fill="#185ABD" rx="4.5"/><path fill="#fff" d="m18.628 29-4.125 12h-3.056L7.373 29h2.872l2.53 8.067c.061.19.108.354.142.494l.117.485h.05l.108-.502c.028-.14.073-.31.134-.51L15.839 29h2.789z"/><defs><linearGradient id="a" x1="16.917" x2="19.97" y1="9" y2="39.528" gradientUnits="userSpaceOnUse"><stop stop-color="#BBB"/><stop offset="1" stop-color="#888"/></linearGradient><linearGradient id="b" x1="15.556" x2="18.184" y1="10" y2="38.536" gradientUnits="userSpaceOnUse"><stop stop-color="#fff"/><stop offset="1" stop-color="#EBEBEB"/></linearGradient><radialGradient id="c" cx="0" cy="0" r="1" gradientTransform="matrix(20.0556 22.1667 -30.0833 8.3125 17.139 17.292)" gradientUnits="userSpaceOnUse"><stop offset=".177" stop-color="#fff"/><stop offset="1" stop-color="#EFEFEF"/></radialGradient></defs></svg>