<svg xmlns="http://www.w3.org/2000/svg" fill="none" viewBox="0 0 48 48"><path fill="url(#a)" d="M4 13.5A4.5 4.5 0 0 1 8.5 9H35a9 9 0 0 1 9 9v16.5a4.5 4.5 0 0 1-4.5 4.5H13a9 9 0 0 1-9-9V13.5z"/><path fill="url(#b)" d="M4 13.5A4.5 4.5 0 0 1 8.5 9H35a9 9 0 0 1 9 9v16.5a4.5 4.5 0 0 1-4.5 4.5H13a9 9 0 0 1-9-9V13.5z"/><path stroke="url(#c)" stroke-dasharray="6.5 4" stroke-linecap="round" d="M4.5 13.5a4 4 0 0 1 4-4H35a8.5 8.5 0 0 1 8.5 8.5v16.5a4 4 0 0 1-4 4H13A8.5 8.5 0 0 1 4.5 30V13.5z"/><path fill="#2B7CD3" d="M29.625 19c.759 0 1.375.616 1.375 1.375v8.25c0 .759-.616 1.375-1.375 1.375H24v-.5a5.501 5.501 0 0 0-4-5.292v-3.833c0-.759.616-1.375 1.375-1.375h8.25z"/><path fill="#41A5EE" d="M20.53 13.4a1.373 1.373 0 0 1 1.938 0l4.13 4.13a1.37 1.37 0 0 1 0 1.938l-4.13 4.13a1.37 1.37 0 0 1-1.937 0l-4.13-4.13a1.37 1.37 0 0 1 0-1.938l4.13-4.13z"/><path fill="#103F91" d="M21.5 24A5.5 5.5 0 0 1 24 34.398V29.5a5.501 5.501 0 0 0-4-5.292A5.5 5.5 0 0 1 21.5 24z"/><rect width="20" height="20" x="3" y="25" fill="#185ABD" rx="4.5"/><path fill="#fff" d="m18.628 29-4.125 12h-3.056L7.373 29h2.872l2.53 8.067c.061.19.108.354.142.494l.117.485h.05l.108-.502c.028-.14.073-.31.134-.51L15.839 29h2.789z"/><defs><linearGradient id="a" x1="15.111" x2="17.977" y1="9" y2="39.565" gradientUnits="userSpaceOnUse"><stop stop-color="#fff"/><stop offset="1" stop-color="#EBEBEB"/></linearGradient><radialGradient id="b" cx="0" cy="0" r="1" gradientTransform="matrix(21.1111 23.75 -31.6667 8.90625 16.778 16.813)" gradientUnits="userSpaceOnUse"><stop offset=".177" stop-color="#fff"/><stop offset="1" stop-color="#EFEFEF"/></radialGradient><linearGradient id="c" x1="17.094" x2="20.02" y1="9.5" y2="39.015" gradientUnits="userSpaceOnUse"><stop stop-color="#BBB"/><stop offset="1" stop-color="#888"/></linearGradient></defs></svg>