<svg xmlns="http://www.w3.org/2000/svg" fill="none" viewBox="0 0 48 48"><path fill="url(#a)" d="M4 13.5A4.5 4.5 0 0 1 8.5 9H35a9 9 0 0 1 9 9v16.5a4.5 4.5 0 0 1-4.5 4.5H13a9 9 0 0 1-9-9V13.5z"/><path fill="url(#b)" d="M5 13.5A3.5 3.5 0 0 1 8.5 10H35a8 8 0 0 1 8 8v16.5a3.5 3.5 0 0 1-3.5 3.5H13a8 8 0 0 1-8-8V13.5z"/><path fill="url(#c)" d="M5 13.5A3.5 3.5 0 0 1 8.5 10H35a8 8 0 0 1 8 8v16.5a3.5 3.5 0 0 1-3.5 3.5H13a8 8 0 0 1-8-8V13.5z"/><path fill="url(#d)" d="M33.9 15.2H14.1a1.1 1.1 0 0 0-1.1 1.1v15.4a1.1 1.1 0 0 0 1.1 1.1h19.8a1.1 1.1 0 0 0 1.1-1.1V16.3a1.1 1.1 0 0 0-1.1-1.1z"/><path fill="#fff" d="M25.958 24.176c-.209-.165-.374 0-.374 0-.77.66-1.705.792-2.442.561-.363-.12-.638-.352-.935-.66-.23-.264-1.507-1.88-2.013-2.354-.473-.45-1.155-.814-1.859-.902a3.093 3.093 0 0 0-1.969.363c-.572.33-1.023.836-1.243 1.408 0 0-.077.187.1.33.164.132.351-.022.351-.022.77-.66 1.705-.792 2.442-.56.363.12.638.351.935.66.231.263 1.507 1.88 2.013 2.353.473.451 1.155.814 1.86.902a3.093 3.093 0 0 0 1.968-.363c.572-.33 1.023-.836 1.243-1.408 0 0 .077-.187-.077-.308z"/><path fill="#1E2021" d="m27.069 23.406-.825.627c-.154.121-.418-.044-.374-.242l.22-1.012.979.627z"/><path fill="#CCC" d="M26.365 21.063s-.022.044-.022.066l-.242.99-.22.902c-.022.077 0 .165.066.198l.781.495c.055.033.143.022.21-.022l.725-.583.792-.627.044-.044-.693-1.155-1.452-.209.011-.011z"/><path fill="#333" d="m28.543 22.383 5.06-7.942c.044-.066.022-.165-.055-.242a5.62 5.62 0 0 0-.869-.67 6.01 6.01 0 0 0-.979-.507c-.099-.044-.198-.022-.242.055l-5.06 7.942s-.011.033-.022.044l2.145 1.364s.022-.022.033-.044h-.011z"/><defs><linearGradient id="a" x1="16.917" x2="19.97" y1="9" y2="39.528" gradientUnits="userSpaceOnUse"><stop stop-color="#BBB"/><stop offset="1" stop-color="#888"/></linearGradient><linearGradient id="b" x1="15.556" x2="18.184" y1="10" y2="38.536" gradientUnits="userSpaceOnUse"><stop stop-color="#fff"/><stop offset="1" stop-color="#EBEBEB"/></linearGradient><radialGradient id="c" cx="0" cy="0" r="1" gradientTransform="matrix(20.0556 22.1667 -30.0833 8.3125 17.139 17.292)" gradientUnits="userSpaceOnUse"><stop offset=".177" stop-color="#fff"/><stop offset="1" stop-color="#EFEFEF"/></radialGradient><linearGradient id="d" x1="32.624" x2="19.909" y1="38.938" y2="16.905" gradientUnits="userSpaceOnUse"><stop offset=".1" stop-color="#30E5D0"/><stop offset="1" stop-color="#0C34FB"/></linearGradient></defs></svg>