<svg xmlns="http://www.w3.org/2000/svg" fill="none" viewBox="0 0 48 48"><path fill="url(#a)" d="M4 13.5A4.5 4.5 0 0 1 8.5 9H35a9 9 0 0 1 9 9v16.5a4.5 4.5 0 0 1-4.5 4.5H13a9 9 0 0 1-9-9V13.5z"/><path fill="url(#b)" d="M5 13.5A3.5 3.5 0 0 1 8.5 10H35a8 8 0 0 1 8 8v16.5a3.5 3.5 0 0 1-3.5 3.5H13a8 8 0 0 1-8-8V13.5z"/><path fill="url(#c)" d="M5 13.5A3.5 3.5 0 0 1 8.5 10H35a8 8 0 0 1 8 8v16.5a3.5 3.5 0 0 1-3.5 3.5H13a8 8 0 0 1-8-8V13.5z"/><path fill="url(#d)" d="M32 32.333c0 .92-.747 1.667-1.667 1.667H24v-4.5a5.5 5.5 0 0 0-5.5-5.5H15v-3.056a2.5 2.5 0 0 1 2.5-2.5H32v13.889z"/><path fill="url(#e)" fill-opacity=".7" d="M32 32.333c0 .92-.747 1.667-1.667 1.667H24v-4.5a5.5 5.5 0 0 0-5.5-5.5H15v-3.056a2.5 2.5 0 0 1 2.5-2.5H32v13.889z"/><path fill="url(#f)" d="M25.667 21c-.92 0-1.667.747-1.667 1.667v3.166c0 .496-.218.939-.561 1.244A5.5 5.5 0 0 0 18.5 24H15v-.5a2.5 2.5 0 0 1 2.5-2.5h8.167z"/><path fill="url(#g)" fill-opacity=".3" d="M25.667 21c-.92 0-1.667.747-1.667 1.667v3.166c0 .496-.218.939-.561 1.244A5.5 5.5 0 0 0 18.5 24H15v-.5a2.5 2.5 0 0 1 2.5-2.5h8.167z"/><path fill="url(#h)" d="M25 21h-6.667a3.334 3.334 0 0 0-3.316 3H15v-6.667A3.333 3.333 0 0 1 18.333 14H25v7z"/><path fill="url(#i)" d="M25 21h-6.667a3.334 3.334 0 0 0-3.316 3H15v-6.667A3.333 3.333 0 0 1 18.333 14H25v7z"/><path fill="url(#j)" d="M25 21h-6.667a3.334 3.334 0 0 0-3.316 3H15v-6.667A3.333 3.333 0 0 1 18.333 14H25v7z"/><path fill="url(#k)" d="M32 15.642c0-.922-.75-1.67-1.672-1.666l-5.667.018A1.667 1.667 0 0 0 23 15.662v3.672c0 .92.746 1.667 1.667 1.667h5.666c.92 0 1.667-.746 1.667-1.667v-3.69z"/><rect width="20" height="20" x="3" y="25" fill="url(#l)" rx="4.5"/><rect width="20" height="20" x="3" y="25" fill="url(#m)" fill-opacity=".3" rx="4.5"/><path fill="#fff" d="M18.51 41h-3.232l-2.029-3.824a11.64 11.64 0 0 1-.167-.318 9.894 9.894 0 0 1-.108-.285h-.033c-.05.134-.098.243-.142.327a9.984 9.984 0 0 0-.159.31L10.536 41H7.488l3.657-6.008L7.74 29h3.19l1.803 3.414c.072.14.133.262.184.368.055.1.11.22.166.36h.034c.078-.162.14-.29.184-.385l.2-.376L15.37 29h3.04l-3.457 5.9L18.51 41z"/><defs><linearGradient id="a" x1="16.917" x2="19.97" y1="9" y2="39.528" gradientUnits="userSpaceOnUse"><stop stop-color="#BBB"/><stop offset="1" stop-color="#888"/></linearGradient><linearGradient id="b" x1="15.556" x2="18.184" y1="10" y2="38.536" gradientUnits="userSpaceOnUse"><stop stop-color="#fff"/><stop offset="1" stop-color="#EBEBEB"/></linearGradient><radialGradient id="c" cx="0" cy="0" r="1" gradientTransform="matrix(20.0556 22.1667 -30.0833 8.3125 17.139 17.292)" gradientUnits="userSpaceOnUse"><stop offset=".177" stop-color="#fff"/><stop offset="1" stop-color="#EFEFEF"/></radialGradient><radialGradient id="d" cx="0" cy="0" r="1" gradientTransform="matrix(-16.6524 -15.9877 14.0313 -11.3706 31.647 35.296)" gradientUnits="userSpaceOnUse"><stop offset=".065" stop-color="#379539"/><stop offset=".422" stop-color="#297C2D"/><stop offset=".703" stop-color="#15561C"/></radialGradient><radialGradient id="e" cx="0" cy="0" r="1" gradientTransform="matrix(-7.04053 -6.21142 5.45144 -4.80749 19.403 24.062)" gradientUnits="userSpaceOnUse"><stop stop-color="#073B10"/><stop offset=".992" stop-color="#084A13" stop-opacity="0"/></radialGradient><linearGradient id="f" x1="-13.236" x2="16.245" y1="35.047" y2="35.047" gradientUnits="userSpaceOnUse"><stop stop-color="#52D17C"/><stop offset=".329" stop-color="#4AA647"/></linearGradient><linearGradient id="g" x1="15.636" x2="15.636" y1="21" y2="40.514" gradientUnits="userSpaceOnUse"><stop stop-color="#29852F"/><stop offset=".5" stop-color="#4AA647" stop-opacity="0"/></linearGradient><linearGradient id="h" x1="15.368" x2="27.404" y1="25.965" y2="18.893" gradientUnits="userSpaceOnUse"><stop stop-color="#66D052"/><stop offset="1" stop-color="#85E972"/></linearGradient><radialGradient id="i" cx="0" cy="0" r="1" gradientTransform="matrix(-5.01046 0 0 -15.6586 24.64 20.285)" gradientUnits="userSpaceOnUse"><stop offset=".292" stop-color="#4EB43B"/><stop offset="1" stop-color="#72CC61" stop-opacity="0"/></radialGradient><linearGradient id="j" x1="19.508" x2="15" y1="20.882" y2="20.882" gradientUnits="userSpaceOnUse"><stop offset=".184" stop-color="#C0E075" stop-opacity="0"/><stop offset="1" stop-color="#D1EB95"/></linearGradient><radialGradient id="k" cx="0" cy="0" r="1" gradientTransform="matrix(-10.0213 -7.59966 8.21889 -9.26627 33.021 21.6)" gradientUnits="userSpaceOnUse"><stop offset=".44" stop-color="#79E96D"/><stop offset="1" stop-color="#D0EB76"/></radialGradient><radialGradient id="l" cx="0" cy="0" r="1" gradientTransform="rotate(45 -28.678 16.121) scale(28.2843 80.5176)" gradientUnits="userSpaceOnUse"><stop stop-color="#20A85E"/><stop offset=".944" stop-color="#09442A"/></radialGradient><radialGradient id="m" cx="0" cy="0" r="1" gradientTransform="matrix(0 14 -16.125 0 13 37)" gradientUnits="userSpaceOnUse"><stop offset=".58" stop-color="#33A662" stop-opacity="0"/><stop offset=".974" stop-color="#98F0B0"/></radialGradient></defs></svg>