<svg xmlns="http://www.w3.org/2000/svg" fill="none" viewBox="0 0 48 48"><path fill="url(#a)" d="M17.766 7.427A5.25 5.25 0 0 0 14.168 6H9.25A5.25 5.25 0 0 0 4 11.25v22.5C4 36.65 6.35 39 9.25 39h29.5c2.9 0 5.25-2.35 5.25-5.25v-18.5c0-2.9-2.35-5.25-5.25-5.25H21.392a2.25 2.25 0 0 1-1.542-.612l-2.084-1.961z"/><path fill="url(#b)" fill-opacity=".2" d="M17.766 7.427A5.25 5.25 0 0 0 14.168 6H9.25A5.25 5.25 0 0 0 4 11.25v22.5C4 36.65 6.35 39 9.25 39h29.5c2.9 0 5.25-2.35 5.25-5.25v-18.5c0-2.9-2.35-5.25-5.25-5.25H21.392a2.25 2.25 0 0 1-1.542-.612l-2.084-1.961z"/><path fill="url(#c)" d="M5 19.5A4.5 4.5 0 0 1 9.5 15H15a5 5 0 0 0 4-2 5 5 0 0 1 4-2h15.5a4.5 4.5 0 0 1 4.5 4.5v18a4.5 4.5 0 0 1-4.5 4.5h-29A4.5 4.5 0 0 1 5 33.5v-14z"/><path fill="#944600" fill-rule="evenodd" d="M20.75 21a4.75 4.75 0 1 1 0 9.5c-.577 0-8.404-.887-11.984-1.297A1.991 1.991 0 0 1 7.02 27.5h4.729a1.75 1.75 0 0 0 0-3.5H7.021a1.991 1.991 0 0 1 1.745-1.703C12.346 21.887 20.173 21 20.75 21zm0 1.5a3.25 3.25 0 1 0 0 6.5 3.25 3.25 0 0 0 0-6.5z" clip-rule="evenodd"/><path fill="#944600" d="M30.75 24.001a.75.75 0 0 1 .75.75v4a.75.75 0 0 1-1.5-.001v-4a.75.75 0 0 1 .75-.749zm6 0a.75.75 0 0 1 .75.75v4a.75.75 0 0 1-1.5-.001v-4a.75.75 0 0 1 .75-.749zm6 0c.088 0 .172.017.25.045v5.41a.744.744 0 0 1-.25.045.751.751 0 0 1-.75-.751v-4a.75.75 0 0 1 .75-.749zM27.75 22a.75.75 0 0 1 .75.751v4a.75.75 0 0 1-1.5-.001v-4a.75.75 0 0 1 .75-.75zm6 0a.75.75 0 0 1 .75.751v4a.75.75 0 0 1-1.5-.001v-4a.75.75 0 0 1 .75-.75zm6 0a.75.75 0 0 1 .75.751v4a.75.75 0 0 1-1.5-.001v-4a.75.75 0 0 1 .75-.75zm-28 3a.75.75 0 0 1 0 1.5h-5a.75.75 0 0 1 0-1.5h5z"/><defs><linearGradient id="a" x1="13.5" x2="13.5" y1="39" y2="6" gradientUnits="userSpaceOnUse"><stop stop-color="#BA7300"/><stop offset=".221" stop-color="#C77B00"/><stop offset=".716" stop-color="#D48300"/><stop offset="1" stop-color="#D48300"/></linearGradient><radialGradient id="b" cx="0" cy="0" r="1" gradientTransform="matrix(0 4.38181 -15 0 18 15.75)" gradientUnits="userSpaceOnUse"><stop/><stop offset="1" stop-opacity="0"/></radialGradient><linearGradient id="c" x1="21.308" x2="14.972" y1="39.985" y2="11.082" gradientUnits="userSpaceOnUse"><stop stop-color="#F7AB40"/><stop offset="1" stop-color="#FFDD57"/></linearGradient></defs></svg>